<?xml version="1.0" standalone="no"?>
<!DOCTYPE svg PUBLIC "-//W3C//DTD SVG 1.1//EN" "http://www.w3.org/Graphics/SVG/1.1/DTD/svg11.dtd" >
<svg xmlns="http://www.w3.org/2000/svg" xmlns:xlink="http://www.w3.org/1999/xlink" version="1.1">
<metadata>
Created by FontForge 20161003 at Mon Dec 17 11:17:08 2018
 By www-data
</metadata>
<defs>
<font id="Oxygen-Heavy" horiz-adv-x="1488" >
  <font-face 
    font-family="Oxygen Heavy"
    font-weight="900"
    font-stretch="normal"
    units-per-em="2048"
    panose-1="3 0 10 4 0 0 0 11 0 5"
    ascent="1638"
    descent="-410"
    x-height="1101"
    cap-height="1455"
    bbox="-557 -648 2712 2130"
    underline-thickness="0"
    underline-position="0"
    unicode-range="U+0020-FB02"
  />
<missing-glyph horiz-adv-x="748" 
d="M68 0v1365h544v-1365h-544zM136 68h408v1229h-408v-1229z" />
    <glyph glyph-name=".notdef" horiz-adv-x="748" 
d="M68 0v1365h544v-1365h-544zM136 68h408v1229h-408v-1229z" />
    <glyph glyph-name=".null" horiz-adv-x="0" 
 />
    <glyph glyph-name="nonmarkingreturn" horiz-adv-x="682" 
 />
    <glyph glyph-name="space" unicode=" " horiz-adv-x="323" 
 />
    <glyph glyph-name="exclam" unicode="!" horiz-adv-x="352" 
d="M178 -22q-67 0 -118 48.5t-51 117.5t51 119t118 50q65 0 115.5 -50t50.5 -119t-50.5 -117.5t-115.5 -48.5zM151 459l-101 575v398h271v-398l-112 -575h-58z" />
    <glyph glyph-name="quotedbl" unicode="&#x22;" horiz-adv-x="833" 
d="M515 915l-41 529h270l-32 -529h-197zM131 915l-43 529h272l-30 -529h-199z" />
    <glyph glyph-name="numbersign" unicode="#" horiz-adv-x="1230" 
d="M516 614h165l49 263h-165zM170 -9l80 409h-223l8 214h255l51 262h-234l6 215h265l78 365h224l-74 -365h165l76 365h231l-80 -365h209l-10 -214h-240l-54 -263h227l-10 -214h-255l-77 -409h-226l76 409h-160l-79 -409h-229z" />
    <glyph glyph-name="dollar" unicode="$" horiz-adv-x="1162" 
d="M643 260q57 19 85.5 58.5t28.5 90.5q0 73 -98 135q-5 2 -8.5 4t-7.5 4v-292zM543 927v271q-41 -12 -63.5 -42.5t-28.5 -89.5q0 -44 15 -77t38 -45q9 -3 18.5 -8t20.5 -9zM543 -224l-3 206q-228 -3 -446 121l75 262q87 -51 187 -83.5t187 -33.5v337q-61 18 -172 62
q-267 117 -267 407q0 177 121.5 287.5t317.5 125.5v142h100v-141q232 -7 422 -110l-103 -236q-197 77 -319 83v-317q13 -5 33.5 -13.5t40.5 -15.5q215 -79 297 -180t82 -277q0 -173 -121.5 -281.5t-331.5 -132.5v-212h-100z" />
    <glyph glyph-name="percent" unicode="%" horiz-adv-x="1732" 
d="M1345 -18q-176 0 -280.5 112t-104.5 280q0 96 18 166t59 124.5t114.5 82t179.5 27.5q185 0 283.5 -110t98.5 -284q0 -169 -101 -283.5t-267 -114.5zM1349 171q151 0 151 211q0 204 -171 204q-38 0 -63.5 -11t-40 -27t-22 -46.5t-9 -57t-1.5 -70.5q0 -203 156 -203z
M245 -50l971 1492l258 -1l-965 -1491h-264zM394 643q-175 0 -273.5 112.5t-98.5 286.5q0 173 102.5 287t276.5 114q185 0 288.5 -111.5t103.5 -284.5q0 -172 -109.5 -288t-289.5 -116zM399 830q83 0 124 58.5t41 156.5q0 209 -164 209q-84 0 -124 -56t-40 -155
q0 -213 163 -213z" />
    <glyph glyph-name="ampersand" unicode="&#x26;" horiz-adv-x="1408" 
d="M549 934q37 21 63 39.5t56 47t45.5 64.5t15.5 77q0 67 -36.5 100t-101.5 33q-66 0 -104.5 -33.5t-38.5 -105.5q0 -113 101 -222zM559 192q75 0 152 25.5t130 70.5l-182 202l-175 194q-8 -5 -28 -17t-28.5 -17.5t-26 -17.5t-25.5 -19.5t-22 -20t-20.5 -23t-15.5 -26
t-13.5 -30.5t-7.5 -33.5t-3 -39.5q0 -65 22.5 -114.5t61.5 -77.5t84.5 -42t96.5 -14zM554 -23q-73 0 -143 12.5t-141 44t-123.5 79t-86 124.5t-33.5 173q0 46 11 88t27.5 75t44.5 65.5t53.5 55.5t64 49t66.5 42.5t70 39.5q-39 45 -57 68.5t-47.5 68t-42.5 88.5t-13 90
q0 72 22 130.5t58.5 97t86 65t102.5 38t109 11.5t110.5 -10.5t108 -35.5t93.5 -61.5t65 -92.5t25 -124q0 -57 -20 -109t-49.5 -90.5t-73.5 -75.5t-82 -60.5t-86 -48.5l316 -351q81 89 162 234l204 -127q-96 -169 -194 -275l223 -220l-244 -54l-146 145q-205 -149 -440 -149z
M1384 35z" />
    <glyph glyph-name="quotesingle" unicode="'" horiz-adv-x="452" 
d="M134 898l-43 552h252l-32 -552h-177z" />
    <glyph glyph-name="parenleft" unicode="(" horiz-adv-x="677" 
d="M374 -279q-288 392 -288 876q0 497 289 893h289q-32 -40 -76 -128.5t-90.5 -208.5t-78.5 -271t-32 -285q0 -135 32 -284.5t78.5 -266.5t90 -201.5t74.5 -123.5h-288z" />
    <glyph glyph-name="parenright" unicode=")" horiz-adv-x="677" 
d="M16 -279q31 40 74 124t90 201t79 266t32 285q0 134 -32 285t-78.5 271t-90.5 208.5t-75 128.5h288q289 -396 289 -893q0 -485 -288 -876h-288z" />
    <glyph glyph-name="asterisk" unicode="*" horiz-adv-x="1103" 
d="M387 550l-237 126l239 288l-328 73l72 231l324 -121l-34 345h256l-33 -345l328 115l68 -232l-328 -66q5 -5 117 -140.5t122 -147.5q-8 -4 -128 -70l-104 -57l-171 298zM953 676h1h-1z" />
    <glyph glyph-name="plus" unicode="+" horiz-adv-x="1216" 
d="M487 142v394h-416v227h417v397h239v-397h418v-227h-419v-394h-239z" />
    <glyph glyph-name="comma" unicode="," horiz-adv-x="510" 
d="M34 -287q70 275 122 517h276l-6 -51q-71 -231 -167 -466h-225z" />
    <glyph glyph-name="hyphen" unicode="-" horiz-adv-x="680" 
d="M60 411v241h560v-241h-560z" />
    <glyph glyph-name="period" unicode="." horiz-adv-x="459" 
d="M234 -22q-67 0 -118.5 48.5t-51.5 117.5t51.5 119t118.5 50q65 0 115 -50t50 -119t-50 -117.5t-115 -48.5z" />
    <glyph glyph-name="slash" unicode="/" horiz-adv-x="947" 
d="M54 -169l586 1674h265l-592 -1674h-259z" />
    <glyph glyph-name="zero" unicode="0" horiz-adv-x="1332" 
d="M667 -19q-127 0 -228 42t-165.5 111.5t-106.5 166.5t-59.5 200t-17.5 219t17.5 219.5t59.5 201.5t106.5 169t165 113.5t228.5 42.5t228.5 -43t164.5 -114t106 -169.5t59 -201.5t17 -218q0 -116 -17 -219t-59 -200t-106.5 -166.5t-165 -111.5t-227.5 -42zM667 225
q56 0 99 21t69.5 61t43.5 85t25 107.5t10.5 112.5t2.5 116q0 56 -1.5 98.5t-7.5 96.5t-16.5 94t-29 80.5t-44.5 66.5t-64.5 42t-86.5 16q-56 0 -98.5 -20t-69 -59t-44 -82t-25.5 -104t-11 -109.5t-4 -112.5q0 -66 2.5 -117t10.5 -114.5t25.5 -109t44.5 -86.5t70 -62t99 -21z
" />
    <glyph glyph-name="one" unicode="1" horiz-adv-x="726" 
d="M315 1v1158q7 4 -32 -11l-236 -97v223l272 143l39 18h261v-1434h-304zM47 1051z" />
    <glyph glyph-name="two" unicode="2" horiz-adv-x="1012" 
d="M66 0l5 250l427 491q147 149 147 309q0 75 -58 124t-141 49q-90 0 -181 -36.5t-149 -82.5l-87 229q155 133 434 133q108 0 198 -25.5t158.5 -76t106.5 -132t38 -187.5q0 -71 -22.5 -143.5t-50 -124.5t-74 -112t-72.5 -87.5t-67 -69.5l-268 -283h522l-23 -225h-843z" />
    <glyph glyph-name="three" unicode="3" horiz-adv-x="1061" 
d="M477 -19q-127 0 -245.5 31.5t-196.5 96.5l82 217q53 -44 158 -72.5t203 -28.5q92 0 151 54t59 132q0 55 -17.5 93.5t-46 61t-79 36t-102.5 18t-130 5.5h-57v237h60q176 -1 267.5 37.5t91.5 139.5q0 61 -60 122t-164 61q-177 0 -335 -86l-82 220q201 110 433 110
q230 0 367 -116.5t137 -290.5q0 -107 -56.5 -187.5t-168.5 -119.5q88 -16 151 -73.5t90.5 -131.5t27.5 -157q0 -82 -28 -149.5t-77.5 -115t-117.5 -80.5t-147 -48.5t-168 -15.5z" />
    <glyph glyph-name="four" unicode="4" horiz-adv-x="1281" 
d="M397 526h336v631zM732 0v294h-651v195l550 943h431v-905h178l-13 -233h-165v-294h-330z" />
    <glyph glyph-name="five" unicode="5" horiz-adv-x="1112" 
d="M94 124l90 217q23 -18 84 -50q129 -68 237 -68q124 0 181 67t57 178q0 108 -55.5 173t-131.5 65q-49 0 -104.5 -29t-106.5 -85l-198 44l36 796h816l-15 -234h-509l-12 -288q73 29 144 29q191 0 318 -131t127 -346q0 -219 -128.5 -350t-369.5 -131q-198 0 -454 140z
M94 124v-1v1z" />
    <glyph glyph-name="six" unicode="6" horiz-adv-x="1209" 
d="M604 212q121 0 189.5 65t68.5 180q0 121 -61 184t-192 63q-247 0 -247 -255q0 -113 63 -175t179 -62zM620 -19q-165 0 -295.5 54t-208 163.5t-77.5 258.5q0 32 5 64.5t11 57.5t19.5 57t21.5 49.5t26.5 48t25 40.5t25.5 39t21 31l474 609h364l-407 -537q13 0 27 0.5
t26 0.5q231 0 366.5 -125t135.5 -332q0 -147 -74 -257t-200.5 -166t-285.5 -56z" />
    <glyph glyph-name="seven" unicode="7" horiz-adv-x="1026" 
d="M221 0l394 1202h-557l-3 232h921v-170l-430 -1264h-325z" />
    <glyph glyph-name="eight" unicode="8" horiz-adv-x="1130" 
d="M568 823q112 26 175 92t63 167q0 82 -66 134t-172 52t-172.5 -52.5t-66.5 -133.5q0 -102 65.5 -168.5t173.5 -90.5zM568 183q239 0 239 209q0 105 -66.5 173.5t-172.5 97.5q-110 -29 -175 -98t-65 -175q0 -101 61 -154t179 -53zM568 -19q-148 0 -266 45.5t-191 140
t-73 224.5q0 131 59.5 216.5t164.5 145.5q-93 56 -145.5 135t-52.5 198q0 125 70 212.5t181.5 127.5t251.5 40q83 0 157.5 -14.5t138.5 -45t110 -75t72.5 -107t26.5 -138.5q0 -210 -185 -333q101 -61 155 -147t54 -216q0 -99 -42 -178t-114.5 -128.5t-167.5 -76t-204 -26.5z
" />
    <glyph glyph-name="nine" unicode="9" horiz-adv-x="1249" 
d="M646 733q246 0 246 266q0 113 -63.5 175t-179.5 62q-122 0 -190 -63.5t-68 -178.5q0 -123 62 -192t193 -69zM238 0l387 524q-14 0 -25.5 1t-23.5 1q-228 0 -362.5 131.5t-134.5 340.5q0 147 72.5 254.5t196.5 160.5t284 53q165 0 295.5 -54.5t209 -164.5t78.5 -260
q0 -60 -14 -117.5t-43 -112t-48.5 -85t-53.5 -78.5q-7 -9 -10 -14l-423 -580h-385z" />
    <glyph glyph-name="colon" unicode=":" horiz-adv-x="437" 
d="M70 807v287h303v-287h-303zM70 6v287h303v-287h-303z" />
    <glyph glyph-name="semicolon" unicode=";" horiz-adv-x="402" 
d="M92 806v287h303v-287h-303zM87 -330l55 608h255l-123 -608h-187z" />
    <glyph glyph-name="less" unicode="&#x3c;" horiz-adv-x="1210" 
d="M1095 229l-972 442v142l971 476v-238l-657 -303l658 -283v-236z" />
    <glyph glyph-name="equal" unicode="=" horiz-adv-x="1184" 
d="M67 724v225h1053v-225h-1053zM67 343v225h1054v-225h-1054z" />
    <glyph glyph-name="greater" unicode="&#x3e;" horiz-adv-x="1210" 
d="M121 227v237l658 284l-658 301v239l973 -474v-142z" />
    <glyph glyph-name="question" unicode="?" horiz-adv-x="901" 
d="M376 -22q-67 0 -118 48.5t-51 117.5t51 119t118 50q65 0 115.5 -50t50.5 -119t-50 -117.5t-116 -48.5zM327 456q17 89 52.5 168.5t73.5 135t73.5 105t58.5 100.5t23 100q1 83 -50.5 137t-144.5 54q-67 0 -127 -15.5t-90.5 -30.5t-72.5 -42l-86 187q66 38 111 58.5t122 37
t172 16.5q52 0 106 -12.5t108.5 -40.5t96.5 -68t68.5 -100.5t26.5 -132.5q0 -62 -25 -123.5t-68.5 -121.5t-91.5 -118t-107.5 -138t-101.5 -156h-127z" />
    <glyph glyph-name="at" unicode="@" horiz-adv-x="1623" 
d="M692 256q186 0 305 503q8 30 25 100q-58 5 -91 5q-80 0 -158 -68t-125.5 -167t-47.5 -191q0 -47 7.5 -85.5t29.5 -67.5t55 -29zM895 -255q-248 0 -442.5 100.5t-304 285t-109.5 422.5q0 167 63 313.5t171.5 249.5t259 162.5t321.5 59.5q205 0 372 -87.5t263.5 -246.5
t96.5 -357q0 -116 -38 -220.5t-100.5 -178t-146 -117t-172.5 -43.5q-183 0 -176 250q-38 -110 -106.5 -170.5t-145.5 -60.5q-145 0 -223.5 84t-78.5 219q0 149 67 282t185 214.5t255 81.5q62 0 126 -12t99.5 -24t98.5 -35q-16 -74 -52.5 -221t-58 -248t-21.5 -150
q0 -21 3 -32t12 -16t15.5 -5.5t25.5 -0.5q73 0 134.5 66.5t93 158t31.5 178.5q0 156 -72 278t-198 188t-285 66q-105 0 -195.5 -27t-153.5 -71.5t-114 -103t-82 -119.5t-52 -124.5t-29 -113.5t-8 -90q0 -122 36.5 -226t100 -177.5t148.5 -125t182 -76.5t200 -25
q318 0 539 182l68 -106q-121 -109 -266.5 -170t-336.5 -61z" />
    <glyph glyph-name="A" unicode="A" horiz-adv-x="1397" 
d="M546 618h309l-153 534zM-7 0l519 1455h374l518 -1455h-345l-126 378h-462l-123 -378h-355z" />
    <glyph glyph-name="B" unicode="B" horiz-adv-x="1364" 
d="M483 872h176q120 0 179.5 46.5t59.5 130.5q0 100 -65.5 136t-215.5 36h-134v-349zM483 232h186q269 0 269 216q0 103 -61.5 152t-191.5 49h-202v-417zM147 0v1455h479q297 0 442.5 -83.5t145.5 -286.5q0 -35 -4.5 -67.5t-18 -69.5t-35 -67.5t-57.5 -57t-84 -41.5
q127 -37 195.5 -128t68.5 -227q0 -107 -42.5 -189.5t-119.5 -134t-180 -77.5t-229 -26h-561z" />
    <glyph glyph-name="C" unicode="C" horiz-adv-x="1309" 
d="M790 -20q-153 0 -280.5 49t-220.5 143t-145 238t-52 325q0 169 54 308.5t149.5 233.5t226 145.5t283.5 51.5q260 0 444 -125l-96 -247q-87 53 -164 80.5t-176 27.5q-170 0 -274 -129t-104 -354q0 -241 100.5 -361.5t275.5 -120.5q191 0 371 94l41 -256
q-180 -103 -433 -103z" />
    <glyph glyph-name="D" unicode="D" horiz-adv-x="1522" 
d="M149 0v1455h434q400 0 624 -181.5t224 -537.5q0 -352 -219.5 -544t-607.5 -192h-455zM486 261h148q224 0 340.5 120.5t116.5 348.5q0 243 -117.5 353t-368.5 110h-119v-932z" />
    <glyph glyph-name="E" unicode="E" horiz-adv-x="1158" 
d="M147 0v1455h915l-13 -256h-566v-307h537v-257h-537v-377h588l-11 -258h-913z" />
    <glyph glyph-name="F" unicode="F" horiz-adv-x="1145" 
d="M147 0v1455h898l-12 -256h-553v-347h524v-257h-523v-595h-334z" />
    <glyph glyph-name="G" unicode="G" horiz-adv-x="1470" 
d="M808 -20q-335 0 -525.5 197t-190.5 555q0 338 202.5 540t557.5 202q276 0 465 -115l-102 -241q-181 92 -356 92q-192 0 -307.5 -126t-116.5 -357q0 -223 95.5 -352.5t275.5 -129.5q124 0 212 32v286h-279l-2 253h597v-727q-144 -54 -266.5 -81.5t-259.5 -27.5z" />
    <glyph glyph-name="H" unicode="H" horiz-adv-x="1541" 
d="M147 0v1455h336v-575h574v575h337v-1455h-337v626h-574v-626h-336z" />
    <glyph glyph-name="I" unicode="I" horiz-adv-x="643" 
d="M153 0v1455h337v-1455h-337z" />
    <glyph glyph-name="J" unicode="J" horiz-adv-x="689" 
d="M-109 -392l-5 260q81 -13 126 -13q103 0 145 53.5t42 185.5v1357h335v-1366q0 -253 -123.5 -371.5t-384.5 -118.5q-67 0 -135 13z" />
    <glyph glyph-name="K" unicode="K" horiz-adv-x="1414" 
d="M147 0v1455h336v-616q191 252 488 616h389l-522 -653l551 -802h-390l-418 624l-98 -77v-547h-336z" />
    <glyph glyph-name="L" unicode="L" horiz-adv-x="1105" 
d="M147 0v1455h336v-1197h587l-8 -258h-915z" />
    <glyph glyph-name="M" unicode="M" horiz-adv-x="1857" 
d="M146 0v1455h384l395 -978l404 978h382v-1455h-306v613l9 456l-37 -116l-322 -847h-274l-309 852l-37 116l10 -464v-610h-299z" />
    <glyph glyph-name="N" unicode="N" horiz-adv-x="1580" 
d="M147 0v1455h351q116 -180 250.5 -396.5t250.5 -396.5q18 -27 63.5 -98t73.5 -114l-7 346v659h304v-1455h-356l-589 940l-47 86l9 -368v-658h-303z" />
    <glyph glyph-name="O" unicode="O" horiz-adv-x="1626" 
d="M813 -20q-161 0 -294 49.5t-228 143.5t-147.5 236t-52.5 320q0 238 91 407t253 253.5t379 84.5q332 0 526.5 -195t194.5 -551t-196 -552t-526 -196zM814 247q185 0 279.5 123t94.5 354t-94 359t-279 128q-186 0 -280 -128.5t-94 -358.5t94 -353.5t279 -123.5z" />
    <glyph glyph-name="P" unicode="P" horiz-adv-x="1303" 
d="M627 734q304 0 304 240q0 117 -72.5 182t-211.5 65h-165v-485zM154 0v1451h493q287 0 444 -115t157 -349q0 -80 -16.5 -148t-56.5 -130t-103 -105t-161 -68.5t-224 -25.5q-150 0 -205 4v-514h-328z" />
    <glyph glyph-name="Q" unicode="Q" horiz-adv-x="1626" 
d="M814 247q185 0 279.5 123t94.5 354t-94 359t-279 128q-186 0 -280 -128.5t-94 -358.5t94 -353.5t279 -123.5zM1242 -483q-188 129 -380 464q-8 0 -24.5 -0.5t-24.5 -0.5q-161 0 -294 49.5t-228 143.5t-147.5 236t-52.5 320q0 238 91 407t253 253.5t379 84.5
q332 0 526.5 -195t194.5 -551q0 -249 -98.5 -421.5t-275.5 -255.5q36 -58 60 -94t60 -84.5t78.5 -93t94.5 -90.5z" />
    <glyph glyph-name="R" unicode="R" horiz-adv-x="1430" 
d="M735 816q133 0 196 49.5t63 162.5q0 191 -258 191h-253v-404zM153 0v1451h590q107 0 188.5 -11t152.5 -39t116.5 -75t71 -120t25.5 -172q0 -150 -64 -243.5t-189 -143.5q23 -25 40 -47.5t33 -49.5t24 -41.5t26 -51t26 -51.5l202 -406h-360l-149 329q-15 30 -46.5 92.5
t-56 111t-26.5 52.5q-15 5 -73 5l-201 -2v-588h-330z" />
    <glyph glyph-name="S" unicode="S" horiz-adv-x="1163" 
d="M528 -18q-221 0 -434 121l75 262q86 -51 186.5 -83.5t184.5 -32.5q107 0 162 44t55 116q0 98 -147 152q-102 32 -239 86q-267 117 -267 407q0 191 139 303t359 112q134 0 242.5 -25.5t220.5 -85.5l-103 -236q-210 83 -339 83q-81 0 -123 -30t-49 -109q0 -44 15 -77
t38 -45q24 -9 83 -34.5t130 -50.5q215 -79 297 -180t82 -277q0 -197 -154 -308.5t-414 -111.5z" />
    <glyph glyph-name="T" unicode="T" horiz-adv-x="1188" 
d="M427 0v1196h-409v259h1152v-259h-406v-1196h-337z" />
    <glyph glyph-name="U" unicode="U" 
d="M742 -20q-291 0 -448.5 143.5t-157.5 407.5v924h337v-884q0 -172 60.5 -248t211.5 -76q149 0 210.5 76.5t61.5 248.5v883h336v-926q0 -261 -160 -405t-451 -144z" />
    <glyph glyph-name="V" unicode="V" horiz-adv-x="1373" 
d="M525 0l-531 1455h341l298 -883l63 -228l54 199l6 27q-1 -1 -1 -2l137 420q142 437 151 467h337l-519 -1455h-336zM1043 1455z" />
    <glyph glyph-name="W" unicode="W" horiz-adv-x="2077" 
d="M382 0l-366 1455h330l230 -1050l312 1057h301l293 -1063l236 1056h330l-382 -1455h-343l-281 959l-319 -959h-341z" />
    <glyph glyph-name="X" unicode="X" horiz-adv-x="1401" 
d="M-24 0l518 736l-477 719h375l319 -514l326 514h358l-491 -729l521 -726h-390l-342 510l-347 -510h-370z" />
    <glyph glyph-name="Y" unicode="Y" horiz-adv-x="1297" 
d="M488 0v577l-512 878h365l311 -572l309 572h358l-495 -872v-583h-336z" />
    <glyph glyph-name="Z" unicode="Z" horiz-adv-x="1225" 
d="M46 0v200l752 998h-727v257h1113v-241l-726 -956h730l2 -258h-1144z" />
    <glyph glyph-name="bracketleft" unicode="[" horiz-adv-x="634" 
d="M129 -248v1771h472v-212h-166v-1346h166v-213h-472z" />
    <glyph glyph-name="backslash" unicode="\" horiz-adv-x="943" 
d="M647 -60l-631 1520h280l630 -1520h-279z" />
    <glyph glyph-name="bracketright" unicode="]" horiz-adv-x="634" 
d="M33 -248v213h165v1346h-165v212h471v-1771h-471z" />
    <glyph glyph-name="asciicircum" unicode="^" horiz-adv-x="1152" 
d="M14 522l474 919h147l507 -919h-253l-325 616l-299 -616h-251z" />
    <glyph glyph-name="underscore" unicode="_" horiz-adv-x="1201" 
d="M72 -328v202h1063v-202h-1063z" />
    <glyph glyph-name="grave" unicode="`" horiz-adv-x="428" 
d="M267 1157l-337 381h343l190 -381h-196z" />
    <glyph glyph-name="a" unicode="a" horiz-adv-x="1171" 
d="M516 200q32 0 61 6t52.5 18t38 21.5t33.5 24.5t24 18v230l-89 -7q-57 -5 -99.5 -16t-78.5 -31.5t-55 -55.5t-19 -84q0 -58 33.5 -91t98.5 -33zM415 -19q-152 0 -247 86.5t-95 251.5q0 175 102 258t318 106q41 6 121.5 14.5t109.5 12.5v32q0 89 -40.5 127t-119.5 38
q-114 0 -333 -71l-79 215q112 42 213 60.5t235 18.5q234 0 341.5 -101t107.5 -318v-711h-236l-20 50l-33 81q-76 -73 -153 -111.5t-192 -38.5z" />
    <glyph glyph-name="b" unicode="b" horiz-adv-x="1290" 
d="M674 220q41 0 79 18.5t71 57t52.5 108t19.5 160.5q0 92 -19 159t-52 103t-69 52t-78 16q-225 0 -229 -310q0 -101 16 -173t47 -113t70.5 -59.5t91.5 -18.5zM768 -19q-114 0 -206.5 51.5t-120.5 100.5l-31 -132h-284v1491l325 21v-324q0 -85 -6 -223q23 28 31 37t43 39.5
t65 45t82.5 28.5t111.5 14q204 0 321.5 -155.5t117.5 -407.5q0 -263 -124.5 -424.5t-324.5 -161.5z" />
    <glyph glyph-name="c" unicode="c" horiz-adv-x="1034" 
d="M618 -19q-260 0 -402.5 144.5t-142.5 440.5q0 143 42.5 253t118 177t173.5 100.5t214 33.5q200 0 350 -88l-73 -224q-154 75 -256 75q-117 0 -182.5 -80.5t-65.5 -250.5q0 -343 251 -343q153 0 286 95l28 -243q-80 -50 -153.5 -70t-187.5 -20z" />
    <glyph glyph-name="d" unicode="d" horiz-adv-x="1291" 
d="M626 216q224 0 229 325q0 191 -61 271t-171 80q-46 0 -84.5 -16t-72.5 -52.5t-53.5 -105t-19.5 -163.5q0 -176 67 -257.5t166 -81.5zM533 -20q-213 0 -336.5 161t-123.5 422q0 258 121.5 412.5t338.5 154.5q67 0 121.5 -13t84.5 -28t57 -41.5t34 -38t19 -34.5q2 -3 3 -5
q-14 137 -14 251v271l326 21v-1513h-283l-35 144q-1 -2 -8.5 -16.5t-11 -20t-13.5 -20.5t-18 -22.5t-23 -21t-30 -20.5t-37.5 -16.5t-47 -14.5t-56.5 -8.5t-68 -3.5z" />
    <glyph glyph-name="e" unicode="e" horiz-adv-x="1189" 
d="M403 672h415q-1 114 -53.5 176t-147.5 62q-85 0 -145.5 -56t-68.5 -182zM663 -19q-282 0 -436 152.5t-154 424.5q0 266 143 419.5t398 152.5q243 0 372 -143.5t129 -379.5q0 -20 -0.5 -62.5t-0.5 -63.5h-716q5 -132 77 -203t202 -71q183 0 344 95l43 -219
q-162 -102 -401 -102z" />
    <glyph glyph-name="f" unicode="f" horiz-adv-x="808" 
d="M197 0v893h-172l19 184l153 24v68q0 96 18 164t61.5 119.5t120 76.5t189.5 25q114 0 230 -21l-31 -239q-79 11 -125 11q-71 0 -104 -27t-33 -87v-90h253v-208h-253v-893h-326z" />
    <glyph glyph-name="g" unicode="g" horiz-adv-x="1321" 
d="M647 209q131 0 186 91t57 265v11q-7 311 -221 314q-133 0 -200.5 -76.5t-67.5 -245.5q0 -163 67.5 -261t178.5 -98zM380 -485l-15 253h86q58 0 88 0.5t77 2t70.5 5t58 9.5t51.5 15.5t38 24t30.5 33t16 43.5t6.5 56q0 69 -10 177q-24 -32 -42 -51t-51 -41t-80 -32
t-110 -10q-102 0 -193 36t-164 105t-115.5 180.5t-42.5 251.5q0 115 30 210.5t79 158t113.5 106.5t130.5 63t132 19q230 0 326 -156l30 127h282v-1024q0 -161 -34.5 -266.5t-118 -172.5t-213 -95t-328.5 -28h-128z" />
    <glyph glyph-name="h" unicode="h" horiz-adv-x="1301" 
d="M126 0v1492l325 21v-231l-7 -296q129 144 337 144q185 0 293 -103.5t108 -326.5v-700h-326v669q0 115 -36.5 170t-120.5 55q-62 0 -117.5 -31t-96.5 -82q-34 -112 -34 -290v-491h-325z" />
    <glyph glyph-name="i" unicode="i" horiz-adv-x="577" 
d="M125 1233v241h327v-241h-327zM125 0v1101h326v-1101h-326z" />
    <glyph glyph-name="j" unicode="j" horiz-adv-x="581" 
d="M165 1233v241h325v-241h-325zM-44 -377l-33 223h62q112 0 146 41t34 167v1047h325v-965q0 -89 -7 -154.5t-25.5 -126.5t-52 -101.5t-85 -71.5t-126.5 -45t-174 -14h-64z" />
    <glyph glyph-name="k" unicode="k" horiz-adv-x="1261" 
d="M125 0v1492l326 21v-593l-10 -278l45 41q53 67 116 136t148 156t121 126h379l-450 -472l477 -629h-390l-336 471l-100 -73v-398h-326z" />
    <glyph glyph-name="l" unicode="l" horiz-adv-x="767" 
d="M572 -11q-108 0 -186 21t-127.5 59.5t-78 101t-39.5 135t-11 173.5v1013l326 21v-1071q0 -119 40 -166t135 -47q50 0 127 11l7 -223q-78 -28 -193 -28z" />
    <glyph glyph-name="m" unicode="m" horiz-adv-x="1959" 
d="M125 0l1 1101h260l36 -130q1 2 15.5 17.5t19 20t21 20t26.5 22t30 20t37 19.5t43 15.5t52 13.5t59 7.5t69 3.5q121 0 200.5 -50t113.5 -115q60 77 153.5 121t206.5 44q192 0 282.5 -108.5t90.5 -321.5v-700h-326v660q0 131 -32.5 183t-111.5 52q-102 0 -167 -80
q-42 -56 -58 -142v-673h-326v668q0 116 -34 170.5t-120 54.5q-102 0 -184 -104q-31 -112 -31 -292v-497h-326z" />
    <glyph glyph-name="n" unicode="n" horiz-adv-x="1300" 
d="M126 0v1101h258l35 -128q91 77 174 117t199 40q193 0 291.5 -113.5t98.5 -315.5v-701h-326v633q0 63 -6 106.5t-23.5 81t-52 56t-86.5 18.5q-57 0 -117.5 -30.5t-94.5 -75.5q-25 -85 -25 -298v-491h-325z" />
    <glyph glyph-name="o" unicode="o" horiz-adv-x="1236" 
d="M611 -19q-253 0 -395.5 156.5t-142.5 418.5q0 272 142 423t408 151q252 0 396 -155.5t144 -419.5q0 -268 -144 -421t-408 -153zM617 219q224 0 224 337t-225 337q-111 0 -166.5 -82.5t-55.5 -254.5q0 -337 223 -337z" />
    <glyph glyph-name="p" unicode="p" horiz-adv-x="1292" 
d="M683 219q95 0 154.5 82t59.5 262q0 331 -221 331q-223 0 -227 -316q0 -359 234 -359zM126 -445v1546h278l36 -158q47 91 138 139.5t202 48.5q126 0 227 -75.5t156.5 -205t55.5 -287.5q0 -258 -123.5 -420t-335.5 -162q-196 0 -317 140q8 -109 8 -129v-422z" />
    <glyph glyph-name="q" unicode="q" horiz-adv-x="1291" 
d="M627 214q49 0 87.5 15.5t70.5 51t50 101t19 157.5q0 193 -60.5 273t-170.5 80q-47 0 -85 -15.5t-72.5 -51.5t-53.5 -104.5t-19 -164.5q0 -180 65.5 -261t168.5 -81zM838 -445v451q0 63 8 138q-5 -13 -11.5 -26t-29 -40.5t-51.5 -47t-81.5 -35.5t-115.5 -16
q-212 0 -348.5 162t-136.5 424q0 165 54 291.5t161 200t254 73.5q126 0 204.5 -49.5t108.5 -109.5l27 130h284v-1530z" />
    <glyph glyph-name="r" unicode="r" horiz-adv-x="832" 
d="M124 0v1101h274l46 -150q50 80 123 115.5t178 35.5q37 0 62 -3l-3 -262q-26 4 -85 4q-148 0 -208.5 -63.5t-60.5 -195.5v-582h-326z" />
    <glyph glyph-name="s" unicode="s" horiz-adv-x="1006" 
d="M493 -18q-256 0 -408 81l31 235q68 -37 179 -67t192 -30q66 0 104.5 26t37.5 74q0 43 -34.5 67.5t-125.5 63.5q-23 10 -35 15q-10 4 -19.5 8.5t-19.5 8.5q-79 33 -129.5 62t-92 69.5t-59.5 93t-18 123.5q0 318 428 318q225 0 388 -83l-76 -217q-160 79 -305 79
q-130 0 -130 -73q0 -41 40 -66t147 -66q15 -5 22 -8q23 -8 44 -18q140 -56 212.5 -134t72.5 -200q1 -173 -113.5 -267.5t-332.5 -94.5z" />
    <glyph glyph-name="t" unicode="t" horiz-adv-x="837" 
d="M620 -11q-76 0 -136 10.5t-105.5 30.5t-78.5 52.5t-54.5 72t-34.5 93t-18 112t-5 132.5v426h-190l11 164l211 19l101 328l193 -1v-327h252v-183h-252v-454q0 -126 34.5 -180t135.5 -54q9 0 109 6l7 -225l-56 -12q-64 -10 -124 -10z" />
    <glyph glyph-name="u" unicode="u" horiz-adv-x="1196" 
d="M597 -19q-228 0 -361.5 115t-133.5 326v679h327v-661q0 -116 36.5 -168.5t135.5 -52.5q98 0 133 52t35 169v661h325v-679q0 -209 -134.5 -325t-362.5 -116z" />
    <glyph glyph-name="v" unicode="v" horiz-adv-x="1187" 
d="M451 0l-448 1101h346q25 -70 87.5 -244t109.5 -316q6 -18 11.5 -36t10 -34t10.5 -35.5t11 -36.5t12 -42t14 -47q1 9 21 93l32 146l-1 -2l59 186q105 332 116 368h343l-413 -1101h-321zM842 1101h-1h1z" />
    <glyph glyph-name="w" unicode="w" horiz-adv-x="1785" 
d="M533 356q6 26 54 201t95 347t53 197h319q3 -10 11.5 -45.5t21.5 -85.5t29 -111.5t32.5 -124.5t32.5 -125.5t29 -113t22.5 -87.5t11.5 -49l207 742h325l-364 -1101h-313q-5 21 -36.5 143.5t-67 260t-68 263t-37.5 148.5q-6 -22 -41.5 -148.5t-73.5 -263.5t-71.5 -259.5
t-38.5 -143.5h-310l-346 1101h329zM735 1101h-1h1zM1054 1101h1h-1zM1099 0h-1h1zM665 0h1h-1z" />
    <glyph glyph-name="x" unicode="x" horiz-adv-x="1225" 
d="M15 0l383 566l-362 535h367l212 -346l222 346h359l-365 -532l380 -569h-376l-220 371l-235 -371h-365z" />
    <glyph glyph-name="y" unicode="y" horiz-adv-x="1178" 
d="M233 -440q-74 0 -159 8l-15 244q51 -7 140 -7q76 0 127.5 32.5t82.5 110.5q6 14 26 80l-447 1073h348l251 -721q54 194 130.5 409t107.5 312h350l-463 -1190q-73 -194 -187 -272.5t-292 -78.5z" />
    <glyph glyph-name="z" unicode="z" horiz-adv-x="1020" 
d="M53 0v181l532 704h-499v216h859v-211l-486 -659h503v-231h-909z" />
    <glyph glyph-name="braceleft" unicode="{" horiz-adv-x="821" 
d="M745 -291q-102 0 -170.5 5.5t-131 21.5t-98 45.5t-56 78.5t-20.5 119v325q0 106 -48 136.5t-185 30.5v260q133 -1 183 30t50 131v323q0 72 20 122t55 80.5t97 47.5t131 22.5t173 5.5v-242q-74 -1 -109 -14.5t-46 -40t-11 -83.5v-271q-1 -109 -53 -160t-177 -83
q114 -16 172 -68.5t58 -163.5v-277q0 -57 11 -83.5t46 -40t109 -14.5v-243z" />
    <glyph glyph-name="bar" unicode="|" horiz-adv-x="733" 
d="M246 -366v1876h241v-1876h-241z" />
    <glyph glyph-name="braceright" unicode="}" horiz-adv-x="819" 
d="M79 -291v243q56 1 87.5 7t49 23t22.5 40.5t5 67.5v278q0 110 61.5 167t169.5 62q-61 19 -99 37t-70 45.5t-46.5 67t-15.5 95.5v271q0 58 -10.5 84.5t-45 39.5t-108.5 14v242q73 0 124.5 -2t105 -8.5t88.5 -18.5t67 -32t50 -48.5t28.5 -68t10.5 -91.5v-333
q0 -37 4.5 -62.5t17 -43.5t28 -28.5t44.5 -16.5t60 -7.5t80 -1.5v-260q-58 0 -91 -2.5t-64.5 -11.5t-46.5 -27.5t-23.5 -48.5t-8.5 -77v-316q0 -73 -19 -122.5t-53 -80.5t-95.5 -48t-131 -22.5t-175.5 -5.5z" />
    <glyph glyph-name="asciitilde" unicode="~" horiz-adv-x="1325" 
d="M230 449l-94 173q49 89 118.5 140.5t179.5 51.5q119 0 275 -65q124 -54 209 -54q63 0 117.5 25.5t133.5 97.5l81 -161q-46 -70 -148.5 -130.5t-208.5 -60.5q-51 0 -101.5 11.5t-84.5 24.5t-99 42q-96 47 -186 47q-116 0 -192 -142z" />
    <glyph glyph-name="uni00A0" unicode="&#xa0;" horiz-adv-x="650" 
 />
    <glyph glyph-name="exclamdown" unicode="&#xa1;" horiz-adv-x="352" 
d="M174 1123q67 0 118 -48.5t51 -117.5t-51 -119t-118 -50q-65 0 -115.5 50t-50.5 119t50.5 117.5t115.5 48.5zM201 642l101 -575v-398h-271v398l112 575h58z" />
    <glyph glyph-name="cent" unicode="&#xa2;" horiz-adv-x="1068" 
d="M591 205v660q-97 -19 -150.5 -89.5t-53.5 -220.5q0 -163 52.5 -245.5t151.5 -104.5zM591 -338v314q-109 8 -198 46t-158 108t-107 181t-38 255q0 137 42.5 241t115.5 164.5t158.5 91t184.5 34.5v243h104v-247q151 -15 264 -91l-47 -210q-30 22 -92.5 46.5t-124.5 31.5
v-672q119 9 221 81l59 -211q-71 -43 -135 -65t-145 -27v-314h-104z" />
    <glyph glyph-name="sterling" unicode="&#xa3;" horiz-adv-x="1161" 
d="M77 0l-18 224q71 32 106.5 60t55 75t19.5 123v162h-184v210h184v111q0 246 118.5 378.5t348.5 132.5q229 0 405 -147l-121 -201q-55 33 -88 50.5t-82.5 32.5t-97.5 15q-90 0 -136 -50t-46 -143v-179h379v-209h-379v-143q0 -151 -106 -249l182 -1h512l-12 -252h-1040z" />
    <glyph glyph-name="currency" unicode="&#xa4;" horiz-adv-x="1170" 
d="M585 476q110 0 187.5 75t77.5 181t-78 181t-187 75t-186.5 -75.5t-77.5 -180.5q0 -106 77.5 -181t186.5 -75zM1016 227l-184 171q-113 -80 -247 -80q-142 0 -248 79l-180 -169l-107 105l184 170q-71 103 -71 229q0 124 71 229l-185 172l108 105l182 -171q111 81 246 81
q134 0 247 -83l184 173l105 -106l-184 -171q71 -103 71 -229q0 -123 -70 -229l181 -168z" />
    <glyph glyph-name="yen" unicode="&#xa5;" horiz-adv-x="1233" 
d="M460 0v283h-342v171h342v114h-342v171h242l-450 706h354l357 -585l351 585h351l-432 -706h256v-171h-354v-114h354v-171h-354v-283h-333z" />
    <glyph glyph-name="brokenbar" unicode="&#xa6;" horiz-adv-x="836" 
d="M296 785v725h240v-725h-240zM296 -365v725h240v-725h-240z" />
    <glyph glyph-name="section" unicode="&#xa7;" horiz-adv-x="1046" 
d="M622 597q65 45 65 110q0 102 -239 196q-66 -41 -66 -109q0 -86 177 -171q38 -17 63 -26zM490 -32q-197 0 -356 73v215q71 -31 169 -54.5t170 -23.5q136 0 160 62q49 82 -159 177q-66 27 -112.5 50t-94 54.5t-76 65t-46.5 78.5t-18 97q0 77 36 138.5t93 103.5
q-112 84 -112 227q0 151 113.5 226.5t297.5 73.5q181 -6 341 -63l-43 -209q-145 61 -291 61q-141 0 -141 -88q0 -41 42.5 -73t130.5 -69q76 -31 130.5 -60.5t106.5 -70t79 -93t27 -114.5q0 -154 -123 -247q112 -82 112 -217q0 -105 -59.5 -179t-156 -107.5t-220.5 -33.5z
" />
    <glyph glyph-name="dieresis" unicode="&#xa8;" horiz-adv-x="774" 
d="M493 1224v282h223v-282h-223zM52 1224v282h221v-282h-221z" />
    <glyph glyph-name="copyright" unicode="&#xa9;" horiz-adv-x="1677" 
d="M843 -20q-160 0 -305 60.5t-246.5 161t-161.5 235t-60 278.5q0 143 60 278t162 235.5t247 161.5t306 61q157 0 300 -61t245.5 -161.5t163 -235.5t60.5 -278t-61 -278t-163 -235.5t-246 -161t-301 -60.5zM843 86q171 0 321 84t241 230t91 316q0 128 -53.5 244.5
t-142.5 200.5t-208.5 133.5t-246.5 49.5q-130 0 -251 -49.5t-210 -133.5t-142.5 -201.5t-53.5 -245.5q0 -170 90.5 -315t241 -229t323.5 -84zM817 244q-195 0 -324 133t-129 338q0 131 56 240.5t158.5 175t230.5 65.5q189 0 307 -77l-43 -109q-123 65 -239 65
q-139 0 -229 -96.5t-90 -266.5q0 -159 90 -253t224 -94q120 0 238 63l48 -103q-120 -81 -298 -81z" />
    <glyph glyph-name="ordfeminine" unicode="&#xaa;" horiz-adv-x="723" 
d="M283 838q121 0 198 41v167q-145 -21 -202.5 -50t-57.5 -82q0 -33 18.5 -54.5t43.5 -21.5zM98 470v129h571v-129h-571zM265 700q-95 0 -160.5 52.5t-65.5 152.5q0 40 13.5 73.5t34 56.5t53.5 41.5t63.5 29.5t73 20.5t72 13.5t71.5 10t61 9v42q0 67 -30 95t-89 28
q-34 0 -129 -16t-144 -22l-29 132q16 3 76.5 14t90 16t76.5 10t82 5q290 0 290 -237l1 -400l-2 -118h-147l-26 89q-32 -41 -103.5 -69t-132.5 -28z" />
    <glyph glyph-name="guillemotleft" unicode="&#xab;" horiz-adv-x="1138" 
d="M839 128l-337 424l339 447l250 -65l-284 -372l280 -368zM386 128l-343 436l31 39l315 396l250 -65l-284 -372l279 -368z" />
    <glyph glyph-name="logicalnot" unicode="&#xac;" horiz-adv-x="1328" 
d="M958 239v376h-811v225h1039v-601h-228z" />
    <glyph glyph-name="uni00AD" unicode="&#xad;" horiz-adv-x="611" 
d="M54 476v240h502v-240h-502z" />
    <glyph glyph-name="registered" unicode="&#xae;" horiz-adv-x="1675" 
d="M841 -20q-160 0 -304 60.5t-246 161t-161.5 235t-59.5 278.5q0 143 60 278t161.5 235.5t246 161.5t304.5 61q157 0 299.5 -61t244 -161.5t161.5 -235.5t60 -278t-60.5 -278t-162 -235.5t-244.5 -161t-299 -60.5zM841 86q170 0 319 84t239 230t90 316t-90 315.5t-239 229
t-318 83.5q-129 0 -249.5 -49.5t-209 -133.5t-142 -201.5t-53.5 -245.5q0 -170 90 -315t240.5 -229t322.5 -84zM685 793h116q108 0 159.5 28t51.5 117q0 24 -3 42.5t-12 32t-17 23t-25.5 15.5t-29 9.5t-37 4.5t-40.5 1.5t-47 0.5h-9h-107v-274zM528 251v941h328
q300 0 300 -256q0 -112 -41 -166t-142 -85q12 -23 62.5 -112.5t100 -179.5t74.5 -142h-176q-8 15 -46 90t-73 140l-98 188h-131v-418h-158z" />
    <glyph glyph-name="macron" unicode="&#xaf;" horiz-adv-x="812" 
d="M79 1293v173h671v-173h-671z" />
    <glyph glyph-name="degree" unicode="&#xb0;" horiz-adv-x="852" 
d="M429 858q-80 0 -143 25t-100 66t-56 90t-19 102q0 114 81 192.5t237 78.5q153 0 235 -79t82 -192q0 -53 -19.5 -102.5t-56.5 -90.5t-99.5 -65.5t-141.5 -24.5zM430 991q59 0 102.5 37.5t43.5 109.5q0 68 -43.5 103.5t-102.5 35.5q-60 0 -104.5 -36t-44.5 -103
q0 -71 45 -109t104 -38z" />
    <glyph glyph-name="plusminus" unicode="&#xb1;" horiz-adv-x="1346" 
d="M222 0v199h901v-199h-901zM552 279v349h-330v225h330v336h241v-336h332v-225h-332v-349h-241z" />
    <glyph glyph-name="uni00B2" unicode="&#xb2;" horiz-adv-x="882" 
d="M154 523v157q91 30 186 99.5t156 148.5t61 135q0 58 -46.5 92t-99.5 34q-54 0 -118 -28.5t-102 -67.5l-62 144q42 33 66.5 49.5t65 38t85.5 30.5t99 9q125 0 217.5 -81.5t92.5 -213.5q0 -32 -4 -59.5t-14.5 -53t-20 -45.5t-30.5 -42.5l-35 -37.5t-44 -38t-48 -36.5
t-55.5 -40.5t-58.5 -43h314l-26 -150h-579z" />
    <glyph glyph-name="uni00B3" unicode="&#xb3;" horiz-adv-x="830" 
d="M400 584q-153 0 -280 67l45 142q32 -26 105.5 -45t129.5 -19q143 0 143 130q0 56 -50.5 87t-136.5 31l-96 -1v141h102q144 0 144 77q0 33 -24 56t-80 23q-55 0 -126 -16.5t-101 -32.5l-44 116q113 74 284 74q62 0 113 -11t93.5 -35t66.5 -67t24 -101q-7 -112 -148 -139
q62 -19 113.5 -77t51.5 -124q0 -134 -94.5 -205t-234.5 -71z" />
    <glyph glyph-name="acute" unicode="&#xb4;" horiz-adv-x="605" 
d="M233 1158l161 380h329l-307 -380h-183z" />
    <glyph glyph-name="paragraph" unicode="&#xb6;" horiz-adv-x="1289" 
d="M437 -144v882q-149 19 -232 114.5t-83 245.5q0 63 18 114t47.5 86t75.5 60.5t93.5 40t110 23.5t116.5 11.5t122 2.5h387v-197h-87v-1385h-200v1385h-129v-1385z" />
    <glyph glyph-name="periodcentered" unicode="&#xb7;" horiz-adv-x="391" 
d="M50 439v288h291v-288h-291z" />
    <glyph glyph-name="cedilla" unicode="&#xb8;" horiz-adv-x="584" 
d="M27 -321l130 351h183l-67 -351h-246z" />
    <glyph glyph-name="uni00B9" unicode="&#xb9;" horiz-adv-x="837" 
d="M161 568v183h158v483q-319 -1234 -101 -42l-80 -34v178q3 1 69.5 32t124.5 57.5t54 22.5h175v-697h151v-183h-551zM138 1336z" />
    <glyph glyph-name="ordmasculine" unicode="&#xba;" horiz-adv-x="843" 
d="M429 690q-187 0 -294.5 105t-107.5 283q0 173 109 277.5t293 104.5q185 0 290.5 -104.5t105.5 -280.5q0 -173 -107 -279t-289 -106zM429 871q189 0 189 202q0 208 -193 208q-97 0 -142.5 -54t-45.5 -150q0 -206 192 -206z" />
    <glyph glyph-name="guillemotright" unicode="&#xbb;" horiz-adv-x="1272" 
d="M833 128l-246 66l281 368l-277 372l247 65l337 -427zM370 128l-250 66l285 368l-281 372l248 65l338 -427z" />
    <glyph glyph-name="onequarter" unicode="&#xbc;" horiz-adv-x="1812" 
d="M1250 291h186v308zM345 0l1090 1421h233l-1078 -1421h-245zM1438 -10v154h-412v170l392 529h213v-552h128l-3 -147h-126l-1 -154h-191zM84 568v183h158v483q-242 -1234 -109 -46l-72 -30v178q3 1 69.5 32t124.5 57.5t54 22.5h174v-697h152v-183h-551zM61 1336z" />
    <glyph glyph-name="onehalf" unicode="&#xbd;" horiz-adv-x="1947" 
d="M353 0l1088 1421h240l-1084 -1421h-244zM1270 -29l3 166q32 22 101.5 67t108 73t84.5 68.5t67.5 81.5t21.5 86q0 56 -44 88.5t-98 32.5q-58 0 -117.5 -21t-90.5 -58l-58 152q95 106 300 106q123 0 212.5 -83t89.5 -215q0 -31 -3.5 -58.5t-13.5 -52.5t-18.5 -44t-28 -41
t-32 -36t-40.5 -37t-44.5 -35.5t-52.5 -39.5t-55 -42h295l-26 -158h-561zM119 568v157h158v538q4 3 -41 -23.5t-92 -53.5l-48 -28v178l197 109q9 5 7 3h218v-723h152v-157h-551z" />
    <glyph glyph-name="threequarters" unicode="&#xbe;" horiz-adv-x="1719" 
d="M245 0l1088 1421h230l-1069 -1421h-249zM1342 -11v165h-412v170l392 555h213v-578h127l-2 -147h-126l-2 -165h-190zM349 614q-151 0 -279 67l46 135q31 -23 98 -36.5t125 -13.5q72 0 107.5 26.5t35.5 86.5q0 98 -176 98l-96 -1v141h102q144 0 144 79q0 30 -27.5 50.5
t-85.5 20.5q-56 0 -122.5 -14t-95.5 -29l-70 109q59 39 142.5 61t170.5 22q127 0 207.5 -51.5t80.5 -161.5l-3 -13q-3 -13 -7.5 -24.5t-14.5 -28.5t-23 -30.5t-34.5 -26.5t-47.5 -19q58 -16 103 -71t45 -117q0 -127 -92.5 -193t-232.5 -66z" />
    <glyph glyph-name="questiondown" unicode="&#xbf;" horiz-adv-x="901" 
d="M506 1013q67 0 118 -48.5t51 -117.5t-51 -119t-118 -50q-65 0 -115.5 50t-50.5 119t50 117.5t116 48.5zM555 535q-17 -89 -52.5 -168.5t-73.5 -135t-73.5 -105t-58.5 -100.5t-23 -100q-1 -83 50.5 -137t144.5 -54q67 0 127 15.5t90.5 30.5t72.5 42l86 -187
q-66 -38 -111 -58.5t-122 -37t-172 -16.5q-52 0 -106 12.5t-108.5 40.5t-96.5 68t-68.5 100.5t-26.5 132.5q0 62 25 123.5t68.5 121.5t91.5 118t107.5 138t101.5 156h127z" />
    <glyph glyph-name="Agrave" unicode="&#xc0;" horiz-adv-x="1397" 
d="M601 1576l-337 381h343l190 -381h-196zM546 618h309l-153 534zM-7 0l519 1455h374l518 -1455h-345l-126 378h-462l-123 -378h-355z" />
    <glyph glyph-name="Aacute" unicode="&#xc1;" horiz-adv-x="1397" 
d="M607 1576l161 380h329l-307 -380h-183zM546 618h309l-153 534zM-7 0l519 1455h374l518 -1455h-345l-126 378h-462l-123 -378h-355z" />
    <glyph glyph-name="Acircumflex" unicode="&#xc2;" horiz-adv-x="1397" 
d="M304 1576l292 380h205l293 -380h-217l-183 183l-179 -183h-211zM546 618h309l-153 534zM-7 0l519 1455h374l518 -1455h-345l-126 378h-462l-123 -378h-355z" />
    <glyph glyph-name="Atilde" unicode="&#xc3;" horiz-adv-x="1397" 
d="M235 1576l-94 173q49 89 118.5 140.5t179.5 51.5q119 0 275 -65q124 -54 209 -54q63 0 117.5 25.5t133.5 97.5l81 -161q-46 -70 -148.5 -130.5t-208.5 -60.5q-51 0 -101.5 11.5t-84.5 24.5t-99 42q-96 47 -186 47q-116 0 -192 -142zM546 618h309l-153 534zM-7 0l519 1455
h374l518 -1455h-345l-126 378h-462l-123 -378h-355z" />
    <glyph glyph-name="Adieresis" unicode="&#xc4;" horiz-adv-x="1397" 
d="M807 1576v282h223v-282h-223zM366 1576v282h221v-282h-221zM546 618h309l-153 534zM-7 0l519 1455h374l518 -1455h-345l-126 378h-462l-123 -378h-355z" />
    <glyph glyph-name="Aring" unicode="&#xc5;" horiz-adv-x="1397" 
d="M699 1456q-80 0 -143 25t-100 66t-56 90t-19 102q0 114 81 192.5t237 78.5q153 0 235 -79t82 -192q0 -53 -19.5 -102.5t-56.5 -90.5t-99.5 -65.5t-141.5 -24.5zM700 1589q59 0 102.5 37.5t43.5 109.5q0 68 -43.5 103.5t-102.5 35.5q-60 0 -104.5 -36t-44.5 -103
q0 -71 45 -109t104 -38zM546 618h309l-153 534zM-7 0l519 1455h374l518 -1455h-345l-126 378h-462l-123 -378h-355z" />
    <glyph glyph-name="AE" unicode="&#xc6;" horiz-adv-x="1973" 
d="M675 560h326l-42 559zM6 0l796 1423h1053l-26 -220h-542l29 -373h495v-221h-475l37 -388h526l-23 -221h-833l-30 341h-437l-182 -341h-388z" />
    <glyph glyph-name="Ccedilla" unicode="&#xc7;" horiz-adv-x="1309" 
d="M449 -359l130 351h183l-67 -351h-246zM790 -20q-153 0 -280.5 49t-220.5 143t-145 238t-52 325q0 169 54 308.5t149.5 233.5t226 145.5t283.5 51.5q260 0 444 -125l-96 -247q-87 53 -164 80.5t-176 27.5q-170 0 -274 -129t-104 -354q0 -241 100.5 -361.5t275.5 -120.5
q191 0 371 94l41 -256q-180 -103 -433 -103z" />
    <glyph glyph-name="Egrave" unicode="&#xc8;" horiz-adv-x="1158" 
d="M511 1576l-337 381h343l190 -381h-196zM147 0v1455h915l-13 -256h-566v-307h537v-257h-537v-377h588l-11 -258h-913z" />
    <glyph glyph-name="Eacute" unicode="&#xc9;" horiz-adv-x="1158" 
d="M517 1576l161 380h329l-307 -380h-183zM147 0v1455h915l-13 -256h-566v-307h537v-257h-537v-377h588l-11 -258h-913z" />
    <glyph glyph-name="Ecircumflex" unicode="&#xca;" horiz-adv-x="1158" 
d="M214 1576l292 380h205l293 -380h-217l-183 183l-179 -183h-211zM147 0v1455h915l-13 -256h-566v-307h537v-257h-537v-377h588l-11 -258h-913z" />
    <glyph glyph-name="Edieresis" unicode="&#xcb;" horiz-adv-x="1158" 
d="M718 1576v282h223v-282h-223zM277 1576v282h221v-282h-221zM147 0v1455h915l-13 -256h-566v-307h537v-257h-537v-377h588l-11 -258h-913z" />
    <glyph glyph-name="Igrave" unicode="&#xcc;" horiz-adv-x="643" 
d="M223 1576l-337 381h343l190 -381h-196zM153 0v1455h337v-1455h-337z" />
    <glyph glyph-name="Iacute" unicode="&#xcd;" horiz-adv-x="643" 
d="M230 1576l161 380h329l-307 -380h-183zM153 0v1455h337v-1455h-337z" />
    <glyph glyph-name="Icircumflex" unicode="&#xce;" horiz-adv-x="643" 
d="M-74 1576l292 380h205l293 -380h-217l-183 183l-179 -183h-211zM153 0v1455h337v-1455h-337z" />
    <glyph glyph-name="Idieresis" unicode="&#xcf;" horiz-adv-x="643" 
d="M431 1576v282h223v-282h-223zM-10 1576v282h221v-282h-221zM153 0v1455h337v-1455h-337z" />
    <glyph glyph-name="Eth" unicode="&#xd0;" horiz-adv-x="1525" 
d="M120 1v617h-130v209h130v614h404q216 0 384 -40t293.5 -124t192 -224t66.5 -330q0 -171 -62 -308t-173.5 -227.5t-267 -138.5t-343.5 -48h-494zM448 240h181q245 0 376 125.5t131 353.5q0 263 -140 371.5t-453 108.5h-95v-372h169v-209h-169v-378z" />
    <glyph glyph-name="Ntilde" unicode="&#xd1;" horiz-adv-x="1580" 
d="M327 1576l-94 173q49 89 118.5 140.5t179.5 51.5q119 0 275 -65q124 -54 209 -54q63 0 117.5 25.5t133.5 97.5l81 -161q-46 -70 -148.5 -130.5t-208.5 -60.5q-51 0 -101.5 11.5t-84.5 24.5t-99 42q-96 47 -186 47q-116 0 -192 -142zM147 0v1455h351
q116 -180 250.5 -396.5t250.5 -396.5q18 -27 63.5 -98t73.5 -114l-7 346v659h304v-1455h-356l-589 940l-47 86l9 -368v-658h-303z" />
    <glyph glyph-name="Ograve" unicode="&#xd2;" horiz-adv-x="1626" 
d="M715 1576l-337 381h343l190 -381h-196zM813 -20q-161 0 -294 49.5t-228 143.5t-147.5 236t-52.5 320q0 238 91 407t253 253.5t379 84.5q332 0 526.5 -195t194.5 -551t-196 -552t-526 -196zM814 247q185 0 279.5 123t94.5 354t-94 359t-279 128q-186 0 -280 -128.5
t-94 -358.5t94 -353.5t279 -123.5z" />
    <glyph glyph-name="Oacute" unicode="&#xd3;" horiz-adv-x="1626" 
d="M721 1576l161 380h329l-307 -380h-183zM813 -20q-161 0 -294 49.5t-228 143.5t-147.5 236t-52.5 320q0 238 91 407t253 253.5t379 84.5q332 0 526.5 -195t194.5 -551t-196 -552t-526 -196zM814 247q185 0 279.5 123t94.5 354t-94 359t-279 128q-186 0 -280 -128.5
t-94 -358.5t94 -353.5t279 -123.5z" />
    <glyph glyph-name="Ocircumflex" unicode="&#xd4;" horiz-adv-x="1626" 
d="M418 1576l292 380h205l293 -380h-217l-183 183l-179 -183h-211zM813 -20q-161 0 -294 49.5t-228 143.5t-147.5 236t-52.5 320q0 238 91 407t253 253.5t379 84.5q332 0 526.5 -195t194.5 -551t-196 -552t-526 -196zM814 247q185 0 279.5 123t94.5 354t-94 359t-279 128
q-186 0 -280 -128.5t-94 -358.5t94 -353.5t279 -123.5z" />
    <glyph glyph-name="Otilde" unicode="&#xd5;" horiz-adv-x="1626" 
d="M350 1576l-94 173q49 89 118.5 140.5t179.5 51.5q119 0 275 -65q124 -54 209 -54q63 0 117.5 25.5t133.5 97.5l81 -161q-46 -70 -148.5 -130.5t-208.5 -60.5q-51 0 -101.5 11.5t-84.5 24.5t-99 42q-96 47 -186 47q-116 0 -192 -142zM813 -20q-161 0 -294 49.5t-228 143.5
t-147.5 236t-52.5 320q0 238 91 407t253 253.5t379 84.5q332 0 526.5 -195t194.5 -551t-196 -552t-526 -196zM814 247q185 0 279.5 123t94.5 354t-94 359t-279 128q-186 0 -280 -128.5t-94 -358.5t94 -353.5t279 -123.5z" />
    <glyph glyph-name="Odieresis" unicode="&#xd6;" horiz-adv-x="1626" 
d="M922 1576v282h223v-282h-223zM481 1576v282h221v-282h-221zM813 -20q-161 0 -294 49.5t-228 143.5t-147.5 236t-52.5 320q0 238 91 407t253 253.5t379 84.5q332 0 526.5 -195t194.5 -551t-196 -552t-526 -196zM814 247q185 0 279.5 123t94.5 354t-94 359t-279 128
q-186 0 -280 -128.5t-94 -358.5t94 -353.5t279 -123.5z" />
    <glyph glyph-name="multiply" unicode="&#xd7;" horiz-adv-x="1663" 
d="M537 125l-151 162l295 282l-295 279l152 167l319 -282l318 282l156 -168l-297 -278q57 -56 145 -136.5t152 -144.5l-154 -163l-320 280z" />
    <glyph glyph-name="Oslash" unicode="&#xd8;" horiz-adv-x="1622" 
d="M815 232q205 0 314 131.5t109 354.5q0 140 -43.5 249.5t-129.5 172.5l-408 -883q69 -25 158 -25zM573 300l407 887q-77 29 -165 29q-204 0 -311.5 -137.5t-107.5 -360.5q0 -141 45.5 -249t131.5 -169zM448 -197l-83 42l96 208q-183 85 -289.5 257.5t-106.5 413.5
q0 174 58.5 316.5t161 236t238.5 144t293 50.5q152 0 275 -42l95 209l90 -38l-95 -207q178 -87 280 -259t102 -410q0 -174 -59 -316.5t-161.5 -235t-239 -142.5t-293.5 -50q-140 0 -262 39z" />
    <glyph glyph-name="Ugrave" unicode="&#xd9;" 
d="M647 1576l-337 381h343l190 -381h-196zM742 -20q-291 0 -448.5 143.5t-157.5 407.5v924h337v-884q0 -172 60.5 -248t211.5 -76q149 0 210.5 76.5t61.5 248.5v883h336v-926q0 -261 -160 -405t-451 -144z" />
    <glyph glyph-name="Uacute" unicode="&#xda;" 
d="M653 1576l161 380h329l-307 -380h-183zM742 -20q-291 0 -448.5 143.5t-157.5 407.5v924h337v-884q0 -172 60.5 -248t211.5 -76q149 0 210.5 76.5t61.5 248.5v883h336v-926q0 -261 -160 -405t-451 -144z" />
    <glyph glyph-name="Ucircumflex" unicode="&#xdb;" 
d="M350 1576l292 380h205l293 -380h-217l-183 183l-179 -183h-211zM742 -20q-291 0 -448.5 143.5t-157.5 407.5v924h337v-884q0 -172 60.5 -248t211.5 -76q149 0 210.5 76.5t61.5 248.5v883h336v-926q0 -261 -160 -405t-451 -144z" />
    <glyph glyph-name="Udieresis" unicode="&#xdc;" 
d="M853 1576v282h223v-282h-223zM412 1576v282h221v-282h-221zM742 -20q-291 0 -448.5 143.5t-157.5 407.5v924h337v-884q0 -172 60.5 -248t211.5 -76q149 0 210.5 76.5t61.5 248.5v883h336v-926q0 -261 -160 -405t-451 -144z" />
    <glyph glyph-name="Yacute" unicode="&#xdd;" horiz-adv-x="1297" 
d="M556 1576l161 380h329l-307 -380h-183zM488 0v577l-512 878h365l311 -572l309 572h358l-495 -872v-583h-336z" />
    <glyph glyph-name="Thorn" unicode="&#xde;" horiz-adv-x="1351" 
d="M452 562h305q131 0 215 61t84 177q0 125 -85 183.5t-232 58.5h-289zM198 19v1407h252v-189h263q99 0 186 -15.5t165 -51t133.5 -87.5t88 -129.5t32.5 -172.5q0 -89 -33 -164t-89.5 -126.5t-132.5 -87.5t-160.5 -53t-174.5 -17l-278 -1v-313h-252z" />
    <glyph glyph-name="germandbls" unicode="&#xdf;" horiz-adv-x="1283" 
d="M101 0v1010q0 216 130 336t362 120q73 0 140.5 -12.5t129 -40t106.5 -67t71.5 -98.5t26.5 -130q0 -49 -18 -95.5t-43 -80.5t-64 -68.5t-69 -55.5t-70 -45q51 -23 77.5 -35.5t78.5 -40.5t82 -50t70 -57.5t61.5 -70.5t37.5 -81.5t16 -96.5q0 -164 -118.5 -252.5
t-308.5 -88.5h-258l32 199h192q75 0 115.5 39.5t40.5 108.5q0 43 -18.5 78.5t-57 64t-74 48.5t-93.5 49t-91 48q-90 49 -90 127q0 67 76 121q5 4 29.5 20.5t32.5 22.5t29.5 22t30 24.5t25 24.5t23.5 28t16 28t12.5 32t3.5 33q0 63 -48.5 97t-134.5 34q-48 0 -81 -12.5
t-52 -32t-29 -55.5t-12.5 -70t-2.5 -89v-990h-314z" />
    <glyph glyph-name="agrave" unicode="&#xe0;" horiz-adv-x="1171" 
d="M463 1232l-337 381h343l190 -381h-196zM516 200q32 0 61 6t52.5 18t38 21.5t33.5 24.5t24 18v230l-89 -7q-57 -5 -99.5 -16t-78.5 -31.5t-55 -55.5t-19 -84q0 -58 33.5 -91t98.5 -33zM415 -19q-152 0 -247 86.5t-95 251.5q0 175 102 258t318 106q41 6 121.5 14.5
t109.5 12.5v32q0 89 -40.5 127t-119.5 38q-114 0 -333 -71l-79 215q112 42 213 60.5t235 18.5q234 0 341.5 -101t107.5 -318v-711h-236l-20 50l-33 81q-76 -73 -153 -111.5t-192 -38.5z" />
    <glyph glyph-name="aacute" unicode="&#xe1;" horiz-adv-x="1171" 
d="M469 1232l161 380h329l-307 -380h-183zM516 200q32 0 61 6t52.5 18t38 21.5t33.5 24.5t24 18v230l-89 -7q-57 -5 -99.5 -16t-78.5 -31.5t-55 -55.5t-19 -84q0 -58 33.5 -91t98.5 -33zM415 -19q-152 0 -247 86.5t-95 251.5q0 175 102 258t318 106q41 6 121.5 14.5
t109.5 12.5v32q0 89 -40.5 127t-119.5 38q-114 0 -333 -71l-79 215q112 42 213 60.5t235 18.5q234 0 341.5 -101t107.5 -318v-711h-236l-20 50l-33 81q-76 -73 -153 -111.5t-192 -38.5z" />
    <glyph glyph-name="acircumflex" unicode="&#xe2;" horiz-adv-x="1171" 
d="M166 1232l292 380h205l293 -380h-217l-183 183l-179 -183h-211zM516 200q32 0 61 6t52.5 18t38 21.5t33.5 24.5t24 18v230l-89 -7q-57 -5 -99.5 -16t-78.5 -31.5t-55 -55.5t-19 -84q0 -58 33.5 -91t98.5 -33zM415 -19q-152 0 -247 86.5t-95 251.5q0 175 102 258t318 106
q41 6 121.5 14.5t109.5 12.5v32q0 89 -40.5 127t-119.5 38q-114 0 -333 -71l-79 215q112 42 213 60.5t235 18.5q234 0 341.5 -101t107.5 -318v-711h-236l-20 50l-33 81q-76 -73 -153 -111.5t-192 -38.5z" />
    <glyph glyph-name="atilde" unicode="&#xe3;" horiz-adv-x="1171" 
d="M98 1232l-94 173q49 89 118.5 140.5t179.5 51.5q119 0 275 -65q124 -54 209 -54q63 0 117.5 25.5t133.5 97.5l81 -161q-46 -70 -148.5 -130.5t-208.5 -60.5q-51 0 -101.5 11.5t-84.5 24.5t-99 42q-96 47 -186 47q-116 0 -192 -142zM516 200q32 0 61 6t52.5 18t38 21.5
t33.5 24.5t24 18v230l-89 -7q-57 -5 -99.5 -16t-78.5 -31.5t-55 -55.5t-19 -84q0 -58 33.5 -91t98.5 -33zM415 -19q-152 0 -247 86.5t-95 251.5q0 175 102 258t318 106q41 6 121.5 14.5t109.5 12.5v32q0 89 -40.5 127t-119.5 38q-114 0 -333 -71l-79 215q112 42 213 60.5
t235 18.5q234 0 341.5 -101t107.5 -318v-711h-236l-20 50l-33 81q-76 -73 -153 -111.5t-192 -38.5z" />
    <glyph glyph-name="adieresis" unicode="&#xe4;" horiz-adv-x="1171" 
d="M670 1232v282h223v-282h-223zM229 1232v282h221v-282h-221zM516 200q32 0 61 6t52.5 18t38 21.5t33.5 24.5t24 18v230l-89 -7q-57 -5 -99.5 -16t-78.5 -31.5t-55 -55.5t-19 -84q0 -58 33.5 -91t98.5 -33zM415 -19q-152 0 -247 86.5t-95 251.5q0 175 102 258t318 106
q41 6 121.5 14.5t109.5 12.5v32q0 89 -40.5 127t-119.5 38q-114 0 -333 -71l-79 215q112 42 213 60.5t235 18.5q234 0 341.5 -101t107.5 -318v-711h-236l-20 50l-33 81q-76 -73 -153 -111.5t-192 -38.5z" />
    <glyph glyph-name="aring" unicode="&#xe5;" horiz-adv-x="1171" 
d="M562 1232q-80 0 -143 25t-100 66t-56 90t-19 102q0 114 81 192.5t237 78.5q153 0 235 -79t82 -192q0 -53 -19.5 -102.5t-56.5 -90.5t-99.5 -65.5t-141.5 -24.5zM563 1365q59 0 102.5 37.5t43.5 109.5q0 68 -43.5 103.5t-102.5 35.5q-60 0 -104.5 -36t-44.5 -103
q0 -71 45 -109t104 -38zM516 200q32 0 61 6t52.5 18t38 21.5t33.5 24.5t24 18v230l-89 -7q-57 -5 -99.5 -16t-78.5 -31.5t-55 -55.5t-19 -84q0 -58 33.5 -91t98.5 -33zM415 -19q-152 0 -247 86.5t-95 251.5q0 175 102 258t318 106q41 6 121.5 14.5t109.5 12.5v32
q0 89 -40.5 127t-119.5 38q-114 0 -333 -71l-79 215q112 42 213 60.5t235 18.5q234 0 341.5 -101t107.5 -318v-711h-236l-20 50l-33 81q-76 -73 -153 -111.5t-192 -38.5z" />
    <glyph glyph-name="ae" unicode="&#xe6;" horiz-adv-x="1682" 
d="M981 664l383 45q3 16 3 45q0 13 -1.5 27.5t-10 41t-23 46t-44 34.5t-69.5 15q-18 0 -32.5 -1t-38.5 -6.5t-43 -15t-41.5 -28.5t-38 -45t-28 -67t-16.5 -91zM471 174q132 0 245 143q3 -5 1 4q-1 4 -5 18q-24 86 -23 120q-2 -1 -29.5 -5t-53.5 -7.5l-26 -3.5
q-16 -3 -43.5 -8t-43.5 -7.5t-39 -8t-36.5 -11t-29.5 -14.5t-24.5 -19.5t-14 -26t-5.5 -33.5q0 -64 31 -102.5t96 -38.5zM415 -20q-83 0 -151 32t-110 83t-65 111.5t-23 121.5q0 56 12 97.5t46.5 71.5t66.5 48.5t103.5 35t125 25t160.5 23.5l99 11v85q0 104 -37.5 152
t-146.5 54q-55 0 -118.5 -15t-121.5 -36t-62 -22l-58 207q95 39 177.5 58t212.5 19q127 0 211.5 -43.5t118.5 -121.5q62 70 155.5 118t209.5 48q110 0 193.5 -44.5t133 -122.5t74 -176.5t24.5 -214.5q0 -44 -137 -46q-31 -2 -239.5 -20.5t-287.5 -24.5q2 -145 75 -218.5
t202 -75.5q92 0 161.5 18t100.5 45l85 -190q-74 -48 -155 -70t-212 -22q-283 0 -413 175q-43 -52 -92 -88.5t-131.5 -62t-186.5 -25.5z" />
    <glyph glyph-name="ccedilla" unicode="&#xe7;" horiz-adv-x="1034" 
d="M301 -358l130 351h183l-67 -351h-246zM618 -19q-260 0 -402.5 144.5t-142.5 440.5q0 143 42.5 253t118 177t173.5 100.5t214 33.5q200 0 350 -88l-73 -224q-154 75 -256 75q-117 0 -182.5 -80.5t-65.5 -250.5q0 -343 251 -343q153 0 286 95l28 -243q-80 -50 -153.5 -70
t-187.5 -20z" />
    <glyph glyph-name="egrave" unicode="&#xe8;" horiz-adv-x="1189" 
d="M496 1232l-337 381h343l190 -381h-196zM403 672h415q-1 114 -53.5 176t-147.5 62q-85 0 -145.5 -56t-68.5 -182zM663 -19q-282 0 -436 152.5t-154 424.5q0 266 143 419.5t398 152.5q243 0 372 -143.5t129 -379.5q0 -20 -0.5 -62.5t-0.5 -63.5h-716q5 -132 77 -203
t202 -71q183 0 344 95l43 -219q-162 -102 -401 -102z" />
    <glyph glyph-name="eacute" unicode="&#xe9;" horiz-adv-x="1189" 
d="M503 1232l161 380h329l-307 -380h-183zM403 672h415q-1 114 -53.5 176t-147.5 62q-85 0 -145.5 -56t-68.5 -182zM663 -19q-282 0 -436 152.5t-154 424.5q0 266 143 419.5t398 152.5q243 0 372 -143.5t129 -379.5q0 -20 -0.5 -62.5t-0.5 -63.5h-716q5 -132 77 -203
t202 -71q183 0 344 95l43 -219q-162 -102 -401 -102z" />
    <glyph glyph-name="ecircumflex" unicode="&#xea;" horiz-adv-x="1189" 
d="M199 1232l292 380h205l293 -380h-217l-183 183l-179 -183h-211zM403 672h415q-1 114 -53.5 176t-147.5 62q-85 0 -145.5 -56t-68.5 -182zM663 -19q-282 0 -436 152.5t-154 424.5q0 266 143 419.5t398 152.5q243 0 372 -143.5t129 -379.5q0 -20 -0.5 -62.5t-0.5 -63.5
h-716q5 -132 77 -203t202 -71q183 0 344 95l43 -219q-162 -102 -401 -102z" />
    <glyph glyph-name="edieresis" unicode="&#xeb;" horiz-adv-x="1189" 
d="M703 1232v282h223v-282h-223zM262 1232v282h221v-282h-221zM403 672h415q-1 114 -53.5 176t-147.5 62q-85 0 -145.5 -56t-68.5 -182zM663 -19q-282 0 -436 152.5t-154 424.5q0 266 143 419.5t398 152.5q243 0 372 -143.5t129 -379.5q0 -20 -0.5 -62.5t-0.5 -63.5h-716
q5 -132 77 -203t202 -71q183 0 344 95l43 -219q-162 -102 -401 -102z" />
    <glyph glyph-name="igrave" unicode="&#xec;" horiz-adv-x="626" 
d="M183 1232l-337 381h343l190 -381h-196zM125 0v1098h312v-1098h-312z" />
    <glyph glyph-name="iacute" unicode="&#xed;" horiz-adv-x="626" 
d="M189 1232l161 380h329l-307 -380h-183zM125 0v1098h312v-1098h-312z" />
    <glyph glyph-name="icircumflex" unicode="&#xee;" horiz-adv-x="626" 
d="M-114 1232l292 380h205l293 -380h-217l-183 183l-179 -183h-211zM125 0v1098h312v-1098h-312z" />
    <glyph glyph-name="idieresis" unicode="&#xef;" horiz-adv-x="626" 
d="M390 1232v282h223v-282h-223zM-51 1232v282h221v-282h-221zM125 0v1098h312v-1098h-312z" />
    <glyph glyph-name="eth" unicode="&#xf0;" horiz-adv-x="1240" 
d="M635 220q130 0 198 65.5t68 186.5q0 129 -69 195.5t-203 66.5q-270 0 -270 -261q0 -121 73.5 -187t202.5 -66zM641 -18q-161 0 -286.5 55t-199 163t-73.5 254q0 234 135.5 360t371.5 126q4 0 13 2.5t23.5 6t27.5 6.5q-12 10 -83.5 90t-89.5 104l-233 -93l-82 136l195 80
l-182 185h348l102 -83l224 92l83 -135l-189 -78q209 -235 323 -413q118 -176 118 -367q0 -101 -32.5 -188t-97 -155.5t-171.5 -108t-245 -39.5z" />
    <glyph glyph-name="ntilde" unicode="&#xf1;" horiz-adv-x="1300" 
d="M191 1232l-94 173q49 89 118.5 140.5t179.5 51.5q119 0 275 -65q124 -54 209 -54q63 0 117.5 25.5t133.5 97.5l81 -161q-46 -70 -148.5 -130.5t-208.5 -60.5q-51 0 -101.5 11.5t-84.5 24.5t-99 42q-96 47 -186 47q-116 0 -192 -142zM126 0v1101h258l35 -128
q91 77 174 117t199 40q193 0 291.5 -113.5t98.5 -315.5v-701h-326v633q0 63 -6 106.5t-23.5 81t-52 56t-86.5 18.5q-57 0 -117.5 -30.5t-94.5 -75.5q-25 -85 -25 -298v-491h-325z" />
    <glyph glyph-name="ograve" unicode="&#xf2;" horiz-adv-x="1236" 
d="M520 1232l-337 381h343l190 -381h-196zM611 -19q-253 0 -395.5 156.5t-142.5 418.5q0 272 142 423t408 151q252 0 396 -155.5t144 -419.5q0 -268 -144 -421t-408 -153zM617 219q224 0 224 337t-225 337q-111 0 -166.5 -82.5t-55.5 -254.5q0 -337 223 -337z" />
    <glyph glyph-name="oacute" unicode="&#xf3;" horiz-adv-x="1236" 
d="M527 1232l161 380h329l-307 -380h-183zM611 -19q-253 0 -395.5 156.5t-142.5 418.5q0 272 142 423t408 151q252 0 396 -155.5t144 -419.5q0 -268 -144 -421t-408 -153zM617 219q224 0 224 337t-225 337q-111 0 -166.5 -82.5t-55.5 -254.5q0 -337 223 -337z" />
    <glyph glyph-name="ocircumflex" unicode="&#xf4;" horiz-adv-x="1236" 
d="M223 1232l292 380h205l293 -380h-217l-183 183l-179 -183h-211zM611 -19q-253 0 -395.5 156.5t-142.5 418.5q0 272 142 423t408 151q252 0 396 -155.5t144 -419.5q0 -268 -144 -421t-408 -153zM617 219q224 0 224 337t-225 337q-111 0 -166.5 -82.5t-55.5 -254.5
q0 -337 223 -337z" />
    <glyph glyph-name="otilde" unicode="&#xf5;" horiz-adv-x="1236" 
d="M155 1232l-94 173q49 89 118.5 140.5t179.5 51.5q119 0 275 -65q124 -54 209 -54q63 0 117.5 25.5t133.5 97.5l81 -161q-46 -70 -148.5 -130.5t-208.5 -60.5q-51 0 -101.5 11.5t-84.5 24.5t-99 42q-96 47 -186 47q-116 0 -192 -142zM611 -19q-253 0 -395.5 156.5
t-142.5 418.5q0 272 142 423t408 151q252 0 396 -155.5t144 -419.5q0 -268 -144 -421t-408 -153zM617 219q224 0 224 337t-225 337q-111 0 -166.5 -82.5t-55.5 -254.5q0 -337 223 -337z" />
    <glyph glyph-name="odieresis" unicode="&#xf6;" horiz-adv-x="1236" 
d="M727 1232v282h223v-282h-223zM286 1232v282h221v-282h-221zM611 -19q-253 0 -395.5 156.5t-142.5 418.5q0 272 142 423t408 151q252 0 396 -155.5t144 -419.5q0 -268 -144 -421t-408 -153zM617 219q224 0 224 337t-225 337q-111 0 -166.5 -82.5t-55.5 -254.5
q0 -337 223 -337z" />
    <glyph glyph-name="divide" unicode="&#xf7;" horiz-adv-x="1619" 
d="M656 832v280h323v-280h-323zM232 467v211h1160v-211h-1160zM656 21v281h331v-281h-331z" />
    <glyph glyph-name="oslash" unicode="&#xf8;" horiz-adv-x="1188" 
d="M595 194q115 0 180 92t65 267q0 189 -73 283l-273 -619q43 -23 101 -23zM438 259l273 626q-48 29 -115 29q-114 0 -178 -90.5t-64 -269.5q0 -205 84 -295zM307 -201l-56 31l87 207q-138 63 -209.5 197t-71.5 318q0 262 139 414t403 152q110 0 205 -28l84 141l65 -19
l-83 -147q131 -65 199 -196.5t68 -314.5q0 -168 -59.5 -294t-183 -198.5t-299.5 -72.5q-106 0 -193 26z" />
    <glyph glyph-name="ugrave" unicode="&#xf9;" horiz-adv-x="1196" 
d="M500 1232l-337 381h343l190 -381h-196zM597 -19q-228 0 -361.5 115t-133.5 326v679h327v-661q0 -116 36.5 -168.5t135.5 -52.5q98 0 133 52t35 169v661h325v-679q0 -209 -134.5 -325t-362.5 -116z" />
    <glyph glyph-name="uacute" unicode="&#xfa;" horiz-adv-x="1196" 
d="M507 1232l161 380h329l-307 -380h-183zM597 -19q-228 0 -361.5 115t-133.5 326v679h327v-661q0 -116 36.5 -168.5t135.5 -52.5q98 0 133 52t35 169v661h325v-679q0 -209 -134.5 -325t-362.5 -116z" />
    <glyph glyph-name="ucircumflex" unicode="&#xfb;" horiz-adv-x="1196" 
d="M203 1232l292 380h205l293 -380h-217l-183 183l-179 -183h-211zM597 -19q-228 0 -361.5 115t-133.5 326v679h327v-661q0 -116 36.5 -168.5t135.5 -52.5q98 0 133 52t35 169v661h325v-679q0 -209 -134.5 -325t-362.5 -116z" />
    <glyph glyph-name="udieresis" unicode="&#xfc;" horiz-adv-x="1196" 
d="M707 1232v282h223v-282h-223zM266 1232v282h221v-282h-221zM597 -19q-228 0 -361.5 115t-133.5 326v679h327v-661q0 -116 36.5 -168.5t135.5 -52.5q98 0 133 52t35 169v661h325v-679q0 -209 -134.5 -325t-362.5 -116z" />
    <glyph glyph-name="yacute" unicode="&#xfd;" horiz-adv-x="1178" 
d="M490 1232l161 380h329l-307 -380h-183zM233 -440q-74 0 -159 8l-15 244q51 -7 140 -7q76 0 127.5 32.5t82.5 110.5q6 14 26 80l-447 1073h348l251 -721q54 194 130.5 409t107.5 312h350l-463 -1190q-73 -194 -187 -272.5t-292 -78.5z" />
    <glyph glyph-name="thorn" unicode="&#xfe;" horiz-adv-x="1344" 
d="M740 218q137 0 202 78t65 221t-66 221.5t-202 78.5q-293 0 -293 -300q0 -299 294 -299zM184 -413v1612l-9 291h272v-548q-4 -6 -2 -5q2 0 16 9q145 92 296 92q133 0 234.5 -43t163 -118.5t92 -171.5t30.5 -210q0 -111 -29.5 -202.5t-88.5 -161t-155.5 -108t-221.5 -38.5
q-182 0 -328 103q-9 6 -9 4q0 -1 2 -4v-501h-263z" />
    <glyph glyph-name="ydieresis" unicode="&#xff;" horiz-adv-x="1178" 
d="M691 1232v282h223v-282h-223zM250 1232v282h221v-282h-221zM233 -440q-74 0 -159 8l-15 244q51 -7 140 -7q76 0 127.5 32.5t82.5 110.5q6 14 26 80l-447 1073h348l251 -721q54 194 130.5 409t107.5 312h350l-463 -1190q-73 -194 -187 -272.5t-292 -78.5z" />
    <glyph glyph-name="Amacron" unicode="&#x100;" horiz-adv-x="1397" 
d="M363 1576v173h671v-173h-671zM546 618h309l-153 534zM-7 0l519 1455h374l518 -1455h-345l-126 378h-462l-123 -378h-355z" />
    <glyph glyph-name="amacron" unicode="&#x101;" horiz-adv-x="1171" 
d="M225 1232v173h671v-173h-671zM516 200q32 0 61 6t52.5 18t38 21.5t33.5 24.5t24 18v230l-89 -7q-57 -5 -99.5 -16t-78.5 -31.5t-55 -55.5t-19 -84q0 -58 33.5 -91t98.5 -33zM415 -19q-152 0 -247 86.5t-95 251.5q0 175 102 258t318 106q41 6 121.5 14.5t109.5 12.5v32
q0 89 -40.5 127t-119.5 38q-114 0 -333 -71l-79 215q112 42 213 60.5t235 18.5q234 0 341.5 -101t107.5 -318v-711h-236l-20 50l-33 81q-76 -73 -153 -111.5t-192 -38.5z" />
    <glyph glyph-name="Abreve" unicode="&#x102;" horiz-adv-x="1397" 
d="M699 1576q-153 0 -235.5 61t-82.5 186h201q0 -38 23.5 -52t93.5 -14q69 0 92.5 14t23.5 52h200q0 -247 -316 -247zM546 618h309l-153 534zM-7 0l519 1455h374l518 -1455h-345l-126 378h-462l-123 -378h-355z" />
    <glyph glyph-name="abreve" unicode="&#x103;" horiz-adv-x="1171" 
d="M562 1232q-153 0 -235.5 61t-82.5 186h201q0 -38 23.5 -52t93.5 -14q69 0 92.5 14t23.5 52h200q0 -247 -316 -247zM516 200q32 0 61 6t52.5 18t38 21.5t33.5 24.5t24 18v230l-89 -7q-57 -5 -99.5 -16t-78.5 -31.5t-55 -55.5t-19 -84q0 -58 33.5 -91t98.5 -33zM415 -19
q-152 0 -247 86.5t-95 251.5q0 175 102 258t318 106q41 6 121.5 14.5t109.5 12.5v32q0 89 -40.5 127t-119.5 38q-114 0 -333 -71l-79 215q112 42 213 60.5t235 18.5q234 0 341.5 -101t107.5 -318v-711h-236l-20 50l-33 81q-76 -73 -153 -111.5t-192 -38.5z" />
    <glyph glyph-name="Aogonek" unicode="&#x104;" horiz-adv-x="1397" 
d="M723 -413q-94 0 -154.5 42t-60.5 128q0 50 18.5 93.5t51.5 75t59.5 50.5t60.5 38h104q-87 -66 -87 -186q0 -31 19.5 -58t58.5 -27q26 0 61.5 9.5t54.5 17t30 13.5v-155q-103 -41 -216 -41zM939 -217zM546 618h309l-153 534zM-7 0l519 1455h374l518 -1455h-345l-126 378
h-462l-123 -378h-355z" />
    <glyph glyph-name="aogonek" unicode="&#x105;" horiz-adv-x="1171" 
d="M586 -432q-94 0 -154.5 42t-60.5 128q0 50 18.5 93.5t51.5 75t59.5 50.5t60.5 38h104q-87 -66 -87 -186q0 -31 19.5 -58t58.5 -27q26 0 61.5 9.5t54.5 17t30 13.5v-155q-103 -41 -216 -41zM802 -236zM516 200q32 0 61 6t52.5 18t38 21.5t33.5 24.5t24 18v230l-89 -7
q-57 -5 -99.5 -16t-78.5 -31.5t-55 -55.5t-19 -84q0 -58 33.5 -91t98.5 -33zM415 -19q-152 0 -247 86.5t-95 251.5q0 175 102 258t318 106q41 6 121.5 14.5t109.5 12.5v32q0 89 -40.5 127t-119.5 38q-114 0 -333 -71l-79 215q112 42 213 60.5t235 18.5q234 0 341.5 -101
t107.5 -318v-711h-236l-20 50l-33 81q-76 -73 -153 -111.5t-192 -38.5z" />
    <glyph glyph-name="Cacute" unicode="&#x106;" horiz-adv-x="1309" 
d="M579 1576l161 380h329l-307 -380h-183zM790 -20q-153 0 -280.5 49t-220.5 143t-145 238t-52 325q0 169 54 308.5t149.5 233.5t226 145.5t283.5 51.5q260 0 444 -125l-96 -247q-87 53 -164 80.5t-176 27.5q-170 0 -274 -129t-104 -354q0 -241 100.5 -361.5t275.5 -120.5
q191 0 371 94l41 -256q-180 -103 -433 -103z" />
    <glyph glyph-name="cacute" unicode="&#x107;" horiz-adv-x="1034" 
d="M431 1232l161 380h329l-307 -380h-183zM618 -19q-260 0 -402.5 144.5t-142.5 440.5q0 143 42.5 253t118 177t173.5 100.5t214 33.5q200 0 350 -88l-73 -224q-154 75 -256 75q-117 0 -182.5 -80.5t-65.5 -250.5q0 -343 251 -343q153 0 286 95l28 -243q-80 -50 -153.5 -70
t-187.5 -20z" />
    <glyph glyph-name="Ccircumflex" unicode="&#x108;" horiz-adv-x="1309" 
d="M276 1576l292 380h205l293 -380h-217l-183 183l-179 -183h-211zM790 -20q-153 0 -280.5 49t-220.5 143t-145 238t-52 325q0 169 54 308.5t149.5 233.5t226 145.5t283.5 51.5q260 0 444 -125l-96 -247q-87 53 -164 80.5t-176 27.5q-170 0 -274 -129t-104 -354
q0 -241 100.5 -361.5t275.5 -120.5q191 0 371 94l41 -256q-180 -103 -433 -103z" />
    <glyph glyph-name="ccircumflex" unicode="&#x109;" horiz-adv-x="1034" 
d="M127 1232l292 380h205l293 -380h-217l-183 183l-179 -183h-211zM618 -19q-260 0 -402.5 144.5t-142.5 440.5q0 143 42.5 253t118 177t173.5 100.5t214 33.5q200 0 350 -88l-73 -224q-154 75 -256 75q-117 0 -182.5 -80.5t-65.5 -250.5q0 -343 251 -343q153 0 286 95
l28 -243q-80 -50 -153.5 -70t-187.5 -20z" />
    <glyph glyph-name="Cdotaccent" unicode="&#x10a;" horiz-adv-x="1309" 
d="M559 1576v229h223v-229h-223zM790 -20q-153 0 -280.5 49t-220.5 143t-145 238t-52 325q0 169 54 308.5t149.5 233.5t226 145.5t283.5 51.5q260 0 444 -125l-96 -247q-87 53 -164 80.5t-176 27.5q-170 0 -274 -129t-104 -354q0 -241 100.5 -361.5t275.5 -120.5
q191 0 371 94l41 -256q-180 -103 -433 -103z" />
    <glyph glyph-name="cdotaccent" unicode="&#x10b;" horiz-adv-x="1034" 
d="M411 1232v229h223v-229h-223zM618 -19q-260 0 -402.5 144.5t-142.5 440.5q0 143 42.5 253t118 177t173.5 100.5t214 33.5q200 0 350 -88l-73 -224q-154 75 -256 75q-117 0 -182.5 -80.5t-65.5 -250.5q0 -343 251 -343q153 0 286 95l28 -243q-80 -50 -153.5 -70
t-187.5 -20z" />
    <glyph glyph-name="Ccaron" unicode="&#x10c;" horiz-adv-x="1309" 
d="M572 1576l-312 329h244l160 -119l166 119h250l-312 -329h-196zM790 -20q-153 0 -280.5 49t-220.5 143t-145 238t-52 325q0 169 54 308.5t149.5 233.5t226 145.5t283.5 51.5q260 0 444 -125l-96 -247q-87 53 -164 80.5t-176 27.5q-170 0 -274 -129t-104 -354
q0 -241 100.5 -361.5t275.5 -120.5q191 0 371 94l41 -256q-180 -103 -433 -103z" />
    <glyph glyph-name="ccaron" unicode="&#x10d;" horiz-adv-x="1034" 
d="M424 1232l-312 329h244l160 -119l166 119h250l-312 -329h-196zM618 -19q-260 0 -402.5 144.5t-142.5 440.5q0 143 42.5 253t118 177t173.5 100.5t214 33.5q200 0 350 -88l-73 -224q-154 75 -256 75q-117 0 -182.5 -80.5t-65.5 -250.5q0 -343 251 -343q153 0 286 95
l28 -243q-80 -50 -153.5 -70t-187.5 -20z" />
    <glyph glyph-name="Dcaron" unicode="&#x10e;" horiz-adv-x="1522" 
d="M692 1576l-312 329h244l160 -119l166 119h250l-312 -329h-196zM149 0v1455h434q400 0 624 -181.5t224 -537.5q0 -352 -219.5 -544t-607.5 -192h-455zM486 261h148q224 0 340.5 120.5t116.5 348.5q0 243 -117.5 353t-368.5 110h-119v-932z" />
    <glyph glyph-name="dcroat" unicode="&#x111;" horiz-adv-x="1279" 
d="M626 205q38 0 70 7.5t66.5 30t58 59.5t39 102t15.5 152q0 85 -16 151t-41 104.5t-59 63.5t-66 33.5t-67 8.5q-267 0 -267 -362q0 -86 18 -151.5t44.5 -102t64 -59.5t70.5 -30t70 -7zM562 -19q-230 7 -364.5 171t-134.5 414q0 93 20 177.5t61 157t99 126t139.5 84
t177.5 30.5q227 0 310 -154v228h-327v142h327v144l312 17v-161h99v-142h-99v-1215h-309l-3 143q-88 -162 -308 -162z" />
    <glyph glyph-name="Emacron" unicode="&#x112;" horiz-adv-x="1158" 
d="M273 1576v173h671v-173h-671zM147 0v1455h915l-13 -256h-566v-307h537v-257h-537v-377h588l-11 -258h-913z" />
    <glyph glyph-name="emacron" unicode="&#x113;" horiz-adv-x="1189" 
d="M259 1232v173h671v-173h-671zM403 672h415q-1 114 -53.5 176t-147.5 62q-85 0 -145.5 -56t-68.5 -182zM663 -19q-282 0 -436 152.5t-154 424.5q0 266 143 419.5t398 152.5q243 0 372 -143.5t129 -379.5q0 -20 -0.5 -62.5t-0.5 -63.5h-716q5 -132 77 -203t202 -71
q183 0 344 95l43 -219q-162 -102 -401 -102z" />
    <glyph glyph-name="Edotaccent" unicode="&#x116;" horiz-adv-x="1158" 
d="M498 1576v229h223v-229h-223zM147 0v1455h915l-13 -256h-566v-307h537v-257h-537v-377h588l-11 -258h-913z" />
    <glyph glyph-name="edotaccent" unicode="&#x117;" horiz-adv-x="1189" 
d="M483 1232v229h223v-229h-223zM403 672h415q-1 114 -53.5 176t-147.5 62q-85 0 -145.5 -56t-68.5 -182zM663 -19q-282 0 -436 152.5t-154 424.5q0 266 143 419.5t398 152.5q243 0 372 -143.5t129 -379.5q0 -20 -0.5 -62.5t-0.5 -63.5h-716q5 -132 77 -203t202 -71
q183 0 344 95l43 -219q-162 -102 -401 -102z" />
    <glyph glyph-name="Eogonek" unicode="&#x118;" horiz-adv-x="1158" 
d="M634 -413q-94 0 -154.5 42t-60.5 128q0 50 18.5 93.5t51.5 75t59.5 50.5t60.5 38h104q-87 -66 -87 -186q0 -31 19.5 -58t58.5 -27q26 0 61.5 9.5t54.5 17t30 13.5v-155q-103 -41 -216 -41zM850 -217zM147 0v1455h915l-13 -256h-566v-307h537v-257h-537v-377h588l-11 -258
h-913z" />
    <glyph glyph-name="eogonek" unicode="&#x119;" horiz-adv-x="1189" 
d="M567 -432q-94 0 -154.5 42t-60.5 128q0 50 18.5 93.5t51.5 75t59.5 50.5t60.5 38h104q-87 -66 -87 -186q0 -31 19.5 -58t58.5 -27q26 0 61.5 9.5t54.5 17t30 13.5v-155q-103 -41 -216 -41zM783 -236zM403 672h415q-1 114 -53.5 176t-147.5 62q-85 0 -145.5 -56
t-68.5 -182zM663 -19q-282 0 -436 152.5t-154 424.5q0 266 143 419.5t398 152.5q243 0 372 -143.5t129 -379.5q0 -20 -0.5 -62.5t-0.5 -63.5h-716q5 -132 77 -203t202 -71q183 0 344 95l43 -219q-162 -102 -401 -102z" />
    <glyph glyph-name="Ecaron" unicode="&#x11a;" horiz-adv-x="1158" 
d="M511 1576l-312 329h244l160 -119l166 119h250l-312 -329h-196zM147 0v1455h915l-13 -256h-566v-307h537v-257h-537v-377h588l-11 -258h-913z" />
    <glyph glyph-name="ecaron" unicode="&#x11b;" horiz-adv-x="1189" 
d="M496 1232l-312 329h244l160 -119l166 119h250l-312 -329h-196zM403 672h415q-1 114 -53.5 176t-147.5 62q-85 0 -145.5 -56t-68.5 -182zM663 -19q-282 0 -436 152.5t-154 424.5q0 266 143 419.5t398 152.5q243 0 372 -143.5t129 -379.5q0 -20 -0.5 -62.5t-0.5 -63.5h-716
q5 -132 77 -203t202 -71q183 0 344 95l43 -219q-162 -102 -401 -102z" />
    <glyph glyph-name="Gcircumflex" unicode="&#x11c;" horiz-adv-x="1470" 
d="M318 1576l292 380h205l293 -380h-217l-183 183l-179 -183h-211zM808 -20q-335 0 -525.5 197t-190.5 555q0 338 202.5 540t557.5 202q276 0 465 -115l-102 -241q-181 92 -356 92q-192 0 -307.5 -126t-116.5 -357q0 -223 95.5 -352.5t275.5 -129.5q124 0 212 32v286h-279
l-2 253h597v-727q-144 -54 -266.5 -81.5t-259.5 -27.5z" />
    <glyph glyph-name="gcircumflex" unicode="&#x11d;" horiz-adv-x="1321" 
d="M246 1232l292 380h205l293 -380h-217l-183 183l-179 -183h-211zM647 209q131 0 186 91t57 265v11q-7 311 -221 314q-133 0 -200.5 -76.5t-67.5 -245.5q0 -163 67.5 -261t178.5 -98zM380 -485l-15 253h86q58 0 88 0.5t77 2t70.5 5t58 9.5t51.5 15.5t38 24t30.5 33t16 43.5
t6.5 56q0 69 -10 177q-24 -32 -42 -51t-51 -41t-80 -32t-110 -10q-102 0 -193 36t-164 105t-115.5 180.5t-42.5 251.5q0 115 30 210.5t79 158t113.5 106.5t130.5 63t132 19q230 0 326 -156l30 127h282v-1024q0 -161 -34.5 -266.5t-118 -172.5t-213 -95t-328.5 -28h-128z" />
    <glyph glyph-name="Gbreve" unicode="&#x11e;" horiz-adv-x="1470" 
d="M714 1576q-153 0 -235.5 61t-82.5 186h201q0 -38 23.5 -52t93.5 -14q69 0 92.5 14t23.5 52h200q0 -247 -316 -247zM808 -20q-335 0 -525.5 197t-190.5 555q0 338 202.5 540t557.5 202q276 0 465 -115l-102 -241q-181 92 -356 92q-192 0 -307.5 -126t-116.5 -357
q0 -223 95.5 -352.5t275.5 -129.5q124 0 212 32v286h-279l-2 253h597v-727q-144 -54 -266.5 -81.5t-259.5 -27.5z" />
    <glyph glyph-name="gbreve" unicode="&#x11f;" horiz-adv-x="1321" 
d="M641 1232q-153 0 -235.5 61t-82.5 186h201q0 -38 23.5 -52t93.5 -14q69 0 92.5 14t23.5 52h200q0 -247 -316 -247zM647 209q131 0 186 91t57 265v11q-7 311 -221 314q-133 0 -200.5 -76.5t-67.5 -245.5q0 -163 67.5 -261t178.5 -98zM380 -485l-15 253h86q58 0 88 0.5
t77 2t70.5 5t58 9.5t51.5 15.5t38 24t30.5 33t16 43.5t6.5 56q0 69 -10 177q-24 -32 -42 -51t-51 -41t-80 -32t-110 -10q-102 0 -193 36t-164 105t-115.5 180.5t-42.5 251.5q0 115 30 210.5t79 158t113.5 106.5t130.5 63t132 19q230 0 326 -156l30 127h282v-1024
q0 -161 -34.5 -266.5t-118 -172.5t-213 -95t-328.5 -28h-128z" />
    <glyph glyph-name="Gdotaccent" unicode="&#x120;" horiz-adv-x="1470" 
d="M602 1576v229h223v-229h-223zM808 -20q-335 0 -525.5 197t-190.5 555q0 338 202.5 540t557.5 202q276 0 465 -115l-102 -241q-181 92 -356 92q-192 0 -307.5 -126t-116.5 -357q0 -223 95.5 -352.5t275.5 -129.5q124 0 212 32v286h-279l-2 253h597v-727
q-144 -54 -266.5 -81.5t-259.5 -27.5z" />
    <glyph glyph-name="gdotaccent" unicode="&#x121;" horiz-adv-x="1321" 
d="M529 1232v229h223v-229h-223zM647 209q131 0 186 91t57 265v11q-7 311 -221 314q-133 0 -200.5 -76.5t-67.5 -245.5q0 -163 67.5 -261t178.5 -98zM380 -485l-15 253h86q58 0 88 0.5t77 2t70.5 5t58 9.5t51.5 15.5t38 24t30.5 33t16 43.5t6.5 56q0 69 -10 177
q-24 -32 -42 -51t-51 -41t-80 -32t-110 -10q-102 0 -193 36t-164 105t-115.5 180.5t-42.5 251.5q0 115 30 210.5t79 158t113.5 106.5t130.5 63t132 19q230 0 326 -156l30 127h282v-1024q0 -161 -34.5 -266.5t-118 -172.5t-213 -95t-328.5 -28h-128z" />
    <glyph glyph-name="Gcommaaccent" unicode="&#x122;" horiz-adv-x="1470" 
d="M583 -620h116l144 498h-165zM713 28zM713 28zM808 -20q-335 0 -525.5 197t-190.5 555q0 338 202.5 540t557.5 202q276 0 465 -115l-102 -241q-181 92 -356 92q-192 0 -307.5 -126t-116.5 -357q0 -223 95.5 -352.5t275.5 -129.5q124 0 212 32v286h-279l-2 253h597v-727
q-144 -54 -266.5 -81.5t-259.5 -27.5z" />
    <glyph glyph-name="gcommaaccent" unicode="&#x123;" horiz-adv-x="1322" 
d="M416 1188l165 529h182l-109 -529h-238zM647 209q131 0 186 91t57 265v11q-7 311 -221 314q-133 0 -200.5 -76.5t-67.5 -245.5q0 -163 67.5 -261t178.5 -98zM380 -485l-15 253h86q58 0 88 0.5t77 2t70.5 5t58 9.5t51.5 15.5t38 24t30.5 33t16 43.5t6.5 56q0 69 -10 177
q-24 -32 -42 -51t-51 -41t-80 -32t-110 -10q-102 0 -193 36t-164 105t-115.5 180.5t-42.5 251.5q0 115 30 210.5t79 158t113.5 106.5t130.5 63t132 19q230 0 326 -156l30 127h282v-1024q0 -161 -34.5 -266.5t-118 -172.5t-213 -95t-328.5 -28h-128z" />
    <glyph glyph-name="Hcircumflex" unicode="&#x124;" horiz-adv-x="1541" 
d="M376 1576l292 380h205l293 -380h-217l-183 183l-179 -183h-211zM147 0v1455h336v-575h574v575h337v-1455h-337v626h-574v-626h-336z" />
    <glyph glyph-name="hcircumflex" unicode="&#x125;" horiz-adv-x="1301" 
d="M259 1615l292 380h205l293 -380h-217l-183 183l-179 -183h-211zM126 0v1492l325 21v-231l-7 -296q129 144 337 144q185 0 293 -103.5t108 -326.5v-700h-326v669q0 115 -36.5 170t-120.5 55q-62 0 -117.5 -31t-96.5 -82q-34 -112 -34 -290v-491h-325z" />
    <glyph glyph-name="Hbar" unicode="&#x126;" horiz-adv-x="1509" 
d="M448 857h617v342h-617v-342zM120 0v1199h-83v151h83v82h328v-82h617v82h328v-82h83v-151h-83v-1199h-328v632h-617v-632h-328z" />
    <glyph glyph-name="hbar" unicode="&#x127;" horiz-adv-x="1240" 
d="M102 0v1195h-107v149h107v156l311 18v-174h313v-149h-313v-206q137 128 340 128q399 0 399 -448v-669h-312v678q0 113 -32 163t-120 50q-81 0 -153.5 -39.5t-121.5 -108.5v-743h-311z" />
    <glyph glyph-name="Itilde" unicode="&#x128;" horiz-adv-x="643" 
d="M-141 1576l-94 173q49 89 118.5 140.5t179.5 51.5q119 0 275 -65q124 -54 209 -54q63 0 117.5 25.5t133.5 97.5l81 -161q-46 -70 -148.5 -130.5t-208.5 -60.5q-51 0 -101.5 11.5t-84.5 24.5t-99 42q-96 47 -186 47q-116 0 -192 -142zM153 0v1455h337v-1455h-337z" />
    <glyph glyph-name="itilde" unicode="&#x129;" horiz-adv-x="626" 
d="M-182 1232l-94 173q49 89 118.5 140.5t179.5 51.5q119 0 275 -65q124 -54 209 -54q63 0 117.5 25.5t133.5 97.5l81 -161q-46 -70 -148.5 -130.5t-208.5 -60.5q-51 0 -101.5 11.5t-84.5 24.5t-99 42q-96 47 -186 47q-116 0 -192 -142zM125 0v1098h312v-1098h-312z" />
    <glyph glyph-name="Imacron" unicode="&#x12a;" horiz-adv-x="643" 
d="M-14 1576v173h671v-173h-671zM153 0v1455h337v-1455h-337z" />
    <glyph glyph-name="imacron" unicode="&#x12b;" horiz-adv-x="626" 
d="M-55 1232v173h671v-173h-671zM125 0v1098h312v-1098h-312z" />
    <glyph glyph-name="Ibreve" unicode="&#x12c;" horiz-adv-x="643" 
d="M323 1576q-153 0 -235.5 61t-82.5 186h201q0 -38 23.5 -52t93.5 -14q69 0 92.5 14t23.5 52h200q0 -247 -316 -247zM153 0v1455h337v-1455h-337z" />
    <glyph glyph-name="ibreve" unicode="&#x12d;" horiz-adv-x="626" 
d="M282 1232q-153 0 -235.5 61t-82.5 186h201q0 -38 23.5 -52t93.5 -14q69 0 92.5 14t23.5 52h200q0 -247 -316 -247zM125 0v1098h312v-1098h-312z" />
    <glyph glyph-name="Iogonek" unicode="&#x12e;" horiz-adv-x="643" 
d="M295 -413q-94 0 -154.5 42t-60.5 128q0 50 18.5 93.5t51.5 75t59.5 50.5t60.5 38h104q-87 -66 -87 -186q0 -31 19.5 -58t58.5 -27q26 0 61.5 9.5t54.5 17t30 13.5v-155q-103 -41 -216 -41zM511 -217zM153 0v1455h337v-1455h-337z" />
    <glyph glyph-name="iogonek" unicode="&#x12f;" horiz-adv-x="577" 
d="M261 -413q-94 0 -154.5 42t-60.5 128q0 50 18.5 93.5t51.5 75t59.5 50.5t60.5 38h104q-87 -66 -87 -186q0 -31 19.5 -58t58.5 -27q26 0 61.5 9.5t54.5 17t30 13.5v-155q-103 -41 -216 -41zM477 -217zM125 1233v241h327v-241h-327zM125 0v1101h326v-1101h-326z" />
    <glyph glyph-name="Idotaccent" unicode="&#x130;" horiz-adv-x="643" 
d="M211 1576v229h223v-229h-223zM153 0v1455h337v-1455h-337z" />
    <glyph glyph-name="dotlessi" unicode="&#x131;" horiz-adv-x="626" 
d="M125 0v1098h312v-1098h-312z" />
    <glyph glyph-name="IJ" unicode="&#x132;" horiz-adv-x="1332" 
d="M534 -392l-5 260q81 -13 126 -13q103 0 145 53.5t42 185.5v1357h335v-1366q0 -253 -123.5 -371.5t-384.5 -118.5q-67 0 -135 13zM153 0v1455h337v-1455h-337z" />
    <glyph glyph-name="ij" unicode="&#x133;" horiz-adv-x="1158" 
d="M742 1233v241h325v-241h-325zM533 -377l-33 223h62q112 0 146 41t34 167v1047h325v-965q0 -89 -7 -154.5t-25.5 -126.5t-52 -101.5t-85 -71.5t-126.5 -45t-174 -14h-64zM125 1233v241h327v-241h-327zM125 0v1101h326v-1101h-326z" />
    <glyph glyph-name="Jcircumflex" unicode="&#x134;" horiz-adv-x="689" 
d="M-185 1576l292 380h205l293 -380h-217l-183 183l-179 -183h-211zM-109 -392l-5 260q81 -13 126 -13q103 0 145 53.5t42 185.5v1357h335v-1366q0 -253 -123.5 -371.5t-384.5 -118.5q-67 0 -135 13z" />
    <glyph glyph-name="jcircumflex" unicode="&#x135;" horiz-adv-x="582" 
d="M-176 1232l292 380h205l293 -380h-217l-183 183l-179 -183h-211zM-26 -272l5 228h25q112 0 144.5 42t32.5 174v911h282v-827q0 -138 -19 -230t-69 -162.5t-140.5 -103t-228.5 -32.5h-32z" />
    <glyph glyph-name="Kcommaaccent" unicode="&#x136;" horiz-adv-x="1414" 
d="M638 -600h116l144 498h-165zM768 48zM768 48zM147 0v1455h336v-616q191 252 488 616h389l-522 -653l551 -802h-390l-418 624l-98 -77v-547h-336z" />
    <glyph glyph-name="kcommaaccent" unicode="&#x137;" horiz-adv-x="1261" 
d="M571 -600h116l144 498h-165zM701 48zM701 48zM125 0v1492l326 21v-593l-10 -278l45 41q53 67 116 136t148 156t121 126h379l-450 -472l477 -629h-390l-336 471l-100 -73v-398h-326z" />
    <glyph glyph-name="kgreenlandic" unicode="&#x138;" horiz-adv-x="1137" 
d="M93 0v1096h318v-440l394 440h385l-417 -470q-12 11 22 -36q52 -71 278 -365q174 -227 172 -227l-2 2h-399l-344 504l-89 -78v-426h-318z" />
    <glyph glyph-name="Lacute" unicode="&#x139;" horiz-adv-x="1105" 
d="M517 1576l161 380h329l-307 -380h-183zM147 0v1455h336v-1197h587l-8 -258h-915z" />
    <glyph glyph-name="lacute" unicode="&#x13a;" horiz-adv-x="767" 
d="M356 1615l161 380h329l-307 -380h-183zM572 -11q-108 0 -186 21t-127.5 59.5t-78 101t-39.5 135t-11 173.5v1013l326 21v-1071q0 -119 40 -166t135 -47q50 0 127 11l7 -223q-78 -28 -193 -28z" />
    <glyph glyph-name="Lcommaaccent" unicode="&#x13b;" horiz-adv-x="1105" 
d="M478 -600h116l144 498h-165zM608 48zM608 48zM147 0v1455h336v-1197h587l-8 -258h-915z" />
    <glyph glyph-name="lcommaaccent" unicode="&#x13c;" horiz-adv-x="767" 
d="M318 -611h116l144 498h-165zM448 37zM448 37zM572 -11q-108 0 -186 21t-127.5 59.5t-78 101t-39.5 135t-11 173.5v1013l326 21v-1071q0 -119 40 -166t135 -47q50 0 127 11l7 -223q-78 -28 -193 -28z" />
    <glyph glyph-name="Ldot" unicode="&#x13f;" horiz-adv-x="1105" 
d="M524 638h168v198h-168v-198zM147 0v1455h336v-1197h587l-8 -258h-915z" />
    <glyph glyph-name="Lslash" unicode="&#x141;" horiz-adv-x="1046" 
d="M119 0v577l-153 -95v209l153 95v655h329v-457l306 180v-206l-306 -182v-542h594l-17 -234h-906z" />
    <glyph glyph-name="lslash" unicode="&#x142;" horiz-adv-x="739" 
d="M571 -11q-129 0 -214.5 29.5t-132 92t-64.5 143t-18 199.5v319l-112 -55v209l112 55v517l312 20v-370l146 70v-206l-146 -71v-499q0 -47 1.5 -74.5t7.5 -55.5t17 -42t31 -26.5t49 -16.5t71 -4l80 5l16 -225q-98 -14 -156 -14zM727 3z" />
    <glyph glyph-name="Nacute" unicode="&#x143;" horiz-adv-x="1580" 
d="M699 1576l161 380h329l-307 -380h-183zM147 0v1455h351q116 -180 250.5 -396.5t250.5 -396.5q18 -27 63.5 -98t73.5 -114l-7 346v659h304v-1455h-356l-589 940l-47 86l9 -368v-658h-303z" />
    <glyph glyph-name="nacute" unicode="&#x144;" horiz-adv-x="1300" 
d="M563 1232l161 380h329l-307 -380h-183zM126 0v1101h258l35 -128q91 77 174 117t199 40q193 0 291.5 -113.5t98.5 -315.5v-701h-326v633q0 63 -6 106.5t-23.5 81t-52 56t-86.5 18.5q-57 0 -117.5 -30.5t-94.5 -75.5q-25 -85 -25 -298v-491h-325z" />
    <glyph glyph-name="Ncommaaccent" unicode="&#x145;" horiz-adv-x="1580" 
d="M660 -600h116l144 498h-165zM790 48zM790 48zM147 0v1455h351q116 -180 250.5 -396.5t250.5 -396.5q18 -27 63.5 -98t73.5 -114l-7 346v659h304v-1455h-356l-589 940l-47 86l9 -368v-658h-303z" />
    <glyph glyph-name="ncommaaccent" unicode="&#x146;" horiz-adv-x="1300" 
d="M524 -600h116l144 498h-165zM654 48zM654 48zM126 0v1101h258l35 -128q91 77 174 117t199 40q193 0 291.5 -113.5t98.5 -315.5v-701h-326v633q0 63 -6 106.5t-23.5 81t-52 56t-86.5 18.5q-57 0 -117.5 -30.5t-94.5 -75.5q-25 -85 -25 -298v-491h-325z" />
    <glyph glyph-name="Ncaron" unicode="&#x147;" horiz-adv-x="1580" 
d="M692 1576l-312 329h244l160 -119l166 119h250l-312 -329h-196zM147 0v1455h351q116 -180 250.5 -396.5t250.5 -396.5q18 -27 63.5 -98t73.5 -114l-7 346v659h304v-1455h-356l-589 940l-47 86l9 -368v-658h-303z" />
    <glyph glyph-name="ncaron" unicode="&#x148;" horiz-adv-x="1300" 
d="M556 1232l-312 329h244l160 -119l166 119h250l-312 -329h-196zM126 0v1101h258l35 -128q91 77 174 117t199 40q193 0 291.5 -113.5t98.5 -315.5v-701h-326v633q0 63 -6 106.5t-23.5 81t-52 56t-86.5 18.5q-57 0 -117.5 -30.5t-94.5 -75.5q-25 -85 -25 -298v-491h-325z
" />
    <glyph glyph-name="Omacron" unicode="&#x14c;" horiz-adv-x="1626" 
d="M477 1576v173h671v-173h-671zM813 -20q-161 0 -294 49.5t-228 143.5t-147.5 236t-52.5 320q0 238 91 407t253 253.5t379 84.5q332 0 526.5 -195t194.5 -551t-196 -552t-526 -196zM814 247q185 0 279.5 123t94.5 354t-94 359t-279 128q-186 0 -280 -128.5t-94 -358.5
t94 -353.5t279 -123.5z" />
    <glyph glyph-name="omacron" unicode="&#x14d;" horiz-adv-x="1236" 
d="M283 1232v173h671v-173h-671zM611 -19q-253 0 -395.5 156.5t-142.5 418.5q0 272 142 423t408 151q252 0 396 -155.5t144 -419.5q0 -268 -144 -421t-408 -153zM617 219q224 0 224 337t-225 337q-111 0 -166.5 -82.5t-55.5 -254.5q0 -337 223 -337z" />
    <glyph glyph-name="Obreve" unicode="&#x14e;" horiz-adv-x="1626" 
d="M814 1576q-153 0 -235.5 61t-82.5 186h201q0 -38 23.5 -52t93.5 -14q69 0 92.5 14t23.5 52h200q0 -247 -316 -247zM813 -20q-161 0 -294 49.5t-228 143.5t-147.5 236t-52.5 320q0 238 91 407t253 253.5t379 84.5q332 0 526.5 -195t194.5 -551t-196 -552t-526 -196z
M814 247q185 0 279.5 123t94.5 354t-94 359t-279 128q-186 0 -280 -128.5t-94 -358.5t94 -353.5t279 -123.5z" />
    <glyph glyph-name="obreve" unicode="&#x14f;" horiz-adv-x="1236" 
d="M619 1232q-153 0 -235.5 61t-82.5 186h201q0 -38 23.5 -52t93.5 -14q69 0 92.5 14t23.5 52h200q0 -247 -316 -247zM611 -19q-253 0 -395.5 156.5t-142.5 418.5q0 272 142 423t408 151q252 0 396 -155.5t144 -419.5q0 -268 -144 -421t-408 -153zM617 219q224 0 224 337
t-225 337q-111 0 -166.5 -82.5t-55.5 -254.5q0 -337 223 -337z" />
    <glyph glyph-name="Ohungarumlaut" unicode="&#x150;" horiz-adv-x="1626" 
d="M917 1576l277 379h275l-396 -379h-156zM554 1576l278 379h275l-395 -379h-158zM813 -20q-161 0 -294 49.5t-228 143.5t-147.5 236t-52.5 320q0 238 91 407t253 253.5t379 84.5q332 0 526.5 -195t194.5 -551t-196 -552t-526 -196zM814 247q185 0 279.5 123t94.5 354
t-94 359t-279 128q-186 0 -280 -128.5t-94 -358.5t94 -353.5t279 -123.5z" />
    <glyph glyph-name="ohungarumlaut" unicode="&#x151;" horiz-adv-x="1236" 
d="M721 1232l277 379h275l-396 -379h-156zM358 1232l278 379h275l-395 -379h-158zM611 -19q-253 0 -395.5 156.5t-142.5 418.5q0 272 142 423t408 151q252 0 396 -155.5t144 -419.5q0 -268 -144 -421t-408 -153zM617 219q224 0 224 337t-225 337q-111 0 -166.5 -82.5
t-55.5 -254.5q0 -337 223 -337z" />
    <glyph glyph-name="OE" unicode="&#x152;" horiz-adv-x="2306" 
d="M805 227q246 0 377 134v722q-128 140 -374 140q-84 0 -156 -30t-122 -80.5t-85.5 -117t-52 -139t-15.5 -147.5q0 -92 29.5 -178t82.5 -154t135.5 -109t180.5 -41zM809 -17q-150 0 -286.5 56.5t-236.5 153t-159.5 233t-59.5 290.5q-1 160 56.5 300t157.5 239t238.5 155.5
t295.5 56.5q193 0 367 -103v75h1070l-19 -239h-742v-325h715v-234h-715v-397h793l-18 -238h-1084v81q-90 -54 -176.5 -79t-196.5 -25z" />
    <glyph glyph-name="oe" unicode="&#x153;" horiz-adv-x="1856" 
d="M1123 654h409v8q1 130 -46 190t-148 60q-199 0 -215 -258zM598 186q103 0 174.5 93t71.5 276q0 97 -20.5 168.5t-56.5 111.5t-78 58.5t-91 18.5q-106 0 -174 -86.5t-68 -270.5q0 -179 70 -274t172 -95zM601 -19q-137 0 -242.5 46t-169.5 126t-96.5 181.5t-32.5 220.5
q0 125 32 226t96.5 177t169 117.5t242.5 41.5q258 0 384 -164q98 165 374 164q100 0 178.5 -28.5t130 -77.5t85 -118t47.5 -145.5t14 -165.5l-2 -94h-690q11 -304 287 -304q167 0 284 98l86 -177q-84 -62 -167.5 -93t-210.5 -31q-308 0 -417 173q-50 -77 -150.5 -125
t-231.5 -48z" />
    <glyph glyph-name="Racute" unicode="&#x154;" horiz-adv-x="1430" 
d="M683 1576l161 380h329l-307 -380h-183zM735 816q133 0 196 49.5t63 162.5q0 191 -258 191h-253v-404zM153 0v1451h590q107 0 188.5 -11t152.5 -39t116.5 -75t71 -120t25.5 -172q0 -150 -64 -243.5t-189 -143.5q23 -25 40 -47.5t33 -49.5t24 -41.5t26 -51t26 -51.5
l202 -406h-360l-149 329q-15 30 -46.5 92.5t-56 111t-26.5 52.5q-15 5 -73 5l-201 -2v-588h-330z" />
    <glyph glyph-name="racute" unicode="&#x155;" horiz-adv-x="832" 
d="M374 1232l161 380h329l-307 -380h-183zM124 0v1101h274l46 -150q50 80 123 115.5t178 35.5q37 0 62 -3l-3 -262q-26 4 -85 4q-148 0 -208.5 -63.5t-60.5 -195.5v-582h-326z" />
    <glyph glyph-name="Rcommaaccent" unicode="&#x156;" horiz-adv-x="1430" 
d="M644 -600h116l144 498h-165zM774 48zM774 48zM735 816q133 0 196 49.5t63 162.5q0 191 -258 191h-253v-404zM153 0v1451h590q107 0 188.5 -11t152.5 -39t116.5 -75t71 -120t25.5 -172q0 -150 -64 -243.5t-189 -143.5q23 -25 40 -47.5t33 -49.5t24 -41.5t26 -51t26 -51.5
l202 -406h-360l-149 329q-15 30 -46.5 92.5t-56 111t-26.5 52.5q-15 5 -73 5l-201 -2v-588h-330z" />
    <glyph glyph-name="rcommaaccent" unicode="&#x157;" horiz-adv-x="832" 
d="M336 -600h116l144 498h-165zM466 48zM466 48zM124 0v1101h274l46 -150q50 80 123 115.5t178 35.5q37 0 62 -3l-3 -262q-26 4 -85 4q-148 0 -208.5 -63.5t-60.5 -195.5v-582h-326z" />
    <glyph glyph-name="Rcaron" unicode="&#x158;" horiz-adv-x="1430" 
d="M676 1576l-312 329h244l160 -119l166 119h250l-312 -329h-196zM735 816q133 0 196 49.5t63 162.5q0 191 -258 191h-253v-404zM153 0v1451h590q107 0 188.5 -11t152.5 -39t116.5 -75t71 -120t25.5 -172q0 -150 -64 -243.5t-189 -143.5q23 -25 40 -47.5t33 -49.5t24 -41.5
t26 -51t26 -51.5l202 -406h-360l-149 329q-15 30 -46.5 92.5t-56 111t-26.5 52.5q-15 5 -73 5l-201 -2v-588h-330z" />
    <glyph glyph-name="rcaron" unicode="&#x159;" horiz-adv-x="832" 
d="M368 1232l-312 329h244l160 -119l166 119h250l-312 -329h-196zM124 0v1101h274l46 -150q50 80 123 115.5t178 35.5q37 0 62 -3l-3 -262q-26 4 -85 4q-148 0 -208.5 -63.5t-60.5 -195.5v-582h-326z" />
    <glyph glyph-name="Sacute" unicode="&#x15a;" horiz-adv-x="1163" 
d="M503 1576l161 380h329l-307 -380h-183zM528 -18q-221 0 -434 121l75 262q86 -51 186.5 -83.5t184.5 -32.5q107 0 162 44t55 116q0 98 -147 152q-102 32 -239 86q-267 117 -267 407q0 191 139 303t359 112q134 0 242.5 -25.5t220.5 -85.5l-103 -236q-210 83 -339 83
q-81 0 -123 -30t-49 -109q0 -44 15 -77t38 -45q24 -9 83 -34.5t130 -50.5q215 -79 297 -180t82 -277q0 -197 -154 -308.5t-414 -111.5z" />
    <glyph glyph-name="sacute" unicode="&#x15b;" horiz-adv-x="1006" 
d="M421 1232l161 380h329l-307 -380h-183zM493 -18q-256 0 -408 81l31 235q68 -37 179 -67t192 -30q66 0 104.5 26t37.5 74q0 43 -34.5 67.5t-125.5 63.5q-23 10 -35 15q-10 4 -19.5 8.5t-19.5 8.5q-79 33 -129.5 62t-92 69.5t-59.5 93t-18 123.5q0 318 428 318
q225 0 388 -83l-76 -217q-160 79 -305 79q-130 0 -130 -73q0 -41 40 -66t147 -66q15 -5 22 -8q23 -8 44 -18q140 -56 212.5 -134t72.5 -200q1 -173 -113.5 -267.5t-332.5 -94.5z" />
    <glyph glyph-name="scircumflex" unicode="&#x15d;" horiz-adv-x="1006" 
d="M117 1232l292 380h205l293 -380h-217l-183 183l-179 -183h-211zM493 -18q-256 0 -408 81l31 235q68 -37 179 -67t192 -30q66 0 104.5 26t37.5 74q0 43 -34.5 67.5t-125.5 63.5q-23 10 -35 15q-10 4 -19.5 8.5t-19.5 8.5q-79 33 -129.5 62t-92 69.5t-59.5 93t-18 123.5
q0 318 428 318q225 0 388 -83l-76 -217q-160 79 -305 79q-130 0 -130 -73q0 -41 40 -66t147 -66q15 -5 22 -8q23 -8 44 -18q140 -56 212.5 -134t72.5 -200q1 -173 -113.5 -267.5t-332.5 -94.5z" />
    <glyph glyph-name="Scedilla" unicode="&#x15e;" horiz-adv-x="1163" 
d="M373 -357l130 351h183l-67 -351h-246zM528 -18q-221 0 -434 121l75 262q86 -51 186.5 -83.5t184.5 -32.5q107 0 162 44t55 116q0 98 -147 152q-102 32 -239 86q-267 117 -267 407q0 191 139 303t359 112q134 0 242.5 -25.5t220.5 -85.5l-103 -236q-210 83 -339 83
q-81 0 -123 -30t-49 -109q0 -44 15 -77t38 -45q24 -9 83 -34.5t130 -50.5q215 -79 297 -180t82 -277q0 -197 -154 -308.5t-414 -111.5z" />
    <glyph glyph-name="scedilla" unicode="&#x15f;" horiz-adv-x="1006" 
d="M291 -357l130 351h183l-67 -351h-246zM493 -18q-256 0 -408 81l31 235q68 -37 179 -67t192 -30q66 0 104.5 26t37.5 74q0 43 -34.5 67.5t-125.5 63.5q-23 10 -35 15q-10 4 -19.5 8.5t-19.5 8.5q-79 33 -129.5 62t-92 69.5t-59.5 93t-18 123.5q0 318 428 318
q225 0 388 -83l-76 -217q-160 79 -305 79q-130 0 -130 -73q0 -41 40 -66t147 -66q15 -5 22 -8q23 -8 44 -18q140 -56 212.5 -134t72.5 -200q1 -173 -113.5 -267.5t-332.5 -94.5z" />
    <glyph glyph-name="Scaron" unicode="&#x160;" horiz-adv-x="1163" 
d="M497 1576l-312 329h244l160 -119l166 119h250l-312 -329h-196zM528 -18q-221 0 -434 121l75 262q86 -51 186.5 -83.5t184.5 -32.5q107 0 162 44t55 116q0 98 -147 152q-102 32 -239 86q-267 117 -267 407q0 191 139 303t359 112q134 0 242.5 -25.5t220.5 -85.5l-103 -236
q-210 83 -339 83q-81 0 -123 -30t-49 -109q0 -44 15 -77t38 -45q24 -9 83 -34.5t130 -50.5q215 -79 297 -180t82 -277q0 -197 -154 -308.5t-414 -111.5z" />
    <glyph glyph-name="scaron" unicode="&#x161;" horiz-adv-x="1006" 
d="M414 1232l-312 329h244l160 -119l166 119h250l-312 -329h-196zM493 -18q-256 0 -408 81l31 235q68 -37 179 -67t192 -30q66 0 104.5 26t37.5 74q0 43 -34.5 67.5t-125.5 63.5q-23 10 -35 15q-10 4 -19.5 8.5t-19.5 8.5q-79 33 -129.5 62t-92 69.5t-59.5 93t-18 123.5
q0 318 428 318q225 0 388 -83l-76 -217q-160 79 -305 79q-130 0 -130 -73q0 -41 40 -66t147 -66q15 -5 22 -8q23 -8 44 -18q140 -56 212.5 -134t72.5 -200q1 -173 -113.5 -267.5t-332.5 -94.5z" />
    <glyph glyph-name="Tcaron" unicode="&#x164;" horiz-adv-x="1188" 
d="M496 1576l-312 329h244l160 -119l166 119h250l-312 -329h-196zM427 0v1196h-409v259h1152v-259h-406v-1196h-337z" />
    <glyph glyph-name="tcaron" unicode="&#x165;" horiz-adv-x="837" 
d="M956 912q70 275 122 517h276l-6 -51q-71 -231 -167 -466h-225zM620 -11q-76 0 -136 10.5t-105.5 30.5t-78.5 52.5t-54.5 72t-34.5 93t-18 112t-5 132.5v426h-190l11 164l211 19l101 328l193 -1v-327h252v-183h-252v-454q0 -126 34.5 -180t135.5 -54q9 0 109 6l7 -225
l-56 -12q-64 -10 -124 -10z" />
    <glyph glyph-name="Utilde" unicode="&#x168;" 
d="M281 1576l-94 173q49 89 118.5 140.5t179.5 51.5q119 0 275 -65q124 -54 209 -54q63 0 117.5 25.5t133.5 97.5l81 -161q-46 -70 -148.5 -130.5t-208.5 -60.5q-51 0 -101.5 11.5t-84.5 24.5t-99 42q-96 47 -186 47q-116 0 -192 -142zM742 -20q-291 0 -448.5 143.5
t-157.5 407.5v924h337v-884q0 -172 60.5 -248t211.5 -76q149 0 210.5 76.5t61.5 248.5v883h336v-926q0 -261 -160 -405t-451 -144z" />
    <glyph glyph-name="utilde" unicode="&#x169;" horiz-adv-x="1196" 
d="M135 1232l-94 173q49 89 118.5 140.5t179.5 51.5q119 0 275 -65q124 -54 209 -54q63 0 117.5 25.5t133.5 97.5l81 -161q-46 -70 -148.5 -130.5t-208.5 -60.5q-51 0 -101.5 11.5t-84.5 24.5t-99 42q-96 47 -186 47q-116 0 -192 -142zM597 -19q-228 0 -361.5 115
t-133.5 326v679h327v-661q0 -116 36.5 -168.5t135.5 -52.5q98 0 133 52t35 169v661h325v-679q0 -209 -134.5 -325t-362.5 -116z" />
    <glyph glyph-name="Umacron" unicode="&#x16a;" 
d="M409 1576v173h671v-173h-671zM742 -20q-291 0 -448.5 143.5t-157.5 407.5v924h337v-884q0 -172 60.5 -248t211.5 -76q149 0 210.5 76.5t61.5 248.5v883h336v-926q0 -261 -160 -405t-451 -144z" />
    <glyph glyph-name="umacron" unicode="&#x16b;" horiz-adv-x="1196" 
d="M263 1232v173h671v-173h-671zM597 -19q-228 0 -361.5 115t-133.5 326v679h327v-661q0 -116 36.5 -168.5t135.5 -52.5q98 0 133 52t35 169v661h325v-679q0 -209 -134.5 -325t-362.5 -116z" />
    <glyph glyph-name="Ubreve" unicode="&#x16c;" 
d="M745 1576q-153 0 -235.5 61t-82.5 186h201q0 -38 23.5 -52t93.5 -14q69 0 92.5 14t23.5 52h200q0 -247 -316 -247zM742 -20q-291 0 -448.5 143.5t-157.5 407.5v924h337v-884q0 -172 60.5 -248t211.5 -76q149 0 210.5 76.5t61.5 248.5v883h336v-926q0 -261 -160 -405
t-451 -144z" />
    <glyph glyph-name="ubreve" unicode="&#x16d;" horiz-adv-x="1196" 
d="M599 1232q-153 0 -235.5 61t-82.5 186h201q0 -38 23.5 -52t93.5 -14q69 0 92.5 14t23.5 52h200q0 -247 -316 -247zM597 -19q-228 0 -361.5 115t-133.5 326v679h327v-661q0 -116 36.5 -168.5t135.5 -52.5q98 0 133 52t35 169v661h325v-679q0 -209 -134.5 -325t-362.5 -116
z" />
    <glyph glyph-name="Uring" unicode="&#x16e;" 
d="M745 1576q-80 0 -143 25t-100 66t-56 90t-19 102q0 114 81 192.5t237 78.5q153 0 235 -79t82 -192q0 -53 -19.5 -102.5t-56.5 -90.5t-99.5 -65.5t-141.5 -24.5zM746 1709q59 0 102.5 37.5t43.5 109.5q0 68 -43.5 103.5t-102.5 35.5q-60 0 -104.5 -36t-44.5 -103
q0 -71 45 -109t104 -38zM742 -20q-291 0 -448.5 143.5t-157.5 407.5v924h337v-884q0 -172 60.5 -248t211.5 -76q149 0 210.5 76.5t61.5 248.5v883h336v-926q0 -261 -160 -405t-451 -144z" />
    <glyph glyph-name="uring" unicode="&#x16f;" horiz-adv-x="1196" 
d="M599 1232q-80 0 -143 25t-100 66t-56 90t-19 102q0 114 81 192.5t237 78.5q153 0 235 -79t82 -192q0 -53 -19.5 -102.5t-56.5 -90.5t-99.5 -65.5t-141.5 -24.5zM600 1365q59 0 102.5 37.5t43.5 109.5q0 68 -43.5 103.5t-102.5 35.5q-60 0 -104.5 -36t-44.5 -103
q0 -71 45 -109t104 -38zM597 -19q-228 0 -361.5 115t-133.5 326v679h327v-661q0 -116 36.5 -168.5t135.5 -52.5q98 0 133 52t35 169v661h325v-679q0 -209 -134.5 -325t-362.5 -116z" />
    <glyph glyph-name="Uhungarumlaut" unicode="&#x170;" 
d="M848 1576l277 379h275l-396 -379h-156zM485 1576l278 379h275l-395 -379h-158zM742 -20q-291 0 -448.5 143.5t-157.5 407.5v924h337v-884q0 -172 60.5 -248t211.5 -76q149 0 210.5 76.5t61.5 248.5v883h336v-926q0 -261 -160 -405t-451 -144z" />
    <glyph glyph-name="uhungarumlaut" unicode="&#x171;" horiz-adv-x="1196" 
d="M701 1232l277 379h275l-396 -379h-156zM338 1232l278 379h275l-395 -379h-158zM597 -19q-228 0 -361.5 115t-133.5 326v679h327v-661q0 -116 36.5 -168.5t135.5 -52.5q98 0 133 52t35 169v661h325v-679q0 -209 -134.5 -325t-362.5 -116z" />
    <glyph glyph-name="Uogonek" unicode="&#x172;" 
d="M717 -433q-94 0 -154.5 42t-60.5 128q0 50 18.5 93.5t51.5 75t59.5 50.5t60.5 38h104q-87 -66 -87 -186q0 -31 19.5 -58t58.5 -27q26 0 61.5 9.5t54.5 17t30 13.5v-155q-103 -41 -216 -41zM933 -237zM742 -20q-291 0 -448.5 143.5t-157.5 407.5v924h337v-884
q0 -172 60.5 -248t211.5 -76q149 0 210.5 76.5t61.5 248.5v883h336v-926q0 -261 -160 -405t-451 -144z" />
    <glyph glyph-name="uogonek" unicode="&#x173;" horiz-adv-x="1196" 
d="M623 -432q-94 0 -154.5 42t-60.5 128q0 50 18.5 93.5t51.5 75t59.5 50.5t60.5 38h104q-87 -66 -87 -186q0 -31 19.5 -58t58.5 -27q26 0 61.5 9.5t54.5 17t30 13.5v-155q-103 -41 -216 -41zM839 -236zM597 -19q-228 0 -361.5 115t-133.5 326v679h327v-661
q0 -116 36.5 -168.5t135.5 -52.5q98 0 133 52t35 169v661h325v-679q0 -209 -134.5 -325t-362.5 -116z" />
    <glyph glyph-name="Wcircumflex" unicode="&#x174;" horiz-adv-x="2077" 
d="M637 1576l292 380h205l293 -380h-217l-183 183l-179 -183h-211zM382 0l-366 1455h330l230 -1050l312 1057h301l293 -1063l236 1056h330l-382 -1455h-343l-281 959l-319 -959h-341z" />
    <glyph glyph-name="wcircumflex" unicode="&#x175;" horiz-adv-x="1785" 
d="M498 1232l292 380h205l293 -380h-217l-183 183l-179 -183h-211zM533 356q6 26 54 201t95 347t53 197h319q3 -10 11.5 -45.5t21.5 -85.5t29 -111.5t32.5 -124.5t32.5 -125.5t29 -113t22.5 -87.5t11.5 -49l207 742h325l-364 -1101h-313q-5 21 -36.5 143.5t-67 260t-68 263
t-37.5 148.5q-6 -22 -41.5 -148.5t-73.5 -263.5t-71.5 -259.5t-38.5 -143.5h-310l-346 1101h329zM735 1101h-1h1zM1054 1101h1h-1zM1099 0h-1h1zM665 0h1h-1z" />
    <glyph glyph-name="Ycircumflex" unicode="&#x176;" horiz-adv-x="1297" 
d="M252 1576l292 380h205l293 -380h-217l-183 183l-179 -183h-211zM488 0v577l-512 878h365l311 -572l309 572h358l-495 -872v-583h-336z" />
    <glyph glyph-name="ycircumflex" unicode="&#x177;" horiz-adv-x="1178" 
d="M186 1232l292 380h205l293 -380h-217l-183 183l-179 -183h-211zM233 -440q-74 0 -159 8l-15 244q51 -7 140 -7q76 0 127.5 32.5t82.5 110.5q6 14 26 80l-447 1073h348l251 -721q54 194 130.5 409t107.5 312h350l-463 -1190q-73 -194 -187 -272.5t-292 -78.5z" />
    <glyph glyph-name="Ydieresis" unicode="&#x178;" horiz-adv-x="1297" 
d="M757 1576v282h223v-282h-223zM316 1576v282h221v-282h-221zM488 0v577l-512 878h365l311 -572l309 572h358l-495 -872v-583h-336z" />
    <glyph glyph-name="Zacute" unicode="&#x179;" horiz-adv-x="1225" 
d="M527 1576l161 380h329l-307 -380h-183zM46 0v200l752 998h-727v257h1113v-241l-726 -956h730l2 -258h-1144z" />
    <glyph glyph-name="zacute" unicode="&#x17a;" horiz-adv-x="1020" 
d="M416 1232l161 380h329l-307 -380h-183zM53 0v181l532 704h-499v216h859v-211l-486 -659h503v-231h-909z" />
    <glyph glyph-name="Zdotaccent" unicode="&#x17b;" horiz-adv-x="1225" 
d="M507 1576v229h223v-229h-223zM46 0v200l752 998h-727v257h1113v-241l-726 -956h730l2 -258h-1144z" />
    <glyph glyph-name="zdotaccent" unicode="&#x17c;" horiz-adv-x="1020" 
d="M397 1232v229h223v-229h-223zM53 0v181l532 704h-499v216h859v-211l-486 -659h503v-231h-909z" />
    <glyph glyph-name="Zcaron" unicode="&#x17d;" horiz-adv-x="1225" 
d="M520 1576l-312 329h244l160 -119l166 119h250l-312 -329h-196zM46 0v200l752 998h-727v257h1113v-241l-726 -956h730l2 -258h-1144z" />
    <glyph glyph-name="zcaron" unicode="&#x17e;" horiz-adv-x="1020" 
d="M410 1232l-312 329h244l160 -119l166 119h250l-312 -329h-196zM53 0v181l532 704h-499v216h859v-211l-486 -659h503v-231h-909z" />
    <glyph glyph-name="florin" unicode="&#x192;" horiz-adv-x="1106" 
d="M1080 1388l-14 -230q-1066 -1158 -9 3q-106 36 -136 36q-67 0 -95.5 -27.5t-42.5 -93.5l-28 -140h199l-16 -211h-223l-127 -599q-17 -77 -28.5 -120.5t-42.5 -115t-70 -111t-107.5 -70.5t-156.5 -31q-14 0 -48 6t-65.5 12.5t-32.5 6.5l21 217l14 -4q83 -26 97 -26
q30 0 52.5 12t38 37.5t24.5 48.5t20 61q28 98 51.5 201t56.5 267t43 211h-157l17 208h181l17 108q55 371 384 371q11 0 26.5 -1.5t31.5 -3.5t33 -5t33 -6t28 -5t21 -4t10 -2zM1080 1388zM37 -297z" />
    <glyph glyph-name="uni01C4" unicode="&#x1c4;" horiz-adv-x="2747" 
d="M2042 1576l-312 329h244l160 -119l166 119h250l-312 -329h-196zM1568 0v200l752 998h-727v257h1113v-241l-726 -956h730l2 -258h-1144zM149 0v1455h434q400 0 624 -181.5t224 -537.5q0 -352 -219.5 -544t-607.5 -192h-455zM486 261h148q224 0 340.5 120.5t116.5 348.5
q0 243 -117.5 353t-368.5 110h-119v-932z" />
    <glyph glyph-name="uni01C5" unicode="&#x1c5;" horiz-adv-x="2542" 
d="M1932 1232l-312 329h244l160 -119l166 119h250l-312 -329h-196zM1575 0v181l532 704h-499v216h859v-211l-486 -659h503v-231h-909zM149 0v1455h434q400 0 624 -181.5t224 -537.5q0 -352 -219.5 -544t-607.5 -192h-455zM486 261h148q224 0 340.5 120.5t116.5 348.5
q0 243 -117.5 353t-368.5 110h-119v-932z" />
    <glyph glyph-name="uni01C6" unicode="&#x1c6;" horiz-adv-x="2311" 
d="M1701 1232l-312 329h244l160 -119l166 119h250l-312 -329h-196zM1344 0v181l532 704h-499v216h859v-211l-486 -659h503v-231h-909zM626 216q224 0 229 325q0 191 -61 271t-171 80q-46 0 -84.5 -16t-72.5 -52.5t-53.5 -105t-19.5 -163.5q0 -176 67 -257.5t166 -81.5z
M533 -20q-213 0 -336.5 161t-123.5 422q0 258 121.5 412.5t338.5 154.5q67 0 121.5 -13t84.5 -28t57 -41.5t34 -38t19 -34.5q2 -3 3 -5q-14 137 -14 251v271l326 21v-1513h-283l-35 144q-1 -2 -8.5 -16.5t-11 -20t-13.5 -20.5t-18 -22.5t-23 -21t-30 -20.5t-37.5 -16.5
t-47 -14.5t-56.5 -8.5t-68 -3.5z" />
    <glyph glyph-name="uni01C7" unicode="&#x1c7;" horiz-adv-x="1794" 
d="M996 -392l-5 260q81 -13 126 -13q103 0 145 53.5t42 185.5v1357h335v-1366q0 -253 -123.5 -371.5t-384.5 -118.5q-67 0 -135 13zM147 0v1455h336v-1197h587l-8 -258h-915z" />
    <glyph glyph-name="uni01C8" unicode="&#x1c8;" horiz-adv-x="1686" 
d="M1270 1233v241h325v-241h-325zM1061 -377l-33 223h62q112 0 146 41t34 167v1047h325v-965q0 -89 -7 -154.5t-25.5 -126.5t-52 -101.5t-85 -71.5t-126.5 -45t-174 -14h-64zM147 0v1455h336v-1197h587l-8 -258h-915z" />
    <glyph glyph-name="uni01C9" unicode="&#x1c9;" horiz-adv-x="1348" 
d="M932 1233v241h325v-241h-325zM723 -377l-33 223h62q112 0 146 41t34 167v1047h325v-965q0 -89 -7 -154.5t-25.5 -126.5t-52 -101.5t-85 -71.5t-126.5 -45t-174 -14h-64zM572 -11q-108 0 -186 21t-127.5 59.5t-78 101t-39.5 135t-11 173.5v1013l326 21v-1071
q0 -119 40 -166t135 -47q50 0 127 11l7 -223q-78 -28 -193 -28z" />
    <glyph glyph-name="uni01CA" unicode="&#x1ca;" horiz-adv-x="2269" 
d="M1471 -392l-5 260q81 -13 126 -13q103 0 145 53.5t42 185.5v1357h335v-1366q0 -253 -123.5 -371.5t-384.5 -118.5q-67 0 -135 13zM147 0v1455h351q116 -180 250.5 -396.5t250.5 -396.5q18 -27 63.5 -98t73.5 -114l-7 346v659h304v-1455h-356l-589 940l-47 86l9 -368v-658
h-303z" />
    <glyph glyph-name="uni01CB" unicode="&#x1cb;" horiz-adv-x="2161" 
d="M1745 1233v241h325v-241h-325zM1536 -377l-33 223h62q112 0 146 41t34 167v1047h325v-965q0 -89 -7 -154.5t-25.5 -126.5t-52 -101.5t-85 -71.5t-126.5 -45t-174 -14h-64zM147 0v1455h351q116 -180 250.5 -396.5t250.5 -396.5q18 -27 63.5 -98t73.5 -114l-7 346v659h304
v-1455h-356l-589 940l-47 86l9 -368v-658h-303z" />
    <glyph glyph-name="uni01CC" unicode="&#x1cc;" horiz-adv-x="1881" 
d="M1465 1233v241h325v-241h-325zM1256 -377l-33 223h62q112 0 146 41t34 167v1047h325v-965q0 -89 -7 -154.5t-25.5 -126.5t-52 -101.5t-85 -71.5t-126.5 -45t-174 -14h-64zM126 0v1101h258l35 -128q91 77 174 117t199 40q193 0 291.5 -113.5t98.5 -315.5v-701h-326v633
q0 63 -6 106.5t-23.5 81t-52 56t-86.5 18.5q-57 0 -117.5 -30.5t-94.5 -75.5q-25 -85 -25 -298v-491h-325z" />
    <glyph glyph-name="uni01F1" unicode="&#x1f1;" horiz-adv-x="2747" 
d="M1568 0v200l752 998h-727v257h1113v-241l-726 -956h730l2 -258h-1144zM149 0v1455h434q400 0 624 -181.5t224 -537.5q0 -352 -219.5 -544t-607.5 -192h-455zM486 261h148q224 0 340.5 120.5t116.5 348.5q0 243 -117.5 353t-368.5 110h-119v-932z" />
    <glyph glyph-name="uni01F2" unicode="&#x1f2;" horiz-adv-x="2542" 
d="M1575 0v181l532 704h-499v216h859v-211l-486 -659h503v-231h-909zM149 0v1455h434q400 0 624 -181.5t224 -537.5q0 -352 -219.5 -544t-607.5 -192h-455zM486 261h148q224 0 340.5 120.5t116.5 348.5q0 243 -117.5 353t-368.5 110h-119v-932z" />
    <glyph glyph-name="uni01F3" unicode="&#x1f3;" horiz-adv-x="2311" 
d="M1344 0v181l532 704h-499v216h859v-211l-486 -659h503v-231h-909zM626 216q224 0 229 325q0 191 -61 271t-171 80q-46 0 -84.5 -16t-72.5 -52.5t-53.5 -105t-19.5 -163.5q0 -176 67 -257.5t166 -81.5zM533 -20q-213 0 -336.5 161t-123.5 422q0 258 121.5 412.5
t338.5 154.5q67 0 121.5 -13t84.5 -28t57 -41.5t34 -38t19 -34.5q2 -3 3 -5q-14 137 -14 251v271l326 21v-1513h-283l-35 144q-1 -2 -8.5 -16.5t-11 -20t-13.5 -20.5t-18 -22.5t-23 -21t-30 -20.5t-37.5 -16.5t-47 -14.5t-56.5 -8.5t-68 -3.5z" />
    <glyph glyph-name="uni01F4" unicode="&#x1f4;" horiz-adv-x="1470" 
d="M621 1576l161 380h329l-307 -380h-183zM808 -20q-335 0 -525.5 197t-190.5 555q0 338 202.5 540t557.5 202q276 0 465 -115l-102 -241q-181 92 -356 92q-192 0 -307.5 -126t-116.5 -357q0 -223 95.5 -352.5t275.5 -129.5q124 0 212 32v286h-279l-2 253h597v-727
q-144 -54 -266.5 -81.5t-259.5 -27.5z" />
    <glyph glyph-name="uni01F5" unicode="&#x1f5;" horiz-adv-x="1321" 
d="M549 1232l161 380h329l-307 -380h-183zM647 209q131 0 186 91t57 265v11q-7 311 -221 314q-133 0 -200.5 -76.5t-67.5 -245.5q0 -163 67.5 -261t178.5 -98zM380 -485l-15 253h86q58 0 88 0.5t77 2t70.5 5t58 9.5t51.5 15.5t38 24t30.5 33t16 43.5t6.5 56q0 69 -10 177
q-24 -32 -42 -51t-51 -41t-80 -32t-110 -10q-102 0 -193 36t-164 105t-115.5 180.5t-42.5 251.5q0 115 30 210.5t79 158t113.5 106.5t130.5 63t132 19q230 0 326 -156l30 127h282v-1024q0 -161 -34.5 -266.5t-118 -172.5t-213 -95t-328.5 -28h-128z" />
    <glyph glyph-name="uni0200" unicode="&#x200;" horiz-adv-x="1397" 
d="M790 1576l-330 342h329l246 -342h-245zM362 1576l-358 342h358l217 -342h-217zM546 618h309l-153 534zM-7 0l519 1455h374l518 -1455h-345l-126 378h-462l-123 -378h-355z" />
    <glyph glyph-name="uni0201" unicode="&#x201;" horiz-adv-x="1171" 
d="M653 1232l-330 342h329l246 -342h-245zM225 1232l-358 342h358l217 -342h-217zM516 200q32 0 61 6t52.5 18t38 21.5t33.5 24.5t24 18v230l-89 -7q-57 -5 -99.5 -16t-78.5 -31.5t-55 -55.5t-19 -84q0 -58 33.5 -91t98.5 -33zM415 -19q-152 0 -247 86.5t-95 251.5
q0 175 102 258t318 106q41 6 121.5 14.5t109.5 12.5v32q0 89 -40.5 127t-119.5 38q-114 0 -333 -71l-79 215q112 42 213 60.5t235 18.5q234 0 341.5 -101t107.5 -318v-711h-236l-20 50l-33 81q-76 -73 -153 -111.5t-192 -38.5z" />
    <glyph glyph-name="uni0202" unicode="&#x202;" horiz-adv-x="1397" 
d="M381 1576q0 73 48 126t119.5 77t155.5 24q82 0 151 -24t115 -76.5t46 -126.5h-201q0 40 -36 62.5t-82 22.5q-44 0 -79.5 -23t-35.5 -62h-201zM546 618h309l-153 534zM-7 0l519 1455h374l518 -1455h-345l-126 378h-462l-123 -378h-355z" />
    <glyph glyph-name="uni0203" unicode="&#x203;" horiz-adv-x="1171" 
d="M243 1232q0 73 48 126t119.5 77t155.5 24q82 0 151 -24t115 -76.5t46 -126.5h-201q0 40 -36 62.5t-82 22.5q-44 0 -79.5 -23t-35.5 -62h-201zM516 200q32 0 61 6t52.5 18t38 21.5t33.5 24.5t24 18v230l-89 -7q-57 -5 -99.5 -16t-78.5 -31.5t-55 -55.5t-19 -84
q0 -58 33.5 -91t98.5 -33zM415 -19q-152 0 -247 86.5t-95 251.5q0 175 102 258t318 106q41 6 121.5 14.5t109.5 12.5v32q0 89 -40.5 127t-119.5 38q-114 0 -333 -71l-79 215q112 42 213 60.5t235 18.5q234 0 341.5 -101t107.5 -318v-711h-236l-20 50l-33 81
q-76 -73 -153 -111.5t-192 -38.5z" />
    <glyph glyph-name="uni0204" unicode="&#x204;" horiz-adv-x="1158" 
d="M701 1576l-330 342h329l246 -342h-245zM273 1576l-358 342h358l217 -342h-217zM147 0v1455h915l-13 -256h-566v-307h537v-257h-537v-377h588l-11 -258h-913z" />
    <glyph glyph-name="uni0205" unicode="&#x205;" horiz-adv-x="1189" 
d="M685 1232l-330 342h329l246 -342h-245zM257 1232l-358 342h358l217 -342h-217zM403 672h415q-1 114 -53.5 176t-147.5 62q-85 0 -145.5 -56t-68.5 -182zM663 -19q-282 0 -436 152.5t-154 424.5q0 266 143 419.5t398 152.5q243 0 372 -143.5t129 -379.5q0 -20 -0.5 -62.5
t-0.5 -63.5h-716q5 -132 77 -203t202 -71q183 0 344 95l43 -219q-162 -102 -401 -102z" />
    <glyph glyph-name="uni0206" unicode="&#x206;" horiz-adv-x="1158" 
d="M291 1576q0 73 48 126t119.5 77t155.5 24q82 0 151 -24t115 -76.5t46 -126.5h-201q0 40 -36 62.5t-82 22.5q-44 0 -79.5 -23t-35.5 -62h-201zM147 0v1455h915l-13 -256h-566v-307h537v-257h-537v-377h588l-11 -258h-913z" />
    <glyph glyph-name="uni0207" unicode="&#x207;" horiz-adv-x="1189" 
d="M277 1232q0 73 48 126t119.5 77t155.5 24q82 0 151 -24t115 -76.5t46 -126.5h-201q0 40 -36 62.5t-82 22.5q-44 0 -79.5 -23t-35.5 -62h-201zM403 672h415q-1 114 -53.5 176t-147.5 62q-85 0 -145.5 -56t-68.5 -182zM663 -19q-282 0 -436 152.5t-154 424.5
q0 266 143 419.5t398 152.5q243 0 372 -143.5t129 -379.5q0 -20 -0.5 -62.5t-0.5 -63.5h-716q5 -132 77 -203t202 -71q183 0 344 95l43 -219q-162 -102 -401 -102z" />
    <glyph glyph-name="uni0208" unicode="&#x208;" horiz-adv-x="643" 
d="M413 1576l-330 342h329l246 -342h-245zM-15 1576l-358 342h358l217 -342h-217zM153 0v1455h337v-1455h-337z" />
    <glyph glyph-name="uni0209" unicode="&#x209;" horiz-adv-x="626" 
d="M373 1232l-330 342h329l246 -342h-245zM-55 1232l-358 342h358l217 -342h-217zM125 0v1098h312v-1098h-312z" />
    <glyph glyph-name="uni020A" unicode="&#x20a;" horiz-adv-x="643" 
d="M4 1576q0 73 48 126t119.5 77t155.5 24q82 0 151 -24t115 -76.5t46 -126.5h-201q0 40 -36 62.5t-82 22.5q-44 0 -79.5 -23t-35.5 -62h-201zM153 0v1455h337v-1455h-337z" />
    <glyph glyph-name="uni020B" unicode="&#x20b;" horiz-adv-x="626" 
d="M-37 1232q0 73 48 126t119.5 77t155.5 24q82 0 151 -24t115 -76.5t46 -126.5h-201q0 40 -36 62.5t-82 22.5q-44 0 -79.5 -23t-35.5 -62h-201zM125 0v1098h312v-1098h-312z" />
    <glyph glyph-name="uni020C" unicode="&#x20c;" horiz-adv-x="1626" 
d="M905 1576l-330 342h329l246 -342h-245zM477 1576l-358 342h358l217 -342h-217zM813 -20q-161 0 -294 49.5t-228 143.5t-147.5 236t-52.5 320q0 238 91 407t253 253.5t379 84.5q332 0 526.5 -195t194.5 -551t-196 -552t-526 -196zM814 247q185 0 279.5 123t94.5 354
t-94 359t-279 128q-186 0 -280 -128.5t-94 -358.5t94 -353.5t279 -123.5z" />
    <glyph glyph-name="uni020D" unicode="&#x20d;" horiz-adv-x="1236" 
d="M709 1232l-330 342h329l246 -342h-245zM281 1232l-358 342h358l217 -342h-217zM611 -19q-253 0 -395.5 156.5t-142.5 418.5q0 272 142 423t408 151q252 0 396 -155.5t144 -419.5q0 -268 -144 -421t-408 -153zM617 219q224 0 224 337t-225 337q-111 0 -166.5 -82.5
t-55.5 -254.5q0 -337 223 -337z" />
    <glyph glyph-name="uni020E" unicode="&#x20e;" horiz-adv-x="1626" 
d="M495 1576q0 73 48 126t119.5 77t155.5 24q82 0 151 -24t115 -76.5t46 -126.5h-201q0 40 -36 62.5t-82 22.5q-44 0 -79.5 -23t-35.5 -62h-201zM813 -20q-161 0 -294 49.5t-228 143.5t-147.5 236t-52.5 320q0 238 91 407t253 253.5t379 84.5q332 0 526.5 -195t194.5 -551
t-196 -552t-526 -196zM814 247q185 0 279.5 123t94.5 354t-94 359t-279 128q-186 0 -280 -128.5t-94 -358.5t94 -353.5t279 -123.5z" />
    <glyph glyph-name="uni020F" unicode="&#x20f;" horiz-adv-x="1236" 
d="M301 1232q0 73 48 126t119.5 77t155.5 24q82 0 151 -24t115 -76.5t46 -126.5h-201q0 40 -36 62.5t-82 22.5q-44 0 -79.5 -23t-35.5 -62h-201zM611 -19q-253 0 -395.5 156.5t-142.5 418.5q0 272 142 423t408 151q252 0 396 -155.5t144 -419.5q0 -268 -144 -421t-408 -153z
M617 219q224 0 224 337t-225 337q-111 0 -166.5 -82.5t-55.5 -254.5q0 -337 223 -337z" />
    <glyph glyph-name="uni0210" unicode="&#x210;" horiz-adv-x="1430" 
d="M865 1576l-330 342h329l246 -342h-245zM437 1576l-358 342h358l217 -342h-217zM735 816q133 0 196 49.5t63 162.5q0 191 -258 191h-253v-404zM153 0v1451h590q107 0 188.5 -11t152.5 -39t116.5 -75t71 -120t25.5 -172q0 -150 -64 -243.5t-189 -143.5q23 -25 40 -47.5
t33 -49.5t24 -41.5t26 -51t26 -51.5l202 -406h-360l-149 329q-15 30 -46.5 92.5t-56 111t-26.5 52.5q-15 5 -73 5l-201 -2v-588h-330z" />
    <glyph glyph-name="uni0211" unicode="&#x211;" horiz-adv-x="832" 
d="M557 1232l-330 342h329l246 -342h-245zM129 1232l-358 342h358l217 -342h-217zM124 0v1101h274l46 -150q50 80 123 115.5t178 35.5q37 0 62 -3l-3 -262q-26 4 -85 4q-148 0 -208.5 -63.5t-60.5 -195.5v-582h-326z" />
    <glyph glyph-name="uni0212" unicode="&#x212;" horiz-adv-x="1430" 
d="M457 1576q0 73 48 126t119.5 77t155.5 24q82 0 151 -24t115 -76.5t46 -126.5h-201q0 40 -36 62.5t-82 22.5q-44 0 -79.5 -23t-35.5 -62h-201zM735 816q133 0 196 49.5t63 162.5q0 191 -258 191h-253v-404zM153 0v1451h590q107 0 188.5 -11t152.5 -39t116.5 -75t71 -120
t25.5 -172q0 -150 -64 -243.5t-189 -143.5q23 -25 40 -47.5t33 -49.5t24 -41.5t26 -51t26 -51.5l202 -406h-360l-149 329q-15 30 -46.5 92.5t-56 111t-26.5 52.5q-15 5 -73 5l-201 -2v-588h-330z" />
    <glyph glyph-name="uni0213" unicode="&#x213;" horiz-adv-x="832" 
d="M148 1232q0 73 48 126t119.5 77t155.5 24q82 0 151 -24t115 -76.5t46 -126.5h-201q0 40 -36 62.5t-82 22.5q-44 0 -79.5 -23t-35.5 -62h-201zM124 0v1101h274l46 -150q50 80 123 115.5t178 35.5q37 0 62 -3l-3 -262q-26 4 -85 4q-148 0 -208.5 -63.5t-60.5 -195.5v-582
h-326z" />
    <glyph glyph-name="uni0214" unicode="&#x214;" 
d="M836 1576l-330 342h329l246 -342h-245zM408 1576l-358 342h358l217 -342h-217zM742 -20q-291 0 -448.5 143.5t-157.5 407.5v924h337v-884q0 -172 60.5 -248t211.5 -76q149 0 210.5 76.5t61.5 248.5v883h336v-926q0 -261 -160 -405t-451 -144z" />
    <glyph glyph-name="uni0215" unicode="&#x215;" horiz-adv-x="1196" 
d="M689 1232l-330 342h329l246 -342h-245zM261 1232l-358 342h358l217 -342h-217zM597 -19q-228 0 -361.5 115t-133.5 326v679h327v-661q0 -116 36.5 -168.5t135.5 -52.5q98 0 133 52t35 169v661h325v-679q0 -209 -134.5 -325t-362.5 -116z" />
    <glyph glyph-name="uni0216" unicode="&#x216;" 
d="M427 1576q0 73 48 126t119.5 77t155.5 24q82 0 151 -24t115 -76.5t46 -126.5h-201q0 40 -36 62.5t-82 22.5q-44 0 -79.5 -23t-35.5 -62h-201zM742 -20q-291 0 -448.5 143.5t-157.5 407.5v924h337v-884q0 -172 60.5 -248t211.5 -76q149 0 210.5 76.5t61.5 248.5v883h336
v-926q0 -261 -160 -405t-451 -144z" />
    <glyph glyph-name="uni0217" unicode="&#x217;" horiz-adv-x="1196" 
d="M281 1232q0 73 48 126t119.5 77t155.5 24q82 0 151 -24t115 -76.5t46 -126.5h-201q0 40 -36 62.5t-82 22.5q-44 0 -79.5 -23t-35.5 -62h-201zM597 -19q-228 0 -361.5 115t-133.5 326v679h327v-661q0 -116 36.5 -168.5t135.5 -52.5q98 0 133 52t35 169v661h325v-679
q0 -209 -134.5 -325t-362.5 -116z" />
    <glyph glyph-name="Scommaaccent" unicode="&#x218;" horiz-adv-x="1163" 
d="M465 -618h116l144 498h-165zM595 30zM595 30zM528 -18q-221 0 -434 121l75 262q86 -51 186.5 -83.5t184.5 -32.5q107 0 162 44t55 116q0 98 -147 152q-102 32 -239 86q-267 117 -267 407q0 191 139 303t359 112q134 0 242.5 -25.5t220.5 -85.5l-103 -236q-210 83 -339 83
q-81 0 -123 -30t-49 -109q0 -44 15 -77t38 -45q24 -9 83 -34.5t130 -50.5q215 -79 297 -180t82 -277q0 -197 -154 -308.5t-414 -111.5z" />
    <glyph glyph-name="scommaaccent" unicode="&#x219;" horiz-adv-x="1006" 
d="M382 -618h116l144 498h-165zM512 30zM512 30zM493 -18q-256 0 -408 81l31 235q68 -37 179 -67t192 -30q66 0 104.5 26t37.5 74q0 43 -34.5 67.5t-125.5 63.5q-23 10 -35 15q-10 4 -19.5 8.5t-19.5 8.5q-79 33 -129.5 62t-92 69.5t-59.5 93t-18 123.5q0 318 428 318
q225 0 388 -83l-76 -217q-160 79 -305 79q-130 0 -130 -73q0 -41 40 -66t147 -66q15 -5 22 -8q23 -8 44 -18q140 -56 212.5 -134t72.5 -200q1 -173 -113.5 -267.5t-332.5 -94.5z" />
    <glyph glyph-name="uni021A" unicode="&#x21a;" horiz-adv-x="1188" 
d="M464 -600h116l144 498h-165zM594 48zM594 48zM427 0v1196h-409v259h1152v-259h-406v-1196h-337z" />
    <glyph glyph-name="uni021B" unicode="&#x21b;" horiz-adv-x="837" 
d="M270 -611h116l144 498h-165zM400 37zM400 37zM620 -11q-76 0 -136 10.5t-105.5 30.5t-78.5 52.5t-54.5 72t-34.5 93t-18 112t-5 132.5v426h-190l11 164l211 19l101 328l193 -1v-327h252v-183h-252v-454q0 -126 34.5 -180t135.5 -54q9 0 109 6l7 -225l-56 -12
q-64 -10 -124 -10z" />
    <glyph glyph-name="uni0237" unicode="&#x237;" horiz-adv-x="582" 
d="M-26 -272l5 228h25q112 0 144.5 42t32.5 174v911h282v-827q0 -138 -19 -230t-69 -162.5t-140.5 -103t-228.5 -32.5h-32z" />
    <glyph glyph-name="circumflex" unicode="&#x2c6;" horiz-adv-x="758" 
d="M6 1104l292 380h205l293 -380h-217l-183 183l-179 -183h-211z" />
    <glyph glyph-name="caron" unicode="&#x2c7;" horiz-adv-x="754" 
d="M306 1155l-312 329h244l160 -119l166 119h250l-312 -329h-196z" />
    <glyph glyph-name="breve" unicode="&#x2d8;" horiz-adv-x="680" 
d="M335 1183q-153 0 -235.5 61t-82.5 186h201q0 -38 23.5 -52t93.5 -14q69 0 92.5 14t23.5 52h200q0 -247 -316 -247z" />
    <glyph glyph-name="dotaccent" unicode="&#x2d9;" horiz-adv-x="323" 
d="M-111 102v229h223v-229h-223z" />
    <glyph glyph-name="ring" unicode="&#x2da;" horiz-adv-x="323" 
d="M1 102q-80 0 -143 25t-100 66t-56 90t-19 102q0 114 81 192.5t237 78.5q153 0 235 -79t82 -192q0 -53 -19.5 -102.5t-56.5 -90.5t-99.5 -65.5t-141.5 -24.5zM2 235q59 0 102.5 37.5t43.5 109.5q0 68 -43.5 103.5t-102.5 35.5q-60 0 -104.5 -36t-44.5 -103q0 -71 45 -109
t104 -38z" />
    <glyph glyph-name="ogonek" unicode="&#x2db;" horiz-adv-x="568" 
d="M327 -374q-94 0 -154.5 42t-60.5 128q0 50 18.5 93.5t51.5 75t59.5 50.5t60.5 38h104q-87 -66 -87 -186q0 -31 19.5 -58t58.5 -27q26 0 61.5 9.5t54.5 17t30 13.5v-155q-103 -41 -216 -41zM543 -178z" />
    <glyph glyph-name="tilde" unicode="&#x2dc;" horiz-adv-x="323" 
d="M-463 102l-94 173q49 89 118.5 140.5t179.5 51.5q119 0 275 -65q124 -54 209 -54q63 0 117.5 25.5t133.5 97.5l81 -161q-46 -70 -148.5 -130.5t-208.5 -60.5q-51 0 -101.5 11.5t-84.5 24.5t-99 42q-96 47 -186 47q-116 0 -192 -142z" />
    <glyph glyph-name="hungarumlaut" unicode="&#x2dd;" horiz-adv-x="1092" 
d="M527 1085l277 379h275l-396 -379h-156zM164 1085l278 379h275l-395 -379h-158z" />
    <glyph glyph-name="uni0307" unicode="&#x307;" horiz-adv-x="584" 
d="M181 1171v229h223v-229h-223z" />
    <glyph glyph-name="uni030F" unicode="&#x30f;" horiz-adv-x="1066" 
d="M715 1155l-330 342h329l246 -342h-245zM287 1155l-358 342h358l217 -342h-217z" />
    <glyph glyph-name="uni0311" unicode="&#x311;" horiz-adv-x="677" 
d="M15 1183q0 73 48 126t119.5 77t155.5 24q82 0 151 -24t115 -76.5t46 -126.5h-201q0 40 -36 62.5t-82 22.5q-44 0 -79.5 -23t-35.5 -62h-201z" />
    <glyph glyph-name="uni0326" unicode="&#x326;" horiz-adv-x="683" 
d="M85 -648l122 529h263l-183 -529h-202z" />
    <glyph glyph-name="pi" unicode="&#x3c0;" horiz-adv-x="1397" 
d="M1150 -7q-66 0 -115 18.5t-78 48.5t-46.5 74t-23.5 87.5t-6 97.5l4 578h-322q-27 -610 -179 -896h-258q22 43 42.5 112t36 149t29.5 162t24.5 165t17 144t12 113.5t6.5 59.5q-86 -6 -142.5 -25t-129.5 -59l-32 197q76 51 162.5 65.5t243.5 14.5h941v-205h-204v-567
q0 -69 11.5 -89.5t47.5 -20.5q40 0 122 29q-1 -36 -6.5 -95.5t-10.5 -101.5l-5 -42q-79 -14 -142 -14z" />
    <glyph glyph-name="uni1E02" unicode="&#x1e02;" horiz-adv-x="1364" 
d="M602 1576v229h223v-229h-223zM483 872h176q120 0 179.5 46.5t59.5 130.5q0 100 -65.5 136t-215.5 36h-134v-349zM483 232h186q269 0 269 216q0 103 -61.5 152t-191.5 49h-202v-417zM147 0v1455h479q297 0 442.5 -83.5t145.5 -286.5q0 -35 -4.5 -67.5t-18 -69.5t-35 -67.5
t-57.5 -57t-84 -41.5q127 -37 195.5 -128t68.5 -227q0 -107 -42.5 -189.5t-119.5 -134t-180 -77.5t-229 -26h-561z" />
    <glyph glyph-name="uni1E03" unicode="&#x1e03;" horiz-adv-x="1290" 
d="M561 1615v229h223v-229h-223zM674 220q41 0 79 18.5t71 57t52.5 108t19.5 160.5q0 92 -19 159t-52 103t-69 52t-78 16q-225 0 -229 -310q0 -101 16 -173t47 -113t70.5 -59.5t91.5 -18.5zM768 -19q-114 0 -206.5 51.5t-120.5 100.5l-31 -132h-284v1491l325 21v-324
q0 -85 -6 -223q23 28 31 37t43 39.5t65 45t82.5 28.5t111.5 14q204 0 321.5 -155.5t117.5 -407.5q0 -263 -124.5 -424.5t-324.5 -161.5z" />
    <glyph glyph-name="uni1E0A" unicode="&#x1e0a;" horiz-adv-x="1522" 
d="M679 1576v229h223v-229h-223zM149 0v1455h434q400 0 624 -181.5t224 -537.5q0 -352 -219.5 -544t-607.5 -192h-455zM486 261h148q224 0 340.5 120.5t116.5 348.5q0 243 -117.5 353t-368.5 110h-119v-932z" />
    <glyph glyph-name="uni1E0B" unicode="&#x1e0b;" horiz-adv-x="1291" 
d="M507 1615v229h223v-229h-223zM626 216q224 0 229 325q0 191 -61 271t-171 80q-46 0 -84.5 -16t-72.5 -52.5t-53.5 -105t-19.5 -163.5q0 -176 67 -257.5t166 -81.5zM533 -20q-213 0 -336.5 161t-123.5 422q0 258 121.5 412.5t338.5 154.5q67 0 121.5 -13t84.5 -28
t57 -41.5t34 -38t19 -34.5q2 -3 3 -5q-14 137 -14 251v271l326 21v-1513h-283l-35 144q-1 -2 -8.5 -16.5t-11 -20t-13.5 -20.5t-18 -22.5t-23 -21t-30 -20.5t-37.5 -16.5t-47 -14.5t-56.5 -8.5t-68 -3.5z" />
    <glyph glyph-name="uni1E1E" unicode="&#x1e1e;" horiz-adv-x="1145" 
d="M485 1576v229h223v-229h-223zM147 0v1455h898l-12 -256h-553v-347h524v-257h-523v-595h-334z" />
    <glyph glyph-name="uni1E1F" unicode="&#x1e1f;" horiz-adv-x="808" 
d="M309 1656v229h223v-229h-223zM197 0v893h-172l19 184l153 24v68q0 96 18 164t61.5 119.5t120 76.5t189.5 25q114 0 230 -21l-31 -239q-79 11 -125 11q-71 0 -104 -27t-33 -87v-90h253v-208h-253v-893h-326z" />
    <glyph glyph-name="uni1E40" unicode="&#x1e40;" horiz-adv-x="1857" 
d="M817 1576v229h223v-229h-223zM146 0v1455h384l395 -978l404 978h382v-1455h-306v613l9 456l-37 -116l-322 -847h-274l-309 852l-37 116l10 -464v-610h-299z" />
    <glyph glyph-name="uni1E41" unicode="&#x1e41;" horiz-adv-x="1959" 
d="M872 1232v229h223v-229h-223zM125 0l1 1101h260l36 -130q1 2 15.5 17.5t19 20t21 20t26.5 22t30 20t37 19.5t43 15.5t52 13.5t59 7.5t69 3.5q121 0 200.5 -50t113.5 -115q60 77 153.5 121t206.5 44q192 0 282.5 -108.5t90.5 -321.5v-700h-326v660q0 131 -32.5 183
t-111.5 52q-102 0 -167 -80q-42 -56 -58 -142v-673h-326v668q0 116 -34 170.5t-120 54.5q-102 0 -184 -104q-31 -112 -31 -292v-497h-326z" />
    <glyph glyph-name="uni1E56" unicode="&#x1e56;" horiz-adv-x="1303" 
d="M590 1576v229h223v-229h-223zM627 734q304 0 304 240q0 117 -72.5 182t-211.5 65h-165v-485zM154 0v1451h493q287 0 444 -115t157 -349q0 -80 -16.5 -148t-56.5 -130t-103 -105t-161 -68.5t-224 -25.5q-150 0 -205 4v-514h-328z" />
    <glyph glyph-name="uni1E57" unicode="&#x1e57;" horiz-adv-x="1292" 
d="M561 1233v229h223v-229h-223zM683 219q95 0 154.5 82t59.5 262q0 331 -221 331q-223 0 -227 -316q0 -359 234 -359zM126 -445v1546h278l36 -158q47 91 138 139.5t202 48.5q126 0 227 -75.5t156.5 -205t55.5 -287.5q0 -258 -123.5 -420t-335.5 -162q-196 0 -317 140
q8 -109 8 -129v-422z" />
    <glyph glyph-name="uni1E60" unicode="&#x1e60;" horiz-adv-x="1163" 
d="M484 1576v229h223v-229h-223zM528 -18q-221 0 -434 121l75 262q86 -51 186.5 -83.5t184.5 -32.5q107 0 162 44t55 116q0 98 -147 152q-102 32 -239 86q-267 117 -267 407q0 191 139 303t359 112q134 0 242.5 -25.5t220.5 -85.5l-103 -236q-210 83 -339 83q-81 0 -123 -30
t-49 -109q0 -44 15 -77t38 -45q24 -9 83 -34.5t130 -50.5q215 -79 297 -180t82 -277q0 -197 -154 -308.5t-414 -111.5z" />
    <glyph glyph-name="uni1E61" unicode="&#x1e61;" horiz-adv-x="1006" 
d="M401 1232v229h223v-229h-223zM493 -18q-256 0 -408 81l31 235q68 -37 179 -67t192 -30q66 0 104.5 26t37.5 74q0 43 -34.5 67.5t-125.5 63.5q-23 10 -35 15q-10 4 -19.5 8.5t-19.5 8.5q-79 33 -129.5 62t-92 69.5t-59.5 93t-18 123.5q0 318 428 318q225 0 388 -83
l-76 -217q-160 79 -305 79q-130 0 -130 -73q0 -41 40 -66t147 -66q15 -5 22 -8q23 -8 44 -18q140 -56 212.5 -134t72.5 -200q1 -173 -113.5 -267.5t-332.5 -94.5z" />
    <glyph glyph-name="uni1E6A" unicode="&#x1e6a;" horiz-adv-x="1188" 
d="M483 1576v229h223v-229h-223zM427 0v1196h-409v259h1152v-259h-406v-1196h-337z" />
    <glyph glyph-name="uni1E6B" unicode="&#x1e6b;" horiz-adv-x="837" 
d="M289 1531v229h223v-229h-223zM620 -11q-76 0 -136 10.5t-105.5 30.5t-78.5 52.5t-54.5 72t-34.5 93t-18 112t-5 132.5v426h-190l11 164l211 19l101 328l193 -1v-327h252v-183h-252v-454q0 -126 34.5 -180t135.5 -54q9 0 109 6l7 -225l-56 -12q-64 -10 -124 -10z" />
    <glyph glyph-name="Wgrave" unicode="&#x1e80;" horiz-adv-x="2077" 
d="M934 1576l-337 381h343l190 -381h-196zM382 0l-366 1455h330l230 -1050l312 1057h301l293 -1063l236 1056h330l-382 -1455h-343l-281 959l-319 -959h-341z" />
    <glyph glyph-name="wgrave" unicode="&#x1e81;" horiz-adv-x="1785" 
d="M795 1232l-337 381h343l190 -381h-196zM533 356q6 26 54 201t95 347t53 197h319q3 -10 11.5 -45.5t21.5 -85.5t29 -111.5t32.5 -124.5t32.5 -125.5t29 -113t22.5 -87.5t11.5 -49l207 742h325l-364 -1101h-313q-5 21 -36.5 143.5t-67 260t-68 263t-37.5 148.5
q-6 -22 -41.5 -148.5t-73.5 -263.5t-71.5 -259.5t-38.5 -143.5h-310l-346 1101h329zM735 1101h-1h1zM1054 1101h1h-1zM1099 0h-1h1zM665 0h1h-1z" />
    <glyph glyph-name="Wacute" unicode="&#x1e82;" horiz-adv-x="2077" 
d="M941 1576l161 380h329l-307 -380h-183zM382 0l-366 1455h330l230 -1050l312 1057h301l293 -1063l236 1056h330l-382 -1455h-343l-281 959l-319 -959h-341z" />
    <glyph glyph-name="wacute" unicode="&#x1e83;" horiz-adv-x="1785" 
d="M801 1232l161 380h329l-307 -380h-183zM533 356q6 26 54 201t95 347t53 197h319q3 -10 11.5 -45.5t21.5 -85.5t29 -111.5t32.5 -124.5t32.5 -125.5t29 -113t22.5 -87.5t11.5 -49l207 742h325l-364 -1101h-313q-5 21 -36.5 143.5t-67 260t-68 263t-37.5 148.5
q-6 -22 -41.5 -148.5t-73.5 -263.5t-71.5 -259.5t-38.5 -143.5h-310l-346 1101h329zM735 1101h-1h1zM1054 1101h1h-1zM1099 0h-1h1zM665 0h1h-1z" />
    <glyph glyph-name="Wdieresis" unicode="&#x1e84;" horiz-adv-x="2077" 
d="M1141 1576v282h223v-282h-223zM700 1576v282h221v-282h-221zM382 0l-366 1455h330l230 -1050l312 1057h301l293 -1063l236 1056h330l-382 -1455h-343l-281 959l-319 -959h-341z" />
    <glyph glyph-name="wdieresis" unicode="&#x1e85;" horiz-adv-x="1785" 
d="M1001 1232v282h223v-282h-223zM560 1232v282h221v-282h-221zM533 356q6 26 54 201t95 347t53 197h319q3 -10 11.5 -45.5t21.5 -85.5t29 -111.5t32.5 -124.5t32.5 -125.5t29 -113t22.5 -87.5t11.5 -49l207 742h325l-364 -1101h-313q-5 21 -36.5 143.5t-67 260t-68 263
t-37.5 148.5q-6 -22 -41.5 -148.5t-73.5 -263.5t-71.5 -259.5t-38.5 -143.5h-310l-346 1101h329zM735 1101h-1h1zM1054 1101h1h-1zM1099 0h-1h1zM665 0h1h-1z" />
    <glyph glyph-name="Ygrave" unicode="&#x1ef2;" horiz-adv-x="1297" 
d="M549 1576l-337 381h343l190 -381h-196zM488 0v577l-512 878h365l311 -572l309 572h358l-495 -872v-583h-336z" />
    <glyph glyph-name="ygrave" unicode="&#x1ef3;" horiz-adv-x="1178" 
d="M483 1232l-337 381h343l190 -381h-196zM233 -440q-74 0 -159 8l-15 244q51 -7 140 -7q76 0 127.5 32.5t82.5 110.5q6 14 26 80l-447 1073h348l251 -721q54 194 130.5 409t107.5 312h350l-463 -1190q-73 -194 -187 -272.5t-292 -78.5z" />
    <glyph glyph-name="endash" unicode="&#x2013;" horiz-adv-x="1240" 
d="M55 417v209h1134v-209h-1134z" />
    <glyph glyph-name="emdash" unicode="&#x2014;" horiz-adv-x="1967" 
d="M-44 417v209h2040v-209h-2040z" />
    <glyph glyph-name="quoteleft" unicode="&#x2018;" horiz-adv-x="398" 
d="M12 1578l262 -118l113 -625l-208 118z" />
    <glyph glyph-name="quoteright" unicode="&#x2019;" horiz-adv-x="400" 
d="M12 953l118 507h258l-175 -507h-201z" />
    <glyph glyph-name="quotesinglbase" unicode="&#x201a;" horiz-adv-x="593" 
d="M110 -296l118 506h259l-176 -506h-201z" />
    <glyph glyph-name="quotedblleft" unicode="&#x201c;" horiz-adv-x="688" 
d="M317 1578l250 -118l111 -625l-212 118zM12 1578l265 -118l97 -625l-194 118z" />
    <glyph glyph-name="quotedblright" unicode="&#x201d;" horiz-adv-x="1058" 
d="M514 953l105 507h256l-174 -507h-187zM204 953l118 507h244l-156 -507h-206z" />
    <glyph glyph-name="quotedblbase" unicode="&#x201e;" horiz-adv-x="1129" 
d="M559 -296l136 506h267l-182 -506h-221zM180 -296l124 506h278l-193 -506h-209z" />
    <glyph glyph-name="dagger" unicode="&#x2020;" horiz-adv-x="1047" 
d="M394 111v807h-329v215h329v303h244v-303h351v-215h-369v-807h-226z" />
    <glyph glyph-name="daggerdbl" unicode="&#x2021;" horiz-adv-x="1026" 
d="M396 -119v419h-258v179h258l-2 415h-254v179h254v355h248v-355h256v-179h-256l1 -415h254v-179h-254v-419h-247z" />
    <glyph glyph-name="bullet" unicode="&#x2022;" horiz-adv-x="1081" 
d="M540 315q-174 0 -283.5 95.5t-109.5 245.5q0 151 112.5 249.5t287.5 98.5q174 0 283 -95.5t109 -245.5q0 -153 -111.5 -250.5t-287.5 -97.5z" />
    <glyph glyph-name="guilsinglleft" unicode="&#x2039;" horiz-adv-x="560" 
d="M297 168l-286 390l293 395h243l-280 -395l273 -390h-243z" />
    <glyph glyph-name="guilsinglright" unicode="&#x203a;" horiz-adv-x="562" 
d="M10 168l280 391l-271 394h240l290 -394l-297 -391h-242z" />
    <glyph glyph-name="fraction" unicode="&#x2044;" horiz-adv-x="1208" 
d="M28 0l916 1421h241l-914 -1421h-243z" />
    <glyph glyph-name="uni2074" unicode="&#x2074;" horiz-adv-x="941" 
d="M331 937h111v166zM444 604v152h-366v133l371 509h188v-461h108l16 -181h-125l-1 -152h-191z" />
    <glyph glyph-name="Euro" unicode="&#x20ac;" horiz-adv-x="1210" 
d="M767 -18q-128 0 -228 37t-165.5 105.5t-105 154t-57.5 192.5h-147l28 185h93l2 74l1 58h-128l33 169h122q20 79 52 148.5t83 132t115 107.5t150.5 71t186.5 26q220 0 357 -149l-77 -205q-52 84 -126.5 125.5t-154.5 41.5q-119 0 -220 -83t-112 -214h574l-32 -169h-573
l-1 -133h569l-29 -185h-513q22 -96 76.5 -160t120 -89.5t142.5 -25.5q169 0 328 131l-1 -230q-168 -115 -363 -115z" />
    <glyph glyph-name="trademark" unicode="&#x2122;" horiz-adv-x="1828" 
d="M304 705v572h-246l-2 175h684v-175h-234v-572h-202zM769 705v747h256l184 -463l192 463h234v-747h-191v422l-184 -439h-117l-174 429v-412h-200z" />
    <glyph glyph-name="partialdiff" unicode="&#x2202;" horiz-adv-x="1152" 
d="M499 184q64 0 116.5 32t86 80t59 114t38.5 124t21 119q-60 168 -218 168q-91 0 -158 -57t-98 -143t-31 -187q0 -114 44 -182t140 -68zM491 -23q-201 0 -312 128.5t-111 330.5q0 114 35 219.5t98.5 188.5t161.5 133t216 50q39 0 79.5 -10.5t70.5 -25.5t54.5 -30t39.5 -25
t17 -9q0 1 -1 5q-1 7 -1 6q-3 78 -18 141.5t-45.5 117t-84.5 83.5t-127 30q-20 0 -39.5 -2t-39 -8t-34 -10.5t-34 -15t-30 -15.5t-30 -18.5t-26 -18.5t-26.5 -19.5t-24 -17.5l-17 223q52 30 71.5 40.5t66.5 31t91 28.5t95 8q117 0 207 -40.5t144 -105t88.5 -156t47.5 -182
t13 -194.5q0 -124 -21 -243.5t-68 -232t-114.5 -197.5t-169 -136.5t-223.5 -51.5z" />
    <glyph glyph-name="uni2206" unicode="&#x2206;" horiz-adv-x="1235" 
d="M279 432l683 -2l-334 856zM107 280l-1 142l457 1042h123l450 -1040l-2 -144h-1027z" />
    <glyph glyph-name="product" unicode="&#x220f;" horiz-adv-x="1573" 
d="M268 -411v1830h1066v-1830h-249v1611h-571v-1611h-246z" />
    <glyph glyph-name="summation" unicode="&#x2211;" horiz-adv-x="1257" 
d="M45 -322v134l606 735l-586 722v139h1128v-214h-768l502 -639l-532 -658h843v-219h-1193z" />
    <glyph glyph-name="radical" unicode="&#x221a;" horiz-adv-x="1336" 
d="M607 -149l-312 791l-181 -27l-32 182l360 62l223 -619l14 -46q-15 -61 47.5 177t167.5 640t149 567h215l-475 -1727h-176z" />
    <glyph glyph-name="infinity" unicode="&#x221e;" horiz-adv-x="1617" 
d="M451 425q36 0 70 12.5t56.5 27.5t49.5 45t39 46t36 50q-29 44 -48 68.5t-52 57.5t-72.5 48.5t-86.5 15.5q-80 0 -122 -50.5t-42 -136.5q0 -83 46.5 -133.5t125.5 -50.5zM1170 424q159 0 159 211q-6 76 -47 118.5t-115 42.5q-43 0 -81.5 -16.5t-71 -48.5t-52.5 -57
t-46 -65q60 -83 86 -110q75 -75 168 -75zM454 232q-163 0 -269 114.5t-106 282.5q-1 158 108.5 255t299.5 97q46 0 90 -16.5t74 -36.5t64.5 -57t51 -58.5t43.5 -59.5q36 50 62.5 81t71.5 70t100.5 58.5t121.5 19.5q164 0 268.5 -102.5t104.5 -267.5q0 -162 -106 -271
t-267 -109q-53 0 -101 15t-82 35.5t-69.5 55.5t-55.5 60.5t-48 64.5q-28 -39 -48 -64t-55.5 -60.5t-69 -56t-82 -35.5t-101.5 -15z" />
    <glyph glyph-name="integral" unicode="&#x222b;" horiz-adv-x="802" 
d="M310 -392q-26 0 -68.5 8t-72.5 16l-30 8l-4 211l20 -5q107 -30 132 -30q78 0 101 36.5t23 132.5v1235q0 83 21 151.5t65.5 123.5t122 86t183.5 31q13 0 31 -2t34.5 -4.5t35.5 -6t31.5 -6t24.5 -5l12 -2.5l5 -214l-20 5q-106 29 -131 29q-79 0 -103 -36.5t-24 -132.5
v-1234q0 -66 -12.5 -123t-41.5 -108t-73 -86.5t-110.5 -56.5t-151.5 -21zM972 1586z" />
    <glyph glyph-name="approxequal" unicode="&#x2248;" horiz-adv-x="1310" 
d="M213 404l-81 192q55 80 121.5 126t171.5 46q115 0 272 -57q132 -53 215 -53q61 0 119.5 25t138.5 91l70 -177q-51 -62 -153 -117.5t-200 -55.5q-50 0 -100.5 11t-79.5 21.5t-94 36.5q-58 25 -101 36.5t-99 11.5q-111 0 -200 -137zM213 -18l-81 191q35 51 68.5 85
t92.5 60.5t131 26.5q123 0 273 -59q126 -51 215 -51q61 0 119.5 25.5t137.5 91.5l70 -178q-50 -61 -152.5 -116.5t-200.5 -55.5q-50 0 -100 10.5t-79.5 21.5t-93.5 37q-59 25 -101.5 36.5t-99.5 11.5q-112 0 -199 -137z" />
    <glyph glyph-name="notequal" unicode="&#x2260;" horiz-adv-x="1395" 
d="M520 42l-197 26l124 219h-271l-12 193h377l101 203h-466l-14 193h570l135 240q195 -26 197 -26l-120 -215h283l17 -193h-393l-102 -203h478l17 -193h-589z" />
    <glyph glyph-name="lessequal" unicode="&#x2264;" horiz-adv-x="1252" 
d="M162 -2v169l942 2v-171h-942zM1110 220l-955 445v132l955 450v-216l-659 -301l659 -294v-216z" />
    <glyph glyph-name="greaterequal" unicode="&#x2265;" horiz-adv-x="1252" 
d="M161 -2v171l943 -2v-169h-943zM155 219v216l656 296l-657 299v217l954 -450v-133z" />
    <glyph glyph-name="lozenge" unicode="&#x25ca;" horiz-adv-x="1285" 
d="M641 179q58 103 164.5 283.5t141.5 241.5q-42 75 -143 252.5t-153 272.5q-58 -106 -167.5 -290.5t-138.5 -234.5q44 -79 144.5 -255.5t151.5 -269.5zM570 -46l-465 748l473 751h142l468 -750l-477 -749h-141z" />
    <glyph glyph-name="uniFB01" unicode="&#xfb01;" horiz-adv-x="1247" 
d="M823 1233v241h313v-241h-313zM185 0v916h-181v182h181v29q0 48 1 80.5t5 72.5t12.5 67t23.5 57.5t36.5 50.5t53 39.5t72 30.5t94.5 17.5t120 6.5h64l23 -231h-54q-86 0 -113 -29t-26 -103v-88h638v-1098h-312v916h-326v-916h-312z" />
    <glyph glyph-name="uniFB02" unicode="&#xfb02;" horiz-adv-x="1501" 
d="M1328 -13q-99 0 -172 24.5t-116.5 65t-69 102t-34.5 124.5t-9 145v863l11 1q-20 9 -138 16q-46 3 -88 3q-69 0 -112 -8t-66 -27.5t-30.5 -44.5t-7.5 -65l1 -88h229v-182h-229v-916h-312v916h-181v182h181v56q-2 201 104 302.5t359 101.5q235 0 528 -43q84 -12 77 -15
q-2 -1 -14 0v-1094q0 -58 5.5 -90.5t23.5 -57t52.5 -33.5t93.5 -9q57 0 58 4l14 -219h4q-20 -9 -112 -13q-25 -1 -50 -1zM1472 220z" />
    <glyph glyph-name="uniFB00" horiz-adv-x="1595" 
d="M197 0v893h-172l19 184l153 24v68q0 96 18 164t61.5 119.5t120 76.5t189.5 25q114 0 230 -21l-31 -239q-79 11 -125 11q-71 0 -104 -27t-33 -87v-90h474v68q0 96 17.5 164t61 119.5t120 76.5t189.5 25q115 0 231 -21l-31 -239q-79 11 -125 11q-72 0 -105 -27t-33 -87v-90
h253v-208h-253v-893h-325v893h-474v-893h-326z" />
    <glyph glyph-name="Tcommaaccent" horiz-adv-x="1188" 
d="M427 0v1196h-409v259h1152v-259h-406v-1196h-337zM291 -322l130 351h183l-67 -351h-246z" />
    <glyph glyph-name="commaaccentcomb" horiz-adv-x="554" 
d="M144 -648h116l144 498h-165zM274 0zM274 0z" />
    <glyph glyph-name="middot" horiz-adv-x="468" 
d="M150 561h168v198h-168v-198z" />
    <glyph glyph-name="tcommaaccent" horiz-adv-x="837" 
d="M263 -321l130 351h183l-67 -351h-246zM620 -11q-76 0 -136 10.5t-105.5 30.5t-78.5 52.5t-54.5 72t-34.5 93t-18 112t-5 132.5v426h-190l11 164l211 19l101 328l193 -1v-327h252v-183h-252v-454q0 -126 34.5 -180t135.5 -54q9 0 109 6l7 -225l-56 -12q-64 -10 -124 -10z
" />
    </font>
</defs>
</svg>
