<?xml version="1.0" standalone="no"?>
<!DOCTYPE svg PUBLIC "-//W3C//DTD SVG 1.1//EN" "http://www.w3.org/Graphics/SVG/1.1/DTD/svg11.dtd" >
<svg xmlns="http://www.w3.org/2000/svg" xmlns:xlink="http://www.w3.org/1999/xlink" version="1.1">
<metadata>
Created by FontForge 20161003 at Mon Dec 17 11:17:52 2018
 By www-data
Copyright (c) 2011-12 by vernon adams. All rights reserved.
</metadata>
<defs>
<font id="Oxygen-Bold" horiz-adv-x="1152" >
  <font-face 
    font-family="Oxygen Bold"
    font-weight="700"
    font-stretch="normal"
    units-per-em="2048"
    panose-1="2 0 8 3 0 0 0 0 0 0"
    ascent="1638"
    descent="-410"
    x-height="1099"
    cap-height="1465"
    bbox="-335 -658 2674 2006"
    underline-thickness="0"
    underline-position="0"
    unicode-range="U+0020-FB04"
  />
<missing-glyph horiz-adv-x="748" 
d="M68 0v1365h544v-1365h-544zM136 68h408v1229h-408v-1229z" />
    <glyph glyph-name="uniFB00" unicode="ff" horiz-adv-x="1485" 
d="M203 0v925h-174l17 154l157 20v61q0 198 79 292q83 100 286 100q100 0 204 -19l-23 -195q-81 11 -147 11q-136 0 -137 -175v-75h479v61q0 202 82.5 297t282.5 95q98 0 204 -19l-23 -195q-82 11 -148 11q-136 0 -136 -175v-75h257v-174h-257v-925h-262v925h-479v-925h-262
z" />
    <glyph glyph-name="uniFB01" unicode="fi" horiz-adv-x="1183" 
d="M809 1259v224h255v-224h-255zM183 0v942h-173v156h173v33q3 235 69 311q61 71 177 91q63 11 148 11h68l22 -190h-70q-103 0 -133 -44q-26 -39 -26 -144v-68h625v-1098h-254v942h-371v-942h-255z" />
    <glyph glyph-name="uniFB02" unicode="fl" horiz-adv-x="1395" 
d="M879 1337q-150 15 -251.5 15t-145 -41t-44.5 -145v-68h237v-156h-237v-942h-255v942h-173v156h173v46q2 207 101.5 301.5t324.5 94.5q106 0 312 -22t213 -22v-1072q0 -151 25.5 -190t64.5 -46t64.5 -7t77.5 4l13 -184q-3 -1 -29 -5q-70 -12 -126 -11q-45 0 -81 7
q-79 18 -116 37.5t-63.5 52.5t-43 69.5t-25.5 88.5q-16 93 -16 224v873z" />
    <glyph glyph-name=".notdef" horiz-adv-x="748" 
d="M68 0v1365h544v-1365h-544zM136 68h408v1229h-408v-1229z" />
    <glyph glyph-name=".null" horiz-adv-x="0" 
 />
    <glyph glyph-name="nonmarkingreturn" horiz-adv-x="682" 
 />
    <glyph glyph-name="space" unicode=" " horiz-adv-x="367" 
 />
    <glyph glyph-name="exclam" unicode="!" horiz-adv-x="446" 
d="M332.5 27q-44.5 -45 -109 -45t-109.5 45t-45 107.5t45 108.5t109.5 46t109 -46t44.5 -108.5t-44.5 -107.5zM193 449l-85 713v296h241v-296l-90 -713h-66z" />
    <glyph glyph-name="quotedbl" unicode="&#x22;" horiz-adv-x="784" 
d="M487 955l-33 515h223l-31 -515h-159zM143 955l-35 515h224l-30 -515h-159z" />
    <glyph glyph-name="numbersign" unicode="#" horiz-adv-x="1192" 
d="M478 583h194l61 316h-193zM178 -15l77 419h-202l8 179h227l55 315h-212l8 179h236l80 381h195l-76 -381h193l74 381h190l-75 -381h181l-12 -178h-202l-60 -316h195l-10 -179h-215l-80 -419h-196l79 419h-190l-79 -419h-189z" />
    <glyph glyph-name="dollar" unicode="$" horiz-adv-x="1194" 
d="M656 208q185 30 185 208q0 128 -155 180q-3 2 -15.5 5.5t-14.5 4.5v-398zM558 1267q-169 -22 -177 -179q0 -122 121 -159q14 -5 56 -18v356zM558 -212l-2 192q-255 3 -462 122l66 215q198 -109 398 -115v434q-120 35 -162 52q-295 104 -295 388q0 185 124 292t333 121
v154h98v-152q240 -7 419 -109l-82 -198q-180 81 -337 87v-393q27 -10 86 -27q201 -66 287.5 -164t86.5 -280t-123 -293t-337 -130v-196h-98z" />
    <glyph glyph-name="percent" unicode="%" horiz-adv-x="1790" 
d="M1643.5 95q-97.5 -112 -267 -112t-269 110.5t-99.5 278.5q0 394 363 394q179 0 274.5 -108.5t95.5 -279.5t-97.5 -283zM1244.5 205q46.5 -63 137 -63t136 65.5t45.5 169.5t-48.5 167.5t-144.5 63.5t-134 -63t-38 -170t46.5 -170zM307 -32l901 1482l220 -1l-908 -1481
h-213zM671 789q-101 -112 -265.5 -112t-258 110t-93.5 280t96.5 282t262 112t262.5 -110t97 -280t-101 -282zM277.5 899q43.5 -63 130 -63t131 65t44.5 169t-44.5 169t-130.5 65t-130 -66t-44 -171t43.5 -168z" />
    <glyph glyph-name="ampersand" unicode="&#x26;" horiz-adv-x="1436" 
d="M571 924q157 83 193 162q17 37 17 95t-45 96t-119.5 38t-120 -39t-45.5 -116q0 -112 120 -236zM899 276q-162 170 -391 425q-136 -79 -176 -135q-42 -62 -43 -140q0 -127 83 -192.5t215 -65.5q181 0 312 108zM1388 37l-210 -53l-142 149q-205 -156 -456 -156
q-214 -1 -363 99q-74 50 -116.5 134t-42.5 171t19 143t49 98q30 41 76 81q73 62 193 128q-127 141 -153 229q-12 42 -12 90q0 110 54 188q103 148 328 147q153 0 269 -74q58 -37 93 -99.5t35 -137t-27 -134.5q-26 -59 -76 -106q-86 -82 -219 -148l350 -382q81 88 154 230
l170 -113q-78 -151 -180 -265z" />
    <glyph glyph-name="quotesingle" unicode="'" horiz-adv-x="440" 
d="M140 929l-35 535h214l-27 -535h-152z" />
    <glyph glyph-name="parenleft" unicode="(" horiz-adv-x="650" 
d="M376 -276q-283 387 -283 878t282 886h236q-100 -143 -185 -393.5t-85 -492.5t85.5 -490.5t183.5 -387.5h-234z" />
    <glyph glyph-name="parenright" unicode=")" horiz-adv-x="650" 
d="M41 -276q139 200 222 528q46 182 46 347q0 244 -84.5 494.5t-184.5 394.5h235q283 -399 283 -887t-284 -877h-233z" />
    <glyph glyph-name="asterisk" unicode="*" horiz-adv-x="1104" 
d="M933 676l-202 -114l-182 323l-174 -323l-204 114l242 306l-342 77l64 207l337 -133l-35 371h228l-35 -371l341 129l61 -208l-344 -72z" />
    <glyph glyph-name="plus" unicode="+" horiz-adv-x="1180" 
d="M492 146v408h-409v191h410v408h198v-408h407v-191h-408v-408h-198z" />
    <glyph glyph-name="comma" unicode="," horiz-adv-x="508" 
d="M64 -283q57 277 94 515h244l-3 -49q-65 -226 -158 -466h-177z" />
    <glyph glyph-name="hyphen" unicode="-" horiz-adv-x="677" 
d="M70 445v204h536v-204h-536z" />
    <glyph glyph-name="period" unicode="." horiz-adv-x="473" 
d="M353 27q-44 -45 -108.5 -45t-109.5 45t-45 107.5t44.5 108.5t109.5 46t109 -46t44 -108.5t-44 -107.5z" />
    <glyph glyph-name="slash" unicode="/" horiz-adv-x="949" 
d="M52 -189l622 1678h218l-627 -1678h-213z" />
    <glyph glyph-name="zero" unicode="0" horiz-adv-x="1296" 
d="M649 -21q-119 0 -214 40.5t-157 110t-104 166.5q-76 179 -76 436q0 407 182 608q136 150 369 150q335 0 471 -318q78 -182 78 -440q0 -404 -179 -603q-135 -150 -370 -150zM649 187q80 0 137 46q56 45 86 127q56 153 55 380q0 542 -277 542t-281 -538q0 -228 56 -382
q105 -144 224 -175z" />
    <glyph glyph-name="one" unicode="1" horiz-adv-x="686" 
d="M303 1v1224q-14 -9 -129.5 -57.5t-130.5 -52.5v200q24 11 152 76t141 74h220v-1464h-253z" />
    <glyph glyph-name="two" unicode="2" horiz-adv-x="1054" 
d="M85 0l-6 216l463 524q86 92 126 170q39 76 39 166t-62 145.5t-159 55.5t-187.5 -33.5t-148.5 -83.5l-75 198q150 128 422 128q216 0 347.5 -107.5t131.5 -303.5q0 -140 -74.5 -267t-203.5 -261l-330 -350h591l-18 -197h-856z" />
    <glyph glyph-name="three" unicode="3" horiz-adv-x="1078" 
d="M341 663l-58 1v202h56q279 0 347 105q28 43 27.5 116.5t-64.5 132t-180 58.5q-188 0 -335 -90l-72 190q182 108 411.5 108t362 -108.5t132.5 -279.5q0 -120 -61.5 -204.5t-178.5 -123.5q134 -26 207.5 -129t73.5 -239q0 -138 -71 -234q-139 -190 -453 -189
q-129 0 -242.5 33.5t-179.5 90.5l72 189q55 -46 152 -75.5t205.5 -29.5t179 62t70.5 162q0 175 -156 223q-90 28 -245 29z" />
    <glyph glyph-name="four" unicode="4" horiz-adv-x="1253" 
d="M352 522h401v686zM753 0v325h-661v178l593 962h333v-942h180l-13 -198h-167v-325h-265z" />
    <glyph glyph-name="five" unicode="5" horiz-adv-x="1138" 
d="M542 -21q-99 1 -204 33q-172 53 -233 107l80 188q63 -50 159 -84t171 -34q140 0 212 78t72 200.5t-65.5 194.5t-179.5 72t-212 -108l-175 34l38 805h796l-15 -207h-549q0 -102 -14 -368q88 47 185 47q202 0 325.5 -130t123.5 -345.5t-135.5 -349t-379.5 -133.5z" />
    <glyph glyph-name="six" unicode="6" horiz-adv-x="1205" 
d="M404 253.5q70 -74.5 200.5 -74.5t205 75.5t74.5 201.5t-70 200.5t-209 74.5t-205 -75t-66 -201.5t70 -201zM1001 110.5q-150 -131.5 -390 -131.5t-393 133t-153 351q0 181 123 367q31 47 80 112l416 523h310l-454 -571q73 25 122 25q215 0 352 -128.5t137 -338.5
t-150 -341.5z" />
    <glyph glyph-name="seven" unicode="7" horiz-adv-x="1036" 
d="M237 0l442 1264h-604l2 201h900v-157l-472 -1308h-268z" />
    <glyph glyph-name="eight" unicode="8" horiz-adv-x="1151" 
d="M578 835q123 28 189 97.5t66 167.5t-72 152t-182.5 54t-183.5 -54t-73 -152t68 -168t188 -97zM578 161q126 0 197 61t71 171.5t-74 182.5t-194 103q-123 -31 -196.5 -103t-73.5 -182.5t72 -171.5t198 -61zM834.5 24q-114.5 -45 -257 -45t-257 45.5t-185.5 140t-71 224.5
q0 263 259 378q-231 110 -231 344q0 121 66 207q129 168 420 168q212 0 348.5 -98t136.5 -277q0 -231 -214 -344q241 -117 241 -379q0 -130 -70.5 -224.5t-185 -139.5z" />
    <glyph glyph-name="nine" unicode="9" horiz-adv-x="1215" 
d="M415.5 810q70.5 -75 209 -75t205 77t66.5 204t-69 199t-200 72t-206.5 -75t-75.5 -201t70.5 -201zM243 0l444 574q-67 -23 -119 -23q-215 0 -350.5 129.5t-135.5 339.5t148.5 338t389.5 128t393 -131.5t152 -349.5q0 -126 -48 -229t-141 -230q-11 -14 -114.5 -150.5
t-201.5 -265.5l-98 -130h-319z" />
    <glyph glyph-name="colon" unicode=":" horiz-adv-x="460" 
d="M100 841v265h265v-265h-265zM100 -6v265h265v-265h-265z" />
    <glyph glyph-name="semicolon" unicode=";" horiz-adv-x="448" 
d="M125 841v264h264v-264h-264zM107 -322l56 568h226l-124 -568h-158z" />
    <glyph glyph-name="less" unicode="&#x3c;" horiz-adv-x="1196" 
d="M1081 196l-966 449v124l967 482v-206l-705 -333l704 -311v-205z" />
    <glyph glyph-name="equal" unicode="=" horiz-adv-x="1202" 
d="M93 754v193h1018v-193h-1018zM93 357v191h1018v-191h-1018z" />
    <glyph glyph-name="greater" unicode="&#x3e;" horiz-adv-x="1196" 
d="M119 197v206l704 309l-704 335v206l967 -484v-124z" />
    <glyph glyph-name="question" unicode="?" horiz-adv-x="887" 
d="M484 27q-44 -45 -108.5 -45t-109.5 45t-45 107.5t45 108.5t109.5 46t108.5 -46t44 -108.5t-44 -107.5zM51 1384q164 106 376 106q147 0 263 -84q56 -40 90.5 -107t34.5 -143t-24 -142t-66 -130q-43 -64 -89 -125q-134 -176 -202 -311h-111q19 146 115 306q40 65 78 126
q89 141 90 230q0 90 -56 142q-54 51 -172.5 51t-256.5 -85z" />
    <glyph glyph-name="at" unicode="@" horiz-adv-x="1699" 
d="M752 312q192 0 277 436q12 64 25 151q-55 11 -126 11t-143.5 -61t-112.5 -154t-40 -183t29.5 -145t90.5 -55zM891 -205q-241 0 -427.5 97t-291 278.5t-104.5 419.5q0 171 62.5 321.5t171.5 258t262.5 169t345 61.5t360 -87t266 -247t97.5 -364q0 -117 -37 -220
t-98 -173.5t-141 -111.5t-163.5 -41t-133.5 53t-52 166q-38 -90 -107.5 -147t-151.5 -57q-138 0 -216 88t-78 232t59 267.5t168 198.5t245.5 75t314.5 -64q-13 -68 -42.5 -206.5t-46 -230.5t-16.5 -143t18.5 -70t59.5 -19q69 0 130.5 61t96.5 154.5t35 190.5
q0 164 -75.5 290t-208.5 193t-284.5 67t-265 -45t-187.5 -116t-126 -162q-98 -172 -98 -339t52 -290t142 -202q187 -163 471.5 -163t493.5 154l55 -108q-231 -189 -555 -189z" />
    <glyph glyph-name="A" unicode="A" horiz-adv-x="1359" 
d="M494 616h376q-180 577 -185 596zM-3 0l539 1465h295l531 -1465h-278l-145 414h-513l-146 -414h-283z" />
    <glyph glyph-name="B" unicode="B" horiz-adv-x="1333" 
d="M429 860h232q269 0 269 205q0 115 -77.5 158t-246.5 43h-177v-406zM429 196h235q312 0 312 244q0 123 -78 177t-241 54h-228v-475zM158 0v1465h457q291 0 434 -85t143 -283q0 -175 -123 -267q-41 -30 -96 -48q136 -33 208 -126.5t72 -230.5q0 -207 -146.5 -316
t-405.5 -109h-543z" />
    <glyph glyph-name="C" unicode="C" horiz-adv-x="1301" 
d="M797 -21q-321 0 -509 202t-188 549t196.5 551.5t514.5 204.5q257 0 435 -119l-85 -204q-171 105 -359 105t-305 -146t-117 -396t113.5 -388.5t310.5 -138.5t378 92l36 -212q-168 -100 -421 -100z" />
    <glyph glyph-name="D" unicode="D" horiz-adv-x="1514" 
d="M159 0v1465h424q387 -1 605 -177q226 -183 226.5 -544t-213.5 -552.5t-593 -191.5h-449zM430 217h194q251 0 382 131.5t131 392.5t-135 383.5t-407 122.5h-165v-1030z" />
    <glyph glyph-name="E" unicode="E" 
d="M158 0v1465h888l-11 -215h-606v-378h576v-215h-576v-441h628l-9 -216h-890z" />
    <glyph glyph-name="F" unicode="F" horiz-adv-x="1103" 
d="M158 0v1465h867l-10 -215h-588v-416h559v-213h-559v-621h-269z" />
    <glyph glyph-name="G" unicode="G" horiz-adv-x="1466" 
d="M1333 89q-267 -110 -521 -110q-335 0 -523.5 202t-188.5 553q0 223 88 392.5t259 264.5t421 95t441 -115l-88 -202q-182 99 -365 99q-222 0 -349 -144t-127 -391.5t113 -390.5t331 -143q140 0 254 44v340h-307l2 213h560v-707z" />
    <glyph glyph-name="H" unicode="H" horiz-adv-x="1520" 
d="M158 0v1465h271v-599h662v599h271v-1465h-271v652h-662v-652h-271z" />
    <glyph glyph-name="I" unicode="I" horiz-adv-x="602" 
d="M165 0v1465h271v-1465h-271z" />
    <glyph glyph-name="J" unicode="J" horiz-adv-x="633" 
d="M-73 -321l-11 213q48 -8 105 -8q111 0 150 57t39 188v1336h272v-1318q0 -247 -98 -359q-103 -116 -362 -117q-55 0 -95 8z" />
    <glyph glyph-name="K" unicode="K" horiz-adv-x="1348" 
d="M157 0v1465h272v-660q71 94 290.5 351t261.5 309h321l-554 -659l589 -806h-318l-478 657l-112 -94v-563h-272z" />
    <glyph glyph-name="L" unicode="L" horiz-adv-x="1071" 
d="M158 0v1465h271v-1249h613l-8 -216h-876z" />
    <glyph glyph-name="M" unicode="M" horiz-adv-x="1841" 
d="M158 0v1465h320l443 -1058l446 1058h316v-1465h-250v724l8 415l-37 -110l-375 -929h-232l-367 934l-37 110l9 -424v-720h-244z" />
    <glyph glyph-name="N" unicode="N" horiz-adv-x="1554" 
d="M158 0v1465h288q490 -766 593 -920t118 -177q-7 343 -7 356v741h247v-1465h-292l-661 1030l-48 79q8 -264 8 -371v-738h-246z" />
    <glyph glyph-name="O" unicode="O" horiz-adv-x="1626" 
d="M1335 180q-192 -201 -522.5 -201t-522 200.5t-191.5 554.5t192 553t523 199t522 -199.5t191 -552.5t-192 -554zM814 200q213 0 321.5 138.5t108.5 393t-108.5 395.5t-321 141t-322 -141.5t-109.5 -395t109 -392.5t322 -139z" />
    <glyph glyph-name="P" unicode="P" horiz-adv-x="1245" 
d="M418 754q12 -2 143.5 -2t193 16t95.5 41q36 25 56 62q34 60 33.5 165t-78.5 168t-220 63h-223v-513zM151 0v1465h488q258 0 407 -103q155 -107 155 -333q-1 -344 -291 -437q-112 -36 -259.5 -36t-232.5 8v-564h-267z" />
    <glyph glyph-name="Q" unicode="Q" horiz-adv-x="1626" 
d="M814 200q213 0 322 138q108 140 108 394t-108 395q-110 141 -322 141t-322 -142q-109 -140 -109 -394t109 -393t322 -139zM1252 -478q-83 60 -187.5 198t-170.5 263q-52 -4 -81 -4q-331 0 -522.5 200.5t-191.5 554.5t192 553t523 199t522 -199.5t191 -554.5
q0 -252 -101 -429.5t-286 -259.5q153 -248 286 -370z" />
    <glyph glyph-name="R" unicode="R" horiz-adv-x="1394" 
d="M419 825l299 -1q156 0 224 55.5t68 171t-69 166.5t-211 51h-311v-443zM151 0v1465h543q346 -1 466 -117q98 -96 99 -286q0 -292 -265 -384q54 -61 134 -226l218 -452h-296l-171 383q-97 206 -120 244q-17 1 -113 1l-227 2v-630h-268z" />
    <glyph glyph-name="S" unicode="S" horiz-adv-x="1189" 
d="M160 317q210 -116 420 -116q129 0 195 55.5t66 159.5q0 138 -184 191q-13 3 -73 21q-141 41 -188 60q-295 104 -295 388q1 130 67 224q132 186 450 186q265 0 457 -104l-82 -198q-196 84 -340.5 84t-206 -41.5t-65.5 -138.5q0 -122 121 -159q24 -9 118 -39t122 -39
q201 -66 287.5 -164t86.5 -273q0 -209 -148 -321.5t-406 -112.5t-468 122z" />
    <glyph glyph-name="T" unicode="T" 
d="M441 0v1248h-427v217h1124v-217h-425v-1248h-272z" />
    <glyph glyph-name="U" unicode="U" horiz-adv-x="1468" 
d="M1171 122.5q-152 -143.5 -440.5 -143.5t-437.5 143.5t-149 404.5v938h272v-915q0 -183 74.5 -267t243 -84t243.5 84.5t75 267.5v914h271v-940q0 -259 -152 -402.5z" />
    <glyph glyph-name="V" unicode="V" horiz-adv-x="1321" 
d="M527 0l-533 1465h279l310 -905q18 -47 83 -275q4 16 37 131.5t44 145.5t151 447.5t153 455.5h276l-526 -1465h-274z" />
    <glyph glyph-name="W" unicode="W" horiz-adv-x="2051" 
d="M408 0l-398 1465h270l284 -1140l334 1133h259l317 -1137l290 1144h270l-410 -1465h-281l-313 1073l-343 -1073h-279z" />
    <glyph glyph-name="X" unicode="X" horiz-adv-x="1337" 
d="M-11 0l513 750l-475 715h305l345 -546l355 546h289l-485 -719l511 -746h-313l-370 570l-378 -570h-297z" />
    <glyph glyph-name="Y" unicode="Y" horiz-adv-x="1256" 
d="M492 0v581l-507 884h294l349 -634l351 634h290l-505 -879v-586h-272z" />
    <glyph glyph-name="Z" unicode="Z" horiz-adv-x="1209" 
d="M62 0v174l773 1075h-746v216h1066v-197l-759 -1052h764l-1 -216h-1097z" />
    <glyph glyph-name="bracketleft" unicode="[" horiz-adv-x="651" 
d="M135 -266v1773h464v-180h-212v-1412h212v-181h-464z" />
    <glyph glyph-name="backslash" unicode="\" horiz-adv-x="903" 
d="M649 -60l-619 1522h231l617 -1522h-229z" />
    <glyph glyph-name="bracketright" unicode="]" horiz-adv-x="651" 
d="M52 -266v181h211v1412h-211v180h464v-1773h-464z" />
    <glyph glyph-name="asciicircum" unicode="^" horiz-adv-x="1154" 
d="M36 549l462 922h129l493 -922h-209l-347 668l-319 -668h-209z" />
    <glyph glyph-name="underscore" unicode="_" horiz-adv-x="1155" 
d="M72 -318v174h1014v-174h-1014z" />
    <glyph glyph-name="grave" unicode="`" horiz-adv-x="514" 
d="M323 1195l-331 383h306l188 -383h-163z" />
    <glyph glyph-name="a" unicode="a" horiz-adv-x="1142" 
d="M749 526l-106 -8q-159 -14 -233 -60t-74 -148q0 -70 41 -107.5t124.5 -37.5t151 43.5t96.5 105.5v212zM613.5 16.5q-78.5 -37.5 -211 -37.5t-227 84.5t-94.5 249.5t112 247.5t338 104.5q71 9 132 14.5t87 8.5v58q0 100 -46 145.5t-160 45.5t-311 -75q-1 3 -33 91t-33 90
q194 83 418 83t325 -96.5t101 -312.5v-717h-194q-1 4 -22 67t-21 67q-82 -80 -160.5 -117.5z" />
    <glyph glyph-name="b" unicode="b" horiz-adv-x="1258" 
d="M393 570q0 -392 266 -392q117 0 187 99t70 281.5t-68.5 276.5t-185.5 94q-266 0 -269 -359zM722 -21q-112 0 -203.5 49.5t-132.5 112.5l-26 -140h-227v1503l262 17v-340q0 -99 -6 -225q130 170 339.5 170t329 -156t119.5 -413t-123.5 -417.5t-331.5 -160.5z" />
    <glyph glyph-name="c" unicode="c" horiz-adv-x="1008" 
d="M933 65q-129 -86 -319 -86q-252 0 -392.5 150t-140.5 424.5t147.5 423.5t388.5 149q193 0 326 -83l-62 -187q-136 71 -261 71t-201.5 -95t-76.5 -278t75.5 -279t216.5 -96t274 85z" />
    <glyph glyph-name="d" unicode="d" horiz-adv-x="1259" 
d="M604 178q264 0 268 359q0 203 -68 296t-194.5 93t-197 -94.5t-70.5 -278t70.5 -279.5t191.5 -96zM542 -21q-215 0 -338 158t-123 418t122.5 415.5t347 155.5t321.5 -166q-10 98 -10 189v355l262 17v-1521h-227l-29 150q-62 -98 -134 -132q-80 -38 -192 -39z" />
    <glyph glyph-name="e" unicode="e" horiz-adv-x="1157" 
d="M350 661h480q0 134 -61 206t-165.5 72t-174 -70t-79.5 -208zM1077 607l-1 -111h-731q4 -154 84.5 -238.5t241 -84.5t326.5 94l37 -186q-165 -102 -411.5 -102t-394 152.5t-147.5 418t139 420.5q138 156 372 156h2q232 0 358 -142t125 -377z" />
    <glyph glyph-name="f" unicode="f" horiz-adv-x="760" 
d="M203 0v925h-174l17 154l157 20v61q0 198 79 292q83 100 286 100q100 0 204 -19l-23 -195q-81 11 -147 11q-136 0 -137 -175v-75h258v-174h-258v-925h-262z" />
    <glyph glyph-name="g" unicode="g" horiz-adv-x="1267" 
d="M616 183q271 0 274 363v38q-2 163 -68 252q-66 90 -202 90h-1q-135 0 -208 -98q-74 -98 -74 -262.5t74.5 -273.5t204.5 -109zM353 -492l-15 212h133q231 0 323 61.5t92 225.5q0 67 -6 145q-84 -114 -194 -140q-50 -12 -112 -12q-218 0 -358.5 157t-140.5 405
q0 132 39 240.5t106 178.5q139 145 350.5 145t319.5 -161l18 134h234v-1021q0 -256 -88 -379q-138 -191 -550 -191h-151z" />
    <glyph glyph-name="h" unicode="h" horiz-adv-x="1253" 
d="M133 0v1504l262 17v-317q0 -23 -3 -127.5t-3 -106.5q131 156 352 156q184 0 285.5 -105.5t101.5 -324.5v-696h-262v667q0 135 -43 198t-139 63t-163.5 -44.5t-101.5 -114.5q-24 -92 -24 -240v-529h-262z" />
    <glyph glyph-name="i" unicode="i" horiz-adv-x="533" 
d="M139 1259v224h263v-224h-263zM139 0v1099h262v-1099h-262z" />
    <glyph glyph-name="j" unicode="j" horiz-adv-x="527" 
d="M164 1259v224h262v-224h-262zM-48 -427l-29 194h58q91 0 123.5 21t42.5 49q17 48 17 147v1115h262v-1073q0 -251 -76 -342q-66 -78 -187 -100q-65 -12 -152 -11h-59z" />
    <glyph glyph-name="k" unicode="k" horiz-adv-x="1173" 
d="M133 0v1504l262 17v-675l-6 -222q1 1 21 20q20 18 48 52t92.5 103t163 169t128.5 131h312l-452 -468l481 -631h-317l-362 499l-109 -86v-413h-262z" />
    <glyph glyph-name="l" unicode="l" horiz-adv-x="700" 
d="M579 -11.5q-33 -3.5 -103.5 -3.5t-145 26.5t-117.5 84.5q-77 104 -77 337v1071l262 17v-1083q0 -148 35 -200.5t136 -52.5q50 0 127 11l7 -187q-1 0 -24.5 -5t-45 -8.5t-54.5 -7z" />
    <glyph glyph-name="m" unicode="m" horiz-adv-x="1911" 
d="M1352 928q-225 0 -258 -285v-643h-262v636q0 147 -39 219t-131 72q-174 0 -244 -152q-23 -101 -23 -242v-533h-262v1099h212l30 -140q73 92 159 129q87 38 211 38t202.5 -53t110.5 -124q59 85 153 131t209 46q189 0 277.5 -107t88.5 -317v-702h-263v624
q0 161 -35.5 232.5t-135.5 71.5z" />
    <glyph glyph-name="n" unicode="n" horiz-adv-x="1254" 
d="M133 0v1099h211l29 -139q169 166 367 166q390 0 389 -431v-695h-263v663q-1 133 -43 199t-139 66t-167.5 -43.5t-102.5 -109.5q-19 -78 -19 -240v-535h-262z" />
    <glyph glyph-name="o" unicode="o" horiz-adv-x="1222" 
d="M1000 134.5q-141 -155.5 -390 -155.5t-389 158t-140 420t140 415.5t390.5 153.5t390 -156.5t139.5 -418t-141 -417zM879 553q0 375 -269 375q-133 0 -200.5 -96.5t-67.5 -278t68 -278.5t201.5 -97t200.5 97t67 278z" />
    <glyph glyph-name="p" unicode="p" horiz-adv-x="1256" 
d="M393 574q0 -395 268 -395q117 0 184.5 98t67.5 281.5t-68 276.5t-189 93q-260 0 -263 -354zM1051.5 139.5q-123.5 -160.5 -332 -160.5t-332.5 154q8 -144 8 -162v-415l-262 -13v1556h225l28 -154q54 87 143.5 134.5t212 47.5t225 -75t155.5 -204.5t53 -292.5
q0 -255 -123.5 -415.5z" />
    <glyph glyph-name="q" unicode="q" horiz-adv-x="1259" 
d="M606 177q262 0 266 358q0 204 -67.5 297.5t-195 93.5t-197 -94t-69.5 -279t70 -280.5t193 -95.5zM862 -457v465q0 69 7 142q-104 -172 -315.5 -172t-341.5 160t-130 416t123 414t342 158t327 -167l21 140h230v-1543z" />
    <glyph glyph-name="r" unicode="r" horiz-adv-x="798" 
d="M134 0v1099h220l34 -168q108 173 313 173q43 0 70 -4l-4 -219q-40 6 -83 6q-145 0 -216.5 -77t-71.5 -214v-596h-262z" />
    <glyph glyph-name="s" unicode="s" horiz-adv-x="985" 
d="M515 939q-168 0 -168 -107q0 -51 43 -79.5t107.5 -52t86.5 -31.5q184 -67 255.5 -144t71.5 -200q-1 -165 -112 -255t-334.5 -90t-369.5 83l27 197q66 -36 168 -64.5t188 -28.5q86 1 134 33q49 33 49 93q1 59 -45 92t-132 65.5t-99 37.5q-152 59 -219 131.5t-67 209.5
t108.5 217t310.5 80t361 -79l-65 -181q-157 73 -299 73z" />
    <glyph glyph-name="t" unicode="t" horiz-adv-x="803" 
d="M632 -12q-32 -3 -102 -3t-144.5 26.5t-116.5 83.5q-77 104 -77 326v519h-180l10 142l188 17l84 298l160 1v-299h273v-159h-273v-524q0 -125 36 -178t133 -53q57 0 122 10l7 -188q-2 0 -24.5 -4.5t-43 -8t-52.5 -6.5z" />
    <glyph glyph-name="u" unicode="u" horiz-adv-x="1163" 
d="M581 -21q-214 0 -344.5 107t-130.5 314v699h263v-689q0 -123 51.5 -178t162.5 -55t161.5 54.5t50.5 178.5v689h262v-699q0 -206 -131 -313.5t-345 -107.5z" />
    <glyph glyph-name="v" unicode="v" horiz-adv-x="1125" 
d="M441 0l-438 1099h278q16 -45 101.5 -279.5t128 -360t67.5 -210.5q0 5 32.5 123.5t35 125.5t93 281t107.5 320h276l-416 -1099h-265z" />
    <glyph glyph-name="w" unicode="w" horiz-adv-x="1713" 
d="M491 293l235 806h269q13 -42 115 -409t110 -394l217 803h263l-344 -1099h-261q-13 43 -121.5 435t-117.5 423q-20 -73 -127.5 -440t-124.5 -418h-258l-333 1099h267z" />
    <glyph glyph-name="x" unicode="x" horiz-adv-x="1158" 
d="M21 0l391 563l-372 536h297l244 -374l251 374h292l-375 -535l388 -564h-300l-256 399l-264 -399h-296z" />
    <glyph glyph-name="y" unicode="y" horiz-adv-x="1116" 
d="M563 302q29 106 266 797h280q-457 -1208 -461 -1218q-71 -185 -179 -264.5t-278 -79.5q-64 0 -136 8l-13 203q46 -5 127 -5t136 36t91 128q4 10 40 113l-442 1079h280z" />
    <glyph glyph-name="z" unicode="z" horiz-adv-x="977" 
d="M65 0v159l544 758h-518v182h808v-179l-515 -729h533v-191h-852z" />
    <glyph glyph-name="braceleft" unicode="{" horiz-adv-x="786" 
d="M703 -287q-226 0 -326 64.5t-100 235.5v277q0 120 -47 167.5t-178 47.5v214q93 1 141 21.5t66 64t18 125.5v291q0 169 108 231q103 60 318 59v-200q-107 -1 -140.5 -37t-33.5 -137v-269q-1 -101 -50 -158.5t-162 -99.5q212 -44 212 -250v-272q0 -101 33.5 -137t140.5 -37
v-201z" />
    <glyph glyph-name="bar" unicode="|" horiz-adv-x="759" 
d="M278 -380v1918h203v-1918h-203z" />
    <glyph glyph-name="braceright" unicode="}" horiz-adv-x="787" 
d="M85 -287v201q107 1 140.5 36.5t33.5 137.5v272q0 104 51.5 161.5t160.5 89.5q-109 34 -160 94.5t-52 162.5v269q0 101 -33.5 137t-140.5 37v200q221 1 319 -59q106 -64 107 -240v-283q0 -120 45.5 -164.5t180.5 -45.5v-214q-132 0 -179 -46.5t-47 -168.5v-286
q0 -166 -100 -228.5t-326 -62.5z" />
    <glyph glyph-name="asciitilde" unicode="~" horiz-adv-x="1297" 
d="M900 681q111 0 234 136l71 -135q-43 -80 -131.5 -138t-172 -58t-140.5 17.5t-133.5 52.5t-122 49.5t-97.5 14.5q-122 0 -201 -149l-77 145q96 195 287 195q109 0 259.5 -65t223.5 -65z" />
    <glyph glyph-name="uni00A0" unicode="&#xa0;" horiz-adv-x="518" 
 />
    <glyph glyph-name="exclamdown" unicode="&#xa1;" horiz-adv-x="446" 
d="M69 0zM113.5 1077q44.5 45 109 45t109.5 -45t45 -107.5t-45 -108.5t-109.5 -46t-109 46t-44.5 108.5t44.5 107.5zM253 655l85 -713v-296h-241v296l90 713h66z" />
    <glyph glyph-name="cent" unicode="&#xa2;" horiz-adv-x="1082" 
d="M573 247v742q-111 -20 -177.5 -111t-66.5 -253.5t64.5 -259t179.5 -118.5zM573 -202v256q-224 17 -357.5 169.5t-133.5 412.5q0 253 146 397q140 139 345 151v218h101v-221q158 -13 260 -91l-45 -174q-93 63 -215 76v-750q116 9 218 81l52 -175q-119 -84 -270 -94v-256
h-101z" />
    <glyph glyph-name="sterling" unicode="&#xa3;" horiz-adv-x="1149" 
d="M985 1178q-151 100 -272 100q-212 0 -212 -261v-179h391v-179h-391v-150q0 -200 -112 -296q8 1 147 1h569l-8 -214h-1012l-16 190q101 43 142 103.5t41 175.5v190h-185v179h185v105q0 544 451 544q218 0 385 -140z" />
    <glyph glyph-name="currency" unicode="&#xa4;" horiz-adv-x="1162" 
d="M381.5 536q82.5 -81 200 -81t200 81t82.5 196t-83 196.5t-199.5 81.5t-199.5 -82t-83 -196.5t82.5 -195.5zM1020 229l-186 173q-113 -85 -256.5 -85t-250.5 84l-181 -171l-94 92l185 173q-76 107 -76 236t76 238l-186 175l95 92l183 -173q111 86 252 86t253 -88l186 175
l91 -94l-184 -173q75 -108 75 -238t-74 -236l181 -172z" />
    <glyph glyph-name="yen" unicode="&#xa5;" horiz-adv-x="1194" 
d="M471 0v289h-347v153h347v141h-346v152h267l-436 724h284l359 -621l359 621h279l-428 -724h276v-152h-351v-141h351v-153h-351v-289h-263z" />
    <glyph glyph-name="brokenbar" unicode="&#xa6;" horiz-adv-x="817" 
d="M306 820v718h203v-718h-203zM306 -379v719h203v-719h-203z" />
    <glyph glyph-name="section" unicode="&#xa7;" horiz-adv-x="1034" 
d="M444 940q-98 -50 -98 -138q0 -56 51.5 -101t148.5 -87q5 -2 28.5 -12t32.5 -13q96 65 96 136.5t-66.5 119t-192.5 95.5zM472 -31q-192 0 -334 68v191q70 -33 161.5 -55.5t170.5 -22.5t132 25.5t61 74.5q3 13 3 25q0 37 -32 67q-43 40 -145.5 83.5t-159.5 74.5t-104 71
q-92 78 -92 205q0 81 39.5 145t103.5 105q-126 88 -126 231.5t104 217.5q103 73 278 77q9 0 18 1q165 0 322 -60q-1 -7 -18 -92.5t-18 -91.5q-139 61 -280 61q-176 0 -176 -106q0 -50 47 -86.5t140.5 -74.5t149 -68.5t102.5 -70.5q95 -80 95 -197q0 -164 -138 -258
q127 -85 127 -231t-119.5 -227.5t-311.5 -81.5z" />
    <glyph glyph-name="dieresis" unicode="&#xa8;" horiz-adv-x="772" 
d="M499 1236v254h196v-254h-196zM78 1236v254h195v-254h-195z" />
    <glyph glyph-name="copyright" unicode="&#xa9;" horiz-adv-x="1743" 
d="M1167.5 35q-143.5 -57 -300 -57t-299 57t-248.5 156t-168.5 242.5t-62.5 307.5t62.5 307.5t168 243t248 156.5t299 57t300 -57t250 -156.5t169.5 -243t63 -307.5t-63 -307.5t-169 -242.5t-249.5 -156zM526.5 167.5q152.5 -89.5 341 -89.5t342 89t238.5 240.5t85 333
t-85 333t-239 241t-342 89.5t-340.5 -89.5t-237 -240.5t-84.5 -332.5t84.5 -333t237 -241zM1161 336q-124 -82 -315.5 -82t-322.5 138.5t-131 350.5q0 137 57.5 250t163.5 179t265.5 66t281.5 -82l-49 -104q-113 66 -254.5 66t-230.5 -103.5t-89 -271t90 -268.5t232.5 -101
t257.5 66z" />
    <glyph glyph-name="ordfeminine" unicode="&#xaa;" horiz-adv-x="757" 
d="M255 901.5q24 -23.5 68.5 -23.5t95 31t87.5 86v111q-163 -23 -191.5 -36.5t-48.5 -27.5q-36 -25 -35.5 -71t24.5 -69.5zM112 536v120h561v-120h-561zM423.5 778q-62.5 -28 -141.5 -28t-143 56t-64 157q0 99 65 149q66 51 135 65q89 19 231 34v32q-1 76 -30 108.5
t-115.5 32.5t-227.5 -58l-42 110q144 78 286.5 78t217 -58.5t74.5 -187.5v-379q0 -102 1 -125h-135l-17 85q-32 -43 -94.5 -71z" />
    <glyph glyph-name="guillemotleft" unicode="&#xab;" horiz-adv-x="1083" 
d="M812 136l-323 422l325 429l201 -53l-274 -372l270 -372zM388 136l-314 410l10 43l307 398l207 -53l-280 -372l275 -372z" />
    <glyph glyph-name="logicalnot" unicode="&#xac;" horiz-adv-x="1287" 
d="M961 247v394h-829v193h1020v-587h-191z" />
    <glyph glyph-name="uni00AD" unicode="&#xad;" horiz-adv-x="745" 
d="M76 380v204h595v-204h-595z" />
    <glyph glyph-name="registered" unicode="&#xae;" horiz-adv-x="1735" 
d="M1165 35q-143 -57 -299.5 -57t-298.5 57t-247.5 156t-168 242.5t-62.5 307.5t62.5 307.5t167.5 243t247 156.5t298.5 57t299.5 -57t249 -156.5t169 -243t63 -307.5t-62.5 -307.5t-168.5 -242.5t-249 -156zM526 167.5q152 -89.5 340 -89.5t341 89t237.5 240.5t84.5 333
t-84.5 333t-238 241t-341.5 89.5t-340 -89.5t-236 -240.5t-84 -332.5t84.5 -333t236.5 -241zM703 813h120q152 -1 200 41q41 36 41 108q0 66 -22.5 88t-39.5 30q-18 10 -50 14q-47 6 -138 6h-111v-287zM556 271v955h300q358 0 358 -262q0 -110 -49.5 -172t-164.5 -87
q56 -70 121.5 -190.5t94.5 -173.5t38 -70h-165q-26 46 -122.5 227t-110.5 190h-152v-417h-148z" />
    <glyph glyph-name="macron" unicode="&#xaf;" horiz-adv-x="912" 
d="M118 1377v153h686v-153h-686z" />
    <glyph glyph-name="degree" unicode="&#xb0;" horiz-adv-x="850" 
d="M656.5 958.5q-85.5 -88.5 -230 -88.5t-230 88t-85.5 208.5t85.5 204.5t229.5 84t230 -84t86 -204t-85.5 -208.5zM312 1044.5q49 -45.5 115.5 -45.5t115 45.5t48.5 119.5t-48.5 118t-115 44t-115.5 -44t-49 -118t49 -119.5z" />
    <glyph glyph-name="plusminus" unicode="&#xb1;" horiz-adv-x="1288" 
d="M180 0v177h929v-177h-929zM544 261v375h-364v192h364v368h199v-368h366v-192h-365v-375h-200z" />
    <glyph glyph-name="uni00B2" unicode="&#xb2;" horiz-adv-x="834" 
d="M135 1289q115 150 287 150q115 0 196.5 -76.5t81.5 -199.5q0 -129 -82 -227q-48 -56 -83.5 -90t-87 -78t-61.5 -53h315l-15 -141h-540v142q159 106 274.5 232.5t115.5 210.5q0 57 -41 90.5t-96 33.5t-110 -32t-88 -82z" />
    <glyph glyph-name="uni00B3" unicode="&#xb3;" horiz-adv-x="800" 
d="M525 877q0 128 -188 128l-77 -1v136h79q156 0 156 98q0 43 -28 69t-83 26t-113.5 -19t-91.5 -44l-48 111q110 89 243 89q134 0 212 -58q77 -56 77 -170q0 -121 -125 -161q60 -23 102.5 -79.5t42.5 -125.5q0 -129 -87.5 -201t-224 -72t-246.5 82l49 126q34 -32 94 -52
t119.5 -20t98.5 35t39 103z" />
    <glyph glyph-name="acute" unicode="&#xb4;" horiz-adv-x="619" 
d="M191 1195l171 383h299l-315 -383h-155z" />
    <glyph glyph-name="paragraph" unicode="&#xb6;" horiz-adv-x="1201" 
d="M419 -150v932q-153 13 -247 114.5t-94 247.5q0 260 320 324q94 18 209 18h419v-171h-82v-1466h-166v1466h-165v-1466z" />
    <glyph glyph-name="periodcentered" unicode="&#xb7;" horiz-adv-x="422" 
d="M90 488v252h242v-252h-242z" />
    <glyph glyph-name="cedilla" unicode="&#xb8;" horiz-adv-x="589" 
d="M62 -357l123 381h144l-58 -381h-209z" />
    <glyph glyph-name="uni00B9" unicode="&#xb9;" horiz-adv-x="743" 
d="M151 601v148h142v555q-5 -3 -80.5 -38t-80.5 -38v148l55 28q145 72 153 80h144v-735h140v-148h-473z" />
    <glyph glyph-name="ordmasculine" unicode="&#xba;" horiz-adv-x="865" 
d="M704.5 851q-98.5 -107 -269 -107t-268.5 106.5t-98 278.5t100 277.5t269.5 105.5t267 -106.5t97.5 -277t-98.5 -277.5zM293 960.5q48 -61.5 144 -61.5t144 62t48 166.5t-48.5 167.5t-144 63t-143.5 -63t-48 -168t48 -166.5z" />
    <glyph glyph-name="guillemotright" unicode="&#xbb;" horiz-adv-x="1168" 
d="M749 136l-204 54l277 372l-272 372l203 53l318 -422zM314 136l-201 54l274 372l-271 372l200 53l324 -422z" />
    <glyph glyph-name="onequarter" unicode="&#xbc;" horiz-adv-x="1731" 
d="M1176 318h210q0 321 1 328zM305 0l1022 1471h194l-1015 -1471h-201zM1388 10v172h-403v142l387 541h175v-547h115l2 -136h-118l-1 -172h-157zM104 601v148h142v555q-5 -3 -81 -38.5t-80 -37.5v148q202 101 209 108h143v-735h141v-148h-474z" />
    <glyph glyph-name="onehalf" unicode="&#xbd;" horiz-adv-x="1805" 
d="M310 0l1021 1471h198l-1019 -1471h-200zM1126 704q87 131 298 131q117 0 201.5 -74.5t84.5 -199.5q0 -92 -31 -144.5t-51 -80t-62 -66.5q-99 -92 -192 -165h335l-16 -134h-557l1 136q36 31 97.5 81t97 79.5t81 72t69.5 74.5q60 76 60 138t-42.5 97t-99.5 35t-114.5 -25
t-93.5 -72zM125 601v132h142v588q-43 -28 -161 -93v148q16 8 95.5 54.5t86.5 53.5h170v-751h141v-132h-474z" />
    <glyph glyph-name="threequarters" unicode="&#xbe;" horiz-adv-x="1683" 
d="M1126 325h210q0 326 1 340zM279 0l1020 1471h196l-1013 -1471h-203zM1339 11v179h-404v142l387 557h176v-564h114l2 -135h-117l-1 -179h-157zM79 1377q114 94 277 94q116 0 197 -58.5t81 -168.5q0 -26 -16 -64q-32 -75 -108 -99q61 -22 101.5 -76t40.5 -129.5t-44 -136.5
q-86 -118 -265 -118q-143 0 -255 82l49 122q33 -30 89.5 -47t116.5 -17t100 32.5t40 95.5q0 116 -182 116l-77 -1v136h78q156 0 156 99q0 42 -29.5 66.5t-85 24.5t-113 -17.5t-89.5 -42.5z" />
    <glyph glyph-name="questiondown" unicode="&#xbf;" horiz-adv-x="887" 
d="M49 0zM380 1172q44 45 108.5 45t109.5 -45t45 -107.5t-45 -108.5t-109.5 -46t-108.5 46t-44 108.5t44 107.5zM813 -185q-164 -106 -376 -106q-147 0 -263 84q-56 40 -90.5 107t-34.5 143t24 142t66 130q43 64 89 125q134 176 202 311h111q-19 -146 -115 -306
q-40 -65 -78 -126q-89 -141 -90 -230q0 -90 56 -142q54 -51 172.5 -51t256.5 85z" />
    <glyph glyph-name="Agrave" unicode="&#xc0;" horiz-adv-x="1359" 
d="M0 0zM598 1588l-331 383h306l188 -383h-163zM494 616h376q-180 577 -185 596zM-3 0l539 1465h295l531 -1465h-278l-145 414h-513l-146 -414h-283z" />
    <glyph glyph-name="Aacute" unicode="&#xc1;" horiz-adv-x="1359" 
d="M0 0zM602 1588l171 383h299l-315 -383h-155zM494 616h376q-180 577 -185 596zM-3 0l539 1465h295l531 -1465h-278l-145 414h-513l-146 -414h-283z" />
    <glyph glyph-name="Acircumflex" unicode="&#xc2;" horiz-adv-x="1359" 
d="M0 0zM325 1588l250 383h208l251 -383h-184l-174 218l-172 -218h-179zM494 616h376q-180 577 -185 596zM-3 0l539 1465h295l531 -1465h-278l-145 414h-513l-146 -414h-283z" />
    <glyph glyph-name="Atilde" unicode="&#xc3;" horiz-adv-x="1359" 
d="M0 0zM336 1588q0 129 44 185q42 54 114 54t143 -21t124 -42t68 -21q47 0 47 84h147q-1 -127 -41 -183t-112 -56t-191 45t-149 45q-49 0 -50 -90h-144zM494 616h376q-180 577 -185 596zM-3 0l539 1465h295l531 -1465h-278l-145 414h-513l-146 -414h-283z" />
    <glyph glyph-name="Adieresis" unicode="&#xc4;" horiz-adv-x="1359" 
d="M0 0zM792 1588v254h196v-254h-196zM371 1588v254h195v-254h-195zM494 616h376q-180 577 -185 596zM-3 0l539 1465h295l531 -1465h-278l-145 414h-513l-146 -414h-283z" />
    <glyph glyph-name="Aring" unicode="&#xc5;" horiz-adv-x="1359" 
d="M0 0zM680 1473q-100 0 -160.5 60t-60.5 144t59.5 142t161.5 58t161 -58t59 -142t-60 -144t-160 -60zM680 1566q51 0 78 32q28 31 28 77t-28 79.5t-78 33.5t-78.5 -32.5t-28.5 -78.5t28 -78.5t79 -32.5zM494 616h376q-180 577 -185 596zM-3 0l539 1465h295l531 -1465h-278
l-145 414h-513l-146 -414h-283z" />
    <glyph glyph-name="AE" unicode="&#xc6;" horiz-adv-x="2021" 
d="M638 572h415l-50 663zM38 0l844 1481h1009l-15 -196h-607l33 -434h549v-196h-529l39 -459h565l-14 -196h-813l-30 375h-524l-205 -375h-302z" />
    <glyph glyph-name="Ccedilla" unicode="&#xc7;" horiz-adv-x="1301" 
d="M100 0zM607 -389l123 381h144l-58 -381h-209zM797 -21q-321 0 -509 202t-188 549t196.5 551.5t514.5 204.5q257 0 435 -119l-85 -204q-171 105 -359 105t-305 -146t-117 -396t113.5 -388.5t310.5 -138.5t378 92l36 -212q-168 -100 -421 -100z" />
    <glyph glyph-name="Egrave" unicode="&#xc8;" 
d="M158 0zM526 1588l-331 383h306l188 -383h-163zM158 0v1465h888l-11 -215h-606v-378h576v-215h-576v-441h628l-9 -216h-890z" />
    <glyph glyph-name="Eacute" unicode="&#xc9;" 
d="M158 0zM530 1588l171 383h299l-315 -383h-155zM158 0v1465h888l-11 -215h-606v-378h576v-215h-576v-441h628l-9 -216h-890z" />
    <glyph glyph-name="Ecircumflex" unicode="&#xca;" 
d="M158 0zM253 1588l250 383h208l251 -383h-184l-174 218l-172 -218h-179zM158 0v1465h888l-11 -215h-606v-378h576v-215h-576v-441h628l-9 -216h-890z" />
    <glyph glyph-name="Edieresis" unicode="&#xcb;" 
d="M158 0zM720 1588v254h196v-254h-196zM299 1588v254h195v-254h-195zM158 0v1465h888l-11 -215h-606v-378h576v-215h-576v-441h628l-9 -216h-890z" />
    <glyph glyph-name="Igrave" unicode="&#xcc;" horiz-adv-x="602" 
d="M0 0zM219 1588l-331 383h306l188 -383h-163zM165 0v1465h271v-1465h-271z" />
    <glyph glyph-name="Iacute" unicode="&#xcd;" horiz-adv-x="602" 
d="M165 0zM223 1588l171 383h299l-315 -383h-155zM165 0v1465h271v-1465h-271z" />
    <glyph glyph-name="Icircumflex" unicode="&#xce;" horiz-adv-x="602" 
d="M0 0zM-54 1588l250 383h208l251 -383h-184l-174 218l-172 -218h-179zM165 0v1465h271v-1465h-271z" />
    <glyph glyph-name="Idieresis" unicode="&#xcf;" horiz-adv-x="602" 
d="M0 0zM413 1588v254h196v-254h-196zM-8 1588v254h195v-254h-195zM165 0v1465h271v-1465h-271z" />
    <glyph glyph-name="Eth" unicode="&#xd0;" horiz-adv-x="1524" 
d="M131 1v649h-125v179h125v634h391q919 0 919 -734q0 -176 -60 -315t-169 -229q-223 -184 -595 -184h-486zM398 206h235q259 0 398.5 134t139.5 385q0 296 -162 417q-153 114 -467 114h-144v-427h199v-179h-199v-444z" />
    <glyph glyph-name="Eth" unicode="&#x110;" horiz-adv-x="1524" 
d="M131 1v649h-125v179h125v634h391q919 0 919 -734q0 -176 -60 -315t-169 -229q-223 -184 -595 -184h-486zM398 206h235q259 0 398.5 134t139.5 385q0 296 -162 417q-153 114 -467 114h-144v-427h199v-179h-199v-444z" />
    <glyph glyph-name="Ntilde" unicode="&#xd1;" horiz-adv-x="1554" 
d="M158 0zM434 1588q0 129 44 185q42 54 114 54t143 -21t124 -42t68 -21q47 0 47 84h147q-1 -127 -41 -183t-112 -56t-191 45t-149 45q-49 0 -50 -90h-144zM158 0v1465h288q490 -766 593 -920t118 -177q-7 343 -7 356v741h247v-1465h-292l-661 1030l-48 79q8 -264 8 -371
v-738h-246z" />
    <glyph glyph-name="Ograve" unicode="&#xd2;" horiz-adv-x="1626" 
d="M99 0zM731 1588l-331 383h306l188 -383h-163zM1335 180q-192 -201 -522.5 -201t-522 200.5t-191.5 554.5t192 553t523 199t522 -199.5t191 -552.5t-192 -554zM814 200q213 0 321.5 138.5t108.5 393t-108.5 395.5t-321 141t-322 -141.5t-109.5 -395t109 -392.5t322 -139z
" />
    <glyph glyph-name="Oacute" unicode="&#xd3;" horiz-adv-x="1626" 
d="M99 0zM735 1588l171 383h299l-315 -383h-155zM1335 180q-192 -201 -522.5 -201t-522 200.5t-191.5 554.5t192 553t523 199t522 -199.5t191 -552.5t-192 -554zM814 200q213 0 321.5 138.5t108.5 393t-108.5 395.5t-321 141t-322 -141.5t-109.5 -395t109 -392.5t322 -139z
" />
    <glyph glyph-name="Ocircumflex" unicode="&#xd4;" horiz-adv-x="1626" 
d="M99 0zM459 1588l250 383h208l251 -383h-184l-174 218l-172 -218h-179zM1335 180q-192 -201 -522.5 -201t-522 200.5t-191.5 554.5t192 553t523 199t522 -199.5t191 -552.5t-192 -554zM814 200q213 0 321.5 138.5t108.5 393t-108.5 395.5t-321 141t-322 -141.5
t-109.5 -395t109 -392.5t322 -139z" />
    <glyph glyph-name="Otilde" unicode="&#xd5;" horiz-adv-x="1626" 
d="M99 0zM470 1588q0 129 44 185q42 54 114 54t143 -21t124 -42t68 -21q47 0 47 84h147q-1 -127 -41 -183t-112 -56t-191 45t-149 45q-49 0 -50 -90h-144zM1335 180q-192 -201 -522.5 -201t-522 200.5t-191.5 554.5t192 553t523 199t522 -199.5t191 -552.5t-192 -554z
M814 200q213 0 321.5 138.5t108.5 393t-108.5 395.5t-321 141t-322 -141.5t-109.5 -395t109 -392.5t322 -139z" />
    <glyph glyph-name="Odieresis" unicode="&#xd6;" horiz-adv-x="1626" 
d="M99 0zM925 1588v254h196v-254h-196zM504 1588v254h195v-254h-195zM1335 180q-192 -201 -522.5 -201t-522 200.5t-191.5 554.5t192 553t523 199t522 -199.5t191 -552.5t-192 -554zM814 200q213 0 321.5 138.5t108.5 393t-108.5 395.5t-321 141t-322 -141.5t-109.5 -395
t109 -392.5t322 -139z" />
    <glyph glyph-name="multiply" unicode="&#xd7;" horiz-adv-x="1395" 
d="M857 583l292 -299l-136 -137l-300 294l-301 -294l-134 136l291 300l-291 299l134 138l301 -295l300 295l136 -139z" />
    <glyph glyph-name="Oslash" unicode="&#xd8;" horiz-adv-x="1624" 
d="M815 191q225 0 342 143.5t117 391.5q0 330 -189 466l-428 -979q69 -22 158 -22zM557 260l427 984q-79 27 -169 27q-224 0 -341.5 -147t-117.5 -398q0 -334 201 -466zM470 -211l-100 42l96 221q-180 86 -281 260.5t-101 417.5q0 175 54 317.5t151 238.5q203 200 527 199
q137 0 257 -38l93 213l106 -41l-93 -215q172 -89 268 -262t96 -412q0 -172 -54 -313.5t-150 -237t-231.5 -148t-279.5 -52.5t-260 34z" />
    <glyph glyph-name="Ugrave" unicode="&#xd9;" horiz-adv-x="1468" 
d="M144 0zM652 1588l-331 383h306l188 -383h-163zM1171 122.5q-152 -143.5 -440.5 -143.5t-437.5 143.5t-149 404.5v938h272v-915q0 -183 74.5 -267t243 -84t243.5 84.5t75 267.5v914h271v-940q0 -259 -152 -402.5z" />
    <glyph glyph-name="Uacute" unicode="&#xda;" horiz-adv-x="1468" 
d="M144 0zM656 1588l171 383h299l-315 -383h-155zM1171 122.5q-152 -143.5 -440.5 -143.5t-437.5 143.5t-149 404.5v938h272v-915q0 -183 74.5 -267t243 -84t243.5 84.5t75 267.5v914h271v-940q0 -259 -152 -402.5z" />
    <glyph glyph-name="Ucircumflex" unicode="&#xdb;" horiz-adv-x="1468" 
d="M144 0zM379 1588l250 383h208l251 -383h-184l-174 218l-172 -218h-179zM1171 122.5q-152 -143.5 -440.5 -143.5t-437.5 143.5t-149 404.5v938h272v-915q0 -183 74.5 -267t243 -84t243.5 84.5t75 267.5v914h271v-940q0 -259 -152 -402.5z" />
    <glyph glyph-name="Udieresis" unicode="&#xdc;" horiz-adv-x="1468" 
d="M144 0zM846 1588v254h196v-254h-196zM425 1588v254h195v-254h-195zM1171 122.5q-152 -143.5 -440.5 -143.5t-437.5 143.5t-149 404.5v938h272v-915q0 -183 74.5 -267t243 -84t243.5 84.5t75 267.5v914h271v-940q0 -259 -152 -402.5z" />
    <glyph glyph-name="Yacute" unicode="&#xdd;" horiz-adv-x="1256" 
d="M0 0zM549 1588l171 383h299l-315 -383h-155zM492 0v581l-507 884h294l349 -634l351 634h290l-505 -879v-586h-272z" />
    <glyph glyph-name="Thorn" unicode="&#xde;" horiz-adv-x="1327" 
d="M401 534h336q149 0 231 68t82 197q0 253 -340 253h-310zM178 11v1443h222v-225h287q261 -1 419 -101q168 -108 168 -331.5t-152.5 -341.5t-397.5 -118l-324 2v-328h-222z" />
    <glyph glyph-name="germandbls" unicode="&#xdf;" horiz-adv-x="1259" 
d="M108 0v1024q0 222 122.5 344t352.5 122q190 0 317 -85q135 -90 135 -261q-1 -123 -91 -207q-48 -45 -78 -67q-42 -30 -111 -71q22 -13 69 -37.5t76 -40.5t73 -43.5t72.5 -50.5t61 -56t51.5 -65q44 -75 44 -176t-54 -180q-103 -150 -354 -150h-292l25 179h240
q84 0 130 44.5t46 106t-21.5 101t-63.5 72.5t-80.5 55.5t-98.5 54t-90 50.5q-87 53 -87 119.5t71 120.5q18 13 56.5 39.5t59.5 43t47 42.5q50 50 49.5 119.5t-57 110.5t-134.5 41t-122 -19.5t-68 -58.5q-42 -69 -41 -205v-1016h-255z" />
    <glyph glyph-name="agrave" unicode="&#xe0;" horiz-adv-x="1142" 
d="M81 0zM465 1228l-331 383h306l188 -383h-163zM749 526l-106 -8q-159 -14 -233 -60t-74 -148q0 -70 41 -107.5t124.5 -37.5t151 43.5t96.5 105.5v212zM613.5 16.5q-78.5 -37.5 -211 -37.5t-227 84.5t-94.5 249.5t112 247.5t338 104.5q71 9 132 14.5t87 8.5v58
q0 100 -46 145.5t-160 45.5t-311 -75q-1 3 -33 91t-33 90q194 83 418 83t325 -96.5t101 -312.5v-717h-194q-1 4 -22 67t-21 67q-82 -80 -160.5 -117.5z" />
    <glyph glyph-name="aacute" unicode="&#xe1;" horiz-adv-x="1142" 
d="M81 0zM469 1228l171 383h299l-315 -383h-155zM749 526l-106 -8q-159 -14 -233 -60t-74 -148q0 -70 41 -107.5t124.5 -37.5t151 43.5t96.5 105.5v212zM613.5 16.5q-78.5 -37.5 -211 -37.5t-227 84.5t-94.5 249.5t112 247.5t338 104.5q71 9 132 14.5t87 8.5v58
q0 100 -46 145.5t-160 45.5t-311 -75q-1 3 -33 91t-33 90q194 83 418 83t325 -96.5t101 -312.5v-717h-194q-1 4 -22 67t-21 67q-82 -80 -160.5 -117.5z" />
    <glyph glyph-name="acircumflex" unicode="&#xe2;" horiz-adv-x="1142" 
d="M81 0zM191 1228l250 383h208l251 -383h-184l-174 218l-172 -218h-179zM749 526l-106 -8q-159 -14 -233 -60t-74 -148q0 -70 41 -107.5t124.5 -37.5t151 43.5t96.5 105.5v212zM613.5 16.5q-78.5 -37.5 -211 -37.5t-227 84.5t-94.5 249.5t112 247.5t338 104.5
q71 9 132 14.5t87 8.5v58q0 100 -46 145.5t-160 45.5t-311 -75q-1 3 -33 91t-33 90q194 83 418 83t325 -96.5t101 -312.5v-717h-194q-1 4 -22 67t-21 67q-82 -80 -160.5 -117.5z" />
    <glyph glyph-name="atilde" unicode="&#xe3;" horiz-adv-x="1142" 
d="M81 0zM202 1228q0 129 44 185q42 54 114 54t143 -21t124 -42t68 -21q47 0 47 84h147q-1 -127 -41 -183t-112 -56t-191 45t-149 45q-49 0 -50 -90h-144zM749 526l-106 -8q-159 -14 -233 -60t-74 -148q0 -70 41 -107.5t124.5 -37.5t151 43.5t96.5 105.5v212zM613.5 16.5
q-78.5 -37.5 -211 -37.5t-227 84.5t-94.5 249.5t112 247.5t338 104.5q71 9 132 14.5t87 8.5v58q0 100 -46 145.5t-160 45.5t-311 -75q-1 3 -33 91t-33 90q194 83 418 83t325 -96.5t101 -312.5v-717h-194q-1 4 -22 67t-21 67q-82 -80 -160.5 -117.5z" />
    <glyph glyph-name="adieresis" unicode="&#xe4;" horiz-adv-x="1142" 
d="M81 0zM659 1228v254h196v-254h-196zM238 1228v254h195v-254h-195zM749 526l-106 -8q-159 -14 -233 -60t-74 -148q0 -70 41 -107.5t124.5 -37.5t151 43.5t96.5 105.5v212zM613.5 16.5q-78.5 -37.5 -211 -37.5t-227 84.5t-94.5 249.5t112 247.5t338 104.5q71 9 132 14.5
t87 8.5v58q0 100 -46 145.5t-160 45.5t-311 -75q-1 3 -33 91t-33 90q194 83 418 83t325 -96.5t101 -312.5v-717h-194q-1 4 -22 67t-21 67q-82 -80 -160.5 -117.5z" />
    <glyph glyph-name="aring" unicode="&#xe5;" horiz-adv-x="1142" 
d="M81 0zM624 1228q-100 0 -160.5 60t-60.5 144t59.5 142t161.5 58t161 -58t59 -142t-60 -144t-160 -60zM624 1321q51 0 78 32q28 31 28 77t-28 79.5t-78 33.5t-78.5 -32.5t-28.5 -78.5t28 -78.5t79 -32.5zM749 526l-106 -8q-159 -14 -233 -60t-74 -148q0 -70 41 -107.5
t124.5 -37.5t151 43.5t96.5 105.5v212zM613.5 16.5q-78.5 -37.5 -211 -37.5t-227 84.5t-94.5 249.5t112 247.5t338 104.5q71 9 132 14.5t87 8.5v58q0 100 -46 145.5t-160 45.5t-311 -75q-1 3 -33 91t-33 90q194 83 418 83t325 -96.5t101 -312.5v-717h-194q-1 4 -22 67
t-21 67q-82 -80 -160.5 -117.5z" />
    <glyph glyph-name="ae" unicode="&#xe6;" horiz-adv-x="1679" 
d="M944 644l436 39q2 14 2 31q-2 230 -175 230q-96 0 -169 -63q-82 -71 -94 -237zM698 475l-91 -11q-200 -24 -253 -63q-48 -35 -48 -103t36.5 -108t106.5 -40q135 0 295 123q-12 24 -28.5 87.5t-17.5 114.5zM411 -22q-153 0 -246 96t-93 243q0 95 30 134t52 59.5t63.5 37
t74.5 26.5q34 10 94 20q93 15 222 29l85 7v117q0 103 -39.5 150.5t-146.5 51.5q-141 0 -324 -77l-49 180q175 83 389 83q126 0 211 -45.5t114 -130.5q57 79 151.5 127.5t204.5 48.5t190 -41q80 -42 126 -114q92 -144 93 -355q0 -44 -39 -64.5t-175 -27.5t-458 -33
q7 -161 80.5 -246t210.5 -86q90 0 167 24t120 57l72 -162q-149 -108 -387 -108t-367 159q-175 -160 -426 -160z" />
    <glyph glyph-name="ccedilla" unicode="&#xe7;" horiz-adv-x="1008" 
d="M81 0zM441 -389l123 381h144l-58 -381h-209zM933 65q-129 -86 -319 -86q-252 0 -392.5 150t-140.5 424.5t147.5 423.5t388.5 149q193 0 326 -83l-62 -187q-136 71 -261 71t-201.5 -95t-76.5 -278t75.5 -279t216.5 -96t274 85z" />
    <glyph glyph-name="egrave" unicode="&#xe8;" horiz-adv-x="1157" 
d="M81 0zM497 1228l-331 383h306l188 -383h-163zM350 661h480q0 134 -61 206t-165.5 72t-174 -70t-79.5 -208zM1077 607l-1 -111h-731q4 -154 84.5 -238.5t241 -84.5t326.5 94l37 -186q-165 -102 -411.5 -102t-394 152.5t-147.5 418t139 420.5q138 156 372 156h2
q232 0 358 -142t125 -377z" />
    <glyph glyph-name="eacute" unicode="&#xe9;" horiz-adv-x="1157" 
d="M81 0zM501 1228l171 383h299l-315 -383h-155zM350 661h480q0 134 -61 206t-165.5 72t-174 -70t-79.5 -208zM1077 607l-1 -111h-731q4 -154 84.5 -238.5t241 -84.5t326.5 94l37 -186q-165 -102 -411.5 -102t-394 152.5t-147.5 418t139 420.5q138 156 372 156h2
q232 0 358 -142t125 -377z" />
    <glyph glyph-name="ecircumflex" unicode="&#xea;" horiz-adv-x="1157" 
d="M81 0zM225 1228l250 383h208l251 -383h-184l-174 218l-172 -218h-179zM350 661h480q0 134 -61 206t-165.5 72t-174 -70t-79.5 -208zM1077 607l-1 -111h-731q4 -154 84.5 -238.5t241 -84.5t326.5 94l37 -186q-165 -102 -411.5 -102t-394 152.5t-147.5 418t139 420.5
q138 156 372 156h2q232 0 358 -142t125 -377z" />
    <glyph glyph-name="edieresis" unicode="&#xeb;" horiz-adv-x="1157" 
d="M81 0zM691 1228v254h196v-254h-196zM270 1228v254h195v-254h-195zM350 661h480q0 134 -61 206t-165.5 72t-174 -70t-79.5 -208zM1077 607l-1 -111h-731q4 -154 84.5 -238.5t241 -84.5t326.5 94l37 -186q-165 -102 -411.5 -102t-394 152.5t-147.5 418t139 420.5
q138 156 372 156h2q232 0 358 -142t125 -377z" />
    <glyph glyph-name="igrave" unicode="&#xec;" horiz-adv-x="548" 
d="M0 0zM175 1228l-331 383h306l188 -383h-163zM129 0v1098h255v-1098h-255z" />
    <glyph glyph-name="iacute" unicode="&#xed;" horiz-adv-x="548" 
d="M129 0zM179 1228l171 383h299l-315 -383h-155zM129 0v1098h255v-1098h-255z" />
    <glyph glyph-name="icircumflex" unicode="&#xee;" horiz-adv-x="548" 
d="M0 0zM-98 1228l250 383h208l251 -383h-184l-174 218l-172 -218h-179zM129 0v1098h255v-1098h-255z" />
    <glyph glyph-name="idieresis" unicode="&#xef;" horiz-adv-x="548" 
d="M0 0zM369 1228v254h196v-254h-196zM-52 1228v254h195v-254h-195zM129 0v1098h255v-1098h-255z" />
    <glyph glyph-name="eth" unicode="&#xf0;" horiz-adv-x="1226" 
d="M403 261q80 -83 221.5 -83t218 79.5t76.5 215t-78.5 218.5t-221.5 83t-219.5 -79.5t-76.5 -215t80 -218.5zM233.5 114.5q-149.5 135.5 -149.5 358t134.5 351.5t362.5 129q55 0 149 -29q-8 15 -101 126t-124 143l-249 -101l-67 134l205 83l-203 200h298l119 -113l250 100
l69 -132l-211 -84q224 -248 333.5 -427t109.5 -372q0 -213 -129 -353q-137 -149 -392 -149t-404.5 135.5z" />
    <glyph glyph-name="ntilde" unicode="&#xf1;" horiz-adv-x="1254" 
d="M133 0zM288 1228q0 129 44 185q42 54 114 54t143 -21t124 -42t68 -21q47 0 47 84h147q-1 -127 -41 -183t-112 -56t-191 45t-149 45q-49 0 -50 -90h-144zM133 0v1099h211l29 -139q169 166 367 166q390 0 389 -431v-695h-263v663q-1 133 -43 199t-139 66t-167.5 -43.5
t-102.5 -109.5q-19 -78 -19 -240v-535h-262z" />
    <glyph glyph-name="ograve" unicode="&#xf2;" horiz-adv-x="1222" 
d="M81 0zM529 1228l-331 383h306l188 -383h-163zM1000 134.5q-141 -155.5 -390 -155.5t-389 158t-140 420t140 415.5t390.5 153.5t390 -156.5t139.5 -418t-141 -417zM879 553q0 375 -269 375q-133 0 -200.5 -96.5t-67.5 -278t68 -278.5t201.5 -97t200.5 97t67 278z" />
    <glyph glyph-name="oacute" unicode="&#xf3;" horiz-adv-x="1222" 
d="M81 0zM533 1228l171 383h299l-315 -383h-155zM1000 134.5q-141 -155.5 -390 -155.5t-389 158t-140 420t140 415.5t390.5 153.5t390 -156.5t139.5 -418t-141 -417zM879 553q0 375 -269 375q-133 0 -200.5 -96.5t-67.5 -278t68 -278.5t201.5 -97t200.5 97t67 278z" />
    <glyph glyph-name="ocircumflex" unicode="&#xf4;" horiz-adv-x="1222" 
d="M81 0zM257 1228l250 383h208l251 -383h-184l-174 218l-172 -218h-179zM1000 134.5q-141 -155.5 -390 -155.5t-389 158t-140 420t140 415.5t390.5 153.5t390 -156.5t139.5 -418t-141 -417zM879 553q0 375 -269 375q-133 0 -200.5 -96.5t-67.5 -278t68 -278.5t201.5 -97
t200.5 97t67 278z" />
    <glyph glyph-name="otilde" unicode="&#xf5;" horiz-adv-x="1222" 
d="M81 0zM268 1228q0 129 44 185q42 54 114 54t143 -21t124 -42t68 -21q47 0 47 84h147q-1 -127 -41 -183t-112 -56t-191 45t-149 45q-49 0 -50 -90h-144zM1000 134.5q-141 -155.5 -390 -155.5t-389 158t-140 420t140 415.5t390.5 153.5t390 -156.5t139.5 -418t-141 -417z
M879 553q0 375 -269 375q-133 0 -200.5 -96.5t-67.5 -278t68 -278.5t201.5 -97t200.5 97t67 278z" />
    <glyph glyph-name="odieresis" unicode="&#xf6;" horiz-adv-x="1222" 
d="M81 0zM723 1228v254h196v-254h-196zM302 1228v254h195v-254h-195zM1000 134.5q-141 -155.5 -390 -155.5t-389 158t-140 420t140 415.5t390.5 153.5t390 -156.5t139.5 -418t-141 -417zM879 553q0 375 -269 375q-133 0 -200.5 -96.5t-67.5 -278t68 -278.5t201.5 -97
t200.5 97t67 278z" />
    <glyph glyph-name="divide" unicode="&#xf7;" horiz-adv-x="1456" 
d="M590 875v259h284v-259h-284zM178 489v187h1096v-187h-1096zM590 21v260h275v-260h-275z" />
    <glyph glyph-name="oslash" unicode="&#xf8;" horiz-adv-x="1193" 
d="M599 163q135 0 207 102t72 303t-95 299l-301 -679q50 -25 117 -25zM420 231l301 682q-53 27 -123 27q-134 0 -207 -102q-73 -100 -73 -304t102 -303zM302 -215l-62 34l96 222q-129 66 -197 199t-68 310q0 260 138.5 414.5t391.5 154.5q106 0 199 -30l94 180l69 -23
l-93 -187q125 -66 190 -197.5t65 -309.5q0 -256 -138 -412t-392 -156q-107 0 -192 30z" />
    <glyph glyph-name="ugrave" unicode="&#xf9;" horiz-adv-x="1163" 
d="M106 0zM500 1228l-331 383h306l188 -383h-163zM581 -21q-214 0 -344.5 107t-130.5 314v699h263v-689q0 -123 51.5 -178t162.5 -55t161.5 54.5t50.5 178.5v689h262v-699q0 -206 -131 -313.5t-345 -107.5z" />
    <glyph glyph-name="uacute" unicode="&#xfa;" horiz-adv-x="1163" 
d="M106 0zM504 1228l171 383h299l-315 -383h-155zM581 -21q-214 0 -344.5 107t-130.5 314v699h263v-689q0 -123 51.5 -178t162.5 -55t161.5 54.5t50.5 178.5v689h262v-699q0 -206 -131 -313.5t-345 -107.5z" />
    <glyph glyph-name="ucircumflex" unicode="&#xfb;" horiz-adv-x="1163" 
d="M106 0zM227 1228l250 383h208l251 -383h-184l-174 218l-172 -218h-179zM581 -21q-214 0 -344.5 107t-130.5 314v699h263v-689q0 -123 51.5 -178t162.5 -55t161.5 54.5t50.5 178.5v689h262v-699q0 -206 -131 -313.5t-345 -107.5z" />
    <glyph glyph-name="udieresis" unicode="&#xfc;" horiz-adv-x="1163" 
d="M106 0zM694 1228v254h196v-254h-196zM273 1228v254h195v-254h-195zM581 -21q-214 0 -344.5 107t-130.5 314v699h263v-689q0 -123 51.5 -178t162.5 -55t161.5 54.5t50.5 178.5v689h262v-699q0 -206 -131 -313.5t-345 -107.5z" />
    <glyph glyph-name="yacute" unicode="&#xfd;" horiz-adv-x="1116" 
d="M0 0zM474 1228l171 383h299l-315 -383h-155zM563 302q29 106 266 797h280q-457 -1208 -461 -1218q-71 -185 -179 -264.5t-278 -79.5q-64 0 -136 8l-13 203q46 -5 127 -5t136 36t91 128q4 10 40 113l-442 1079h280z" />
    <glyph glyph-name="thorn" unicode="&#xfe;" horiz-adv-x="1288" 
d="M694 176q210 0 266 220q16 62 15.5 135t-15.5 135q-16 62 -48 112q-67 108 -219.5 107.5t-230.5 -97t-78 -258.5t76 -258t234 -96zM160 -431v1636l-5 293h230v-560q27 39 116.5 86.5t210 47.5t216 -43t155.5 -119q123 -155 123 -389q0 -283 -168 -433
q-119 -106 -312 -107q-186 -1 -308 101q-24 20 -33 36v-549h-225z" />
    <glyph glyph-name="ydieresis" unicode="&#xff;" horiz-adv-x="1116" 
d="M0 0zM664 1228v254h196v-254h-196zM243 1228v254h195v-254h-195zM563 302q29 106 266 797h280q-457 -1208 -461 -1218q-71 -185 -179 -264.5t-278 -79.5q-64 0 -136 8l-13 203q46 -5 127 -5t136 36t91 128q4 10 40 113l-442 1079h280z" />
    <glyph glyph-name="Amacron" unicode="&#x100;" horiz-adv-x="1359" 
d="M0 0zM336 1588v153h686v-153h-686zM494 616h376q-180 577 -185 596zM-3 0l539 1465h295l531 -1465h-278l-145 414h-513l-146 -414h-283z" />
    <glyph glyph-name="amacron" unicode="&#x101;" horiz-adv-x="1142" 
d="M81 0zM203 1228v153h686v-153h-686zM749 526l-106 -8q-159 -14 -233 -60t-74 -148q0 -70 41 -107.5t124.5 -37.5t151 43.5t96.5 105.5v212zM613.5 16.5q-78.5 -37.5 -211 -37.5t-227 84.5t-94.5 249.5t112 247.5t338 104.5q71 9 132 14.5t87 8.5v58q0 100 -46 145.5
t-160 45.5t-311 -75q-1 3 -33 91t-33 90q194 83 418 83t325 -96.5t101 -312.5v-717h-194q-1 4 -22 67t-21 67q-82 -80 -160.5 -117.5z" />
    <glyph glyph-name="Abreve" unicode="&#x102;" horiz-adv-x="1359" 
d="M0 0zM680 1588q-132 0 -211.5 64t-79.5 188h167q0 -51 29.5 -73.5t94.5 -22.5t94.5 22.5t29.5 73.5h167q0 -124 -79.5 -188t-211.5 -64zM494 616h376q-180 577 -185 596zM-3 0l539 1465h295l531 -1465h-278l-145 414h-513l-146 -414h-283z" />
    <glyph glyph-name="abreve" unicode="&#x103;" horiz-adv-x="1142" 
d="M81 0zM546 1228q-132 0 -211.5 64t-79.5 188h167q0 -51 29.5 -73.5t94.5 -22.5t94.5 22.5t29.5 73.5h167q0 -124 -79.5 -188t-211.5 -64zM749 526l-106 -8q-159 -14 -233 -60t-74 -148q0 -70 41 -107.5t124.5 -37.5t151 43.5t96.5 105.5v212zM613.5 16.5
q-78.5 -37.5 -211 -37.5t-227 84.5t-94.5 249.5t112 247.5t338 104.5q71 9 132 14.5t87 8.5v58q0 100 -46 145.5t-160 45.5t-311 -75q-1 3 -33 91t-33 90q194 83 418 83t325 -96.5t101 -312.5v-717h-194q-1 4 -22 67t-21 67q-82 -80 -160.5 -117.5z" />
    <glyph glyph-name="Aogonek" unicode="&#x104;" horiz-adv-x="1359" 
d="M0 0zM1293 -389q-95 -37 -188.5 -37t-152 44t-58.5 128q0 146 191 254h108q-124 -92 -124 -199q0 -34 22.5 -60.5t48 -26.5t42 2.5t30 6t28.5 8.5t24 8.5t18.5 7.5t10.5 4v-140zM494 616h376q-180 577 -185 596zM-3 0l539 1465h295l531 -1465h-278l-145 414h-513
l-146 -414h-283z" />
    <glyph glyph-name="aogonek" unicode="&#x105;" horiz-adv-x="1142" 
d="M81 0zM1026 -388q-95 -37 -188.5 -37t-152 44t-58.5 128q0 146 191 254h108q-124 -92 -124 -199q0 -34 22.5 -60.5t48 -26.5t42 2.5t30 6t28.5 8.5t24 8.5t18.5 7.5t10.5 4v-140zM749 526l-106 -8q-159 -14 -233 -60t-74 -148q0 -70 41 -107.5t124.5 -37.5t151 43.5
t96.5 105.5v212zM613.5 16.5q-78.5 -37.5 -211 -37.5t-227 84.5t-94.5 249.5t112 247.5t338 104.5q71 9 132 14.5t87 8.5v58q0 100 -46 145.5t-160 45.5t-311 -75q-1 3 -33 91t-33 90q194 83 418 83t325 -96.5t101 -312.5v-717h-194q-1 4 -22 67t-21 67
q-82 -80 -160.5 -117.5z" />
    <glyph glyph-name="Cacute" unicode="&#x106;" horiz-adv-x="1301" 
d="M100 0zM595 1588l171 383h299l-315 -383h-155zM797 -21q-321 0 -509 202t-188 549t196.5 551.5t514.5 204.5q257 0 435 -119l-85 -204q-171 105 -359 105t-305 -146t-117 -396t113.5 -388.5t310.5 -138.5t378 92l36 -212q-168 -100 -421 -100z" />
    <glyph glyph-name="cacute" unicode="&#x107;" horiz-adv-x="1008" 
d="M81 0zM435 1228l171 383h299l-315 -383h-155zM933 65q-129 -86 -319 -86q-252 0 -392.5 150t-140.5 424.5t147.5 423.5t388.5 149q193 0 326 -83l-62 -187q-136 71 -261 71t-201.5 -95t-76.5 -278t75.5 -279t216.5 -96t274 85z" />
    <glyph glyph-name="Ccircumflex" unicode="&#x108;" horiz-adv-x="1301" 
d="M100 0zM447 1588l250 383h208l251 -383h-184l-174 218l-172 -218h-179zM797 -21q-321 0 -509 202t-188 549t196.5 551.5t514.5 204.5q257 0 435 -119l-85 -204q-171 105 -359 105t-305 -146t-117 -396t113.5 -388.5t310.5 -138.5t378 92l36 -212q-168 -100 -421 -100z
" />
    <glyph glyph-name="ccircumflex" unicode="&#x109;" horiz-adv-x="1008" 
d="M81 0zM217 1228l250 383h208l251 -383h-184l-174 218l-172 -218h-179zM933 65q-129 -86 -319 -86q-252 0 -392.5 150t-140.5 424.5t147.5 423.5t388.5 149q193 0 326 -83l-62 -187q-136 71 -261 71t-201.5 -95t-76.5 -278t75.5 -279t216.5 -96t274 85z" />
    <glyph glyph-name="Cdotaccent" unicode="&#x10a;" horiz-adv-x="1301" 
d="M100 0zM573 1588v216h201v-216h-201zM797 -21q-321 0 -509 202t-188 549t196.5 551.5t514.5 204.5q257 0 435 -119l-85 -204q-171 105 -359 105t-305 -146t-117 -396t113.5 -388.5t310.5 -138.5t378 92l36 -212q-168 -100 -421 -100z" />
    <glyph glyph-name="cdotaccent" unicode="&#x10b;" horiz-adv-x="1008" 
d="M81 0zM411 1228v216h201v-216h-201zM933 65q-129 -86 -319 -86q-252 0 -392.5 150t-140.5 424.5t147.5 423.5t388.5 149q193 0 326 -83l-62 -187q-136 71 -261 71t-201.5 -95t-76.5 -278t75.5 -279t216.5 -96t274 85z" />
    <glyph glyph-name="Ccaron" unicode="&#x10c;" horiz-adv-x="1301" 
d="M100 0zM572 1588l-262 353h198l161 -196l164 196h203l-262 -353h-202zM797 -21q-321 0 -509 202t-188 549t196.5 551.5t514.5 204.5q257 0 435 -119l-85 -204q-171 105 -359 105t-305 -146t-117 -396t113.5 -388.5t310.5 -138.5t378 92l36 -212q-168 -100 -421 -100z" />
    <glyph glyph-name="ccaron" unicode="&#x10d;" horiz-adv-x="1008" 
d="M81 0zM411 1228l-262 353h198l161 -196l164 196h203l-262 -353h-202zM933 65q-129 -86 -319 -86q-252 0 -392.5 150t-140.5 424.5t147.5 423.5t388.5 149q193 0 326 -83l-62 -187q-136 71 -261 71t-201.5 -95t-76.5 -278t75.5 -279t216.5 -96t274 85z" />
    <glyph glyph-name="Dcaron" unicode="&#x10e;" horiz-adv-x="1514" 
d="M159 0zM686 1588l-262 353h198l161 -196l164 196h203l-262 -353h-202zM159 0v1465h424q387 -1 605 -177q226 -183 226.5 -544t-213.5 -552.5t-593 -191.5h-449zM430 217h194q251 0 382 131.5t131 392.5t-135 383.5t-407 122.5h-165v-1030z" />
    <glyph glyph-name="dcaron" unicode="&#x10f;" horiz-adv-x="1259" 
d="M81 0zM1307 1006q57 277 94 515h244l-3 -49q-65 -226 -158 -466h-177zM604 178q264 0 268 359q0 203 -68 296t-194.5 93t-197 -94.5t-70.5 -278t70.5 -279.5t191.5 -96zM542 -21q-215 0 -338 158t-123 418t122.5 415.5t347 155.5t321.5 -166q-10 98 -10 189v355l262 17
v-1521h-227l-29 150q-62 -98 -134 -132q-80 -38 -192 -39z" />
    <glyph glyph-name="dcroat" unicode="&#x111;" horiz-adv-x="1235" 
d="M392.5 269q79.5 -96 205.5 -96t203 92.5t77 287.5t-78 291.5t-202.5 96.5t-204.5 -96t-80 -288t79.5 -288zM874 155q-98 -175 -334 -175h-4q-132 0 -244 78q-226 156 -226 506q0 236 126 400q60 78 153 124.5t210.5 46.5t199.5 -48t119 -120v242h-285v142h285v146l255 18
v-164h106v-142h-106v-1209h-245z" />
    <glyph glyph-name="Emacron" unicode="&#x112;" 
d="M158 0zM264 1588v153h686v-153h-686zM158 0v1465h888l-11 -215h-606v-378h576v-215h-576v-441h628l-9 -216h-890z" />
    <glyph glyph-name="emacron" unicode="&#x113;" horiz-adv-x="1157" 
d="M81 0zM236 1228v153h686v-153h-686zM350 661h480q0 134 -61 206t-165.5 72t-174 -70t-79.5 -208zM1077 607l-1 -111h-731q4 -154 84.5 -238.5t241 -84.5t326.5 94l37 -186q-165 -102 -411.5 -102t-394 152.5t-147.5 418t139 420.5q138 156 372 156h2q232 0 358 -142
t125 -377z" />
    <glyph glyph-name="Eogonek" unicode="&#x118;" 
d="M158 0zM929 -389q-95 -37 -188.5 -37t-152 44t-58.5 128q0 146 191 254h108q-124 -92 -124 -199q0 -34 22.5 -60.5t48 -26.5t42 2.5t30 6t28.5 8.5t24 8.5t18.5 7.5t10.5 4v-140zM158 0v1465h888l-11 -215h-606v-378h576v-215h-576v-441h628l-9 -216h-890z" />
    <glyph glyph-name="eogonek" unicode="&#x119;" horiz-adv-x="1157" 
d="M81 0zM937 -389q-95 -37 -188.5 -37t-152 44t-58.5 128q0 146 191 254h108q-124 -92 -124 -199q0 -34 22.5 -60.5t48 -26.5t42 2.5t30 6t28.5 8.5t24 8.5t18.5 7.5t10.5 4v-140zM350 661h480q0 134 -61 206t-165.5 72t-174 -70t-79.5 -208zM1077 607l-1 -111h-731
q4 -154 84.5 -238.5t241 -84.5t326.5 94l37 -186q-165 -102 -411.5 -102t-394 152.5t-147.5 418t139 420.5q138 156 372 156h2q232 0 358 -142t125 -377z" />
    <glyph glyph-name="Ecaron" unicode="&#x11a;" 
d="M158 0zM506 1588l-262 353h198l161 -196l164 196h203l-262 -353h-202zM158 0v1465h888l-11 -215h-606v-378h576v-215h-576v-441h628l-9 -216h-890z" />
    <glyph glyph-name="ecaron" unicode="&#x11b;" horiz-adv-x="1157" 
d="M81 0zM478 1228l-262 353h198l161 -196l164 196h203l-262 -353h-202zM350 661h480q0 134 -61 206t-165.5 72t-174 -70t-79.5 -208zM1077 607l-1 -111h-731q4 -154 84.5 -238.5t241 -84.5t326.5 94l37 -186q-165 -102 -411.5 -102t-394 152.5t-147.5 418t139 420.5
q138 156 372 156h2q232 0 358 -142t125 -377z" />
    <glyph glyph-name="Gcircumflex" unicode="&#x11c;" horiz-adv-x="1466" 
d="M100 0zM362 1588l250 383h208l251 -383h-184l-174 218l-172 -218h-179zM1333 89q-267 -110 -521 -110q-335 0 -523.5 202t-188.5 553q0 223 88 392.5t259 264.5t421 95t441 -115l-88 -202q-182 99 -365 99q-222 0 -349 -144t-127 -391.5t113 -390.5t331 -143
q140 0 254 44v340h-307l2 213h560v-707z" />
    <glyph glyph-name="gcircumflex" unicode="&#x11d;" horiz-adv-x="1267" 
d="M75 0zM254 1228l250 383h208l251 -383h-184l-174 218l-172 -218h-179zM616 183q271 0 274 363v38q-2 163 -68 252q-66 90 -202 90h-1q-135 0 -208 -98q-74 -98 -74 -262.5t74.5 -273.5t204.5 -109zM353 -492l-15 212h133q231 0 323 61.5t92 225.5q0 67 -6 145
q-84 -114 -194 -140q-50 -12 -112 -12q-218 0 -358.5 157t-140.5 405q0 132 39 240.5t106 178.5q139 145 350.5 145t319.5 -161l18 134h234v-1021q0 -256 -88 -379q-138 -191 -550 -191h-151z" />
    <glyph glyph-name="Gbreve" unicode="&#x11e;" horiz-adv-x="1466" 
d="M100 0zM716 1588q-132 0 -211.5 64t-79.5 188h167q0 -51 29.5 -73.5t94.5 -22.5t94.5 22.5t29.5 73.5h167q0 -124 -79.5 -188t-211.5 -64zM1333 89q-267 -110 -521 -110q-335 0 -523.5 202t-188.5 553q0 223 88 392.5t259 264.5t421 95t441 -115l-88 -202
q-182 99 -365 99q-222 0 -349 -144t-127 -391.5t113 -390.5t331 -143q140 0 254 44v340h-307l2 213h560v-707z" />
    <glyph glyph-name="gbreve" unicode="&#x11f;" horiz-adv-x="1267" 
d="M75 0zM608 1228q-132 0 -211.5 64t-79.5 188h167q0 -51 29.5 -73.5t94.5 -22.5t94.5 22.5t29.5 73.5h167q0 -124 -79.5 -188t-211.5 -64zM616 183q271 0 274 363v38q-2 163 -68 252q-66 90 -202 90h-1q-135 0 -208 -98q-74 -98 -74 -262.5t74.5 -273.5t204.5 -109z
M353 -492l-15 212h133q231 0 323 61.5t92 225.5q0 67 -6 145q-84 -114 -194 -140q-50 -12 -112 -12q-218 0 -358.5 157t-140.5 405q0 132 39 240.5t106 178.5q139 145 350.5 145t319.5 -161l18 134h234v-1021q0 -256 -88 -379q-138 -191 -550 -191h-151z" />
    <glyph glyph-name="Gdotaccent" unicode="&#x120;" horiz-adv-x="1466" 
d="M100 0zM616 1588v216h201v-216h-201zM1333 89q-267 -110 -521 -110q-335 0 -523.5 202t-188.5 553q0 223 88 392.5t259 264.5t421 95t441 -115l-88 -202q-182 99 -365 99q-222 0 -349 -144t-127 -391.5t113 -390.5t331 -143q140 0 254 44v340h-307l2 213h560v-707z" />
    <glyph glyph-name="gdotaccent" unicode="&#x121;" horiz-adv-x="1267" 
d="M75 0zM508 1228v216h201v-216h-201zM616 183q271 0 274 363v38q-2 163 -68 252q-66 90 -202 90h-1q-135 0 -208 -98q-74 -98 -74 -262.5t74.5 -273.5t204.5 -109zM353 -492l-15 212h133q231 0 323 61.5t92 225.5q0 67 -6 145q-84 -114 -194 -140q-50 -12 -112 -12
q-218 0 -358.5 157t-140.5 405q0 132 39 240.5t106 178.5q139 145 350.5 145t319.5 -161l18 134h234v-1021q0 -256 -88 -379q-138 -191 -550 -191h-151z" />
    <glyph glyph-name="Gcommaaccent" unicode="&#x122;" horiz-adv-x="1466" 
d="M100 0zM586 -621h116l144 498h-165zM716 27zM716 27zM1333 89q-267 -110 -521 -110q-335 0 -523.5 202t-188.5 553q0 223 88 392.5t259 264.5t421 95t441 -115l-88 -202q-182 99 -365 99q-222 0 -349 -144t-127 -391.5t113 -390.5t331 -143q140 0 254 44v340h-307l2 213
h560v-707z" />
    <glyph glyph-name="gcommaaccent" unicode="&#x123;" horiz-adv-x="1268" 
d="M445 1213l165 517h165l-109 -517h-221zM616 183q271 0 274 363v38q-2 163 -68 252q-66 90 -202 90h-1q-135 0 -208 -98q-74 -98 -74 -262.5t74.5 -273.5t204.5 -109zM353 -492l-15 212h133q231 0 323 61.5t92 225.5q0 67 -6 145q-84 -114 -194 -140q-50 -12 -112 -12
q-218 0 -358.5 157t-140.5 405q0 132 39 240.5t106 178.5q139 145 350.5 145t319.5 -161l18 134h234v-1021q0 -256 -88 -379q-138 -191 -550 -191h-151z" />
    <glyph glyph-name="Hcircumflex" unicode="&#x124;" horiz-adv-x="1520" 
d="M158 0zM405 1588l250 383h208l251 -383h-184l-174 218l-172 -218h-179zM158 0v1465h271v-599h662v599h271v-1465h-271v652h-662v-652h-271z" />
    <glyph glyph-name="hcircumflex" unicode="&#x125;" horiz-adv-x="1253" 
d="M133 0zM276 1623l250 383h208l251 -383h-184l-174 218l-172 -218h-179zM133 0v1504l262 17v-317q0 -23 -3 -127.5t-3 -106.5q131 156 352 156q184 0 285.5 -105.5t101.5 -324.5v-696h-262v667q0 135 -43 198t-139 63t-163.5 -44.5t-101.5 -114.5q-24 -92 -24 -240v-529
h-262z" />
    <glyph glyph-name="Hbar" unicode="&#x126;" horiz-adv-x="1491" 
d="M398 853h697v325h-697v-325zM131 0v1178h-86v132h86v148h267v-148h697v148h268v-148h86v-132h-86v-1178h-268v658h-697v-658h-267z" />
    <glyph glyph-name="hbar" unicode="&#x127;" horiz-adv-x="1189" 
d="M107 0v1225h-102v136h102v135l254 19v-154h298v-136h-298v-252q139 147 360 147q165 0 265 -101q108 -109 108 -352v-667h-254v654q0 147 -37 210t-138 63t-183 -53t-121 -129v-745h-254z" />
    <glyph glyph-name="Itilde" unicode="&#x128;" horiz-adv-x="602" 
d="M0 0zM-43 1588q0 129 44 185q42 54 114 54t143 -21t124 -42t68 -21q47 0 47 84h147q-1 -127 -41 -183t-112 -56t-191 45t-149 45q-49 0 -50 -90h-144zM165 0v1465h271v-1465h-271z" />
    <glyph glyph-name="itilde" unicode="&#x129;" horiz-adv-x="548" 
d="M0 0zM-87 1228q0 129 44 185q42 54 114 54t143 -21t124 -42t68 -21q47 0 47 84h147q-1 -127 -41 -183t-112 -56t-191 45t-149 45q-49 0 -50 -90h-144zM129 0v1098h255v-1098h-255z" />
    <glyph glyph-name="Imacron" unicode="&#x12a;" horiz-adv-x="602" 
d="M0 0zM-42 1588v153h686v-153h-686zM165 0v1465h271v-1465h-271z" />
    <glyph glyph-name="imacron" unicode="&#x12b;" horiz-adv-x="548" 
d="M0 0zM-86 1228v153h686v-153h-686zM129 0v1098h255v-1098h-255z" />
    <glyph glyph-name="Ibreve" unicode="&#x12c;" horiz-adv-x="602" 
d="M9 0zM300 1588q-132 0 -211.5 64t-79.5 188h167q0 -51 29.5 -73.5t94.5 -22.5t94.5 22.5t29.5 73.5h167q0 -124 -79.5 -188t-211.5 -64zM165 0v1465h271v-1465h-271z" />
    <glyph glyph-name="ibreve" unicode="&#x12d;" horiz-adv-x="548" 
d="M0 0zM256 1228q-132 0 -211.5 64t-79.5 188h167q0 -51 29.5 -73.5t94.5 -22.5t94.5 22.5t29.5 73.5h167q0 -124 -79.5 -188t-211.5 -64zM129 0v1098h255v-1098h-255z" />
    <glyph glyph-name="Iogonek" unicode="&#x12e;" horiz-adv-x="602" 
d="M56 0zM455 -375q-95 -37 -188.5 -37t-152 44t-58.5 128q0 146 191 254h108q-124 -92 -124 -199q0 -34 22.5 -60.5t48 -26.5t42 2.5t30 6t28.5 8.5t24 8.5t18.5 7.5t10.5 4v-140zM165 0v1465h271v-1465h-271z" />
    <glyph glyph-name="iogonek" unicode="&#x12f;" horiz-adv-x="533" 
d="M26 0zM425 -375q-95 -37 -188.5 -37t-152 44t-58.5 128q0 146 191 254h108q-124 -92 -124 -199q0 -34 22.5 -60.5t48 -26.5t42 2.5t30 6t28.5 8.5t24 8.5t18.5 7.5t10.5 4v-140zM139 1259v224h263v-224h-263zM139 0v1099h262v-1099h-262z" />
    <glyph glyph-name="Idotaccent" unicode="&#x130;" horiz-adv-x="602" 
d="M165 0zM200 1588v216h201v-216h-201zM165 0v1465h271v-1465h-271z" />
    <glyph glyph-name="dotlessi" unicode="&#x131;" horiz-adv-x="548" 
d="M129 0v1098h255v-1098h-255z" />
    <glyph glyph-name="IJ" unicode="&#x132;" horiz-adv-x="1235" 
d="M165 0zM529 -321l-11 213q48 -8 105 -8q111 0 150 57t39 188v1336h272v-1318q0 -247 -98 -359q-103 -116 -362 -117q-55 0 -95 8zM165 0v1465h271v-1465h-271z" />
    <glyph glyph-name="ij" unicode="&#x133;" horiz-adv-x="1060" 
d="M139 0zM697 1259v224h262v-224h-262zM485 -427l-29 194h58q91 0 123.5 21t42.5 49q17 48 17 147v1115h262v-1073q0 -251 -76 -342q-66 -78 -187 -100q-65 -12 -152 -11h-59zM139 1259v224h263v-224h-263zM139 0v1099h262v-1099h-262z" />
    <glyph glyph-name="Jcircumflex" unicode="&#x134;" horiz-adv-x="633" 
d="M0 0zM-29 1588l250 383h208l251 -383h-184l-174 218l-172 -218h-179zM-73 -321l-11 213q48 -8 105 -8q111 0 150 57t39 188v1336h272v-1318q0 -247 -98 -359q-103 -116 -362 -117q-55 0 -95 8z" />
    <glyph glyph-name="jcircumflex" unicode="&#x135;" horiz-adv-x="527" 
d="M0 0zM-78 1228l250 383h208l251 -383h-184l-174 218l-172 -218h-179zM-38 -364l-5 197h35q62 0 97.5 10t54.5 39t24 66t5 107v1034h237v-991q0 -125 -17 -206.5t-61 -141.5q-85 -114 -330 -114h-40z" />
    <glyph glyph-name="Kcommaaccent" unicode="&#x136;" horiz-adv-x="1348" 
d="M157 0zM617 -600h116l144 498h-165zM747 48zM747 48zM157 0v1465h272v-660q71 94 290.5 351t261.5 309h321l-554 -659l589 -806h-318l-478 657l-112 -94v-563h-272z" />
    <glyph glyph-name="kcommaaccent" unicode="&#x137;" horiz-adv-x="1173" 
d="M133 0zM528 -600h116l144 498h-165zM658 48zM658 48zM133 0v1504l262 17v-675l-6 -222q1 1 21 20q20 18 48 52t92.5 103t163 169t128.5 131h312l-452 -468l481 -631h-317l-362 499l-109 -86v-413h-262z" />
    <glyph glyph-name="kgreenlandic" unicode="&#x138;" horiz-adv-x="1124" 
d="M115 0v1100h249v-466l429 466h313l-459 -504q29 -27 264 -309t240 -287h-315l-408 494l-64 -36v-458h-249z" />
    <glyph glyph-name="Lacute" unicode="&#x139;" horiz-adv-x="1071" 
d="M158 0zM523 1588l171 383h299l-315 -383h-155zM158 0v1465h271v-1249h613l-8 -216h-876z" />
    <glyph glyph-name="lacute" unicode="&#x13a;" horiz-adv-x="700" 
d="M136 0zM342 1623l171 383h299l-315 -383h-155zM579 -11.5q-33 -3.5 -103.5 -3.5t-145 26.5t-117.5 84.5q-77 104 -77 337v1071l262 17v-1083q0 -148 35 -200.5t136 -52.5q50 0 127 11l7 -187q-1 0 -24.5 -5t-45 -8.5t-54.5 -7z" />
    <glyph glyph-name="Lcommaaccent" unicode="&#x13b;" horiz-adv-x="1071" 
d="M158 0zM470 -600h116l144 498h-165zM600 48zM600 48zM158 0v1465h271v-1249h613l-8 -216h-876z" />
    <glyph glyph-name="lcommaaccent" unicode="&#x13c;" horiz-adv-x="700" 
d="M136 0zM290 -615h116l144 498h-165zM420 33zM420 33zM579 -11.5q-33 -3.5 -103.5 -3.5t-145 26.5t-117.5 84.5q-77 104 -77 337v1071l262 17v-1083q0 -148 35 -200.5t136 -52.5q50 0 127 11l7 -187q-1 0 -24.5 -5t-45 -8.5t-54.5 -7z" />
    <glyph glyph-name="Lcaron" unicode="&#x13d;" horiz-adv-x="1071" 
d="M158 0zM1225 971q57 277 94 515h244l-3 -49q-65 -226 -158 -466h-177zM158 0v1465h271v-1249h613l-8 -216h-876z" />
    <glyph glyph-name="lcaron" unicode="&#x13e;" horiz-adv-x="700" 
d="M136 0zM886 1006q57 277 94 515h244l-3 -49q-65 -226 -158 -466h-177zM579 -11.5q-33 -3.5 -103.5 -3.5t-145 26.5t-117.5 84.5q-77 104 -77 337v1071l262 17v-1083q0 -148 35 -200.5t136 -52.5q50 0 127 11l7 -187q-1 0 -24.5 -5t-45 -8.5t-54.5 -7z" />
    <glyph glyph-name="Ldot" unicode="&#x13f;" horiz-adv-x="1071" 
d="M158 0zM516 644h168v198h-168v-198zM158 0v1465h271v-1249h613l-8 -216h-876z" />
    <glyph glyph-name="ldot" unicode="&#x140;" horiz-adv-x="1168" 
d="M136 0zM850 561h168v198h-168v-198zM579 -11.5q-33 -3.5 -103.5 -3.5t-145 26.5t-117.5 84.5q-77 104 -77 337v1071l262 17v-1083q0 -148 35 -200.5t136 -52.5q50 0 127 11l7 -187q-1 0 -24.5 -5t-45 -8.5t-54.5 -7z" />
    <glyph glyph-name="Lslash" unicode="&#x141;" horiz-adv-x="1012" 
d="M131 0v589l-151 -89v185l151 89v689h268v-531l323 184v-186l-323 -184v-544h619l-15 -202h-872z" />
    <glyph glyph-name="lslash" unicode="&#x142;" horiz-adv-x="679" 
d="M681 -1q-91 -14 -167.5 -14t-135.5 12t-100.5 39.5t-68 63.5t-41.5 92q-26 98 -26 267v233l-112 -67v183l112 68v619l255 20v-487l158 97v-182l-158 -97v-408q-1 -167 23 -203q27 -42 64.5 -48t67 -6t113.5 7z" />
    <glyph glyph-name="Nacute" unicode="&#x143;" horiz-adv-x="1554" 
d="M158 0zM700 1588l171 383h299l-315 -383h-155zM158 0v1465h288q490 -766 593 -920t118 -177q-7 343 -7 356v741h247v-1465h-292l-661 1030l-48 79q8 -264 8 -371v-738h-246z" />
    <glyph glyph-name="nacute" unicode="&#x144;" horiz-adv-x="1254" 
d="M133 0zM553 1228l171 383h299l-315 -383h-155zM133 0v1099h211l29 -139q169 166 367 166q390 0 389 -431v-695h-263v663q-1 133 -43 199t-139 66t-167.5 -43.5t-102.5 -109.5q-19 -78 -19 -240v-535h-262z" />
    <glyph glyph-name="Ncommaaccent" unicode="&#x145;" horiz-adv-x="1554" 
d="M158 0zM648 -600h116l144 498h-165zM778 48zM778 48zM158 0v1465h288q490 -766 593 -920t118 -177q-7 343 -7 356v741h247v-1465h-292l-661 1030l-48 79q8 -264 8 -371v-738h-246z" />
    <glyph glyph-name="ncommaaccent" unicode="&#x146;" horiz-adv-x="1254" 
d="M133 0zM501 -600h116l144 498h-165zM631 48zM631 48zM133 0v1099h211l29 -139q169 166 367 166q390 0 389 -431v-695h-263v663q-1 133 -43 199t-139 66t-167.5 -43.5t-102.5 -109.5q-19 -78 -19 -240v-535h-262z" />
    <glyph glyph-name="Ncaron" unicode="&#x147;" horiz-adv-x="1554" 
d="M158 0zM676 1588l-262 353h198l161 -196l164 196h203l-262 -353h-202zM158 0v1465h288q490 -766 593 -920t118 -177q-7 343 -7 356v741h247v-1465h-292l-661 1030l-48 79q8 -264 8 -371v-738h-246z" />
    <glyph glyph-name="ncaron" unicode="&#x148;" horiz-adv-x="1254" 
d="M133 0zM530 1228l-262 353h198l161 -196l164 196h203l-262 -353h-202zM133 0v1099h211l29 -139q169 166 367 166q390 0 389 -431v-695h-263v663q-1 133 -43 199t-139 66t-167.5 -43.5t-102.5 -109.5q-19 -78 -19 -240v-535h-262z" />
    <glyph glyph-name="Omacron" unicode="&#x14c;" horiz-adv-x="1626" 
d="M99 0zM470 1588v153h686v-153h-686zM1335 180q-192 -201 -522.5 -201t-522 200.5t-191.5 554.5t192 553t523 199t522 -199.5t191 -552.5t-192 -554zM814 200q213 0 321.5 138.5t108.5 393t-108.5 395.5t-321 141t-322 -141.5t-109.5 -395t109 -392.5t322 -139z" />
    <glyph glyph-name="omacron" unicode="&#x14d;" horiz-adv-x="1222" 
d="M81 0zM268 1228v153h686v-153h-686zM1000 134.5q-141 -155.5 -390 -155.5t-389 158t-140 420t140 415.5t390.5 153.5t390 -156.5t139.5 -418t-141 -417zM879 553q0 375 -269 375q-133 0 -200.5 -96.5t-67.5 -278t68 -278.5t201.5 -97t200.5 97t67 278z" />
    <glyph glyph-name="Obreve" unicode="&#x14e;" horiz-adv-x="1626" 
d="M99 0zM813 1588q-132 0 -211.5 64t-79.5 188h167q0 -51 29.5 -73.5t94.5 -22.5t94.5 22.5t29.5 73.5h167q0 -124 -79.5 -188t-211.5 -64zM1335 180q-192 -201 -522.5 -201t-522 200.5t-191.5 554.5t192 553t523 199t522 -199.5t191 -552.5t-192 -554zM814 200
q213 0 321.5 138.5t108.5 393t-108.5 395.5t-321 141t-322 -141.5t-109.5 -395t109 -392.5t322 -139z" />
    <glyph glyph-name="obreve" unicode="&#x14f;" horiz-adv-x="1222" 
d="M81 0zM611 1228q-132 0 -211.5 64t-79.5 188h167q0 -51 29.5 -73.5t94.5 -22.5t94.5 22.5t29.5 73.5h167q0 -124 -79.5 -188t-211.5 -64zM1000 134.5q-141 -155.5 -390 -155.5t-389 158t-140 420t140 415.5t390.5 153.5t390 -156.5t139.5 -418t-141 -417zM879 553
q0 375 -269 375q-133 0 -200.5 -96.5t-67.5 -278t68 -278.5t201.5 -97t200.5 97t67 278z" />
    <glyph glyph-name="Ohungarumlaut" unicode="&#x150;" horiz-adv-x="1626" 
d="M99 0zM901 1588l247 361h225l-338 -361h-134zM590 1588l246 361h226l-338 -361h-134zM1335 180q-192 -201 -522.5 -201t-522 200.5t-191.5 554.5t192 553t523 199t522 -199.5t191 -552.5t-192 -554zM814 200q213 0 321.5 138.5t108.5 393t-108.5 395.5t-321 141
t-322 -141.5t-109.5 -395t109 -392.5t322 -139z" />
    <glyph glyph-name="ohungarumlaut" unicode="&#x151;" horiz-adv-x="1222" 
d="M81 0zM699 1228l247 361h225l-338 -361h-134zM388 1228l246 361h226l-338 -361h-134zM1000 134.5q-141 -155.5 -390 -155.5t-389 158t-140 420t140 415.5t390.5 153.5t390 -156.5t139.5 -418t-141 -417zM879 553q0 375 -269 375q-133 0 -200.5 -96.5t-67.5 -278
t68 -278.5t201.5 -97t200.5 97t67 278z" />
    <glyph glyph-name="OE" unicode="&#x152;" horiz-adv-x="2176" 
d="M605.5 233q91.5 -45 206 -45t208 33.5t148.5 83.5v848q-130 130 -357 130q-260 1 -390 -231q-76 -135 -78 -317q1 -225 115 -381q56 -76 147.5 -121zM1168 85q-148 -104 -357 -104t-377 97q-168 98 -260 270t-93 386q0 216 96 390q95 172 261 269t370 97t360 -106v77h933
l-18 -205h-658v-393h627v-202h-627v-452h705l-17 -205h-945v81z" />
    <glyph glyph-name="oe" unicode="&#x153;" horiz-adv-x="1880" 
d="M1113 646h475v10q-1 286 -224 286q-91 0 -161 -64q-78 -70 -90 -232zM595 157q128 0 204 106t76 291.5t-74.5 286.5t-205.5 101t-205 -103.5t-74 -286t75.5 -289t203.5 -106.5zM1821 587l-2 -87h-709q3 -163 83.5 -252.5t237 -89.5t291.5 103l72 -155q-79 -61 -168.5 -94
t-215.5 -33q-304 0 -420 198q-55 -91 -157 -144.5t-235 -53.5t-235.5 45.5t-165.5 124.5q-128 161 -128 403q1 248 129 404q134 164 401.5 164t392.5 -193q112 190 388 193q266 0 376 -216q65 -128 65 -317z" />
    <glyph glyph-name="Racute" unicode="&#x154;" horiz-adv-x="1394" 
d="M151 0zM671 1588l171 383h299l-315 -383h-155zM419 825l299 -1q156 0 224 55.5t68 171t-69 166.5t-211 51h-311v-443zM151 0v1465h543q346 -1 466 -117q98 -96 99 -286q0 -292 -265 -384q54 -61 134 -226l218 -452h-296l-171 383q-97 206 -120 244q-17 1 -113 1l-227 2
v-630h-268z" />
    <glyph glyph-name="racute" unicode="&#x155;" horiz-adv-x="798" 
d="M134 0zM375 1228l171 383h299l-315 -383h-155zM134 0v1099h220l34 -168q108 173 313 173q43 0 70 -4l-4 -219q-40 6 -83 6q-145 0 -216.5 -77t-71.5 -214v-596h-262z" />
    <glyph glyph-name="Rcommaaccent" unicode="&#x156;" horiz-adv-x="1394" 
d="M151 0zM618 -600h116l144 498h-165zM748 48zM748 48zM419 825l299 -1q156 0 224 55.5t68 171t-69 166.5t-211 51h-311v-443zM151 0v1465h543q346 -1 466 -117q98 -96 99 -286q0 -292 -265 -384q54 -61 134 -226l218 -452h-296l-171 383q-97 206 -120 244q-17 1 -113 1
l-227 2v-630h-268z" />
    <glyph glyph-name="rcommaaccent" unicode="&#x157;" horiz-adv-x="798" 
d="M134 0zM322 -600h116l144 498h-165zM452 48zM452 48zM134 0v1099h220l34 -168q108 173 313 173q43 0 70 -4l-4 -219q-40 6 -83 6q-145 0 -216.5 -77t-71.5 -214v-596h-262z" />
    <glyph glyph-name="Rcaron" unicode="&#x158;" horiz-adv-x="1394" 
d="M151 0zM648 1588l-262 353h198l161 -196l164 196h203l-262 -353h-202zM419 825l299 -1q156 0 224 55.5t68 171t-69 166.5t-211 51h-311v-443zM151 0v1465h543q346 -1 466 -117q98 -96 99 -286q0 -292 -265 -384q54 -61 134 -226l218 -452h-296l-171 383q-97 206 -120 244
q-17 1 -113 1l-227 2v-630h-268z" />
    <glyph glyph-name="rcaron" unicode="&#x159;" horiz-adv-x="798" 
d="M90 0zM352 1228l-262 353h198l161 -196l164 196h203l-262 -353h-202zM134 0v1099h220l34 -168q108 173 313 173q43 0 70 -4l-4 -219q-40 6 -83 6q-145 0 -216.5 -77t-71.5 -214v-596h-262z" />
    <glyph glyph-name="Sacute" unicode="&#x15a;" horiz-adv-x="1189" 
d="M94 0zM527 1593l171 383h299l-315 -383h-155zM160 317q210 -116 420 -116q129 0 195 55.5t66 159.5q0 138 -184 191q-13 3 -73 21q-141 41 -188 60q-295 104 -295 388q1 130 67 224q132 186 450 186q265 0 457 -104l-82 -198q-196 84 -340.5 84t-206 -41.5t-65.5 -138.5
q0 -122 121 -159q24 -9 118 -39t122 -39q201 -66 287.5 -164t86.5 -273q0 -209 -148 -321.5t-406 -112.5t-468 122z" />
    <glyph glyph-name="sacute" unicode="&#x15b;" horiz-adv-x="985" 
d="M95 0zM425 1228l171 383h299l-315 -383h-155zM515 939q-168 0 -168 -107q0 -51 43 -79.5t107.5 -52t86.5 -31.5q184 -67 255.5 -144t71.5 -200q-1 -165 -112 -255t-334.5 -90t-369.5 83l27 197q66 -36 168 -64.5t188 -28.5q86 1 134 33q49 33 49 93q1 59 -45 92
t-132 65.5t-99 37.5q-152 59 -219 131.5t-67 209.5t108.5 217t310.5 80t361 -79l-65 -181q-157 73 -299 73z" />
    <glyph glyph-name="Scircumflex" unicode="&#x15c;" horiz-adv-x="1189" 
d="M94 0zM251 1608l250 383h208l251 -383h-184l-174 218l-172 -218h-179zM160 317q210 -116 420 -116q129 0 195 55.5t66 159.5q0 138 -184 191q-13 3 -73 21q-141 41 -188 60q-295 104 -295 388q1 130 67 224q132 186 450 186q265 0 457 -104l-82 -198q-196 84 -340.5 84
t-206 -41.5t-65.5 -138.5q0 -122 121 -159q24 -9 118 -39t122 -39q201 -66 287.5 -164t86.5 -273q0 -209 -148 -321.5t-406 -112.5t-468 122z" />
    <glyph glyph-name="scircumflex" unicode="&#x15d;" horiz-adv-x="985" 
d="M95 0zM149 1228l250 383h208l251 -383h-184l-174 218l-172 -218h-179zM515 939q-168 0 -168 -107q0 -51 43 -79.5t107.5 -52t86.5 -31.5q184 -67 255.5 -144t71.5 -200q-1 -165 -112 -255t-334.5 -90t-369.5 83l27 197q66 -36 168 -64.5t188 -28.5q86 1 134 33
q49 33 49 93q1 59 -45 92t-132 65.5t-99 37.5q-152 59 -219 131.5t-67 209.5t108.5 217t310.5 80t361 -79l-65 -181q-157 73 -299 73z" />
    <glyph glyph-name="Scedilla" unicode="&#x15e;" horiz-adv-x="1189" 
d="M94 0zM410 -388l123 381h144l-58 -381h-209zM160 317q210 -116 420 -116q129 0 195 55.5t66 159.5q0 138 -184 191q-13 3 -73 21q-141 41 -188 60q-295 104 -295 388q1 130 67 224q132 186 450 186q265 0 457 -104l-82 -198q-196 84 -340.5 84t-206 -41.5t-65.5 -138.5
q0 -122 121 -159q24 -9 118 -39t122 -39q201 -66 287.5 -164t86.5 -273q0 -209 -148 -321.5t-406 -112.5t-468 122z" />
    <glyph glyph-name="scedilla" unicode="&#x15f;" horiz-adv-x="985" 
d="M95 0zM308 -388l123 381h144l-58 -381h-209zM515 939q-168 0 -168 -107q0 -51 43 -79.5t107.5 -52t86.5 -31.5q184 -67 255.5 -144t71.5 -200q-1 -165 -112 -255t-334.5 -90t-369.5 83l27 197q66 -36 168 -64.5t188 -28.5q86 1 134 33q49 33 49 93q1 59 -45 92t-132 65.5
t-99 37.5q-152 59 -219 131.5t-67 209.5t108.5 217t310.5 80t361 -79l-65 -181q-157 73 -299 73z" />
    <glyph glyph-name="Scaron" unicode="&#x160;" horiz-adv-x="1189" 
d="M94 0zM504 1593l-262 353h198l161 -196l164 196h203l-262 -353h-202zM160 317q210 -116 420 -116q129 0 195 55.5t66 159.5q0 138 -184 191q-13 3 -73 21q-141 41 -188 60q-295 104 -295 388q1 130 67 224q132 186 450 186q265 0 457 -104l-82 -198q-196 84 -340.5 84
t-206 -41.5t-65.5 -138.5q0 -122 121 -159q24 -9 118 -39t122 -39q201 -66 287.5 -164t86.5 -273q0 -209 -148 -321.5t-406 -112.5t-468 122z" />
    <glyph glyph-name="scaron" unicode="&#x161;" horiz-adv-x="985" 
d="M95 0zM402 1228l-262 353h198l161 -196l164 196h203l-262 -353h-202zM515 939q-168 0 -168 -107q0 -51 43 -79.5t107.5 -52t86.5 -31.5q184 -67 255.5 -144t71.5 -200q-1 -165 -112 -255t-334.5 -90t-369.5 83l27 197q66 -36 168 -64.5t188 -28.5q86 1 134 33
q49 33 49 93q1 59 -45 92t-132 65.5t-99 37.5q-152 59 -219 131.5t-67 209.5t108.5 217t310.5 80t361 -79l-65 -181q-157 73 -299 73z" />
    <glyph glyph-name="Tcaron" unicode="&#x164;" 
d="M14 0zM475 1588l-262 353h198l161 -196l164 196h203l-262 -353h-202zM441 0v1248h-427v217h1124v-217h-425v-1248h-272z" />
    <glyph glyph-name="tcaron" unicode="&#x165;" horiz-adv-x="803" 
d="M12 0zM905 883q57 277 94 515h244l-3 -49q-65 -226 -158 -466h-177zM632 -12q-32 -3 -102 -3t-144.5 26.5t-116.5 83.5q-77 104 -77 326v519h-180l10 142l188 17l84 298l160 1v-299h273v-159h-273v-524q0 -125 36 -178t133 -53q57 0 122 10l7 -188q-2 0 -24.5 -4.5
t-43 -8t-52.5 -6.5z" />
    <glyph glyph-name="Utilde" unicode="&#x168;" horiz-adv-x="1468" 
d="M144 0zM390 1588q0 129 44 185q42 54 114 54t143 -21t124 -42t68 -21q47 0 47 84h147q-1 -127 -41 -183t-112 -56t-191 45t-149 45q-49 0 -50 -90h-144zM1171 122.5q-152 -143.5 -440.5 -143.5t-437.5 143.5t-149 404.5v938h272v-915q0 -183 74.5 -267t243 -84
t243.5 84.5t75 267.5v914h271v-940q0 -259 -152 -402.5z" />
    <glyph glyph-name="utilde" unicode="&#x169;" horiz-adv-x="1163" 
d="M106 0zM238 1228q0 129 44 185q42 54 114 54t143 -21t124 -42t68 -21q47 0 47 84h147q-1 -127 -41 -183t-112 -56t-191 45t-149 45q-49 0 -50 -90h-144zM581 -21q-214 0 -344.5 107t-130.5 314v699h263v-689q0 -123 51.5 -178t162.5 -55t161.5 54.5t50.5 178.5v689h262
v-699q0 -206 -131 -313.5t-345 -107.5z" />
    <glyph glyph-name="Umacron" unicode="&#x16a;" horiz-adv-x="1468" 
d="M144 0zM390 1588v153h686v-153h-686zM1171 122.5q-152 -143.5 -440.5 -143.5t-437.5 143.5t-149 404.5v938h272v-915q0 -183 74.5 -267t243 -84t243.5 84.5t75 267.5v914h271v-940q0 -259 -152 -402.5z" />
    <glyph glyph-name="umacron" unicode="&#x16b;" horiz-adv-x="1163" 
d="M106 0zM238 1228v153h686v-153h-686zM581 -21q-214 0 -344.5 107t-130.5 314v699h263v-689q0 -123 51.5 -178t162.5 -55t161.5 54.5t50.5 178.5v689h262v-699q0 -206 -131 -313.5t-345 -107.5z" />
    <glyph glyph-name="Ubreve" unicode="&#x16c;" horiz-adv-x="1468" 
d="M144 0zM734 1588q-132 0 -211.5 64t-79.5 188h167q0 -51 29.5 -73.5t94.5 -22.5t94.5 22.5t29.5 73.5h167q0 -124 -79.5 -188t-211.5 -64zM1171 122.5q-152 -143.5 -440.5 -143.5t-437.5 143.5t-149 404.5v938h272v-915q0 -183 74.5 -267t243 -84t243.5 84.5t75 267.5
v914h271v-940q0 -259 -152 -402.5z" />
    <glyph glyph-name="ubreve" unicode="&#x16d;" horiz-adv-x="1163" 
d="M106 0zM582 1228q-132 0 -211.5 64t-79.5 188h167q0 -51 29.5 -73.5t94.5 -22.5t94.5 22.5t29.5 73.5h167q0 -124 -79.5 -188t-211.5 -64zM581 -21q-214 0 -344.5 107t-130.5 314v699h263v-689q0 -123 51.5 -178t162.5 -55t161.5 54.5t50.5 178.5v689h262v-699
q0 -206 -131 -313.5t-345 -107.5z" />
    <glyph glyph-name="Uring" unicode="&#x16e;" horiz-adv-x="1468" 
d="M144 0zM734 1588q-100 0 -160.5 60t-60.5 144t59.5 142t161.5 58t161 -58t59 -142t-60 -144t-160 -60zM734 1681q51 0 78 32q28 31 28 77t-28 79.5t-78 33.5t-78.5 -32.5t-28.5 -78.5t28 -78.5t79 -32.5zM1171 122.5q-152 -143.5 -440.5 -143.5t-437.5 143.5t-149 404.5
v938h272v-915q0 -183 74.5 -267t243 -84t243.5 84.5t75 267.5v914h271v-940q0 -259 -152 -402.5z" />
    <glyph glyph-name="uring" unicode="&#x16f;" horiz-adv-x="1163" 
d="M106 0zM582 1228q-100 0 -160.5 60t-60.5 144t59.5 142t161.5 58t161 -58t59 -142t-60 -144t-160 -60zM582 1321q51 0 78 32q28 31 28 77t-28 79.5t-78 33.5t-78.5 -32.5t-28.5 -78.5t28 -78.5t79 -32.5zM581 -21q-214 0 -344.5 107t-130.5 314v699h263v-689
q0 -123 51.5 -178t162.5 -55t161.5 54.5t50.5 178.5v689h262v-699q0 -206 -131 -313.5t-345 -107.5z" />
    <glyph glyph-name="Uhungarumlaut" unicode="&#x170;" horiz-adv-x="1468" 
d="M144 0zM822 1588l247 361h225l-338 -361h-134zM511 1588l246 361h226l-338 -361h-134zM1171 122.5q-152 -143.5 -440.5 -143.5t-437.5 143.5t-149 404.5v938h272v-915q0 -183 74.5 -267t243 -84t243.5 84.5t75 267.5v914h271v-940q0 -259 -152 -402.5z" />
    <glyph glyph-name="uhungarumlaut" unicode="&#x171;" horiz-adv-x="1163" 
d="M106 0zM670 1228l247 361h225l-338 -361h-134zM359 1228l246 361h226l-338 -361h-134zM581 -21q-214 0 -344.5 107t-130.5 314v699h263v-689q0 -123 51.5 -178t162.5 -55t161.5 54.5t50.5 178.5v689h262v-699q0 -206 -131 -313.5t-345 -107.5z" />
    <glyph glyph-name="Uogonek" unicode="&#x172;" horiz-adv-x="1468" 
d="M144 0zM887 -396q-95 -37 -188.5 -37t-152 44t-58.5 128q0 146 191 254h108q-124 -92 -124 -199q0 -34 22.5 -60.5t48 -26.5t42 2.5t30 6t28.5 8.5t24 8.5t18.5 7.5t10.5 4v-140zM1171 122.5q-152 -143.5 -440.5 -143.5t-437.5 143.5t-149 404.5v938h272v-915
q0 -183 74.5 -267t243 -84t243.5 84.5t75 267.5v914h271v-940q0 -259 -152 -402.5z" />
    <glyph glyph-name="uogonek" unicode="&#x173;" horiz-adv-x="1163" 
d="M106 0zM789 -396q-95 -37 -188.5 -37t-152 44t-58.5 128q0 146 191 254h108q-124 -92 -124 -199q0 -34 22.5 -60.5t48 -26.5t42 2.5t30 6t28.5 8.5t24 8.5t18.5 7.5t10.5 4v-140zM581 -21q-214 0 -344.5 107t-130.5 314v699h263v-689q0 -123 51.5 -178t162.5 -55
t161.5 54.5t50.5 178.5v689h262v-699q0 -206 -131 -313.5t-345 -107.5z" />
    <glyph glyph-name="Wcircumflex" unicode="&#x174;" horiz-adv-x="2051" 
d="M10 0zM667 1588l250 383h208l251 -383h-184l-174 218l-172 -218h-179zM408 0l-398 1465h270l284 -1140l334 1133h259l317 -1137l290 1144h270l-410 -1465h-281l-313 1073l-343 -1073h-279z" />
    <glyph glyph-name="wcircumflex" unicode="&#x175;" horiz-adv-x="1713" 
d="M13 0zM502 1228l250 383h208l251 -383h-184l-174 218l-172 -218h-179zM491 293l235 806h269q13 -42 115 -409t110 -394l217 803h263l-344 -1099h-261q-13 43 -121.5 435t-117.5 423q-20 -73 -127.5 -440t-124.5 -418h-258l-333 1099h267z" />
    <glyph glyph-name="Ycircumflex" unicode="&#x176;" horiz-adv-x="1256" 
d="M0 0zM273 1588l250 383h208l251 -383h-184l-174 218l-172 -218h-179zM492 0v581l-507 884h294l349 -634l351 634h290l-505 -879v-586h-272z" />
    <glyph glyph-name="ycircumflex" unicode="&#x177;" horiz-adv-x="1116" 
d="M0 0zM197 1228l250 383h208l251 -383h-184l-174 218l-172 -218h-179zM563 302q29 106 266 797h280q-457 -1208 -461 -1218q-71 -185 -179 -264.5t-278 -79.5q-64 0 -136 8l-13 203q46 -5 127 -5t136 36t91 128q4 10 40 113l-442 1079h280z" />
    <glyph glyph-name="Ydieresis" unicode="&#x178;" horiz-adv-x="1256" 
d="M0 0zM739 1588v254h196v-254h-196zM318 1588v254h195v-254h-195zM492 0v581l-507 884h294l349 -634l351 634h290l-505 -879v-586h-272z" />
    <glyph glyph-name="Zacute" unicode="&#x179;" horiz-adv-x="1209" 
d="M62 0zM533 1588l171 383h299l-315 -383h-155zM62 0v174l773 1075h-746v216h1066v-197l-759 -1052h764l-1 -216h-1097z" />
    <glyph glyph-name="zacute" unicode="&#x17a;" horiz-adv-x="977" 
d="M65 0zM413 1228l171 383h299l-315 -383h-155zM65 0v159l544 758h-518v182h808v-179l-515 -729h533v-191h-852z" />
    <glyph glyph-name="Zdotaccent" unicode="&#x17b;" horiz-adv-x="1209" 
d="M62 0zM511 1588v216h201v-216h-201zM62 0v174l773 1075h-746v216h1066v-197l-759 -1052h764l-1 -216h-1097z" />
    <glyph glyph-name="zdotaccent" unicode="&#x17c;" horiz-adv-x="977" 
d="M65 0zM391 1228v216h201v-216h-201zM65 0v159l544 758h-518v182h808v-179l-515 -729h533v-191h-852z" />
    <glyph glyph-name="Zcaron" unicode="&#x17d;" horiz-adv-x="1209" 
d="M62 0zM510 1588l-262 353h198l161 -196l164 196h203l-262 -353h-202zM62 0v174l773 1075h-746v216h1066v-197l-759 -1052h764l-1 -216h-1097z" />
    <glyph glyph-name="zcaron" unicode="&#x17e;" horiz-adv-x="977" 
d="M65 0zM390 1228l-262 353h198l161 -196l164 196h203l-262 -353h-202zM65 0v159l544 758h-518v182h808v-179l-515 -729h533v-191h-852z" />
    <glyph glyph-name="florin" unicode="&#x192;" horiz-adv-x="1055" 
d="M173 -336q-41 0 -140 22l17 189q87 -25 95 -25q57 0 87 47.5t55 144t51 224t55 287t46 242.5h-157l13 173h178l19 130q53 370 359 370q33 0 89 -10t72 -15l-11 -201q-14 6 -59 19.5t-67 13.5q-70 0 -100 -32t-44 -107l-32 -168h194l-13 -175h-213l-130 -665
q-36 -186 -81 -274q-48 -94 -110 -136q-78 -54 -173 -54z" />
    <glyph glyph-name="uni01C4" unicode="&#x1c4;" horiz-adv-x="2723" 
d="M159 0zM1576 0zM2024 1588l-262 353h198l161 -196l164 196h203l-262 -353h-202zM1576 0v174l773 1075h-746v216h1066v-197l-759 -1052h764l-1 -216h-1097zM159 0v1465h424q387 -1 605 -177q226 -183 226.5 -544t-213.5 -552.5t-593 -191.5h-449zM430 217h194
q251 0 382 131.5t131 392.5t-135 383.5t-407 122.5h-165v-1030z" />
    <glyph glyph-name="uni01C5" unicode="&#x1c5;" horiz-adv-x="2491" 
d="M159 0zM1579 0zM1904 1228l-262 353h198l161 -196l164 196h203l-262 -353h-202zM1579 0v159l544 758h-518v182h808v-179l-515 -729h533v-191h-852zM159 0v1465h424q387 -1 605 -177q226 -183 226.5 -544t-213.5 -552.5t-593 -191.5h-449zM430 217h194q251 0 382 131.5
t131 392.5t-135 383.5t-407 122.5h-165v-1030z" />
    <glyph glyph-name="uni01C6" unicode="&#x1c6;" horiz-adv-x="2236" 
d="M81 0zM1324 0zM1649 1228l-262 353h198l161 -196l164 196h203l-262 -353h-202zM1324 0v159l544 758h-518v182h808v-179l-515 -729h533v-191h-852zM604 178q264 0 268 359q0 203 -68 296t-194.5 93t-197 -94.5t-70.5 -278t70.5 -279.5t191.5 -96zM542 -21q-215 0 -338 158
t-123 418t122.5 415.5t347 155.5t321.5 -166q-10 98 -10 189v355l262 17v-1521h-227l-29 150q-62 -98 -134 -132q-80 -38 -192 -39z" />
    <glyph glyph-name="uni01C7" unicode="&#x1c7;" horiz-adv-x="1704" 
d="M158 0zM998 -321l-11 213q48 -8 105 -8q111 0 150 57t39 188v1336h272v-1318q0 -247 -98 -359q-103 -116 -362 -117q-55 0 -95 8zM158 0v1465h271v-1249h613l-8 -216h-876z" />
    <glyph glyph-name="uni01C8" unicode="&#x1c8;" horiz-adv-x="1598" 
d="M158 0zM1235 1259v224h262v-224h-262zM1023 -427l-29 194h58q91 0 123.5 21t42.5 49q17 48 17 147v1115h262v-1073q0 -251 -76 -342q-66 -78 -187 -100q-65 -12 -152 -11h-59zM158 0v1465h271v-1249h613l-8 -216h-876z" />
    <glyph glyph-name="uni01C9" unicode="&#x1c9;" horiz-adv-x="1227" 
d="M136 0zM864 1259v224h262v-224h-262zM652 -427l-29 194h58q91 0 123.5 21t42.5 49q17 48 17 147v1115h262v-1073q0 -251 -76 -342q-66 -78 -187 -100q-65 -12 -152 -11h-59zM579 -11.5q-33 -3.5 -103.5 -3.5t-145 26.5t-117.5 84.5q-77 104 -77 337v1071l262 17v-1083
q0 -148 35 -200.5t136 -52.5q50 0 127 11l7 -187q-1 0 -24.5 -5t-45 -8.5t-54.5 -7z" />
    <glyph glyph-name="uni01CA" unicode="&#x1ca;" horiz-adv-x="2187" 
d="M158 0zM1481 -321l-11 213q48 -8 105 -8q111 0 150 57t39 188v1336h272v-1318q0 -247 -98 -359q-103 -116 -362 -117q-55 0 -95 8zM158 0v1465h288q490 -766 593 -920t118 -177q-7 343 -7 356v741h247v-1465h-292l-661 1030l-48 79q8 -264 8 -371v-738h-246z" />
    <glyph glyph-name="uni01CB" unicode="&#x1cb;" horiz-adv-x="2081" 
d="M158 0zM1718 1259v224h262v-224h-262zM1506 -427l-29 194h58q91 0 123.5 21t42.5 49q17 48 17 147v1115h262v-1073q0 -251 -76 -342q-66 -78 -187 -100q-65 -12 -152 -11h-59zM158 0v1465h288q490 -766 593 -920t118 -177q-7 343 -7 356v741h247v-1465h-292l-661 1030
l-48 79q8 -264 8 -371v-738h-246z" />
    <glyph glyph-name="uni01CC" unicode="&#x1cc;" horiz-adv-x="1781" 
d="M133 0zM1418 1259v224h262v-224h-262zM1206 -427l-29 194h58q91 0 123.5 21t42.5 49q17 48 17 147v1115h262v-1073q0 -251 -76 -342q-66 -78 -187 -100q-65 -12 -152 -11h-59zM133 0v1099h211l29 -139q169 166 367 166q390 0 389 -431v-695h-263v663q-1 133 -43 199
t-139 66t-167.5 -43.5t-102.5 -109.5q-19 -78 -19 -240v-535h-262z" />
    <glyph glyph-name="uni01F1" unicode="&#x1f1;" horiz-adv-x="2723" 
d="M159 0zM1576 0v174l773 1075h-746v216h1066v-197l-759 -1052h764l-1 -216h-1097zM159 0v1465h424q387 -1 605 -177q226 -183 226.5 -544t-213.5 -552.5t-593 -191.5h-449zM430 217h194q251 0 382 131.5t131 392.5t-135 383.5t-407 122.5h-165v-1030z" />
    <glyph glyph-name="uni01F2" unicode="&#x1f2;" horiz-adv-x="2491" 
d="M159 0zM1579 0v159l544 758h-518v182h808v-179l-515 -729h533v-191h-852zM159 0v1465h424q387 -1 605 -177q226 -183 226.5 -544t-213.5 -552.5t-593 -191.5h-449zM430 217h194q251 0 382 131.5t131 392.5t-135 383.5t-407 122.5h-165v-1030z" />
    <glyph glyph-name="uni01F3" unicode="&#x1f3;" horiz-adv-x="2236" 
d="M81 0zM1324 0v159l544 758h-518v182h808v-179l-515 -729h533v-191h-852zM604 178q264 0 268 359q0 203 -68 296t-194.5 93t-197 -94.5t-70.5 -278t70.5 -279.5t191.5 -96zM542 -21q-215 0 -338 158t-123 418t122.5 415.5t347 155.5t321.5 -166q-10 98 -10 189v355l262 17
v-1521h-227l-29 150q-62 -98 -134 -132q-80 -38 -192 -39z" />
    <glyph glyph-name="uni01F4" unicode="&#x1f4;" horiz-adv-x="1466" 
d="M100 0zM639 1588l171 383h299l-315 -383h-155zM1333 89q-267 -110 -521 -110q-335 0 -523.5 202t-188.5 553q0 223 88 392.5t259 264.5t421 95t441 -115l-88 -202q-182 99 -365 99q-222 0 -349 -144t-127 -391.5t113 -390.5t331 -143q140 0 254 44v340h-307l2 213h560
v-707z" />
    <glyph glyph-name="uni01F5" unicode="&#x1f5;" horiz-adv-x="1267" 
d="M75 0zM531 1228l171 383h299l-315 -383h-155zM616 183q271 0 274 363v38q-2 163 -68 252q-66 90 -202 90h-1q-135 0 -208 -98q-74 -98 -74 -262.5t74.5 -273.5t204.5 -109zM353 -492l-15 212h133q231 0 323 61.5t92 225.5q0 67 -6 145q-84 -114 -194 -140
q-50 -12 -112 -12q-218 0 -358.5 157t-140.5 405q0 132 39 240.5t106 178.5q139 145 350.5 145t319.5 -161l18 134h234v-1021q0 -256 -88 -379q-138 -191 -550 -191h-151z" />
    <glyph glyph-name="uni0200" unicode="&#x200;" horiz-adv-x="1359" 
d="M0 0zM768 1588l-297 339h258l227 -339h-188zM404 1588l-315 339h275l211 -339h-171zM494 616h376q-180 577 -185 596zM-3 0l539 1465h295l531 -1465h-278l-145 414h-513l-146 -414h-283z" />
    <glyph glyph-name="uni0201" unicode="&#x201;" horiz-adv-x="1142" 
d="M0 0zM634 1228l-297 339h258l227 -339h-188zM270 1228l-315 339h275l211 -339h-171zM749 526l-106 -8q-159 -14 -233 -60t-74 -148q0 -70 41 -107.5t124.5 -37.5t151 43.5t96.5 105.5v212zM613.5 16.5q-78.5 -37.5 -211 -37.5t-227 84.5t-94.5 249.5t112 247.5t338 104.5
q71 9 132 14.5t87 8.5v58q0 100 -46 145.5t-160 45.5t-311 -75q-1 3 -33 91t-33 90q194 83 418 83t325 -96.5t101 -312.5v-717h-194q-1 4 -22 67t-21 67q-82 -80 -160.5 -117.5z" />
    <glyph glyph-name="uni0202" unicode="&#x202;" horiz-adv-x="1359" 
d="M0 0zM389 1588q0 113 87 176.5t184 63.5t161 -25.5t106.5 -81.5t42.5 -133h-167q0 52 -37.5 80t-87.5 28t-86 -28.5t-36 -79.5h-167zM494 616h376q-180 577 -185 596zM-3 0l539 1465h295l531 -1465h-278l-145 414h-513l-146 -414h-283z" />
    <glyph glyph-name="uni0203" unicode="&#x203;" horiz-adv-x="1142" 
d="M81 0zM255 1228q0 113 87 176.5t184 63.5t161 -25.5t106.5 -81.5t42.5 -133h-167q0 52 -37.5 80t-87.5 28t-86 -28.5t-36 -79.5h-167zM749 526l-106 -8q-159 -14 -233 -60t-74 -148q0 -70 41 -107.5t124.5 -37.5t151 43.5t96.5 105.5v212zM613.5 16.5
q-78.5 -37.5 -211 -37.5t-227 84.5t-94.5 249.5t112 247.5t338 104.5q71 9 132 14.5t87 8.5v58q0 100 -46 145.5t-160 45.5t-311 -75q-1 3 -33 91t-33 90q194 83 418 83t325 -96.5t101 -312.5v-717h-194q-1 4 -22 67t-21 67q-82 -80 -160.5 -117.5z" />
    <glyph glyph-name="uni0204" unicode="&#x204;" 
d="M17 0zM696 1588l-297 339h258l227 -339h-188zM332 1588l-315 339h275l211 -339h-171zM158 0v1465h888l-11 -215h-606v-378h576v-215h-576v-441h628l-9 -216h-890z" />
    <glyph glyph-name="uni0205" unicode="&#x205;" horiz-adv-x="1157" 
d="M0 0zM667 1228l-297 339h258l227 -339h-188zM303 1228l-315 339h275l211 -339h-171zM350 661h480q0 134 -61 206t-165.5 72t-174 -70t-79.5 -208zM1077 607l-1 -111h-731q4 -154 84.5 -238.5t241 -84.5t326.5 94l37 -186q-165 -102 -411.5 -102t-394 152.5t-147.5 418
t139 420.5q138 156 372 156h2q232 0 358 -142t125 -377z" />
    <glyph glyph-name="uni0206" unicode="&#x206;" 
d="M158 0zM317 1588q0 113 87 176.5t184 63.5t161 -25.5t106.5 -81.5t42.5 -133h-167q0 52 -37.5 80t-87.5 28t-86 -28.5t-36 -79.5h-167zM158 0v1465h888l-11 -215h-606v-378h576v-215h-576v-441h628l-9 -216h-890z" />
    <glyph glyph-name="uni0207" unicode="&#x207;" horiz-adv-x="1157" 
d="M81 0zM289 1228q0 113 87 176.5t184 63.5t161 -25.5t106.5 -81.5t42.5 -133h-167q0 52 -37.5 80t-87.5 28t-86 -28.5t-36 -79.5h-167zM350 661h480q0 134 -61 206t-165.5 72t-174 -70t-79.5 -208zM1077 607l-1 -111h-731q4 -154 84.5 -238.5t241 -84.5t326.5 94l37 -186
q-165 -102 -411.5 -102t-394 152.5t-147.5 418t139 420.5q138 156 372 156h2q232 0 358 -142t125 -377z" />
    <glyph glyph-name="uni0208" unicode="&#x208;" horiz-adv-x="602" 
d="M0 0zM388 1588l-297 339h258l227 -339h-188zM24 1588l-315 339h275l211 -339h-171zM165 0v1465h271v-1465h-271z" />
    <glyph glyph-name="uni0209" unicode="&#x209;" horiz-adv-x="548" 
d="M0 0zM344 1228l-297 339h258l227 -339h-188zM-20 1228l-315 339h275l211 -339h-171zM129 0v1098h255v-1098h-255z" />
    <glyph glyph-name="uni020A" unicode="&#x20a;" horiz-adv-x="602" 
d="M10 0zM10 1588q0 113 87 176.5t184 63.5t161 -25.5t106.5 -81.5t42.5 -133h-167q0 52 -37.5 80t-87.5 28t-86 -28.5t-36 -79.5h-167zM165 0v1465h271v-1465h-271z" />
    <glyph glyph-name="uni020B" unicode="&#x20b;" horiz-adv-x="548" 
d="M0 0zM-34 1228q0 113 87 176.5t184 63.5t161 -25.5t106.5 -81.5t42.5 -133h-167q0 52 -37.5 80t-87.5 28t-86 -28.5t-36 -79.5h-167zM129 0v1098h255v-1098h-255z" />
    <glyph glyph-name="uni020C" unicode="&#x20c;" horiz-adv-x="1626" 
d="M99 0zM901 1588l-297 339h258l227 -339h-188zM537 1588l-315 339h275l211 -339h-171zM1335 180q-192 -201 -522.5 -201t-522 200.5t-191.5 554.5t192 553t523 199t522 -199.5t191 -552.5t-192 -554zM814 200q213 0 321.5 138.5t108.5 393t-108.5 395.5t-321 141
t-322 -141.5t-109.5 -395t109 -392.5t322 -139z" />
    <glyph glyph-name="uni020D" unicode="&#x20d;" horiz-adv-x="1222" 
d="M20 0zM699 1228l-297 339h258l227 -339h-188zM335 1228l-315 339h275l211 -339h-171zM1000 134.5q-141 -155.5 -390 -155.5t-389 158t-140 420t140 415.5t390.5 153.5t390 -156.5t139.5 -418t-141 -417zM879 553q0 375 -269 375q-133 0 -200.5 -96.5t-67.5 -278
t68 -278.5t201.5 -97t200.5 97t67 278z" />
    <glyph glyph-name="uni020E" unicode="&#x20e;" horiz-adv-x="1626" 
d="M99 0zM523 1588q0 113 87 176.5t184 63.5t161 -25.5t106.5 -81.5t42.5 -133h-167q0 52 -37.5 80t-87.5 28t-86 -28.5t-36 -79.5h-167zM1335 180q-192 -201 -522.5 -201t-522 200.5t-191.5 554.5t192 553t523 199t522 -199.5t191 -552.5t-192 -554zM814 200
q213 0 321.5 138.5t108.5 393t-108.5 395.5t-321 141t-322 -141.5t-109.5 -395t109 -392.5t322 -139z" />
    <glyph glyph-name="uni020F" unicode="&#x20f;" horiz-adv-x="1222" 
d="M81 0zM321 1228q0 113 87 176.5t184 63.5t161 -25.5t106.5 -81.5t42.5 -133h-167q0 52 -37.5 80t-87.5 28t-86 -28.5t-36 -79.5h-167zM1000 134.5q-141 -155.5 -390 -155.5t-389 158t-140 420t140 415.5t390.5 153.5t390 -156.5t139.5 -418t-141 -417zM879 553
q0 375 -269 375q-133 0 -200.5 -96.5t-67.5 -278t68 -278.5t201.5 -97t200.5 97t67 278z" />
    <glyph glyph-name="uni0210" unicode="&#x210;" horiz-adv-x="1394" 
d="M151 0zM836 1588l-297 339h258l227 -339h-188zM472 1588l-315 339h275l211 -339h-171zM419 825l299 -1q156 0 224 55.5t68 171t-69 166.5t-211 51h-311v-443zM151 0v1465h543q346 -1 466 -117q98 -96 99 -286q0 -292 -265 -384q54 -61 134 -226l218 -452h-296l-171 383
q-97 206 -120 244q-17 1 -113 1l-227 2v-630h-268z" />
    <glyph glyph-name="uni0211" unicode="&#x211;" horiz-adv-x="798" 
d="M0 0zM540 1228l-297 339h258l227 -339h-188zM176 1228l-315 339h275l211 -339h-171zM134 0v1099h220l34 -168q108 173 313 173q43 0 70 -4l-4 -219q-40 6 -83 6q-145 0 -216.5 -77t-71.5 -214v-596h-262z" />
    <glyph glyph-name="uni0212" unicode="&#x212;" horiz-adv-x="1394" 
d="M151 0zM458 1588q0 113 87 176.5t184 63.5t161 -25.5t106.5 -81.5t42.5 -133h-167q0 52 -37.5 80t-87.5 28t-86 -28.5t-36 -79.5h-167zM419 825l299 -1q156 0 224 55.5t68 171t-69 166.5t-211 51h-311v-443zM151 0v1465h543q346 -1 466 -117q98 -96 99 -286
q0 -292 -265 -384q54 -61 134 -226l218 -452h-296l-171 383q-97 206 -120 244q-17 1 -113 1l-227 2v-630h-268z" />
    <glyph glyph-name="uni0213" unicode="&#x213;" horiz-adv-x="798" 
d="M134 0zM162 1228q0 113 87 176.5t184 63.5t161 -25.5t106.5 -81.5t42.5 -133h-167q0 52 -37.5 80t-87.5 28t-86 -28.5t-36 -79.5h-167zM134 0v1099h220l34 -168q108 173 313 173q43 0 70 -4l-4 -219q-40 6 -83 6q-145 0 -216.5 -77t-71.5 -214v-596h-262z" />
    <glyph glyph-name="uni0214" unicode="&#x214;" horiz-adv-x="1468" 
d="M143 0zM822 1588l-297 339h258l227 -339h-188zM458 1588l-315 339h275l211 -339h-171zM1171 122.5q-152 -143.5 -440.5 -143.5t-437.5 143.5t-149 404.5v938h272v-915q0 -183 74.5 -267t243 -84t243.5 84.5t75 267.5v914h271v-940q0 -259 -152 -402.5z" />
    <glyph glyph-name="uni0215" unicode="&#x215;" horiz-adv-x="1163" 
d="M0 0zM670 1228l-297 339h258l227 -339h-188zM306 1228l-315 339h275l211 -339h-171zM581 -21q-214 0 -344.5 107t-130.5 314v699h263v-689q0 -123 51.5 -178t162.5 -55t161.5 54.5t50.5 178.5v689h262v-699q0 -206 -131 -313.5t-345 -107.5z" />
    <glyph glyph-name="uni0216" unicode="&#x216;" horiz-adv-x="1468" 
d="M144 0zM443 1588q0 113 87 176.5t184 63.5t161 -25.5t106.5 -81.5t42.5 -133h-167q0 52 -37.5 80t-87.5 28t-86 -28.5t-36 -79.5h-167zM1171 122.5q-152 -143.5 -440.5 -143.5t-437.5 143.5t-149 404.5v938h272v-915q0 -183 74.5 -267t243 -84t243.5 84.5t75 267.5v914
h271v-940q0 -259 -152 -402.5z" />
    <glyph glyph-name="uni0217" unicode="&#x217;" horiz-adv-x="1163" 
d="M106 0zM291 1228q0 113 87 176.5t184 63.5t161 -25.5t106.5 -81.5t42.5 -133h-167q0 52 -37.5 80t-87.5 28t-86 -28.5t-36 -79.5h-167zM581 -21q-214 0 -344.5 107t-130.5 314v699h263v-689q0 -123 51.5 -178t162.5 -55t161.5 54.5t50.5 178.5v689h262v-699
q0 -206 -131 -313.5t-345 -107.5z" />
    <glyph glyph-name="Scommaaccent" unicode="&#x218;" horiz-adv-x="1189" 
d="M94 0zM475 -620h116l144 498h-165zM605 28zM605 28zM160 317q210 -116 420 -116q129 0 195 55.5t66 159.5q0 138 -184 191q-13 3 -73 21q-141 41 -188 60q-295 104 -295 388q1 130 67 224q132 186 450 186q265 0 457 -104l-82 -198q-196 84 -340.5 84t-206 -41.5
t-65.5 -138.5q0 -122 121 -159q24 -9 118 -39t122 -39q201 -66 287.5 -164t86.5 -273q0 -209 -148 -321.5t-406 -112.5t-468 122z" />
    <glyph glyph-name="scommaaccent" unicode="&#x219;" horiz-adv-x="985" 
d="M95 0zM373 -620h116l144 498h-165zM503 28zM503 28zM515 939q-168 0 -168 -107q0 -51 43 -79.5t107.5 -52t86.5 -31.5q184 -67 255.5 -144t71.5 -200q-1 -165 -112 -255t-334.5 -90t-369.5 83l27 197q66 -36 168 -64.5t188 -28.5q86 1 134 33q49 33 49 93q1 59 -45 92
t-132 65.5t-99 37.5q-152 59 -219 131.5t-67 209.5t108.5 217t310.5 80t361 -79l-65 -181q-157 73 -299 73z" />
    <glyph glyph-name="uni021A" unicode="&#x21a;" 
d="M14 0zM446 -600h116l144 498h-165zM576 48zM576 48zM441 0v1248h-427v217h1124v-217h-425v-1248h-272z" />
    <glyph glyph-name="uni021B" unicode="&#x21b;" horiz-adv-x="803" 
d="M12 0zM252 -615h116l144 498h-165zM382 33zM382 33zM632 -12q-32 -3 -102 -3t-144.5 26.5t-116.5 83.5q-77 104 -77 326v519h-180l10 142l188 17l84 298l160 1v-299h273v-159h-273v-524q0 -125 36 -178t133 -53q57 0 122 10l7 -188q-2 0 -24.5 -4.5t-43 -8t-52.5 -6.5z
" />
    <glyph glyph-name="uni0237" unicode="&#x237;" horiz-adv-x="527" 
d="M-38 -364l-5 197h35q62 0 97.5 10t54.5 39t24 66t5 107v1034h237v-991q0 -125 -17 -206.5t-61 -141.5q-85 -114 -330 -114h-40z" />
    <glyph glyph-name="circumflex" unicode="&#x2c6;" horiz-adv-x="775" 
d="M47 1163l250 383h208l251 -383h-184l-174 218l-172 -218h-179z" />
    <glyph glyph-name="caron" unicode="&#x2c7;" horiz-adv-x="772" 
d="M302 1193l-262 353h198l161 -196l164 196h203l-262 -353h-202z" />
    <glyph glyph-name="breve" unicode="&#x2d8;" horiz-adv-x="710" 
d="M352 1229q-132 0 -211.5 64t-79.5 188h167q0 -51 29.5 -73.5t94.5 -22.5t94.5 22.5t29.5 73.5h167q0 -124 -79.5 -188t-211.5 -64z" />
    <glyph glyph-name="dotaccent" unicode="&#x2d9;" horiz-adv-x="539" 
d="M157 1249v216h201v-216h-201z" />
    <glyph glyph-name="ring" unicode="&#x2da;" horiz-adv-x="662" 
d="M330 1158q-100 0 -160.5 60t-60.5 144t59.5 142t161.5 58t161 -58t59 -142t-60 -144t-160 -60zM330 1251q51 0 78 32q28 31 28 77t-28 79.5t-78 33.5t-78.5 -32.5t-28.5 -78.5t28 -78.5t79 -32.5z" />
    <glyph glyph-name="ogonek" unicode="&#x2db;" horiz-adv-x="577" 
d="M513 -355q-95 -37 -188.5 -37t-152 44t-58.5 128q0 146 191 254h108q-124 -92 -124 -199q0 -34 22.5 -60.5t48 -26.5t42 2.5t30 6t28.5 8.5t24 8.5t18.5 7.5t10.5 4v-140z" />
    <glyph glyph-name="tilde" unicode="&#x2dc;" horiz-adv-x="786" 
d="M46 1230q0 129 44 185q42 54 114 54t143 -21t124 -42t68 -21q47 0 47 84h147q-1 -127 -41 -183t-112 -56t-191 45t-149 45q-49 0 -50 -90h-144z" />
    <glyph glyph-name="hungarumlaut" unicode="&#x2dd;" horiz-adv-x="982" 
d="M461 1155l247 361h225l-338 -361h-134zM150 1155l246 361h226l-338 -361h-134z" />
    <glyph glyph-name="uni0307" unicode="&#x307;" horiz-adv-x="515" 
d="M157 1222v216h201v-216h-201z" />
    <glyph glyph-name="uni030F" unicode="&#x30f;" horiz-adv-x="982" 
d="M680 1197l-297 339h258l227 -339h-188zM316 1197l-315 339h275l211 -339h-171z" />
    <glyph glyph-name="uni0311" unicode="&#x311;" horiz-adv-x="713" 
d="M63 1229q0 113 87 176.5t184 63.5t161 -25.5t106.5 -81.5t42.5 -133h-167q0 52 -37.5 80t-87.5 28t-86 -28.5t-36 -79.5h-167z" />
    <glyph glyph-name="uni0326" unicode="&#x326;" horiz-adv-x="632" 
d="M109 -658l110 517h225l-167 -517h-168z" />
    <glyph glyph-name="Wgrave" unicode="&#x1e80;" horiz-adv-x="2051" 
d="M10 0zM941 1588l-331 383h306l188 -383h-163zM408 0l-398 1465h270l284 -1140l334 1133h259l317 -1137l290 1144h270l-410 -1465h-281l-313 1073l-343 -1073h-279z" />
    <glyph glyph-name="wgrave" unicode="&#x1e81;" horiz-adv-x="1713" 
d="M13 0zM775 1228l-331 383h306l188 -383h-163zM491 293l235 806h269q13 -42 115 -409t110 -394l217 803h263l-344 -1099h-261q-13 43 -121.5 435t-117.5 423q-20 -73 -127.5 -440t-124.5 -418h-258l-333 1099h267z" />
    <glyph glyph-name="Wacute" unicode="&#x1e82;" horiz-adv-x="2051" 
d="M10 0zM945 1588l171 383h299l-315 -383h-155zM408 0l-398 1465h270l284 -1140l334 1133h259l317 -1137l290 1144h270l-410 -1465h-281l-313 1073l-343 -1073h-279z" />
    <glyph glyph-name="wacute" unicode="&#x1e83;" horiz-adv-x="1713" 
d="M13 0zM779 1228l171 383h299l-315 -383h-155zM491 293l235 806h269q13 -42 115 -409t110 -394l217 803h263l-344 -1099h-261q-13 43 -121.5 435t-117.5 423q-20 -73 -127.5 -440t-124.5 -418h-258l-333 1099h267z" />
    <glyph glyph-name="Wdieresis" unicode="&#x1e84;" horiz-adv-x="2051" 
d="M10 0zM1135 1588v254h196v-254h-196zM714 1588v254h195v-254h-195zM408 0l-398 1465h270l284 -1140l334 1133h259l317 -1137l290 1144h270l-410 -1465h-281l-313 1073l-343 -1073h-279z" />
    <glyph glyph-name="wdieresis" unicode="&#x1e85;" horiz-adv-x="1713" 
d="M13 0zM969 1228v254h196v-254h-196zM548 1228v254h195v-254h-195zM491 293l235 806h269q13 -42 115 -409t110 -394l217 803h263l-344 -1099h-261q-13 43 -121.5 435t-117.5 423q-20 -73 -127.5 -440t-124.5 -418h-258l-333 1099h267z" />
    <glyph glyph-name="Ygrave" unicode="&#x1ef2;" horiz-adv-x="1256" 
d="M0 0zM545 1588l-331 383h306l188 -383h-163zM492 0v581l-507 884h294l349 -634l351 634h290l-505 -879v-586h-272z" />
    <glyph glyph-name="ygrave" unicode="&#x1ef3;" horiz-adv-x="1116" 
d="M0 0zM470 1228l-331 383h306l188 -383h-163zM563 302q29 106 266 797h280q-457 -1208 -461 -1218q-71 -185 -179 -264.5t-278 -79.5q-64 0 -136 8l-13 203q46 -5 127 -5t136 36t91 128q4 10 40 113l-442 1079h280z" />
    <glyph glyph-name="endash" unicode="&#x2013;" horiz-adv-x="1271" 
d="M89 461v185h1099v-185h-1099z" />
    <glyph glyph-name="emdash" unicode="&#x2014;" horiz-adv-x="2151" 
d="M30 461v185h2086v-185h-2086z" />
    <glyph glyph-name="quoteleft" unicode="&#x2018;" horiz-adv-x="442" 
d="M386 1466l-108 -493h-218l159 493h167z" />
    <glyph glyph-name="quoteright" unicode="&#x2019;" horiz-adv-x="442" 
d="M60 973l108 493h218l-159 -493h-167z" />
    <glyph glyph-name="quotesinglbase" unicode="&#x201a;" horiz-adv-x="557" 
d="M116 -280l108 492h220l-159 -492h-169z" />
    <glyph glyph-name="quotedblleft" unicode="&#x201c;" horiz-adv-x="953" 
d="M495 1466l-100 -493h-219l160 493h159zM795 1466l-108 -493h-210l148 493h170z" />
    <glyph glyph-name="quotedblright" unicode="&#x201d;" horiz-adv-x="953" 
d="M476 973l100 493h219l-160 -493h-159zM176 973l108 493h210l-148 -493h-170z" />
    <glyph glyph-name="quotedblbase" unicode="&#x201e;" horiz-adv-x="1005" 
d="M512 -280l118 492h225l-163 -492h-180zM158 -280l111 492h231l-169 -492h-173z" />
    <glyph glyph-name="dagger" unicode="&#x2020;" horiz-adv-x="979" 
d="M384 115v855h-317v169h317v347h198v-347h334v-169h-344v-855h-188z" />
    <glyph glyph-name="daggerdbl" unicode="&#x2021;" horiz-adv-x="996" 
d="M403 -27v394h-277v162h277l-1 431h-273v163h273v354h200v-354h277v-163h-277l1 -431h272v-162h-272v-394h-200z" />
    <glyph glyph-name="bullet" unicode="&#x2022;" horiz-adv-x="995" 
d="M497 355q-154 0 -254 96q-100 95 -100 241t103.5 245.5t255.5 99.5t253 -96.5t101 -242.5t-102.5 -244.5t-256.5 -98.5z" />
    <glyph glyph-name="ellipsis" unicode="&#x2026;" horiz-adv-x="1419" 
d="M90 0zM1299 27q-44 -45 -108.5 -45t-109.5 45t-45 107.5t44.5 108.5t109.5 46t109 -46t44 -108.5t-44 -107.5zM826 27q-44 -45 -108.5 -45t-109.5 45t-45 107.5t44.5 108.5t109.5 46t109 -46t44 -108.5t-44 -107.5zM353 27q-44 -45 -108.5 -45t-109.5 45t-45 107.5
t44.5 108.5t109.5 46t109 -46t44 -108.5t-44 -107.5z" />
    <glyph glyph-name="perthousand" unicode="&#x2030;" horiz-adv-x="2623" 
d="M2469.5 95q-97.5 -112 -267 -112t-269 110.5t-99.5 278.5q0 394 363 394q179 0 274.5 -108.5t95.5 -279.5t-97.5 -283zM2070.5 205q46.5 -63 137 -63t136 65.5t45.5 169.5t-48.5 167.5t-144.5 63.5t-134 -63t-38 -170t46.5 -170zM1643.5 95q-97.5 -112 -267 -112
t-269 110.5t-99.5 278.5q0 394 363 394q179 0 274.5 -108.5t95.5 -279.5t-97.5 -283zM1244.5 205q46.5 -63 137 -63t136 65.5t45.5 169.5t-48.5 167.5t-144.5 63.5t-134 -63t-38 -170t46.5 -170zM307 -32l901 1482l220 -1l-908 -1481h-213zM671 789q-101 -112 -265.5 -112
t-258 110t-93.5 280t96.5 282t262 112t262.5 -110t97 -280t-101 -282zM277.5 899q43.5 -63 130 -63t131 65t44.5 169t-44.5 169t-130.5 65t-130 -66t-44 -171t43.5 -168z" />
    <glyph glyph-name="guilsinglleft" unicode="&#x2039;" horiz-adv-x="584" 
d="M321 174l-266 394l272 397h202l-261 -397l254 -394h-201z" />
    <glyph glyph-name="guilsinglright" unicode="&#x203a;" horiz-adv-x="584" 
d="M56 174l260 395l-253 396h200l268 -396l-274 -395h-201z" />
    <glyph glyph-name="fraction" unicode="&#x2044;" horiz-adv-x="1179" 
d="M41 0l900 1471h196l-898 -1471h-198z" />
    <glyph glyph-name="uni2074" unicode="&#x2074;" horiz-adv-x="867" 
d="M284 953h150v244zM436 627v173h-352v119l351 527h160v-493h102l14 -153h-117l-1 -173h-157z" />
    <glyph glyph-name="Euro" unicode="&#x20ac;" horiz-adv-x="1210" 
d="M426 811l-2 -111l-1 -33h561l-21 -152h-517q29 -161 124 -252t244 -91t300 122l-1 -208q-151 -106 -340 -106q-355 0 -498 332q-40 92 -58 203h-136l23 152h93l1 63l2 81h-122l27 146h118q45 222 183 365q148 153 394 153q203 0 331 -128l-47 -195q-52 73 -124.5 111
t-151.5 38q-137 0 -237.5 -94.5t-119.5 -248.5h568l-26 -147h-567z" />
    <glyph glyph-name="trademark" unicode="&#x2122;" horiz-adv-x="1822" 
d="M322 667v657h-251l-1 146h665v-146h-246v-657h-167zM801 667v803h216l218 -547l228 547h200v-803h-161v549l-222 -531h-105l-210 525v-543h-164z" />
    <glyph glyph-name="product" unicode="&#x220f;" horiz-adv-x="1529" 
d="M220 -247v1697h1107v-1697h-220v1504h-669v-1504h-218z" />
    <glyph glyph-name="infinity" unicode="&#x221e;" horiz-adv-x="1695" 
d="M469 407q119 0 229 134q26 32 58 77q-65 101 -133.5 159t-160.5 58t-143.5 -60t-51.5 -152.5t56 -154t146 -61.5zM1146 422.5q40 -15.5 90.5 -15.5t89.5 22.5t58 60.5q34 67 34 148v8q-2 86 -53.5 137.5t-135.5 51.5q-144 0 -287 -214q73 -99 118.5 -141t85.5 -57.5z
M470 241q-164 0 -266.5 115.5t-102.5 277.5t107 261.5t279 99.5q119 0 212 -79q77 -65 151 -166q133 184 258 226q57 20 122 20q165 0 265 -103t100 -268.5t-104.5 -274.5t-261.5 -109q-117 0 -205 64.5t-174 182.5q-134 -183 -260 -227q-56 -20 -120 -20z" />
    <glyph glyph-name="integral" unicode="&#x222b;" horiz-adv-x="760" 
d="M410 -376.5q-67 -30.5 -143.5 -30.5t-166.5 27l-3 183q8 -4 57 -15.5t71 -11.5q81 0 106.5 43.5t25.5 151.5v1301q1 304 209 378q58 20 128.5 20t153.5 -25l3 -184q-14 5 -60.5 16t-68.5 11q-81 0 -107.5 -43.5t-26.5 -150.5v-1303q0 -173 -73 -281q-38 -56 -105 -86.5z
" />
    <glyph glyph-name="approxequal" unicode="&#x2248;" horiz-adv-x="1312" 
d="M223 516l-89 126q85 214 292 214q113 0 257 -68t214 -69q70 0 122 32.5t114 108.5l81 -118q-38 -88 -127 -151t-177 -63t-148 20q-62 20 -134 56t-116 50.5t-95 14.5q-124 0 -194 -153zM223 102l-89 127q87 214 292 214q110 0 260 -69t215 -69q66 0 118 33t114 109
l82 -119q-39 -88 -127 -151q-90 -63 -178 -63t-148 19.5t-134 56.5t-116.5 51t-93.5 14q-124 0 -195 -153z" />
    <glyph glyph-name="notequal" unicode="&#x2260;" horiz-adv-x="1313" 
d="M462 44l-163 24l122 245h-267l-10 167h359l121 243h-470l-12 169h560l137 260q163 -22 165 -22l-119 -239h281l14 -169h-375l-123 -243h485l13 -167h-579z" />
    <glyph glyph-name="lessequal" unicode="&#x2264;" horiz-adv-x="1224" 
d="M138 2v155l951 1v-156h-951zM1082 225l-937 460v116l937 472v-190l-697 -339l697 -329v-190z" />
    <glyph glyph-name="greaterequal" unicode="&#x2265;" horiz-adv-x="1224" 
d="M145 2v156l949 -1v-155h-949zM151 225v190l699 328l-698 341v190l938 -473v-115z" />
    <glyph glyph-name="lozenge" unicode="&#x25ca;" horiz-adv-x="1228" 
d="M621 1307l-326 -577q136 -253 316 -580l326 579q-50 92 -156 285t-160 293zM547 -47l-449 775l456 777h130l451 -776l-460 -776h-128z" />
    <glyph glyph-name="uniFB03" unicode="&#xfb03;" horiz-adv-x="2053" 
d="M1659 1259v224h263v-224h-263zM203 0v925h-174l17 154l157 20v61q0 198 79 292q83 100 286 100q100 0 204 -19l-23 -195q-81 11 -147 11q-136 0 -137 -175v-75h498v61q0 198 79 292q83 100 286 100q100 0 204 -19l-23 -195q-83 11 -148 11q-136 0 -136 -175v-75h696
v-1099h-262v925h-434v-925h-262v925h-498v-925h-262z" />
    <glyph glyph-name="uniFB04" unicode="&#xfb04;" horiz-adv-x="2149" 
d="M1652 1337q-150 15 -251.5 15t-145 -41t-44.5 -145v-67h237v-174h-237v-925h-255v925h-491v-925h-262v925h-174l17 154l157 20v61q0 198 79 292q83 100 286 100q100 0 204 -19l-23 -195q-81 11 -147 11q-136 0 -137 -175v-75h491v45q2 207 101.5 301.5t324.5 94.5
q106 0 312 -22t213 -22v-1072q0 -151 25.5 -190t64.5 -46t64.5 -7t77.5 4l13 -184q-2 -1 -28 -5q-70 -12 -127 -11q-45 0 -81 7q-79 18 -116 37.5t-63.5 52.5t-43 69.5t-25.5 88.5q-16 93 -16 224v873z" />
    <glyph glyph-name="foundryicon" horiz-adv-x="1351" 
d="M675 1338l145 -445h468l-379 -275l145 -445l-379 275l-378 -275l145 445l-379 275h468z" />
    <glyph glyph-name="fj" horiz-adv-x="1331" 
d="M203 0v925h-174l17 154l157 20v61q0 198 79 292q83 100 286 100q100 0 204 -19l-23 -195q-81 11 -147 11q-136 0 -137 -175v-75h765v-1073q0 -251 -76 -342q-66 -78 -187 -100q-65 -12 -152 -11h-59l-29 194h58q91 0 123.5 21t42.5 49q17 48 17 147v941h-503v-925h-262z
M968 1259v224h262v-224h-262z" />
    <glyph glyph-name="Tcommaaccent" 
d="M14 0zM441 0v1248h-427v217h1124v-217h-425v-1248h-272zM326 -358l123 381h144l-58 -381h-209z" />
    <glyph glyph-name="commaaccentcomb" horiz-adv-x="554" 
d="M144 -648h116l144 498h-165zM274 0zM274 0z" />
    <glyph glyph-name="middot" horiz-adv-x="468" 
d="M150 561h168v198h-168v-198z" />
    <glyph glyph-name="tcommaaccent" horiz-adv-x="803" 
d="M12 0zM268 -357l123 381h144l-58 -381h-209zM632 -12q-32 -3 -102 -3t-144.5 26.5t-116.5 83.5q-77 104 -77 326v519h-180l10 142l188 17l84 298l160 1v-299h273v-159h-273v-524q0 -125 36 -178t133 -53q57 0 122 10l7 -188q-2 0 -24.5 -4.5t-43 -8t-52.5 -6.5z" />
    <glyph glyph-name=".ttfautohint" horiz-adv-x="803" 
d="M0 0z" />
    </font>
</defs>
</svg>
