<?xml version="1.0" standalone="no"?>
<!DOCTYPE svg PUBLIC "-//W3C//DTD SVG 1.1//EN" "http://www.w3.org/Graphics/SVG/1.1/DTD/svg11.dtd" >
<svg xmlns="http://www.w3.org/2000/svg" xmlns:xlink="http://www.w3.org/1999/xlink" version="1.1">
<metadata>
Created by FontForge 20161003 at Mon Dec 17 11:16:30 2018
 By www-data
2012 vernon adams
</metadata>
<defs>
<font id="Oxygen-Light" horiz-adv-x="1106" >
  <font-face 
    font-family="Oxygen"
    font-weight="300"
    font-stretch="normal"
    units-per-em="2048"
    panose-1="2 0 4 3 0 0 0 0 0 4"
    ascent="1638"
    descent="-410"
    x-height="1096"
    cap-height="1488"
    bbox="-164 -690 2597 2082"
    underline-thickness="0"
    underline-position="0"
    unicode-range="U+0020-FB04"
  />
<missing-glyph horiz-adv-x="748" 
d="M68 0v1365h544v-1365h-544zM136 68h408v1229h-408v-1229z" />
    <glyph glyph-name="uniFB00" unicode="ff" horiz-adv-x="1171" 
d="M749 0v1005h-409v-1005h-124v1005h-180l8 77l172 14v41q0 215 75.5 313.5t231.5 98.5q53 0 153 -15l-9 -82q-97 11 -130 11q-114 0 -155.5 -73.5t-41.5 -258.5v-35h409v41q0 215 75.5 313.5t231.5 98.5q53 0 153 -15l-9 -82q-97 11 -130 11q-114 0 -155.5 -73.5
t-41.5 -258.5v-35h267v-91h-267v-1005h-124z" />
    <glyph glyph-name="uniFB01" unicode="fi" horiz-adv-x="1044" 
d="M180 0v1005h-156v93h156q0 210 44 300q42 85 112 109q69 24 185 24h76l19 -87h-105q-137 0 -171 -72q-27 -55 -29 -130t-2 -127v-8l-1 -9h599v-1098h-129v1005h-470v-1005h-128zM778 1324v181h129v-181h-129z" />
    <glyph glyph-name="uniFB02" unicode="fl" horiz-adv-x="1219" 
d="M1061 -23q-138 0 -202 62.5t-64 203.5v1196q-221 24 -258 24q-114 0 -155.5 -73.5t-41.5 -258.5v-35h267v-91h-267v-1005h-124v1005h-180l8 77l172 14v41q0 215 75.5 313.5t231.5 98.5q70 0 140 -9t99 -12.5t87.5 -12.5t67.5 -10v-1255q0 -100 36.5 -138t103.5 -38
t157 23l5 -96q-98 -24 -158 -24z" />
    <glyph glyph-name="uniFB03" unicode="ffi" horiz-adv-x="1721" 
d="M1445 1320v168h124v-168h-124zM216 0v1005h-180l8 77l172 14v41q0 215 75.5 313.5t231.5 98.5q53 0 153 -15l-9 -82q-97 11 -130 11q-114 0 -155.5 -73.5t-41.5 -258.5v-35h514v41q0 215 75.5 313.5t231.5 98.5q53 0 153 -15l-9 -82q-97 11 -130 11q-114 0 -155.5 -73.5
t-41.5 -258.5v-35h592v-1096h-125v1005h-467v-1005h-124v1005h-514v-1005h-124z" />
    <glyph glyph-name="uniFB04" unicode="ffl" horiz-adv-x="1838" 
d="M1680 -23q-138 0 -202 62.5t-64 203.5v1196q-221 24 -258 24q-114 0 -155.5 -73.5t-41.5 -258.5v-35h267v-91h-267v-1005h-124v1005h-495v-1005h-124v1005h-180l8 77l172 14v41q0 215 75.5 313.5t231.5 98.5q53 0 153 -15l-9 -82q-97 11 -131 11q-114 0 -155 -73.5
t-41 -258.5v-35h495v41q0 215 75.5 313.5t231.5 98.5q70 0 140 -9t99 -12.5t87.5 -12.5t67.5 -10v-1255q0 -100 36.5 -138t103.5 -38t157 23l5 -96q-98 -24 -158 -24z" />
    <glyph glyph-name="fj" unicode="fj" horiz-adv-x="1170" 
d="M923 1321v167h125v-167h-125zM704 -550l-19 100h49q70 0 109 10.5t56.5 45t20.5 66t3 106.5v1227h-583v-1005h-124v1005h-180l8 77l172 14v41q0 215 75.5 313.5t231.5 98.5q53 0 153 -15l-9 -82q-97 11 -130 11q-114 0 -155.5 -73.5t-41.5 -258.5v-35h708v-1343
q0 -94 -12.5 -150t-47 -91.5t-89 -48.5t-146.5 -13h-49z" />
    <glyph glyph-name=".notdef" horiz-adv-x="748" 
d="M68 0v1365h544v-1365h-544zM136 68h408v1229h-408v-1229z" />
    <glyph glyph-name=".null" horiz-adv-x="0" 
 />
    <glyph glyph-name="nonmarkingreturn" horiz-adv-x="682" 
 />
    <glyph glyph-name="space" unicode=" " horiz-adv-x="463" 
 />
    <glyph glyph-name="exclam" unicode="!" horiz-adv-x="650" 
d="M292 419l-59 1006v89h177v-89l-52 -1006h-66zM418 27.5q-31 -35.5 -92.5 -35.5t-92.5 35.5t-31 83t31 82.5t92.5 35t92.5 -35t31 -82.5t-31 -83z" />
    <glyph glyph-name="quotedbl" unicode="&#x22;" horiz-adv-x="676" 
d="M168 1034l-15 480h118l-32 -480h-71zM427 1034l-15 480h118l-32 -480h-71z" />
    <glyph glyph-name="numbersign" unicode="#" horiz-adv-x="1108" 
d="M180 -1l74 439h-145l10 91h151l78 446h-163l10 90h168l74 423h104l-74 -423h270l74 423h104l-74 -423h143l-15 -89h-143l-79 -447h155l-10 -91h-160l-77 -439h-105l78 439h-270l-77 -439h-101zM374 529h270l77 447h-269z" />
    <glyph glyph-name="dollar" unicode="$" horiz-adv-x="1247" 
d="M679 -23v-190h-87v191q-165 7 -292.5 45.5t-200.5 81.5l48 91q185 -100 445 -112v653l-93 19q-201 40 -301.5 126t-100.5 245q0 277 292 357q89 24 203 29v228h87v-227q120 -3 233 -33.5t186 -67.5l-33 -98q-57 31 -163 60t-223 32v-569l82 -17q195 -41 293 -125
q106 -91 105.5 -286.5t-132 -311.5t-348.5 -121zM592 856v550q-182 -9 -273 -80t-91 -212q0 -95 67 -152.5t198 -85.5zM679 720v-638q167 3 256.5 91.5t89.5 248.5q0 114 -52 180q-56 71 -234 106z" />
    <glyph glyph-name="percent" unicode="%" horiz-adv-x="1748" 
d="M139 826q89 -107 253.5 -107t253 107.5t88.5 278.5t-87.5 277t-254.5 106t-254.5 -106t-87.5 -277.5t89 -278.5zM393 1404q137 0 189 -96q46 -84 45 -205q-1 -117 -49 -203q-55 -98 -185 -98q-150 0 -206 134q-30 71 -30 167q0 301 236 301zM1105 107q89 -107 253.5 -107
t253 107.5t88.5 278.5t-87.5 277t-254.5 106t-254.5 -106t-87.5 -277.5t89 -278.5zM1359 685q137 -1 189 -97q46 -84 45 -204q-1 -116 -49 -202q-55 -98 -185 -99q-150 1 -206 135q-30 71 -30 166q0 301 236 301zM404 0l815 1488h127l-822 -1488h-120z" />
    <glyph glyph-name="ampersand" unicode="&#x26;" horiz-adv-x="1496" 
d="M638 -22q-376 0 -470 246q-27 70 -27 156q0 161 86.5 270t259.5 199q-93 113 -128 170q-57 92 -57 194q0 133 98.5 217t264 84t264 -82t98.5 -214.5t-95.5 -223.5t-272.5 -173l509 -533q72 78 116 183l72 -57q-40 -96 -121 -198l155 -154l-75 -68l-154 153
q-227 -169 -523 -169zM488 92q64 -18 167 -18t231 39.5t203 105.5l-525 554q-302 -166 -302 -397q0 -222 226 -284zM601 891q148 76 182 102.5t61.5 52.5t41.5 50q34 60 33 121q0 93 -66 145t-163 52q-277 0 -277 -200q0 -75 58 -166.5t130 -156.5z" />
    <glyph glyph-name="quotesingle" unicode="'" horiz-adv-x="415" 
d="M152 1020l-15 494h130l-20 -494h-95z" />
    <glyph glyph-name="parenleft" unicode="(" horiz-adv-x="590" 
d="M379 -239q-127 176 -199 405t-72 461q0 484 268 887h119q-140 -237 -196.5 -444t-56.5 -437q0 -451 253 -872h-116z" />
    <glyph glyph-name="parenright" unicode=")" horiz-adv-x="590" 
d="M95 -239q253 422 253 872q0 229 -57 436.5t-197 444.5h118q270 -410 270 -887q0 -233 -72.5 -460.5t-199.5 -405.5h-115z" />
    <glyph glyph-name="asterisk" unicode="*" 
d="M352 573l-134 82l250 350l-369 87l44 148l363 -163l-38 437h167l-37 -437l364 163l45 -147l-374 -88q19 -29 105.5 -142.5t149.5 -207.5q-35 -25 -67 -41t-65 -40l-208 387z" />
    <glyph glyph-name="plus" unicode="+" horiz-adv-x="1101" 
d="M500 157v443h-392v100h394v435h108v-435h382v-100h-382v-443h-110z" />
    <glyph glyph-name="comma" unicode="," horiz-adv-x="504" 
d="M130 -275l80 510h129v-41q-41 -178 -137 -469h-72z" />
    <glyph glyph-name="hyphen" unicode="-" horiz-adv-x="670" 
d="M93 531v110h484v-110h-484z" />
    <glyph glyph-name="period" unicode="." horiz-adv-x="517" 
d="M372 23q-27 -31 -81 -31t-81 31t-27 72.5t27 72.5t81 31t81 -31t27 -72.5t-27 -72.5z" />
    <glyph glyph-name="slash" unicode="/" horiz-adv-x="953" 
d="M49 -174l701 1688h113l-702 -1688h-112z" />
    <glyph glyph-name="zero" unicode="0" horiz-adv-x="1216" 
d="M596 -24q-124 0 -217.5 56t-151.5 159q-116 206 -116 565t124.5 558.5t361 199.5t359.5 -198.5t123 -567.5q-1 -350 -115 -556q-120 -216 -368 -216zM596 83q168 0 257.5 178.5t89.5 488.5t-88.5 483.5t-257.5 173.5t-257.5 -174.5t-88.5 -484t88.5 -487.5t256.5 -178z
" />
    <glyph glyph-name="one" unicode="1" horiz-adv-x="599" 
d="M274 0v1356q-85 -61 -240 -115v108q210 97 263 139h105v-1488h-128z" />
    <glyph glyph-name="two" unicode="2" horiz-adv-x="1144" 
d="M132 0l-30 127l519 604q102 121 152 210.5t50 174.5q0 141 -67 216q-68 75 -182 75q-238 0 -354 -110l-47 97q125 120 388 120q191 0 301.5 -105t110.5 -276q0 -115 -58.5 -226.5t-192.5 -266.5l-450 -517h713l-8 -123h-845z" />
    <glyph glyph-name="three" unicode="3" horiz-adv-x="1115" 
d="M534 1407q-213 0 -331 -105l-46 104q126 108 412 108q149 0 259 -83q120 -90 120 -265q0 -283 -261 -362q303 -78 308 -394v-9q1 -187 -125 -305q-128 -120 -338 -120q-131 0 -234 36.5t-142 73.5l47 103q136 -106 306 -106t263.5 83.5t93.5 237.5q0 237 -206 305
q-109 36 -276 36h-18v112h44q197 7 285 57t115 128q16 46 16 105q0 260 -292 260z" />
    <glyph glyph-name="four" unicode="4" horiz-adv-x="1192" 
d="M798 0v402h-682v136l686 950h120v-976h186l-15 -110h-171v-402h-124zM253 512h545v769z" />
    <glyph glyph-name="five" unicode="5" horiz-adv-x="1195" 
d="M930.5 115q-136.5 -139 -385 -139t-416.5 135l45 96q154 -124 395 -124q163 0 261 109t98 271.5t-84.5 261t-209.5 98.5q-91 0 -154.5 -25t-144.5 -87l-125 9l34 768h761l-13 -111h-639l-30 -545q127 96 275 98q6 0 12 1q141 -1 243 -61q106 -62 160 -164t54 -223
q0 -229 -136.5 -368z" />
    <glyph glyph-name="six" unicode="6" horiz-adv-x="1196" 
d="M853 40.5q-111 -64.5 -235.5 -64.5t-217.5 42t-153 112q-126 146 -126 343q0 111 25 181q26 70 66 134q186 291 500 630l63 70h137l-525 -639q118 67 259 67q175 0 306 -135q60 -62 96 -150.5t36 -200.5t-60 -218.5t-171 -171zM602 83q104 0 186.5 53t124.5 134.5
t42 176.5t-40 178t-120.5 135.5t-187.5 52.5q-168 0 -261 -105t-93 -260q0 -91 40.5 -173.5t122.5 -137t186 -54.5z" />
    <glyph glyph-name="seven" unicode="7" horiz-adv-x="1059" 
d="M276 0l541 1377h-701l15 111h795l16 -123l-528 -1365h-138z" />
    <glyph glyph-name="eight" unicode="8" horiz-adv-x="1196" 
d="M840.5 22q-106.5 -46 -222.5 -46t-202.5 27t-152.5 77q-142 108 -142 304q0 147 91 260.5t254 158.5q-150 40 -231.5 127t-81.5 214q0 170 124 270t323.5 100t321 -99.5t121.5 -270.5q0 -127 -78 -213.5t-218 -127.5q153 -45 241 -158.5t88 -251t-64.5 -231.5t-171 -140z
M355 164q99 -81 245.5 -81t243.5 80.5t97 219.5t-92 233.5t-248 133.5q-156 -40 -250.5 -134t-94.5 -232.5t99 -219.5zM601 856q311 62 311 290q0 124 -91 192.5t-220 68.5q-180 -1 -269 -117q-46 -60 -46 -144q0 -228 315 -290z" />
    <glyph glyph-name="nine" unicode="9" horiz-adv-x="1142" 
d="M265 0l559 677q-126 -81 -257 -81t-236 53.5t-171.5 158t-66.5 219t34 199.5t96 149q135 139 358 139q116 0 208 -40q91 -38 149 -106q118 -138 118 -338q0 -147 -44.5 -248t-187.5 -304l-396 -478h-163zM932 1050q0 206 -157 306q-81 52 -191 51q-163 0 -264 -108.5
t-101 -254.5t98 -243t268 -97t258.5 103t88.5 243z" />
    <glyph glyph-name="colon" unicode=":" horiz-adv-x="510" 
d="M167 -37v211h179v-211h-179zM167 927v209h179v-209h-179z" />
    <glyph glyph-name="semicolon" unicode=";" horiz-adv-x="550" 
d="M152 -302l56 467h162l-125 -467h-93zM197 928v208h179v-208h-179z" />
    <glyph glyph-name="less" unicode="&#x3c;" horiz-adv-x="1165" 
d="M1052 113l-954 466v79l956 500v-126l-807 -410l805 -382v-127z" />
    <glyph glyph-name="equal" unicode="=" horiz-adv-x="1070" 
d="M121 392v110h828v-110h-828zM120 831v112h830v-112h-830z" />
    <glyph glyph-name="greater" unicode="&#x3e;" horiz-adv-x="1167" 
d="M113 122v128l806 372l-803 420v123l954 -509v-79z" />
    <glyph glyph-name="question" unicode="?" horiz-adv-x="855" 
d="M546 1346q-62 64 -180.5 64t-248.5 -80l-34 96q60 42 150 66.5t161 24.5q162 0 255 -98t93 -246q0 -126 -86 -279q-40 -70 -84 -140q-124 -194 -193 -359h-65q-1 8 -1 16q-1 96 97 270q44 80 90 162q109 198 109 317q0 121 -63 186zM439 28q-25 -29 -75.5 -29t-76 29
t-25.5 67.5t25.5 67.5t76 29t75.5 -28.5t25 -67.5t-25 -68z" />
    <glyph glyph-name="at" unicode="@" horiz-adv-x="1867" 
d="M1331 5q-196 -87 -435.5 -87t-408.5 89.5t-262.5 263t-93.5 411.5q0 175 62.5 328t172.5 264.5t268.5 175.5t359 64t371.5 -80.5t270.5 -235t99.5 -359.5q-1 -271 -197 -423q-193 -90 -249 -91q-4 0 -8 1q-77 0 -130 47.5t-67 120.5q-39 -71 -115.5 -116.5t-183 -45.5
t-160.5 74.5t-54 169t20 170t60.5 146.5t96.5 127q123 124 294 124q144 0 290 -48q-15 -47 -46 -138t-48 -142q-46 -138 -46 -215.5t26 -130.5t78 -53t109 30t104.5 83.5t77 137t29.5 181.5q0 173 -81.5 301t-223 193t-293 65t-259 -27.5t-201 -86.5t-161.5 -145
q-146 -184 -146 -483t169 -473.5t465 -174.5q214 0 420 85zM720.5 475q29.5 -52 78 -52t83 9.5t59.5 23t47 38.5t36 46.5t30 57.5q30 70 63.5 181t75.5 255q-55 26 -146 26t-159 -43.5t-110 -111.5q-88 -143 -87 -295q0 -83 29.5 -135z" />
    <glyph glyph-name="A" unicode="A" horiz-adv-x="1276" 
d="M6 0l581 1488h123l560 -1488h-132l-190 505h-617l-198 -505h-127zM380 599h522q-225 646 -255 760q-24 -88 -207 -592z" />
    <glyph glyph-name="B" unicode="B" horiz-adv-x="1283" 
d="M182 0v1488h406q277 0 404.5 -92t127.5 -280q0 -86 -13 -119.5t-31 -66t-44 -56.5q-63 -59 -159 -89q156 -23 239 -125t83 -241q0 -197 -125 -308t-384 -111h-504zM310 100h343q405 0 405 319q0 173 -112 240.5t-351 67.5h-285v-627zM310 825h341q251 -1 309 141
q24 56 24 141q0 156 -96.5 216.5t-305.5 60.5h-272v-559z" />
    <glyph glyph-name="C" unicode="C" horiz-adv-x="1286" 
d="M813 -24q-171 0 -305 58q-134 60 -218 164q-172 212 -172 551q0 222 81.5 393.5t243.5 271.5t394 100t403 -102l-61 -99q-156 94 -352 94q-137 0 -246 -51.5t-179 -142.5q-142 -187 -142 -471q0 -279 134 -462q68 -92 180 -144.5t263.5 -52.5t344.5 87l26 -103
q-146 -91 -395 -91z" />
    <glyph glyph-name="D" unicode="D" horiz-adv-x="1498" 
d="M310 107h292q310 0 472.5 158.5t162.5 472.5q0 344 -179 498q-171 146 -485 146h-263v-1275zM182 0v1488h403q366 0 575 -174q220 -184 220 -560t-201 -565t-563 -189h-434z" />
    <glyph glyph-name="E" unicode="E" horiz-adv-x="1142" 
d="M182 0v1488h829l-5 -106h-696v-560h662v-109h-662v-606h718l-11 -107h-835z" />
    <glyph glyph-name="F" unicode="F" horiz-adv-x="1025" 
d="M182 0v1488h800l-6 -111h-665v-588h635v-103h-635v-686h-129z" />
    <glyph glyph-name="G" unicode="G" horiz-adv-x="1469" 
d="M1091.5 1q-114.5 -25 -277 -25t-298 59.5t-221.5 163.5q-177 214 -177 541q0 225 84 398.5t250.5 274.5t405.5 101t433 -115l-57 -103q-82 50 -185.5 80.5t-225 30.5t-235.5 -52q-115 -51 -186 -143q-144 -186 -144 -470q0 -302 148 -476q154 -182 458 -183q157 0 346 75
v476h-369l8 111h480v-656q-123 -63 -237.5 -88z" />
    <glyph glyph-name="H" unicode="H" horiz-adv-x="1474" 
d="M182 0v1488h128v-658h854v658h128v-1488h-128v718h-854v-718h-128z" />
    <glyph glyph-name="I" unicode="I" horiz-adv-x="514" 
d="M193 0v1488h128v-1488h-128z" />
    <glyph glyph-name="J" unicode="J" horiz-adv-x="512" 
d="M1 -138l-9 94h48q74 0 114 20q80 41 80 240v1272h133v-1185q0 -199 -10 -234.5t-21.5 -70.5t-29.5 -50.5t-44 -35.5q-27 -22 -62 -30q-84 -20 -187 -20h-12z" />
    <glyph glyph-name="K" unicode="K" horiz-adv-x="1224" 
d="M182 0v1488h129v-769q44 49 116 129q329 363 478 528l101 112h169l-621 -671l672 -817h-163l-607 739l-145 -136v-603h-129z" />
    <glyph glyph-name="L" unicode="L" horiz-adv-x="998" 
d="M182 0v1488h129v-1375h669l-6 -113h-792z" />
    <glyph glyph-name="M" unicode="M" horiz-adv-x="1804" 
d="M182 0v1488h180l551 -1257l536 1257h173v-1488h-127v1001l7 338l-37 -120l-489 -1134h-140l-495 1137l-39 120l7 -346v-996h-127z" />
    <glyph glyph-name="N" unicode="N" horiz-adv-x="1499" 
d="M182 0v1488h149l819 -1255l53 -73q-7 308 -7 383v945h121v-1488h-152l-817 1253l-51 73q8 -225 8 -388v-938h-123z" />
    <glyph glyph-name="O" unicode="O" horiz-adv-x="1627" 
d="M815 83q274 0 413 177t139 489t-140 485t-412 173t-414.5 -172.5t-142.5 -489.5q0 -417 246 -579q126 -84 311 -83zM815 -24q-226 0 -385 100q-312 195 -312 668q0 354 182.5 562t512.5 208t513 -209.5t183 -561.5q1 -335 -175 -547q-86 -104 -219 -162t-300 -58z" />
    <glyph glyph-name="P" unicode="P" horiz-adv-x="1167" 
d="M182 0v1488h455q193 0 317 -84q134 -90 134 -288q0 -186 -66 -280q-119 -168 -479 -168q-106 0 -232 13v-681h-129zM311 791q88 -12 224.5 -12t217.5 23t121 52t61 82t23.5 85t2.5 63v33q0 131 -89 195t-230 64h-331v-585z" />
    <glyph glyph-name="Q" unicode="Q" horiz-adv-x="1612" 
d="M1253 -470q-1 2 -24.5 32t-60 79t-76.5 106q-101 144 -145 241q-75 -12 -176.5 -12t-214.5 37t-194 105q-80 66 -136 162q-108 187 -108 466q0 357 177.5 562.5t510 205.5t510.5 -207.5t178 -561.5q0 -263 -106 -455t-319 -273q53 -94 141 -222t141 -181zM807 83
q269 0 404.5 176.5t135.5 492t-136.5 485.5t-403 170t-406 -170t-139.5 -490q0 -419 240 -581q124 -83 305 -83z" />
    <glyph glyph-name="R" unicode="R" horiz-adv-x="1333" 
d="M182 0v1488h424q256 0 368 -42q102 -38 146 -112q51 -84 51 -220.5t-67 -234.5t-205 -133q60 -123 90 -187l244 -559h-149l-210 509q-21 50 -94 216q-20 -3 -148 -3l-322 6v-728h-128zM310 831q235 -3 405.5 -3t249.5 69.5t79 207t-71.5 207t-243.5 69.5h-419v-550z" />
    <glyph glyph-name="S" unicode="S" horiz-adv-x="1247" 
d="M1021.5 92.5q-137.5 -116.5 -345 -116.5t-352 40.5t-225.5 88.5l48 91q208 -113 522 -113q171 0 263.5 88.5t92.5 250.5q0 114 -52 180q-56 71 -234 106l-240 48q-201 40 -301.5 126t-100.5 245q1 293 331 365q100 22 226 22t246.5 -31t197.5 -70l-33 -98
q-59 33 -174.5 62.5t-239.5 29.5q-211 0 -317 -70.5t-106 -222.5q0 -95 67 -152.5t198 -85.5l268 -55q195 -41 293 -125q106 -91 105.5 -289t-138 -314.5z" />
    <glyph glyph-name="T" unicode="T" horiz-adv-x="1082" 
d="M476 0v1378h-468v110h1066v-110h-468v-1378h-130z" />
    <glyph glyph-name="U" unicode="U" horiz-adv-x="1408" 
d="M707 83q416 0 416 415v990h128v-973q0 -247 -127 -389q-135 -150 -425 -150q-413 0 -512 321q-30 97 -30 220v971h128v-991q0 -213 104.5 -313.5t317.5 -100.5z" />
    <glyph glyph-name="V" unicode="V" horiz-adv-x="1206" 
d="M531 0l-536 1488h142l338 -959l124 -392l127 398l341 953h144l-543 -1488h-137z" />
    <glyph glyph-name="W" unicode="W" horiz-adv-x="1995" 
d="M464 0l-462 1488h141l396 -1346l380 1306h168l371 -1305l395 1345h140l-461 -1488h-143l-383 1321l-400 -1321h-142z" />
    <glyph glyph-name="X" unicode="X" horiz-adv-x="1196" 
d="M18 0l503 786l-472 702h153l401 -637l418 637h137l-472 -694l492 -794h-146l-432 706l-444 -706h-138z" />
    <glyph glyph-name="Y" unicode="Y" horiz-adv-x="1166" 
d="M501 0v589l-496 899h139l431 -785l445 785h141l-529 -895v-593h-131z" />
    <glyph glyph-name="Z" unicode="Z" horiz-adv-x="1173" 
d="M97 0v111l826 1265h-796v112h964v-104l-832 -1271h840l-8 -113h-994z" />
    <glyph glyph-name="bracketleft" unicode="[" horiz-adv-x="688" 
d="M147 -264v1778h448v-100h-312v-1578h312v-100h-448z" />
    <glyph glyph-name="backslash" unicode="\" horiz-adv-x="816" 
d="M652 -11l-590 1525h122l590 -1525h-122z" />
    <glyph glyph-name="bracketright" unicode="]" horiz-adv-x="688" 
d="M93 -264v100h312v1578h-312v100h448v-1778h-448z" />
    <glyph glyph-name="asciicircum" unicode="^" horiz-adv-x="1158" 
d="M84 558l437 930h90l460 -930h-113l-393 798l-365 -798h-116z" />
    <glyph glyph-name="underscore" unicode="_" horiz-adv-x="1053" 
d="M73 -108v108h905v-108h-905z" />
    <glyph glyph-name="grave" unicode="`" horiz-adv-x="702" 
d="M460 1287l-276 387h158l191 -387h-73z" />
    <glyph glyph-name="a" unicode="a" horiz-adv-x="1077" 
d="M440 -24q-155 0 -248 78t-93 223q1 173 145 253q133 75 371 92q128 8 190 13v122q0 127 -58 193t-184 66q-172 0 -329 -86l-35 92q62 40 162 67t196 27q197 0 283 -84.5t86 -299.5v-732h-97q-5 23 -14.5 91t-9.5 70q-129 -185 -365 -185zM223 275q0 -200 235 -200
q114 0 213.5 75.5t130.5 209.5v187q-144 -12 -145 -12q-244 -22 -339 -80t-95 -180z" />
    <glyph glyph-name="b" unicode="b" horiz-adv-x="1187" 
d="M619 -24q-223 0 -355 183l-13 -159h-104v1521l123 11v-369q0 -169 -3 -233q61 94 155.5 140t196.5 46q222 0 346.5 -158.5t124.5 -408.5q0 -351 -211 -498q-108 -75 -260 -75zM461 108q69 -34 162.5 -33.5t161 40t103.5 107.5q70 130 70 321t-70 323q-36 70 -103.5 110
t-159.5 40q-173 0 -264.5 -125t-90.5 -354q0 -336 191 -429z" />
    <glyph glyph-name="c" unicode="c" horiz-adv-x="965" 
d="M604 -24q-159 0 -276 78t-174 203.5t-57 261.5t34 240t96.5 184t161 126.5t194.5 46.5q160 0 299 -75l-39 -89q-114 64 -239 64q-171 0 -273.5 -133t-102.5 -341.5t103 -337.5t275 -129q104 0 251 64l19 -89q-47 -35 -122 -54.5t-150 -19.5z" />
    <glyph glyph-name="d" unicode="d" horiz-adv-x="1183" 
d="M561 -24q-218 0 -341 152.5t-123 412.5t126.5 417.5t333.5 157.5q102 0 204 -44t155 -137v586l120 11v-1532h-103l-18 165q-57 -93 -155 -141t-199 -48zM570 75q82 0 151.5 34t111.5 96q83 123 83 321q0 490 -360 490q-85 0 -150 -40q-64 -41 -102 -110
q-74 -135 -74 -319q0 -249 109 -377q81 -94 231 -95z" />
    <glyph glyph-name="e" unicode="e" horiz-adv-x="1093" 
d="M992 608l-1 -75h-763q2 -211 102 -334.5t264 -123.5q107 0 186 25t165 71l21 -93q-166 -102 -384 -102t-351.5 152t-133.5 407.5t130.5 415.5t337.5 165q193 0 310 -138t117 -370zM233 633h624q0 183 -79.5 282.5t-217.5 99.5t-224.5 -105.5t-102.5 -276.5z" />
    <glyph glyph-name="f" unicode="f" horiz-adv-x="638" 
d="M216 0v1005h-180l8 77l172 14v41q0 215 75.5 313.5t231.5 98.5q53 0 153 -15l-9 -82q-97 11 -130 11q-114 0 -155.5 -73.5t-41.5 -258.5v-35h267v-91h-267v-1005h-124z" />
    <glyph glyph-name="g" unicode="g" horiz-adv-x="1173" 
d="M912 198q-131 -198 -359 -198q-98 0 -178.5 35t-132 91t-86.5 128q-65 134 -65 285q0 295 155 455q119 122 331 122q105 0 185.5 -41.5t149.5 -132.5l12 154h110v-1016q0 -228 -42 -330q-18 -44 -56 -98q-38 -55 -92 -86q-129 -75 -327 -75h-201l-15 111h232
q225 0 305 108q55 74 66 155q15 109 15 178.5t-2 85.5zM566 101q76 0 135 23.5t97 61.5q40 39 66 91q48 95 48 222v114q0 160 -78 276q-85 127 -268 127q-207 0 -295 -216q-47 -115 -47 -263q0 -215 106 -337q86 -98 236 -99z" />
    <glyph glyph-name="h" unicode="h" horiz-adv-x="1149" 
d="M147 0v1521l124 11v-552q0 -8 -0.5 -9t-0.5 -11l-2 -30q134 186 384 186q357 0 357 -431v-685h-123v661q0 185 -57 269.5t-200 84.5t-238.5 -77t-117.5 -197q-2 -40 -2 -119v-622h-124z" />
    <glyph glyph-name="i" unicode="i" horiz-adv-x="445" 
d="M169 0v1096h125v-1096h-125zM169 1320v168h124v-168h-124z" />
    <glyph glyph-name="j" unicode="j" horiz-adv-x="408" 
d="M-58 -550l-19 100h49q70 0 109 10.5t56.5 45t20.5 66.5t3 70v1354h125v-1343q0 -94 -12.5 -150t-47 -91.5t-89 -48.5t-146.5 -13h-49zM161 1321v167h125v-167h-125z" />
    <glyph glyph-name="k" unicode="k" horiz-adv-x="986" 
d="M149 0v1522l123 10v-964q9 11 64 71t62 68l379 389h167l-459 -458l491 -638h-157l-419 568l-128 -118v-450h-123z" />
    <glyph glyph-name="l" unicode="l" horiz-adv-x="581" 
d="M423 -18q-139 0 -202.5 60.5t-63.5 200.5v1279l122 10v-1282q0 -99 36 -135q35 -36 113 -36t148 18l5 -96q-78 -19 -158 -19z" />
    <glyph glyph-name="m" unicode="m" horiz-adv-x="1805" 
d="M150 0q-3 994 -3 1096h108l16 -168q48 82 143.5 135t202.5 53q263 0 330 -207q117 207 369 207q180 0 264.5 -102.5t84.5 -305.5v-708h-124v536q0 212 -16 273.5t-33 98.5q-18 36 -42 58q-54 48 -160 48.5t-191 -70.5t-119 -205v-739h-123v558q1 274 -65 372
q-57 86 -181.5 85.5t-216 -75.5t-118.5 -200q-2 -41 -2 -117v-623h-124z" />
    <glyph glyph-name="n" unicode="n" horiz-adv-x="1152" 
d="M147 0v1096h108l17 -169q59 88 158.5 138.5t214.5 50.5q189 0 278 -104t89 -332v-680h-125v736q-5 147 -63 213t-196 66t-233 -77t-119 -197q-4 -47 -4 -98v-643h-125z" />
    <glyph glyph-name="o" unicode="o" horiz-adv-x="1190" 
d="M601 75q121 -1 203 63q158 121 157 407q0 212 -90 341t-274 129q-121 -1 -205 -65q-162 -124 -162 -408q0 -205 95.5 -336t275.5 -131zM862 52q-115 -76 -267 -76t-265.5 75t-173 203.5t-59.5 270.5t34.5 246.5t98.5 180.5q137 164 370 164q154 0 267 -76
q226 -151 226 -493q0 -343 -231 -495z" />
    <glyph glyph-name="p" unicode="p" horiz-adv-x="1175" 
d="M147 -488v1584h111l11 -156q77 88 156.5 132t185.5 44q234 0 350.5 -155.5t116.5 -413.5t-123 -414.5t-333 -156.5q-108 0 -204 51t-152 134q5 -123 5 -242v-398zM449 109.5q68 -34.5 159 -34.5t157 41.5t105 109.5q78 137 78 318q0 233 -113 370q-83 101 -222 101
q-215 0 -295 -183q-48 -108 -48 -245.5t17 -223t55.5 -152.5t106.5 -101.5z" />
    <glyph glyph-name="q" unicode="q" horiz-adv-x="1179" 
d="M909 -488v501q0 84 5 152q-58 -93 -158.5 -141t-222.5 -48t-227 73q-208 145 -208 483q-1 360 209 508q106 76 256 76q205 0 351 -185l8 165h111v-1577zM401.5 114.5q65.5 -39.5 156 -39.5t159.5 33.5t109 95.5q78 120 80 321q0 490 -352 490q-199 0 -281 -209
q-44 -113 -44 -234t17 -201t53.5 -148.5t102 -108z" />
    <glyph glyph-name="r" unicode="r" horiz-adv-x="715" 
d="M149 0q-2 965 -2 1096h102l8 -216q59 98 150 160t190 62q41 0 88 -7l-9 -103q-36 6 -76 6q-139 0 -233.5 -109.5t-94.5 -259.5v-629h-123z" />
    <glyph glyph-name="s" unicode="s" horiz-adv-x="950" 
d="M470 -24q-107 0 -200 25.5t-146 61.5l18 104q176 -92 312 -92t210.5 52.5t74.5 154.5q0 84 -48 136q-54 59 -220 101l-95 24q-140 34 -202 109.5t-62 181t101.5 194t274.5 88.5t325 -68l-28 -96q-170 64 -292.5 64t-189.5 -53t-67 -135t44.5 -125t171.5 -74l98 -24
q171 -42 238 -120t67 -214.5t-105.5 -215.5t-279.5 -79z" />
    <glyph glyph-name="t" unicode="t" horiz-adv-x="676" 
d="M465 -18q-140 0 -207.5 61t-67.5 200v762h-155l9 75l148 14l33 251l87 6v-255h320v-91h-320v-736q0 -116 38 -154.5t121 -38.5t167 21l5 -96q-96 -19 -178 -19z" />
    <glyph glyph-name="u" unicode="u" 
d="M546 -24q-77 0 -150.5 19t-136.5 60q-136 89 -136 295v746h124v-749q1 -158 93 -218q83 -54 215 -54q304 0 304 272v749h124v-746q-1 -240 -185 -326q-104 -48 -252 -48z" />
    <glyph glyph-name="v" unicode="v" horiz-adv-x="989" 
d="M419 0l-418 1096h133l254 -691q37 -121 92 -253l17 -41q19 64 49.5 137.5t56.5 156.5t97 256.5t155 434.5h133l-425 -1096h-144z" />
    <glyph glyph-name="w" unicode="w" horiz-adv-x="1557" 
d="M328 0l-306 1096h130l253 -979q273 878 305 979h152q299 -976 302 -976l242 976h129l-301 -1096h-144q-3 -1 -141 461t-160 543q-22 -98 -169 -551.5t-148 -452.5h-144z" />
    <glyph glyph-name="x" unicode="x" horiz-adv-x="1012" 
d="M37 0l409 555l-396 541h138l320 -452l318 452h141l-395 -545l403 -551h-133l-333 465l-332 -465h-140z" />
    <glyph glyph-name="y" unicode="y" horiz-adv-x="981" 
d="M4 -410l69 -3q126 0 189 43t112 168q6 17 31.5 86t39.5 109l-438 1103h130l373 -986l45 138q275 858 282 858q1 0 -1 -10h130q-438 -1231 -458 -1288q-69 -166 -162 -247t-248 -81q-42 0 -85 8z" />
    <glyph glyph-name="z" unicode="z" horiz-adv-x="882" 
d="M89 0v104l579 893h-569v99h699v-117l-581 -886h599v-93h-727z" />
    <glyph glyph-name="braceleft" unicode="{" horiz-adv-x="709" 
d="M613 -277q-170 1 -244.5 96t-74.5 276v160q0 203 -53 270q-51 65 -155 65v99q132 5 174 67q22 32 26 64.5t6 58t2 53.5v304q0 148 84 234.5t235 86.5v-96q-110 -1 -151.5 -60.5t-41.5 -203.5v-263q0 -165 -173 -297q129 -52 164 -211q9 -41 9 -84v-260
q0 -147 41.5 -204.5t151.5 -58.5v-96z" />
    <glyph glyph-name="bar" unicode="|" horiz-adv-x="817" 
d="M349 -413v2019h119v-2019h-119z" />
    <glyph glyph-name="braceright" unicode="}" horiz-adv-x="716" 
d="M99 -277v96q109 1 151.5 59t42.5 204v260q0 89 33.5 149t137.5 155q-130 40 -162 204q-8 42 -9 84v263q0 143 -42.5 203t-151.5 61v96q319 0 319 -373v-159q0 -176 31 -236q35 -67 95 -87q36 -12 84 -13v-99q-155 0 -191 -141q-19 -74 -19 -194v-213q0 -146 -82.5 -232
t-236.5 -87z" />
    <glyph glyph-name="asciitilde" unicode="~" horiz-adv-x="1236" 
d="M156 524l-40 79q35 90 103 145t142.5 55t124 -14.5t100.5 -38t88.5 -41.5t56.5 -26q19 -9 46 -19q50 -20 96.5 -19.5t103 52t80.5 117.5l49 -70q-38 -106 -96 -156.5t-145.5 -50.5t-194 48.5t-138.5 62.5q-94 44 -156.5 44t-122.5 -47.5t-97 -120.5z" />
    <glyph glyph-name="exclamdown" unicode="&#xa1;" horiz-adv-x="650" 
d="M235 -402v90l50 1006h66l61 -1006v-90h-177zM417.5 927q-31.5 -35 -93 -35t-92 35t-30.5 82t30.5 82.5t92 35.5t93 -35.5t31.5 -82.5t-31.5 -82z" />
    <glyph glyph-name="cent" unicode="&#xa2;" horiz-adv-x="985" 
d="M909 73q-87 -87 -264 -101v-134h-77v134q-263 23 -395 267q-76 139 -75 298q3 200 119 375q56 85 148 143.5t203 70.5v155h77v-154q85 -4 156.5 -29.5t110.5 -64.5l-41 -83q-96 64 -226 73v-948q121 12 226 81zM568 77v945q-95 -14 -172 -84.5t-119.5 -177t-42.5 -225.5
q0 -174 92.5 -304.5t241.5 -153.5z" />
    <glyph glyph-name="sterling" unicode="&#xa3;" horiz-adv-x="1124" 
d="M101 0l-9 105q185 64 185 331v260h-186v104h186v90q0 239 47 372q42 120 124 182q94 71 245 71q196 0 344 -125l-66 -87q-129 104 -283.5 104t-218.5 -110.5t-64 -319.5v-177h427v-105h-427v-169q1 -206 -37 -294q-35 -84 -111 -136q49 3 119 10.5t140 7.5h525l14 -114
h-954z" />
    <glyph glyph-name="currency" unicode="&#xa4;" horiz-adv-x="1146" 
d="M1027 234l-187 178q-117 -98 -269 -98t-265 98l-185 -177l-63 59l185 180q-86 116 -86 257t86 258l-186 182l64 59l185 -177q113 98 266 98t268 -98l187 177l61 -62l-184 -179q86 -124 86 -264t-85 -251l182 -179zM346 498.5q94 -96.5 227.5 -96.5t228 97t94.5 233
t-94.5 233.5t-228 97.5t-227.5 -97t-94 -234t94 -233.5z" />
    <glyph glyph-name="yen" unicode="&#xa5;" horiz-adv-x="1166" 
d="M501 0v338h-405v110h405v181h-406v112h335l-425 747h139l431 -783l445 783h141l-442 -747h318v-112h-405v-181h404v-110h-404v-338h-131z" />
    <glyph glyph-name="brokenbar" unicode="&#xa6;" horiz-adv-x="775" 
d="M329 -200v702h120v-702h-120zM329 850v699h120v-699h-120z" />
    <glyph glyph-name="section" unicode="&#xa7;" horiz-adv-x="853" 
d="M267 1019q-82 52 -121.5 104.5t-39.5 152t91.5 169t248 69.5t277.5 -47l-19 -90q-115 45 -232 45q-250 0 -250 -156q0 -69 59.5 -118t207.5 -108.5t213 -122t65 -158.5q0 -159 -173 -268q81 -47 121.5 -97t40.5 -131q0 -132 -104.5 -206t-278.5 -74t-282 50l15 92
q114 -52 245 -52t209.5 44t78.5 134q-1 77 -63 124q-53 40 -183 94q-166 63 -235.5 130.5t-69.5 165.5t46.5 153.5t132.5 100.5zM356 979q-69 -29 -114 -79t-45 -121.5t56 -119.5t184 -99l64 -27q156 95 156 206q0 83 -69 133q-67 49 -125.5 69t-106.5 38z" />
    <glyph glyph-name="dieresis" unicode="&#xa8;" horiz-adv-x="769" 
d="M136 1266v177h136v-177h-136zM512 1266v177h137v-177h-137z" />
    <glyph glyph-name="copyright" unicode="&#xa9;" horiz-adv-x="1886" 
d="M930 174q-209 0 -344.5 151.5t-135.5 383.5t136 380t360 148q174 0 308 -95l-24 -110q-45 41 -128 69.5t-167 28.5t-154 -34q-71 -35 -113 -94q-86 -120 -86 -301t96 -301t282 -120q69 0 146 25t116 54l36 -102q-54 -33 -147 -58t-181 -25zM757 -4q83 -20 179 -20
t195.5 28.5t186.5 87.5q88 58 154 142q142 180 142 460q0 406 -303 612q-174 118 -396 118q-215 0 -383 -115q-290 -198 -291 -608q1 -338 215 -544q120 -116 301 -161zM1161.5 -84q-115.5 -32 -237 -32t-236 32t-216.5 98.5t-178 161t-120.5 229.5t-44.5 294t44 294
t119.5 229.5t176.5 161.5q196 130 449 130q254 0 458 -132q220 -142 304 -392q46 -134 46 -292t-45 -292t-122 -229t-179.5 -162t-218 -99z" />
    <glyph glyph-name="ordfeminine" unicode="&#xaa;" horiz-adv-x="830" 
d="M486.5 921.5q-57.5 -29.5 -119.5 -29.5t-111.5 20t-86 66t-36.5 104.5t22.5 97.5t57.5 63q35 23 94 41q94 28 253 42v23q0 100 -30.5 149t-98 49t-140.5 -19t-113 -47l-37 73q118 70 287 70q101 0 164.5 -60t63.5 -193v-469h-61l-23 108q-28 -59 -85.5 -88.5zM363 968h6
q90 2 142 68.5t52 180.5v39q-119 -7 -159.5 -17.5t-73.5 -22.5q-34 -12 -52 -27q-46 -38 -46 -88v-3q3 -130 131 -130zM144 720v78h538v-78h-538z" />
    <glyph glyph-name="guillemotleft" unicode="&#xab;" horiz-adv-x="962" 
d="M391 157l-250 346l-34 50l287 406l114 -24l-271 -374l266 -379zM752 157l-292 416l294 386l95 -24l-252 -374l249 -379z" />
    <glyph glyph-name="logicalnot" unicode="&#xac;" horiz-adv-x="1197" 
d="M967 268v439h-868v110h977v-549h-109z" />
    <glyph glyph-name="uni00AD" unicode="&#xad;" horiz-adv-x="1038" 
d="M123 140v115h799v-115h-799z" />
    <glyph glyph-name="registered" unicode="&#xae;" horiz-adv-x="1865" 
d="M623 212v990h343q172 0 254 -69.5t82 -196.5q0 -90 -52 -164q-57 -82 -192 -94q49 -67 153.5 -239.5t137.5 -226.5h-135q-193 332 -273 446h-206v-446h-112zM736 754h205q130 0 189.5 36.5t59.5 140t-56 140t-203 36.5h-195v-353zM757 -4q83 -20 179 -20t195.5 28.5
t186.5 87.5q88 58 154 142q142 180 142 460q0 406 -303 612q-174 118 -396 118q-215 0 -383 -115q-290 -198 -291 -608q1 -338 215 -544q120 -116 301 -161zM1161.5 -84q-115.5 -32 -237 -32t-236 32t-216.5 98.5t-178 161t-120.5 229.5t-44.5 294t44 294t119.5 229.5
t176.5 161.5q196 130 449 130q254 0 458 -132q220 -142 304 -392q46 -134 46 -292t-45 -292t-122 -229t-179.5 -162t-218 -99z" />
    <glyph glyph-name="macron" unicode="&#xaf;" horiz-adv-x="1131" 
d="M256 1270v106h618v-106h-618z" />
    <glyph glyph-name="degree" unicode="&#xb0;" horiz-adv-x="844" 
d="M422 1011q83 0 144 58t61 162.5t-61 163.5t-144 59t-143 -58.5t-60 -163.5t60 -163t143 -58zM202.5 1010.5q-90.5 78.5 -90.5 220.5t92.5 222t218.5 80q175 0 263 -135q46 -70 46 -154t-27 -142.5t-71 -94.5q-93 -75 -217 -75t-214.5 78.5z" />
    <glyph glyph-name="plusminus" unicode="&#xb1;" horiz-adv-x="1163" 
d="M526 215v439h-431v111h430v448h107v-448h435v-111h-432v-439h-109zM95 0v121h975v-121h-975z" />
    <glyph glyph-name="uni00B2" unicode="&#xb2;" horiz-adv-x="726" 
d="M381 1400q-121 0 -201 -128l-82 31q37 89 113.5 137t176 48t176.5 -67t77 -182q1 -121 -123 -264q-66 -76 -164.5 -176.5t-143.5 -148.5h414l8 -82h-551v77q283 303 370 415t87 184.5t-47.5 114t-109.5 41.5z" />
    <glyph glyph-name="uni00B3" unicode="&#xb3;" horiz-adv-x="589" 
d="M241 1112q171 0 171 149v13q-3 60 -44 98.5t-96 38.5t-102.5 -15t-70.5 -35l-41 71q32 23 88.5 39t109.5 16t96.5 -11.5t79.5 -35.5q78 -52 78 -164q0 -120 -94 -175q-12 -7 -39 -22q153 -43 153 -206q0 -116 -69.5 -180.5t-176.5 -64.5q-152 0 -230 78l38 68
q56 -43 98 -55.5t98 -12.5t105.5 45.5t49.5 114.5q0 172 -193 172h-89v74h80z" />
    <glyph glyph-name="acute" unicode="&#xb4;" horiz-adv-x="648" 
d="M126 1287l194 387h154l-273 -387h-75z" />
    <glyph glyph-name="paragraph" unicode="&#xb6;" horiz-adv-x="1007" 
d="M495 0q-2 863 -3 863q-196 1 -306 107q-104 100 -104.5 230t105 222t301.5 92h438v-97h-72v-1417h-92v1417h-173v-1417h-94z" />
    <glyph glyph-name="periodcentered" unicode="&#xb7;" horiz-adv-x="489" 
d="M170 610v162h150v-162h-150z" />
    <glyph glyph-name="cedilla" unicode="&#xb8;" horiz-adv-x="599" 
d="M138 -410l107 421h59l-37 -421h-129z" />
    <glyph glyph-name="uni00B9" unicode="&#xb9;" horiz-adv-x="464" 
d="M90 681v66h104v643q-29 -22 -114 -72v81q94 54 122 89h85v-741h107v-66h-304z" />
    <glyph glyph-name="ordmasculine" unicode="&#xba;" horiz-adv-x="807" 
d="M252 1314q-55 -81 -55 -199t54 -197t152.5 -79t152.5 80t54 196.5t-55 198t-151.5 81.5t-151.5 -81zM178.5 1384.5q82.5 103.5 225 103.5t224.5 -105t82 -266.5t-81.5 -265t-226 -103.5t-225.5 103.5t-81 266.5t82.5 266.5z" />
    <glyph glyph-name="guillemotright" unicode="&#xbb;" horiz-adv-x="941" 
d="M192 157l-95 25l252 380l-250 373l93 24l294 -412zM564 157l-109 25l266 380l-261 373l107 24l277 -412z" />
    <glyph glyph-name="onequarter" unicode="&#xbc;" horiz-adv-x="1553" 
d="M149 681v66h104v669q-29 -22 -114 -72v81q94 54 122 89h85v-767h107v-66h-304zM1270 0v218h-375v71l375 572h93v-561h92l8 -82h-100v-218h-93zM281 0l888 1514h93l-881 -1514h-100zM995 300h275v299v128z" />
    <glyph glyph-name="onehalf" unicode="&#xbd;" horiz-adv-x="1493" 
d="M149 681v66h104v669q-29 -22 -114 -72v81q94 54 122 89h85v-767h107v-66h-304zM1192 832q-121 0 -201 -128l-82 31q37 89 113.5 137t176 48t176.5 -67t77 -182q0 -121 -124 -264q-66 -76 -164 -176.5t-143 -148.5h414l8 -82h-551v77q283 303 370 415t87 184.5t-47.5 114
t-109.5 41.5zM270 0l888 1514h93l-881 -1514h-100z" />
    <glyph glyph-name="threequarters" unicode="&#xbe;" horiz-adv-x="1606" 
d="M316 1109q171 0 171 149v13q-3 60 -44 98.5t-96 38.5t-102.5 -15t-70.5 -35l-41 71q32 23 88.5 39t109.5 16t96.5 -11.5t79.5 -35.5q78 -52 78 -164q0 -120 -94 -175q-12 -7 -39 -22q153 -43 153 -206q0 -116 -69.5 -180.5t-176.5 -64.5q-152 0 -230 78l38 68
q56 -43 98 -55.5t98 -12.5t105.5 45.5t49.5 114.5q0 172 -193 172h-89v74h80zM1340 0v218h-375v71l375 572h93v-561h92l8 -82h-100v-218h-93zM351 0l888 1514h93l-881 -1514h-100zM1065 300h275v299v128z" />
    <glyph glyph-name="questiondown" unicode="&#xbf;" horiz-adv-x="794" 
d="M99 0zM295 -220q62 -64 180.5 -64t248.5 80l34 -96q-60 -42 -150 -66.5t-161 -24.5q-162 0 -255 98t-93 246q0 126 86 279q40 70 84 140q124 194 193 359h65q1 -8 1 -16q1 -96 -97 -270q-44 -80 -90 -162q-109 -198 -109 -317q0 -121 63 -186zM402 1098q25 29 75.5 29
t76 -29t25.5 -67.5t-25.5 -67.5t-76 -29t-75.5 28.5t-25 67.5t25 68z" />
    <glyph glyph-name="Agrave" unicode="&#xc0;" horiz-adv-x="1276" 
d="M6 0zM602 1677l-276 387h158l191 -387h-73zM6 0l581 1488h123l560 -1488h-132l-190 505h-617l-198 -505h-127zM380 599h522q-225 646 -255 760q-24 -88 -207 -592z" />
    <glyph glyph-name="Aacute" unicode="&#xc1;" horiz-adv-x="1276" 
d="M6 0zM600 1677l194 387h154l-273 -387h-75zM6 0l581 1488h123l560 -1488h-132l-190 505h-617l-198 -505h-127zM380 599h522q-225 646 -255 760q-24 -88 -207 -592z" />
    <glyph glyph-name="Acircumflex" unicode="&#xc2;" horiz-adv-x="1276" 
d="M6 0zM372 1677l168 359h192l171 -359h-91l-175 295l-176 -295h-89zM6 0l581 1488h123l560 -1488h-132l-190 505h-617l-198 -505h-127zM380 599h522q-225 646 -255 760q-24 -88 -207 -592z" />
    <glyph glyph-name="Atilde" unicode="&#xc3;" horiz-adv-x="1276" 
d="M6 0zM353 1677q3 107 44.5 146.5t101 39.5t156.5 -48t117 -48t31 9t17 27q9 26 12 60h91q-4 -101 -39.5 -143.5t-90.5 -42.5t-160.5 51.5t-128.5 51.5q-53 0 -61 -103h-90zM6 0l581 1488h123l560 -1488h-132l-190 505h-617l-198 -505h-127zM380 599h522
q-225 646 -255 760q-24 -88 -207 -592z" />
    <glyph glyph-name="Adieresis" unicode="&#xc4;" horiz-adv-x="1276" 
d="M6 0zM382 1677v177h136v-177h-136zM758 1677v177h137v-177h-137zM6 0l581 1488h123l560 -1488h-132l-190 505h-617l-198 -505h-127zM380 599h522q-225 646 -255 760q-24 -88 -207 -592z" />
    <glyph glyph-name="Aring" unicode="&#xc5;" horiz-adv-x="1276" 
d="M6 0zM640 1573q38 0 65.5 28.5t27.5 78.5q-1 50 -28.5 78.5t-65.5 28.5t-65.5 -28.5t-27.5 -79t28 -78.5t66 -28zM767.5 1548.5q-53.5 -46.5 -127.5 -46.5t-129.5 47.5t-55.5 131.5t54 130.5t128.5 46.5t129 -47.5t54.5 -131.5t-53.5 -130.5zM6 0l581 1488h123l560 -1488
h-132l-190 505h-617l-198 -505h-127zM380 599h522q-225 646 -255 760q-24 -88 -207 -592z" />
    <glyph glyph-name="AE" unicode="&#xc6;" horiz-adv-x="1915" 
d="M6 0l886 1488h894l-7 -111h-719l41 -555h643v-109h-635l49 -602h643l-11 -111h-737l-39 505h-573l-293 -505h-142zM495 600h511l-56 778z" />
    <glyph glyph-name="Ccedilla" unicode="&#xc7;" horiz-adv-x="1286" 
d="M118 0zM542 -431l107 421h59l-37 -421h-129zM813 -24q-171 0 -305 58q-134 60 -218 164q-172 212 -172 551q0 222 81.5 393.5t243.5 271.5t394 100t403 -102l-61 -99q-156 94 -352 94q-137 0 -246 -51.5t-179 -142.5q-142 -187 -142 -471q0 -279 134 -462
q68 -92 180 -144.5t263.5 -52.5t344.5 87l26 -103q-146 -91 -395 -91z" />
    <glyph glyph-name="Egrave" unicode="&#xc8;" horiz-adv-x="1142" 
d="M182 0zM568 1677l-276 387h158l191 -387h-73zM182 0v1488h829l-5 -106h-696v-560h662v-109h-662v-606h718l-11 -107h-835z" />
    <glyph glyph-name="Eacute" unicode="&#xc9;" horiz-adv-x="1142" 
d="M182 0zM568 1677l194 387h154l-273 -387h-75zM182 0v1488h829l-5 -106h-696v-560h662v-109h-662v-606h718l-11 -107h-835z" />
    <glyph glyph-name="Ecircumflex" unicode="&#xca;" horiz-adv-x="1142" 
d="M182 0zM340 1677l168 359h192l171 -359h-91l-175 295l-176 -295h-89zM182 0v1488h829l-5 -106h-696v-560h662v-109h-662v-606h718l-11 -107h-835z" />
    <glyph glyph-name="Edieresis" unicode="&#xcb;" horiz-adv-x="1142" 
d="M182 0zM348 1677v177h136v-177h-136zM724 1677v177h137v-177h-137zM182 0v1488h829l-5 -106h-696v-560h662v-109h-662v-606h718l-11 -107h-835z" />
    <glyph glyph-name="Igrave" unicode="&#xcc;" horiz-adv-x="514" 
d="M0 0zM220 1677l-276 387h158l191 -387h-73zM193 0v1488h128v-1488h-128z" />
    <glyph glyph-name="Iacute" unicode="&#xcd;" horiz-adv-x="514" 
d="M193 0zM220 1677l194 387h154l-273 -387h-75zM193 0v1488h128v-1488h-128z" />
    <glyph glyph-name="Icircumflex" unicode="&#xce;" horiz-adv-x="514" 
d="M0 0zM-8 1677l168 359h192l171 -359h-91l-175 295l-176 -295h-89zM193 0v1488h128v-1488h-128z" />
    <glyph glyph-name="Idieresis" unicode="&#xcf;" horiz-adv-x="514" 
d="M0 0zM0 1677v177h136v-177h-136zM376 1677v177h137v-177h-137zM193 0v1488h128v-1488h-128z" />
    <glyph glyph-name="Eth" unicode="&#xd0;" horiz-adv-x="1498" 
d="M310 107h292q310 0 472.5 158.5t162.5 472.5q0 344 -179 498q-171 146 -485 146h-263v-549h242v-96h-242v-630zM182 0v737h-142v96h142v655h403q366 0 575 -174q220 -184 220 -560t-201 -565t-563 -189h-434z" />
    <glyph glyph-name="Eth" unicode="&#x110;" horiz-adv-x="1498" 
d="M310 107h292q310 0 472.5 158.5t162.5 472.5q0 344 -179 498q-171 146 -485 146h-263v-549h242v-96h-242v-630zM182 0v737h-142v96h142v655h403q366 0 575 -174q220 -184 220 -560t-201 -565t-563 -189h-434z" />
    <glyph glyph-name="Ntilde" unicode="&#xd1;" horiz-adv-x="1499" 
d="M182 0zM464 1677q3 107 44.5 146.5t101 39.5t156.5 -48t117 -48t31 9t17 27q9 26 12 60h91q-4 -101 -39.5 -143.5t-90.5 -42.5t-160.5 51.5t-128.5 51.5q-53 0 -61 -103h-90zM182 0v1488h149l819 -1255l53 -73q-7 308 -7 383v945h121v-1488h-152l-817 1253l-51 73
q8 -225 8 -388v-938h-123z" />
    <glyph glyph-name="Ograve" unicode="&#xd2;" horiz-adv-x="1627" 
d="M118 0zM777 1677l-276 387h158l191 -387h-73zM815 83q274 0 413 177t139 489t-140 485t-412 173t-414.5 -172.5t-142.5 -489.5q0 -417 246 -579q126 -84 311 -83zM815 -24q-226 0 -385 100q-312 195 -312 668q0 354 182.5 562t512.5 208t513 -209.5t183 -561.5
q1 -335 -175 -547q-86 -104 -219 -162t-300 -58z" />
    <glyph glyph-name="Oacute" unicode="&#xd3;" horiz-adv-x="1627" 
d="M118 0zM776 1677l194 387h154l-273 -387h-75zM815 83q274 0 413 177t139 489t-140 485t-412 173t-414.5 -172.5t-142.5 -489.5q0 -417 246 -579q126 -84 311 -83zM815 -24q-226 0 -385 100q-312 195 -312 668q0 354 182.5 562t512.5 208t513 -209.5t183 -561.5
q1 -335 -175 -547q-86 -104 -219 -162t-300 -58z" />
    <glyph glyph-name="Ocircumflex" unicode="&#xd4;" horiz-adv-x="1627" 
d="M118 0zM548 1677l168 359h192l171 -359h-91l-175 295l-176 -295h-89zM815 83q274 0 413 177t139 489t-140 485t-412 173t-414.5 -172.5t-142.5 -489.5q0 -417 246 -579q126 -84 311 -83zM815 -24q-226 0 -385 100q-312 195 -312 668q0 354 182.5 562t512.5 208
t513 -209.5t183 -561.5q1 -335 -175 -547q-86 -104 -219 -162t-300 -58z" />
    <glyph glyph-name="Otilde" unicode="&#xd5;" horiz-adv-x="1627" 
d="M118 0zM528 1677q3 107 44.5 146.5t101 39.5t156.5 -48t117 -48t31 9t17 27q9 26 12 60h91q-4 -101 -39.5 -143.5t-90.5 -42.5t-160.5 51.5t-128.5 51.5q-53 0 -61 -103h-90zM815 83q274 0 413 177t139 489t-140 485t-412 173t-414.5 -172.5t-142.5 -489.5
q0 -417 246 -579q126 -84 311 -83zM815 -24q-226 0 -385 100q-312 195 -312 668q0 354 182.5 562t512.5 208t513 -209.5t183 -561.5q1 -335 -175 -547q-86 -104 -219 -162t-300 -58z" />
    <glyph glyph-name="Odieresis" unicode="&#xd6;" horiz-adv-x="1627" 
d="M118 0zM557 1677v177h136v-177h-136zM933 1677v177h137v-177h-137zM815 83q274 0 413 177t139 489t-140 485t-412 173t-414.5 -172.5t-142.5 -489.5q0 -417 246 -579q126 -84 311 -83zM815 -24q-226 0 -385 100q-312 195 -312 668q0 354 182.5 562t512.5 208t513 -209.5
t183 -561.5q1 -335 -175 -547q-86 -104 -219 -162t-300 -58z" />
    <glyph glyph-name="multiply" unicode="&#xd7;" horiz-adv-x="1101" 
d="M864 261l-307 308l-308 -307l-77 77l308 307l-307 308l77 77l307 -308l308 307l77 -77l-308 -307l307 -308z" />
    <glyph glyph-name="Oslash" unicode="&#xd8;" horiz-adv-x="1627" 
d="M480 -229l-89 37l96 236q-181 86 -275 268.5t-94 423.5t79.5 414t238 270t380.5 97q137 0 254 -40l93 229l94 -33l-96 -236q168 -90 258 -270t90 -424q1 -336 -175 -547q-86 -103 -219 -161t-282 -58t-255 33zM530 150l499 1226q-97 34 -213 34q-272 0 -415 -174
t-143 -491q0 -212 68.5 -365.5t203.5 -229.5zM815 82q183 0 309 84q242 162 242.5 586t-248.5 580l-499 -1221q89 -29 196 -29z" />
    <glyph glyph-name="Ugrave" unicode="&#xd9;" horiz-adv-x="1408" 
d="M157 0zM668 1677l-276 387h158l191 -387h-73zM707 83q416 0 416 415v990h128v-973q0 -247 -127 -389q-135 -150 -425 -150q-413 0 -512 321q-30 97 -30 220v971h128v-991q0 -213 104.5 -313.5t317.5 -100.5z" />
    <glyph glyph-name="Uacute" unicode="&#xda;" horiz-adv-x="1408" 
d="M157 0zM666 1677l194 387h154l-273 -387h-75zM707 83q416 0 416 415v990h128v-973q0 -247 -127 -389q-135 -150 -425 -150q-413 0 -512 321q-30 97 -30 220v971h128v-991q0 -213 104.5 -313.5t317.5 -100.5z" />
    <glyph glyph-name="Ucircumflex" unicode="&#xdb;" horiz-adv-x="1408" 
d="M157 0zM438 1677l168 359h192l171 -359h-91l-175 295l-176 -295h-89zM707 83q416 0 416 415v990h128v-973q0 -247 -127 -389q-135 -150 -425 -150q-413 0 -512 321q-30 97 -30 220v971h128v-991q0 -213 104.5 -313.5t317.5 -100.5z" />
    <glyph glyph-name="Udieresis" unicode="&#xdc;" horiz-adv-x="1408" 
d="M157 0zM448 1677v177h136v-177h-136zM824 1677v177h137v-177h-137zM707 83q416 0 416 415v990h128v-973q0 -247 -127 -389q-135 -150 -425 -150q-413 0 -512 321q-30 97 -30 220v971h128v-991q0 -213 104.5 -313.5t317.5 -100.5z" />
    <glyph glyph-name="Yacute" unicode="&#xdd;" horiz-adv-x="1166" 
d="M5 0zM546 1677l194 387h154l-273 -387h-75zM501 0v589l-496 899h139l431 -785l445 785h141l-529 -895v-593h-131z" />
    <glyph glyph-name="Thorn" unicode="&#xde;" horiz-adv-x="1275" 
d="M182 0v1488h128v-297h369q281 0 409 -95.5t128 -330.5q0 -230 -148 -331q-115 -78 -330 -78h-428v-356h-128zM310 458h434q195 0 272 94q69 85 69 208q-1 124 -35 190q-71 135 -355 135h-385v-627z" />
    <glyph glyph-name="germandbls" unicode="&#xdf;" horiz-adv-x="1205" 
d="M123 0v1060q0 233 107 360.5t312.5 127.5t309.5 -93t104 -250q0 -129 -92 -205q-37 -31 -110.5 -74t-103.5 -62q64 -53 165 -114t156 -102.5t93 -81.5q86 -92 86 -215q0 -351 -367 -351h-367l12 108h379q102 0 160.5 67.5t58.5 171.5q0 98 -118 195q-91 75 -190 135.5
t-115.5 72t-31 22t-21 15t-15.5 13t-13 14.5q-10 15 -10 32q0 59 64 99q25 16 67.5 40.5t64 37.5t50.5 35q29 24 43 44q35 51 35 116q0 105 -69 168t-200 63q-241 0 -299 -224q-16 -64 -17 -143v-1082h-128z" />
    <glyph glyph-name="agrave" unicode="&#xe0;" horiz-adv-x="1077" 
d="M99 0zM476 1279l-276 387h158l191 -387h-73zM440 -24q-155 0 -248 78t-93 223q1 173 145 253q133 75 371 92q128 8 190 13v122q0 127 -58 193t-184 66q-172 0 -329 -86l-35 92q62 40 162 67t196 27q197 0 283 -84.5t86 -299.5v-732h-97q-5 23 -14.5 91t-9.5 70
q-129 -185 -365 -185zM223 275q0 -200 235 -200q114 0 213.5 75.5t130.5 209.5v187q-144 -12 -145 -12q-244 -22 -339 -80t-95 -180z" />
    <glyph glyph-name="aacute" unicode="&#xe1;" horiz-adv-x="1077" 
d="M99 0zM475 1279l194 387h154l-273 -387h-75zM440 -24q-155 0 -248 78t-93 223q1 173 145 253q133 75 371 92q128 8 190 13v122q0 127 -58 193t-184 66q-172 0 -329 -86l-35 92q62 40 162 67t196 27q197 0 283 -84.5t86 -299.5v-732h-97q-5 23 -14.5 91t-9.5 70
q-129 -185 -365 -185zM223 275q0 -200 235 -200q114 0 213.5 75.5t130.5 209.5v187q-144 -12 -145 -12q-244 -22 -339 -80t-95 -180z" />
    <glyph glyph-name="acircumflex" unicode="&#xe2;" horiz-adv-x="1077" 
d="M99 0zM247 1279l168 359h192l171 -359h-91l-175 295l-176 -295h-89zM440 -24q-155 0 -248 78t-93 223q1 173 145 253q133 75 371 92q128 8 190 13v122q0 127 -58 193t-184 66q-172 0 -329 -86l-35 92q62 40 162 67t196 27q197 0 283 -84.5t86 -299.5v-732h-97
q-5 23 -14.5 91t-9.5 70q-129 -185 -365 -185zM223 275q0 -200 235 -200q114 0 213.5 75.5t130.5 209.5v187q-144 -12 -145 -12q-244 -22 -339 -80t-95 -180z" />
    <glyph glyph-name="atilde" unicode="&#xe3;" horiz-adv-x="1077" 
d="M99 0zM228 1279q3 107 44.5 146.5t101 39.5t156.5 -48t117 -48t31 9t17 27q9 26 12 60h91q-4 -101 -39.5 -143.5t-90.5 -42.5t-160.5 51.5t-128.5 51.5q-53 0 -61 -103h-90zM440 -24q-155 0 -248 78t-93 223q1 173 145 253q133 75 371 92q128 8 190 13v122q0 127 -58 193
t-184 66q-172 0 -329 -86l-35 92q62 40 162 67t196 27q197 0 283 -84.5t86 -299.5v-732h-97q-5 23 -14.5 91t-9.5 70q-129 -185 -365 -185zM223 275q0 -200 235 -200q114 0 213.5 75.5t130.5 209.5v187q-144 -12 -145 -12q-244 -22 -339 -80t-95 -180z" />
    <glyph glyph-name="adieresis" unicode="&#xe4;" horiz-adv-x="1077" 
d="M99 0zM256 1279v177h136v-177h-136zM632 1279v177h137v-177h-137zM440 -24q-155 0 -248 78t-93 223q1 173 145 253q133 75 371 92q128 8 190 13v122q0 127 -58 193t-184 66q-172 0 -329 -86l-35 92q62 40 162 67t196 27q197 0 283 -84.5t86 -299.5v-732h-97
q-5 23 -14.5 91t-9.5 70q-129 -185 -365 -185zM223 275q0 -200 235 -200q114 0 213.5 75.5t130.5 209.5v187q-144 -12 -145 -12q-244 -22 -339 -80t-95 -180z" />
    <glyph glyph-name="aring" unicode="&#xe5;" horiz-adv-x="1077" 
d="M99 0zM514 1350q38 0 65.5 28.5t27.5 78.5q-1 50 -28.5 78.5t-65.5 28.5t-65.5 -28.5t-27.5 -79t28 -78.5t66 -28zM641.5 1325.5q-53.5 -46.5 -127.5 -46.5t-129.5 47.5t-55.5 131.5t54 130.5t128.5 46.5t129 -47.5t54.5 -131.5t-53.5 -130.5zM440 -24q-155 0 -248 78
t-93 223q1 173 145 253q133 75 371 92q128 8 190 13v122q0 127 -58 193t-184 66q-172 0 -329 -86l-35 92q62 40 162 67t196 27q197 0 283 -84.5t86 -299.5v-732h-97q-5 23 -14.5 91t-9.5 70q-129 -185 -365 -185zM223 275q0 -200 235 -200q114 0 213.5 75.5t130.5 209.5v187
q-144 -12 -145 -12q-244 -22 -339 -80t-95 -180z" />
    <glyph glyph-name="ae" unicode="&#xe6;" horiz-adv-x="1650" 
d="M657.5 9.5q-120.5 -33.5 -202.5 -33.5t-138 16q-58 14 -108 48q-110 73 -109 249q0 252 344 301q105 15 243 17h53v196q0 206 -189 206q-203 0 -361 -96l-43 106q57 37 169.5 67.5t185.5 30.5t122.5 -13t97 -39t79.5 -72t37 -104q36 83 97 135q109 94 265 93
q215 -1 303 -195q44 -98 44 -200t-57.5 -146.5t-195.5 -45.5q-369 -17 -424 -17h-4q7 -204 86.5 -321t239.5 -117q102 0 176 24.5t168 75.5l21 -100q-137 -99 -373 -99q-187 0 -303 119q-103 -52 -223.5 -85.5zM286 124q62 -49 186.5 -49t350.5 90q-45 89 -64.5 167
t-25.5 183q-367 1 -459 -93q-31 -32 -40.5 -63.5t-9.5 -76.5q0 -109 62 -158zM869 607q405 12 456.5 16t76 23.5t24.5 66.5q0 139 -60 218.5t-169 79.5q-195 0 -278 -180q-43 -94 -50 -224z" />
    <glyph glyph-name="ccedilla" unicode="&#xe7;" horiz-adv-x="965" 
d="M97 0zM353 -431l107 421h59l-37 -421h-129zM604 -24q-159 0 -276 78t-174 203.5t-57 261.5t34 240t96.5 184t161 126.5t194.5 46.5q160 0 299 -75l-39 -89q-114 64 -239 64q-171 0 -273.5 -133t-102.5 -341.5t103 -337.5t275 -129q104 0 251 64l19 -89
q-47 -35 -122 -54.5t-150 -19.5z" />
    <glyph glyph-name="egrave" unicode="&#xe8;" horiz-adv-x="1093" 
d="M97 0zM508 1279l-276 387h158l191 -387h-73zM992 608l-1 -75h-763q2 -211 102 -334.5t264 -123.5q107 0 186 25t165 71l21 -93q-166 -102 -384 -102t-351.5 152t-133.5 407.5t130.5 415.5t337.5 165q193 0 310 -138t117 -370zM233 633h624q0 183 -79.5 282.5t-217.5 99.5
t-224.5 -105.5t-102.5 -276.5z" />
    <glyph glyph-name="eacute" unicode="&#xe9;" horiz-adv-x="1093" 
d="M97 0zM507 1279l194 387h154l-273 -387h-75zM992 608l-1 -75h-763q2 -211 102 -334.5t264 -123.5q107 0 186 25t165 71l21 -93q-166 -102 -384 -102t-351.5 152t-133.5 407.5t130.5 415.5t337.5 165q193 0 310 -138t117 -370zM233 633h624q0 183 -79.5 282.5t-217.5 99.5
t-224.5 -105.5t-102.5 -276.5z" />
    <glyph glyph-name="ecircumflex" unicode="&#xea;" horiz-adv-x="1093" 
d="M97 0zM279 1279l168 359h192l171 -359h-91l-175 295l-176 -295h-89zM992 608l-1 -75h-763q2 -211 102 -334.5t264 -123.5q107 0 186 25t165 71l21 -93q-166 -102 -384 -102t-351.5 152t-133.5 407.5t130.5 415.5t337.5 165q193 0 310 -138t117 -370zM233 633h624
q0 183 -79.5 282.5t-217.5 99.5t-224.5 -105.5t-102.5 -276.5z" />
    <glyph glyph-name="edieresis" unicode="&#xeb;" horiz-adv-x="1093" 
d="M97 0zM288 1279v177h136v-177h-136zM664 1279v177h137v-177h-137zM992 608l-1 -75h-763q2 -211 102 -334.5t264 -123.5q107 0 186 25t165 71l21 -93q-166 -102 -384 -102t-351.5 152t-133.5 407.5t130.5 415.5t337.5 165q193 0 310 -138t117 -370zM233 633h624
q0 183 -79.5 282.5t-217.5 99.5t-224.5 -105.5t-102.5 -276.5z" />
    <glyph glyph-name="igrave" unicode="&#xec;" horiz-adv-x="376" 
d="M0 0zM164 1279l-276 387h158l191 -387h-73zM138 0v1096h125v-1096h-125z" />
    <glyph glyph-name="iacute" unicode="&#xed;" horiz-adv-x="376" 
d="M138 0zM163 1279l194 387h154l-273 -387h-75zM138 0v1096h125v-1096h-125z" />
    <glyph glyph-name="icircumflex" unicode="&#xee;" horiz-adv-x="376" 
d="M0 0zM-65 1279l168 359h192l171 -359h-91l-175 295l-176 -295h-89zM138 0v1096h125v-1096h-125z" />
    <glyph glyph-name="idieresis" unicode="&#xef;" horiz-adv-x="376" 
d="M0 0zM-56 1279v177h136v-177h-136zM320 1279v177h137v-177h-137zM138 0v1096h125v-1096h-125z" />
    <glyph glyph-name="eth" unicode="&#xf0;" horiz-adv-x="1194" 
d="M817 14q-98 -42 -208 -42t-191.5 28.5t-138.5 77.5q-58 50 -98 116q-80 130 -79 293q0 216 134 349.5t351 133.5q164 0 292 -109q16 -14 51 -45q-46 84 -157.5 211.5t-217.5 224.5l-282 -119l-26 96l237 95l-251 222h158l189 -172l289 126l29 -92l-248 -109
q93 -97 125 -129.5t69 -73t60 -69.5t52.5 -70.5t47.5 -77t38 -81.5q21 -46 31 -90q24 -104 24 -209v-7q0 -216 -122 -364q-60 -72 -158 -114zM599 72q175 0 275 114.5t100 285.5q-1 146 -97 268q-46 58 -120 95t-174 37t-183.5 -55t-125 -141t-41.5 -175t22.5 -162
t66 -133.5t115.5 -97t162 -36.5z" />
    <glyph glyph-name="ntilde" unicode="&#xf1;" horiz-adv-x="1152" 
d="M147 0zM294 1279q3 107 44.5 146.5t101 39.5t156.5 -48t117 -48t31 9t17 27q9 26 12 60h91q-4 -101 -39.5 -143.5t-90.5 -42.5t-160.5 51.5t-128.5 51.5q-53 0 -61 -103h-90zM147 0v1096h108l17 -169q59 88 158.5 138.5t214.5 50.5q189 0 278 -104t89 -332v-680h-125v736
q-5 147 -63 213t-196 66t-233 -77t-119 -197q-4 -47 -4 -98v-643h-125z" />
    <glyph glyph-name="ograve" unicode="&#xf2;" horiz-adv-x="1190" 
d="M97 0zM558 1279l-276 387h158l191 -387h-73zM601 75q121 -1 203 63q158 121 157 407q0 212 -90 341t-274 129q-121 -1 -205 -65q-162 -124 -162 -408q0 -205 95.5 -336t275.5 -131zM862 52q-115 -76 -267 -76t-265.5 75t-173 203.5t-59.5 270.5t34.5 246.5t98.5 180.5
q137 164 370 164q154 0 267 -76q226 -151 226 -493q0 -343 -231 -495z" />
    <glyph glyph-name="oacute" unicode="&#xf3;" horiz-adv-x="1190" 
d="M97 0zM558 1279l194 387h154l-273 -387h-75zM601 75q121 -1 203 63q158 121 157 407q0 212 -90 341t-274 129q-121 -1 -205 -65q-162 -124 -162 -408q0 -205 95.5 -336t275.5 -131zM862 52q-115 -76 -267 -76t-265.5 75t-173 203.5t-59.5 270.5t34.5 246.5t98.5 180.5
q137 164 370 164q154 0 267 -76q226 -151 226 -493q0 -343 -231 -495z" />
    <glyph glyph-name="ocircumflex" unicode="&#xf4;" horiz-adv-x="1190" 
d="M97 0zM330 1279l168 359h192l171 -359h-91l-175 295l-176 -295h-89zM601 75q121 -1 203 63q158 121 157 407q0 212 -90 341t-274 129q-121 -1 -205 -65q-162 -124 -162 -408q0 -205 95.5 -336t275.5 -131zM862 52q-115 -76 -267 -76t-265.5 75t-173 203.5t-59.5 270.5
t34.5 246.5t98.5 180.5q137 164 370 164q154 0 267 -76q226 -151 226 -493q0 -343 -231 -495z" />
    <glyph glyph-name="otilde" unicode="&#xf5;" horiz-adv-x="1190" 
d="M97 0zM310 1279q3 107 44.5 146.5t101 39.5t156.5 -48t117 -48t31 9t17 27q9 26 12 60h91q-4 -101 -39.5 -143.5t-90.5 -42.5t-160.5 51.5t-128.5 51.5q-53 0 -61 -103h-90zM601 75q121 -1 203 63q158 121 157 407q0 212 -90 341t-274 129q-121 -1 -205 -65
q-162 -124 -162 -408q0 -205 95.5 -336t275.5 -131zM862 52q-115 -76 -267 -76t-265.5 75t-173 203.5t-59.5 270.5t34.5 246.5t98.5 180.5q137 164 370 164q154 0 267 -76q226 -151 226 -493q0 -343 -231 -495z" />
    <glyph glyph-name="odieresis" unicode="&#xf6;" horiz-adv-x="1190" 
d="M97 0zM338 1279v177h136v-177h-136zM714 1279v177h137v-177h-137zM601 75q121 -1 203 63q158 121 157 407q0 212 -90 341t-274 129q-121 -1 -205 -65q-162 -124 -162 -408q0 -205 95.5 -336t275.5 -131zM862 52q-115 -76 -267 -76t-265.5 75t-173 203.5t-59.5 270.5
t34.5 246.5t98.5 180.5q137 164 370 164q154 0 267 -76q226 -151 226 -493q0 -343 -231 -495z" />
    <glyph glyph-name="divide" unicode="&#xf7;" horiz-adv-x="1099" 
d="M446 82v202h191v-202h-191zM60 554v121h957v-121h-957zM446 913v202h191v-202h-191z" />
    <glyph glyph-name="oslash" unicode="&#xf8;" horiz-adv-x="1190" 
d="M284 -311l-64 28l131 321q-120 69 -187 203t-67 280t34.5 250.5t98.5 180.5q137 164 370 164q94 0 178 -30l132 324l69 -24l-135 -331q119 -68 184 -202.5t65 -302t-58 -295.5t-173 -203.5t-270 -75.5q-94 0 -178 31zM392 139l347 851q-64 25 -163 25q-100 -1 -184 -65
q-162 -124 -162 -408q0 -132 41 -238t121 -165zM454 104q66 -29 166 -29q102 -1 184 63q158 121 157.5 411.5t-159.5 405.5z" />
    <glyph glyph-name="ugrave" unicode="&#xf9;" 
d="M123 0zM516 1279l-276 387h158l191 -387h-73zM546 -24q-77 0 -150.5 19t-136.5 60q-136 89 -136 295v746h124v-749q1 -158 93 -218q83 -54 215 -54q304 0 304 272v749h124v-746q-1 -240 -185 -326q-104 -48 -252 -48z" />
    <glyph glyph-name="uacute" unicode="&#xfa;" 
d="M123 0zM516 1279l194 387h154l-273 -387h-75zM546 -24q-77 0 -150.5 19t-136.5 60q-136 89 -136 295v746h124v-749q1 -158 93 -218q83 -54 215 -54q304 0 304 272v749h124v-746q-1 -240 -185 -326q-104 -48 -252 -48z" />
    <glyph glyph-name="ucircumflex" unicode="&#xfb;" 
d="M123 0zM288 1279l168 359h192l171 -359h-91l-175 295l-176 -295h-89zM546 -24q-77 0 -150.5 19t-136.5 60q-136 89 -136 295v746h124v-749q1 -158 93 -218q83 -54 215 -54q304 0 304 272v749h124v-746q-1 -240 -185 -326q-104 -48 -252 -48z" />
    <glyph glyph-name="udieresis" unicode="&#xfc;" 
d="M123 0zM296 1279v177h136v-177h-136zM672 1279v177h137v-177h-137zM546 -24q-77 0 -150.5 19t-136.5 60q-136 89 -136 295v746h124v-749q1 -158 93 -218q83 -54 215 -54q304 0 304 272v749h124v-746q-1 -240 -185 -326q-104 -48 -252 -48z" />
    <glyph glyph-name="yacute" unicode="&#xfd;" horiz-adv-x="981" 
d="M4 0zM448 1279l194 387h154l-273 -387h-75zM4 -410l69 -3q126 0 189 43t112 168q6 17 31.5 86t39.5 109l-438 1103h130l373 -986l45 138q275 858 282 858q1 0 -1 -10h130q-438 -1231 -458 -1288q-69 -166 -162 -247t-248 -81q-42 0 -85 8z" />
    <glyph glyph-name="thorn" unicode="&#xfe;" horiz-adv-x="1175" 
d="M147 -488v2002h124v-607q41 79 129.5 143.5t210.5 65.5q222 0 344.5 -150t122.5 -406q0 -350 -202 -504q-104 -80 -229.5 -79.5t-224.5 52.5t-151 154v-662zM453.5 118.5q70.5 -40.5 150 -40.5t131 22.5t86.5 61.5t60.5 87.5t39.5 104.5q27 108 27 183t-7 122.5
t-21.5 99.5t-41.5 96q-28 43 -65 79q-80 76 -214 77q-199 0 -282 -192q-47 -109 -47 -231t17.5 -204.5t56.5 -153.5t109.5 -111.5z" />
    <glyph glyph-name="ydieresis" unicode="&#xff;" horiz-adv-x="981" 
d="M4 0zM228 1279v177h136v-177h-136zM604 1279v177h137v-177h-137zM4 -410l69 -3q126 0 189 43t112 168q6 17 31.5 86t39.5 109l-438 1103h130l373 -986l45 138q275 858 282 858q1 0 -1 -10h130q-438 -1231 -458 -1288q-69 -166 -162 -247t-248 -81q-42 0 -85 8z" />
    <glyph glyph-name="Amacron" unicode="&#x100;" horiz-adv-x="1276" 
d="M6 0zM329 1677v106h618v-106h-618zM6 0l581 1488h123l560 -1488h-132l-190 505h-617l-198 -505h-127zM380 599h522q-225 646 -255 760q-24 -88 -207 -592z" />
    <glyph glyph-name="amacron" unicode="&#x101;" horiz-adv-x="1077" 
d="M99 0zM204 1279v106h618v-106h-618zM440 -24q-155 0 -248 78t-93 223q1 173 145 253q133 75 371 92q128 8 190 13v122q0 127 -58 193t-184 66q-172 0 -329 -86l-35 92q62 40 162 67t196 27q197 0 283 -84.5t86 -299.5v-732h-97q-5 23 -14.5 91t-9.5 70
q-129 -185 -365 -185zM223 275q0 -200 235 -200q114 0 213.5 75.5t130.5 209.5v187q-144 -12 -145 -12q-244 -22 -339 -80t-95 -180z" />
    <glyph glyph-name="Abreve" unicode="&#x102;" horiz-adv-x="1276" 
d="M6 0zM802 1744q-68 -67 -166 -67t-164.5 66.5t-66.5 185.5h92q0 -86 36 -130t102 -44t103.5 44t37.5 130h94q0 -118 -68 -185zM6 0l581 1488h123l560 -1488h-132l-190 505h-617l-198 -505h-127zM380 599h522q-225 646 -255 760q-24 -88 -207 -592z" />
    <glyph glyph-name="abreve" unicode="&#x103;" horiz-adv-x="1077" 
d="M99 0zM677 1346q-68 -67 -166 -67t-164.5 66.5t-66.5 185.5h92q0 -86 36 -130t102 -44t103.5 44t37.5 130h94q0 -118 -68 -185zM440 -24q-155 0 -248 78t-93 223q1 173 145 253q133 75 371 92q128 8 190 13v122q0 127 -58 193t-184 66q-172 0 -329 -86l-35 92
q62 40 162 67t196 27q197 0 283 -84.5t86 -299.5v-732h-97q-5 23 -14.5 91t-9.5 70q-129 -185 -365 -185zM223 275q0 -200 235 -200q114 0 213.5 75.5t130.5 209.5v187q-144 -12 -145 -12q-244 -22 -339 -80t-95 -180z" />
    <glyph glyph-name="Aogonek" unicode="&#x104;" horiz-adv-x="1276" 
d="M6 0zM1253 -394q-74 -29 -148 -29t-126.5 48.5t-52.5 130.5q0 127 213 244h95q-104 -79 -155 -131.5t-51 -97.5t29.5 -69.5t61 -24.5t43.5 1q32 3 91 29v-101zM6 0l581 1488h123l560 -1488h-132l-190 505h-617l-198 -505h-127zM380 599h522q-225 646 -255 760
q-24 -88 -207 -592z" />
    <glyph glyph-name="aogonek" unicode="&#x105;" horiz-adv-x="1077" 
d="M99 0zM945 -394q-74 -29 -148 -29t-126.5 48.5t-52.5 130.5q0 127 213 244h95q-104 -79 -155 -131.5t-51 -97.5t29.5 -69.5t61 -24.5t43.5 1q32 3 91 29v-101zM440 -24q-155 0 -248 78t-93 223q1 173 145 253q133 75 371 92q128 8 190 13v122q0 127 -58 193t-184 66
q-172 0 -329 -86l-35 92q62 40 162 67t196 27q197 0 283 -84.5t86 -299.5v-732h-97q-5 23 -14.5 91t-9.5 70q-129 -185 -365 -185zM223 275q0 -200 235 -200q114 0 213.5 75.5t130.5 209.5v187q-144 -12 -145 -12q-244 -22 -339 -80t-95 -180z" />
    <glyph glyph-name="Cacute" unicode="&#x106;" horiz-adv-x="1286" 
d="M118 0zM642 1677l194 387h154l-273 -387h-75zM813 -24q-171 0 -305 58q-134 60 -218 164q-172 212 -172 551q0 222 81.5 393.5t243.5 271.5t394 100t403 -102l-61 -99q-156 94 -352 94q-137 0 -246 -51.5t-179 -142.5q-142 -187 -142 -471q0 -279 134 -462
q68 -92 180 -144.5t263.5 -52.5t344.5 87l26 -103q-146 -91 -395 -91z" />
    <glyph glyph-name="cacute" unicode="&#x107;" horiz-adv-x="965" 
d="M97 0zM452 1279l194 387h154l-273 -387h-75zM604 -24q-159 0 -276 78t-174 203.5t-57 261.5t34 240t96.5 184t161 126.5t194.5 46.5q160 0 299 -75l-39 -89q-114 64 -239 64q-171 0 -273.5 -133t-102.5 -341.5t103 -337.5t275 -129q104 0 251 64l19 -89
q-47 -35 -122 -54.5t-150 -19.5z" />
    <glyph glyph-name="Ccircumflex" unicode="&#x108;" horiz-adv-x="1286" 
d="M118 0zM414 1677l168 359h192l171 -359h-91l-175 295l-176 -295h-89zM813 -24q-171 0 -305 58q-134 60 -218 164q-172 212 -172 551q0 222 81.5 393.5t243.5 271.5t394 100t403 -102l-61 -99q-156 94 -352 94q-137 0 -246 -51.5t-179 -142.5q-142 -187 -142 -471
q0 -279 134 -462q68 -92 180 -144.5t263.5 -52.5t344.5 87l26 -103q-146 -91 -395 -91z" />
    <glyph glyph-name="ccircumflex" unicode="&#x109;" horiz-adv-x="965" 
d="M97 0zM224 1279l168 359h192l171 -359h-91l-175 295l-176 -295h-89zM604 -24q-159 0 -276 78t-174 203.5t-57 261.5t34 240t96.5 184t161 126.5t194.5 46.5q160 0 299 -75l-39 -89q-114 64 -239 64q-171 0 -273.5 -133t-102.5 -341.5t103 -337.5t275 -129q104 0 251 64
l19 -89q-47 -35 -122 -54.5t-150 -19.5z" />
    <glyph glyph-name="Cdotaccent" unicode="&#x10a;" horiz-adv-x="1286" 
d="M118 0zM595 1677v168h167v-168h-167zM813 -24q-171 0 -305 58q-134 60 -218 164q-172 212 -172 551q0 222 81.5 393.5t243.5 271.5t394 100t403 -102l-61 -99q-156 94 -352 94q-137 0 -246 -51.5t-179 -142.5q-142 -187 -142 -471q0 -279 134 -462q68 -92 180 -144.5
t263.5 -52.5t344.5 87l26 -103q-146 -91 -395 -91z" />
    <glyph glyph-name="cdotaccent" unicode="&#x10b;" horiz-adv-x="965" 
d="M97 0zM406 1279v168h167v-168h-167zM604 -24q-159 0 -276 78t-174 203.5t-57 261.5t34 240t96.5 184t161 126.5t194.5 46.5q160 0 299 -75l-39 -89q-114 64 -239 64q-171 0 -273.5 -133t-102.5 -341.5t103 -337.5t275 -129q104 0 251 64l19 -89q-47 -35 -122 -54.5
t-150 -19.5z" />
    <glyph glyph-name="Ccaron" unicode="&#x10c;" horiz-adv-x="1286" 
d="M118 0zM585 1677l-171 359h91l175 -295l176 295h89l-168 -359h-192zM813 -24q-171 0 -305 58q-134 60 -218 164q-172 212 -172 551q0 222 81.5 393.5t243.5 271.5t394 100t403 -102l-61 -99q-156 94 -352 94q-137 0 -246 -51.5t-179 -142.5q-142 -187 -142 -471
q0 -279 134 -462q68 -92 180 -144.5t263.5 -52.5t344.5 87l26 -103q-146 -91 -395 -91z" />
    <glyph glyph-name="ccaron" unicode="&#x10d;" horiz-adv-x="965" 
d="M97 0zM395 1279l-171 359h91l175 -295l176 295h89l-168 -359h-192zM604 -24q-159 0 -276 78t-174 203.5t-57 261.5t34 240t96.5 184t161 126.5t194.5 46.5q160 0 299 -75l-39 -89q-114 64 -239 64q-171 0 -273.5 -133t-102.5 -341.5t103 -337.5t275 -129q104 0 251 64
l19 -89q-47 -35 -122 -54.5t-150 -19.5z" />
    <glyph glyph-name="Dcaron" unicode="&#x10e;" horiz-adv-x="1498" 
d="M182 0zM687 1677l-171 359h91l175 -295l176 295h89l-168 -359h-192zM310 107h292q310 0 472.5 158.5t162.5 472.5q0 344 -179 498q-171 146 -485 146h-263v-1275zM182 0v1488h403q366 0 575 -174q220 -184 220 -560t-201 -565t-563 -189h-434z" />
    <glyph glyph-name="dcaron" unicode="&#x10f;" horiz-adv-x="1183" 
d="M97 0zM1280 1022l80 510h129v-41q-41 -178 -137 -469h-72zM561 -24q-218 0 -341 152.5t-123 412.5t126.5 417.5t333.5 157.5q102 0 204 -44t155 -137v586l120 11v-1532h-103l-18 165q-57 -93 -155 -141t-199 -48zM570 75q82 0 151.5 34t111.5 96q83 123 83 321
q0 490 -360 490q-85 0 -150 -40q-64 -41 -102 -110q-74 -135 -74 -319q0 -249 109 -377q81 -94 231 -95z" />
    <glyph glyph-name="dcroat" unicode="&#x111;" horiz-adv-x="1183" 
d="M659 1254v81h257v186l120 11v-197h102v-81h-102v-1254h-103l-18 165q-57 -93 -154.5 -140.5t-199.5 -47.5q-219 0 -341.5 152t-122.5 412t126.5 417.5t333.5 157.5q102 0 204 -44t155 -137v319h-257zM570 75q82 0 151.5 34t111.5 96q83 123 83 321q0 489 -360 489
q-85 0 -150 -41q-64 -40 -102 -108q-74 -134 -74 -319q0 -249 109 -377q81 -94 231 -95z" />
    <glyph glyph-name="Emacron" unicode="&#x112;" horiz-adv-x="1142" 
d="M182 0zM296 1677v106h618v-106h-618zM182 0v1488h829l-5 -106h-696v-560h662v-109h-662v-606h718l-11 -107h-835z" />
    <glyph glyph-name="emacron" unicode="&#x113;" horiz-adv-x="1093" 
d="M97 0zM236 1279v106h618v-106h-618zM992 608l-1 -75h-763q2 -211 102 -334.5t264 -123.5q107 0 186 25t165 71l21 -93q-166 -102 -384 -102t-351.5 152t-133.5 407.5t130.5 415.5t337.5 165q193 0 310 -138t117 -370zM233 633h624q0 183 -79.5 282.5t-217.5 99.5
t-224.5 -105.5t-102.5 -276.5z" />
    <glyph glyph-name="Eogonek" unicode="&#x118;" horiz-adv-x="1142" 
d="M182 0zM829 -394q-74 -29 -148 -29t-126.5 48.5t-52.5 130.5q0 127 213 244h95q-104 -79 -155 -131.5t-51 -97.5t29.5 -69.5t61 -24.5t43.5 1q32 3 91 29v-101zM182 0v1488h829l-5 -106h-696v-560h662v-109h-662v-606h718l-11 -107h-835z" />
    <glyph glyph-name="eogonek" unicode="&#x119;" horiz-adv-x="1093" 
d="M97 0zM765 -404q-74 -29 -148 -29t-126.5 48.5t-52.5 130.5q0 127 213 244h95q-104 -79 -155 -131.5t-51 -97.5t29.5 -69.5t61 -24.5t43.5 1q32 3 91 29v-101zM992 608l-1 -75h-763q2 -211 102 -334.5t264 -123.5q107 0 186 25t165 71l21 -93q-166 -102 -384 -102
t-351.5 152t-133.5 407.5t130.5 415.5t337.5 165q193 0 310 -138t117 -370zM233 633h624q0 183 -79.5 282.5t-217.5 99.5t-224.5 -105.5t-102.5 -276.5z" />
    <glyph glyph-name="Ecaron" unicode="&#x11a;" horiz-adv-x="1142" 
d="M182 0zM511 1677l-171 359h91l175 -295l176 295h89l-168 -359h-192zM182 0v1488h829l-5 -106h-696v-560h662v-109h-662v-606h718l-11 -107h-835z" />
    <glyph glyph-name="ecaron" unicode="&#x11b;" horiz-adv-x="1093" 
d="M97 0zM450 1279l-171 359h91l175 -295l176 295h89l-168 -359h-192zM992 608l-1 -75h-763q2 -211 102 -334.5t264 -123.5q107 0 186 25t165 71l21 -93q-166 -102 -384 -102t-351.5 152t-133.5 407.5t130.5 415.5t337.5 165q193 0 310 -138t117 -370zM233 633h624
q0 183 -79.5 282.5t-217.5 99.5t-224.5 -105.5t-102.5 -276.5z" />
    <glyph glyph-name="Gcircumflex" unicode="&#x11c;" horiz-adv-x="1469" 
d="M118 0zM458 1677l168 359h192l171 -359h-91l-175 295l-176 -295h-89zM1091.5 1q-114.5 -25 -277 -25t-298 59.5t-221.5 163.5q-177 214 -177 541q0 225 84 398.5t250.5 274.5t405.5 101t433 -115l-57 -103q-82 50 -185.5 80.5t-225 30.5t-235.5 -52q-115 -51 -186 -143
q-144 -186 -144 -470q0 -302 148 -476q154 -182 458 -183q157 0 346 75v476h-369l8 111h480v-656q-123 -63 -237.5 -88z" />
    <glyph glyph-name="gcircumflex" unicode="&#x11d;" horiz-adv-x="1173" 
d="M91 0zM297 1279l168 359h192l171 -359h-91l-175 295l-176 -295h-89zM912 198q-131 -198 -359 -198q-98 0 -178.5 35t-132 91t-86.5 128q-65 134 -65 285q0 295 155 455q119 122 331 122q105 0 185.5 -41.5t149.5 -132.5l12 154h110v-1016q0 -228 -42 -330
q-18 -44 -56 -98q-38 -55 -92 -86q-129 -75 -327 -75h-201l-15 111h232q225 0 305 108q55 74 66 155q15 109 15 178.5t-2 85.5zM566 101q76 0 135 23.5t97 61.5q40 39 66 91q48 95 48 222v114q0 160 -78 276q-85 127 -268 127q-207 0 -295 -216q-47 -115 -47 -263
q0 -215 106 -337q86 -98 236 -99z" />
    <glyph glyph-name="Gbreve" unicode="&#x11e;" horiz-adv-x="1469" 
d="M118 0zM888 1744q-68 -67 -166 -67t-164.5 66.5t-66.5 185.5h92q0 -86 36 -130t102 -44t103.5 44t37.5 130h94q0 -118 -68 -185zM1091.5 1q-114.5 -25 -277 -25t-298 59.5t-221.5 163.5q-177 214 -177 541q0 225 84 398.5t250.5 274.5t405.5 101t433 -115l-57 -103
q-82 50 -185.5 80.5t-225 30.5t-235.5 -52q-115 -51 -186 -143q-144 -186 -144 -470q0 -302 148 -476q154 -182 458 -183q157 0 346 75v476h-369l8 111h480v-656q-123 -63 -237.5 -88z" />
    <glyph glyph-name="gbreve" unicode="&#x11f;" horiz-adv-x="1173" 
d="M91 0zM727 1346q-68 -67 -166 -67t-164.5 66.5t-66.5 185.5h92q0 -86 36 -130t102 -44t103.5 44t37.5 130h94q0 -118 -68 -185zM912 198q-131 -198 -359 -198q-98 0 -178.5 35t-132 91t-86.5 128q-65 134 -65 285q0 295 155 455q119 122 331 122q105 0 185.5 -41.5
t149.5 -132.5l12 154h110v-1016q0 -228 -42 -330q-18 -44 -56 -98q-38 -55 -92 -86q-129 -75 -327 -75h-201l-15 111h232q225 0 305 108q55 74 66 155q15 109 15 178.5t-2 85.5zM566 101q76 0 135 23.5t97 61.5q40 39 66 91q48 95 48 222v114q0 160 -78 276
q-85 127 -268 127q-207 0 -295 -216q-47 -115 -47 -263q0 -215 106 -337q86 -98 236 -99z" />
    <glyph glyph-name="Gdotaccent" unicode="&#x120;" horiz-adv-x="1469" 
d="M118 0zM640 1677v168h167v-168h-167zM1091.5 1q-114.5 -25 -277 -25t-298 59.5t-221.5 163.5q-177 214 -177 541q0 225 84 398.5t250.5 274.5t405.5 101t433 -115l-57 -103q-82 50 -185.5 80.5t-225 30.5t-235.5 -52q-115 -51 -186 -143q-144 -186 -144 -470
q0 -302 148 -476q154 -182 458 -183q157 0 346 75v476h-369l8 111h480v-656q-123 -63 -237.5 -88z" />
    <glyph glyph-name="gdotaccent" unicode="&#x121;" horiz-adv-x="1173" 
d="M91 0zM479 1279v168h167v-168h-167zM912 198q-131 -198 -359 -198q-98 0 -178.5 35t-132 91t-86.5 128q-65 134 -65 285q0 295 155 455q119 122 331 122q105 0 185.5 -41.5t149.5 -132.5l12 154h110v-1016q0 -228 -42 -330q-18 -44 -56 -98q-38 -55 -92 -86
q-129 -75 -327 -75h-201l-15 111h232q225 0 305 108q55 74 66 155q15 109 15 178.5t-2 85.5zM566 101q76 0 135 23.5t97 61.5q40 39 66 91q48 95 48 222v114q0 160 -78 276q-85 127 -268 127q-207 0 -295 -216q-47 -115 -47 -263q0 -215 106 -337q86 -98 236 -99z" />
    <glyph glyph-name="Gcommaaccent" unicode="&#x122;" horiz-adv-x="1469" 
d="M118 0zM604 -690h77l163 503h-141zM1091.5 1q-114.5 -25 -277 -25t-298 59.5t-221.5 163.5q-177 214 -177 541q0 225 84 398.5t250.5 274.5t405.5 101t433 -115l-57 -103q-82 50 -185.5 80.5t-225 30.5t-235.5 -52q-115 -51 -186 -143q-144 -186 -144 -470
q0 -302 148 -476q154 -182 458 -183q157 0 346 75v476h-369l8 111h480v-656q-123 -63 -237.5 -88z" />
    <glyph glyph-name="gcommaaccent" unicode="&#x123;" horiz-adv-x="1150" 
d="M508 1275l165 487h98l-110 -487h-153zM912 198q-131 -198 -359 -198q-98 0 -178.5 35t-132 91t-86.5 128q-65 134 -65 285q0 295 155 455q119 122 331 122q105 0 185.5 -41.5t149.5 -132.5l12 154h110v-1016q0 -228 -42 -330q-18 -44 -56 -98q-38 -55 -92 -86
q-129 -75 -327 -75h-201l-15 111h232q225 0 305 108q55 74 66 155q15 109 15 178.5t-2 85.5zM566 101q76 0 135 23.5t97 61.5q40 39 66 91q48 95 48 222v114q0 160 -78 276q-85 127 -268 127q-207 0 -295 -216q-47 -115 -47 -263q0 -215 106 -337q86 -98 236 -99z" />
    <glyph glyph-name="Hcircumflex" unicode="&#x124;" horiz-adv-x="1474" 
d="M182 0zM472 1677l168 359h192l171 -359h-91l-175 295l-176 -295h-89zM182 0v1488h128v-658h854v658h128v-1488h-128v718h-854v-718h-128z" />
    <glyph glyph-name="hcircumflex" unicode="&#x125;" horiz-adv-x="1149" 
d="M147 0zM312 1695l168 359h192l171 -359h-91l-175 295l-176 -295h-89zM147 0v1521l124 11v-552q0 -8 -0.5 -9t-0.5 -11l-2 -30q134 186 384 186q357 0 357 -431v-685h-123v661q0 185 -57 269.5t-200 84.5t-238.5 -77t-117.5 -197q-2 -40 -2 -119v-622h-124z" />
    <glyph glyph-name="Hbar" unicode="&#x126;" horiz-adv-x="1450" 
d="M155 0v1125h-93v87h93v309h135v-309h872v309h135v-309h92v-87h-92v-1125h-135v721h-872v-721h-135zM290 845h872v280h-872v-280z" />
    <glyph glyph-name="hbar" unicode="&#x127;" horiz-adv-x="1077" 
d="M652 1127q315 0 315 -465v-662h-128v593q0 183 -20 255q-21 72 -47 102q-56 64 -172 65q-136 1 -242 -91q-100 -87 -112 -174v-750h-129v1300h-89v103h89v83l129 21v-104h266v-103h-266v-367q148 194 406 194z" />
    <glyph glyph-name="Itilde" unicode="&#x128;" horiz-adv-x="514" 
d="M0 0zM-28 1677q3 107 44.5 146.5t101 39.5t156.5 -48t117 -48t31 9t17 27q9 26 12 60h91q-4 -101 -39.5 -143.5t-90.5 -42.5t-160.5 51.5t-128.5 51.5q-53 0 -61 -103h-90zM193 0v1488h128v-1488h-128z" />
    <glyph glyph-name="itilde" unicode="&#x129;" horiz-adv-x="376" 
d="M0 0zM-84 1279q3 107 44.5 146.5t101 39.5t156.5 -48t117 -48t31 9t17 27q9 26 12 60h91q-4 -101 -39.5 -143.5t-90.5 -42.5t-160.5 51.5t-128.5 51.5q-53 0 -61 -103h-90zM138 0v1096h125v-1096h-125z" />
    <glyph glyph-name="Imacron" unicode="&#x12a;" horiz-adv-x="514" 
d="M0 0zM-52 1677v106h618v-106h-618zM193 0v1488h128v-1488h-128z" />
    <glyph glyph-name="imacron" unicode="&#x12b;" horiz-adv-x="376" 
d="M0 0zM-108 1279v106h618v-106h-618zM138 0v1096h125v-1096h-125z" />
    <glyph glyph-name="Ibreve" unicode="&#x12c;" horiz-adv-x="514" 
d="M25 0zM422 1744q-68 -67 -166 -67t-164.5 66.5t-66.5 185.5h92q0 -86 36 -130t102 -44t103.5 44t37.5 130h94q0 -118 -68 -185zM193 0v1488h128v-1488h-128z" />
    <glyph glyph-name="ibreve" unicode="&#x12d;" horiz-adv-x="376" 
d="M0 0zM365 1346q-68 -67 -166 -67t-164.5 66.5t-66.5 185.5h92q0 -86 36 -130t102 -44t103.5 44t37.5 130h94q0 -118 -68 -185zM138 0v1096h125v-1096h-125z" />
    <glyph glyph-name="Iogonek" unicode="&#x12e;" horiz-adv-x="514" 
d="M0 0zM307 -394q-74 -29 -148 -29t-126.5 48.5t-52.5 130.5q0 127 213 244h95q-104 -79 -155 -131.5t-51 -97.5t29.5 -69.5t61 -24.5t43.5 1q32 3 91 29v-101zM193 0v1488h128v-1488h-128z" />
    <glyph glyph-name="iogonek" unicode="&#x12f;" horiz-adv-x="445" 
d="M0 0zM284 -394q-74 -29 -148 -29t-126.5 48.5t-52.5 130.5q0 127 213 244h95q-104 -79 -155 -131.5t-51 -97.5t29.5 -69.5t61 -24.5t43.5 1q32 3 91 29v-101zM169 0v1096h125v-1096h-125zM169 1320v168h124v-168h-124z" />
    <glyph glyph-name="Idotaccent" unicode="&#x130;" horiz-adv-x="514" 
d="M180 0zM180 1616v185h153v-185h-153zM193 0v1488h128v-1488h-128z" />
    <glyph glyph-name="dotlessi" unicode="&#x131;" horiz-adv-x="376" 
d="M138 0v1096h125v-1096h-125z" />
    <glyph glyph-name="IJ" unicode="&#x132;" horiz-adv-x="1026" 
d="M193 0zM193 0v1488h128v-1488h-128zM515 -138l-9 94h48q74 0 114 20q80 41 80 240v1272h133v-1185q0 -199 -10 -234.5t-21.5 -70.5t-29.5 -50.5t-44 -35.5q-27 -22 -62 -30q-84 -20 -187 -20h-12z" />
    <glyph glyph-name="ij" unicode="&#x133;" horiz-adv-x="853" 
d="M169 0zM169 0v1096h125v-1096h-125zM169 1320v168h124v-168h-124zM387 -550l-19 100h49q70 0 109 10.5t56.5 45t20.5 66.5t3 70v1354h125v-1343q0 -94 -12.5 -150t-47 -91.5t-89 -48.5t-146.5 -13h-49zM606 1321v167h125v-167h-125z" />
    <glyph glyph-name="Jcircumflex" unicode="&#x134;" horiz-adv-x="512" 
d="M0 0zM-86 1677l168 359h192l171 -359h-91l-175 295l-176 -295h-89zM1 -138l-9 94h48q74 0 114 20q80 41 80 240v1272h133v-1185q0 -199 -10 -234.5t-21.5 -70.5t-29.5 -50.5t-44 -35.5q-27 -22 -62 -30q-84 -20 -187 -20h-12z" />
    <glyph glyph-name="jcircumflex" unicode="&#x135;" horiz-adv-x="406" 
d="M0 0zM-164 1279l168 359h192l171 -359h-91l-175 295l-176 -295h-89zM-63 -594l-29 121h59q100 -1 134 25q14 10 23.5 18.5t16 27.5t9.5 31q2 12 4 39q2 45 3 95v1341h137v-1400q0 -93 -12 -147.5t-46.5 -90t-90 -48t-150.5 -12.5h-58z" />
    <glyph glyph-name="Kcommaaccent" unicode="&#x136;" horiz-adv-x="1224" 
d="M182 0zM584 -666h77l163 503h-141zM182 0v1488h129v-769q44 49 116 129q329 363 478 528l101 112h169l-621 -671l672 -817h-163l-607 739l-145 -136v-603h-129z" />
    <glyph glyph-name="kcommaaccent" unicode="&#x137;" horiz-adv-x="986" 
d="M149 0zM442 -666h77l163 503h-141zM149 0v1522l123 10v-964q9 11 64 71t62 68l379 389h167l-459 -458l491 -638h-157l-419 568l-128 -118v-450h-123z" />
    <glyph glyph-name="kgreenlandic" unicode="&#x138;" horiz-adv-x="986" 
d="M149 0v1096h123v-555q9 11 64 71t62 68l379 416h167l-459 -485l491 -611h-157l-419 541l-128 -118v-423h-123z" />
    <glyph glyph-name="Lacute" unicode="&#x139;" horiz-adv-x="998" 
d="M182 0zM544 1677l194 387h154l-273 -387h-75zM182 0v1488h129v-1375h669l-6 -113h-792z" />
    <glyph glyph-name="lacute" unicode="&#x13a;" horiz-adv-x="581" 
d="M157 0zM332 1695l194 387h154l-273 -387h-75zM423 -18q-139 0 -202.5 60.5t-63.5 200.5v1279l122 10v-1282q0 -99 36 -135q35 -36 113 -36t148 18l5 -96q-78 -19 -158 -19z" />
    <glyph glyph-name="Lcommaaccent" unicode="&#x13b;" horiz-adv-x="998" 
d="M182 0zM461 -666h77l163 503h-141zM182 0v1488h129v-1375h669l-6 -113h-792z" />
    <glyph glyph-name="lcommaaccent" unicode="&#x13c;" horiz-adv-x="581" 
d="M157 0zM249 -684h77l163 503h-141zM423 -18q-139 0 -202.5 60.5t-63.5 200.5v1279l122 10v-1282q0 -99 36 -135q35 -36 113 -36t148 18l5 -96q-78 -19 -158 -19z" />
    <glyph glyph-name="Lcaron" unicode="&#x13d;" horiz-adv-x="998" 
d="M182 0zM1224 1004l80 510h129v-41q-41 -178 -137 -469h-72zM182 0v1488h129v-1375h669l-6 -113h-792z" />
    <glyph glyph-name="lcaron" unicode="&#x13e;" horiz-adv-x="581" 
d="M734 1082l138 450h136l-170 -450h-104zM423 -18q-139 0 -202.5 60.5t-63.5 200.5v1279l122 10v-1282q0 -99 36 -135q35 -36 113 -36t148 18l5 -96q-78 -19 -158 -19z" />
    <glyph glyph-name="Ldot" unicode="&#x13f;" horiz-adv-x="998" 
d="M182 0zM497 658h168v198h-168v-198zM182 0v1488h129v-1375h669l-6 -113h-792z" />
    <glyph glyph-name="ldot" unicode="&#x140;" horiz-adv-x="1049" 
d="M157 0zM731 561h168v198h-168v-198zM423 -18q-139 0 -202.5 60.5t-63.5 200.5v1279l122 10v-1282q0 -99 36 -135q35 -36 113 -36t148 18l5 -96q-78 -19 -158 -19z" />
    <glyph glyph-name="Lslash" unicode="&#x141;" horiz-adv-x="998" 
d="M9 545v124l173 88v731h129v-665l342 175v-131l-342 -171v-583h669l-6 -113h-792v632z" />
    <glyph glyph-name="lslash" unicode="&#x142;" horiz-adv-x="548" 
d="M579 -12q-109 -13 -165 -13t-85.5 3t-53.5 12.5t-42 19t-32 30.5t-23.5 39t-16 53t-10 63t-5.5 79q-3 76 -3 200v19l-112 -99v120l112 99v874l129 20v-778l184 163v-122l-184 -162v-256q0 -160 18 -201.5t29 -49t25 -14.5q21 -11 55.5 -11t164.5 12z" />
    <glyph glyph-name="Nacute" unicode="&#x143;" horiz-adv-x="1499" 
d="M182 0zM712 1677l194 387h154l-273 -387h-75zM182 0v1488h149l819 -1255l53 -73q-7 308 -7 383v945h121v-1488h-152l-817 1253l-51 73q8 -225 8 -388v-938h-123z" />
    <glyph glyph-name="nacute" unicode="&#x144;" horiz-adv-x="1152" 
d="M147 0zM542 1279l194 387h154l-273 -387h-75zM147 0v1096h108l17 -169q59 88 158.5 138.5t214.5 50.5q189 0 278 -104t89 -332v-680h-125v736q-5 147 -63 213t-196 66t-233 -77t-119 -197q-4 -47 -4 -98v-643h-125z" />
    <glyph glyph-name="Ncommaaccent" unicode="&#x145;" horiz-adv-x="1499" 
d="M182 0zM630 -666h77l163 503h-141zM182 0v1488h149l819 -1255l53 -73q-7 308 -7 383v945h121v-1488h-152l-817 1253l-51 73q8 -225 8 -388v-938h-123z" />
    <glyph glyph-name="ncommaaccent" unicode="&#x146;" horiz-adv-x="1152" 
d="M147 0zM460 -666h77l163 503h-141zM147 0v1096h108l17 -169q59 88 158.5 138.5t214.5 50.5q189 0 278 -104t89 -332v-680h-125v736q-5 147 -63 213t-196 66t-233 -77t-119 -197q-4 -47 -4 -98v-643h-125z" />
    <glyph glyph-name="Ncaron" unicode="&#x147;" horiz-adv-x="1499" 
d="M182 0zM655 1677l-171 359h91l175 -295l176 295h89l-168 -359h-192zM182 0v1488h149l819 -1255l53 -73q-7 308 -7 383v945h121v-1488h-152l-817 1253l-51 73q8 -225 8 -388v-938h-123z" />
    <glyph glyph-name="ncaron" unicode="&#x148;" horiz-adv-x="1152" 
d="M147 0zM485 1279l-171 359h91l175 -295l176 295h89l-168 -359h-192zM147 0v1096h108l17 -169q59 88 158.5 138.5t214.5 50.5q189 0 278 -104t89 -332v-680h-125v736q-5 147 -63 213t-196 66t-233 -77t-119 -197q-4 -47 -4 -98v-643h-125z" />
    <glyph glyph-name="Omacron" unicode="&#x14c;" horiz-adv-x="1627" 
d="M118 0zM504 1677v106h618v-106h-618zM815 83q274 0 413 177t139 489t-140 485t-412 173t-414.5 -172.5t-142.5 -489.5q0 -417 246 -579q126 -84 311 -83zM815 -24q-226 0 -385 100q-312 195 -312 668q0 354 182.5 562t512.5 208t513 -209.5t183 -561.5q1 -335 -175 -547
q-86 -104 -219 -162t-300 -58z" />
    <glyph glyph-name="omacron" unicode="&#x14d;" horiz-adv-x="1190" 
d="M97 0zM286 1279v106h618v-106h-618zM601 75q121 -1 203 63q158 121 157 407q0 212 -90 341t-274 129q-121 -1 -205 -65q-162 -124 -162 -408q0 -205 95.5 -336t275.5 -131zM862 52q-115 -76 -267 -76t-265.5 75t-173 203.5t-59.5 270.5t34.5 246.5t98.5 180.5
q137 164 370 164q154 0 267 -76q226 -151 226 -493q0 -343 -231 -495z" />
    <glyph glyph-name="Obreve" unicode="&#x14e;" horiz-adv-x="1627" 
d="M118 0zM978 1744q-68 -67 -166 -67t-164.5 66.5t-66.5 185.5h92q0 -86 36 -130t102 -44t103.5 44t37.5 130h94q0 -118 -68 -185zM815 83q274 0 413 177t139 489t-140 485t-412 173t-414.5 -172.5t-142.5 -489.5q0 -417 246 -579q126 -84 311 -83zM815 -24
q-226 0 -385 100q-312 195 -312 668q0 354 182.5 562t512.5 208t513 -209.5t183 -561.5q1 -335 -175 -547q-86 -104 -219 -162t-300 -58z" />
    <glyph glyph-name="obreve" unicode="&#x14f;" horiz-adv-x="1190" 
d="M97 0zM760 1346q-68 -67 -166 -67t-164.5 66.5t-66.5 185.5h92q0 -86 36 -130t102 -44t103.5 44t37.5 130h94q0 -118 -68 -185zM601 75q121 -1 203 63q158 121 157 407q0 212 -90 341t-274 129q-121 -1 -205 -65q-162 -124 -162 -408q0 -205 95.5 -336t275.5 -131z
M862 52q-115 -76 -267 -76t-265.5 75t-173 203.5t-59.5 270.5t34.5 246.5t98.5 180.5q137 164 370 164q154 0 267 -76q226 -151 226 -493q0 -343 -231 -495z" />
    <glyph glyph-name="Ohungarumlaut" unicode="&#x150;" horiz-adv-x="1627" 
d="M118 0zM671 1677l176 318h120l-213 -318h-83zM868 1677l182 318h115l-209 -318h-88zM815 83q274 0 413 177t139 489t-140 485t-412 173t-414.5 -172.5t-142.5 -489.5q0 -417 246 -579q126 -84 311 -83zM815 -24q-226 0 -385 100q-312 195 -312 668q0 354 182.5 562
t512.5 208t513 -209.5t183 -561.5q1 -335 -175 -547q-86 -104 -219 -162t-300 -58z" />
    <glyph glyph-name="ohungarumlaut" unicode="&#x151;" horiz-adv-x="1190" 
d="M97 0zM452 1279l176 318h120l-213 -318h-83zM649 1279l182 318h115l-209 -318h-88zM601 75q121 -1 203 63q158 121 157 407q0 212 -90 341t-274 129q-121 -1 -205 -65q-162 -124 -162 -408q0 -205 95.5 -336t275.5 -131zM862 52q-115 -76 -267 -76t-265.5 75t-173 203.5
t-59.5 270.5t34.5 246.5t98.5 180.5q137 164 370 164q154 0 267 -76q226 -151 226 -493q0 -343 -231 -495z" />
    <glyph glyph-name="OE" unicode="&#x152;" horiz-adv-x="1949" 
d="M817 -23q-521 0 -657 475q-42 147 -42 322t51.5 312t141.5 230.5t216 145.5t253 52q244 0 359 -79v53h674l-16 -106h-530v-560h491v-109h-491v-606h568l-14 -107h-682v60q-19 -23 -130.5 -53t-191.5 -30zM819 82q184 0 320 93v1143q-135 89 -332 89q-254 0 -401.5 -165.5
t-147.5 -470.5q0 -379 174 -553q136 -136 387 -136z" />
    <glyph glyph-name="oe" unicode="&#x153;" horiz-adv-x="1930" 
d="M1836 608l-1 -75h-753q2 -211 102 -334.5t264 -123.5q100 0 153 19q53 18 72 26q32 12 116 59l21 -101q-85 -52 -168.5 -77t-217.5 -25t-243 75t-162 213q-55 -135 -165.5 -211.5t-263.5 -76.5t-265 75t-170 203.5t-58 291.5t57.5 291t171.5 203.5t269 75.5t263 -76.5
t162 -211.5q53 134 156 209.5t243 78.5q192 0 304.5 -137.5t112.5 -370.5zM594 75q91 0 160 36q70 37 112 101q84 128 85 333q0 207 -83 335q-88 136 -277 135q-120 -1 -203 -65q-158 -123 -158 -408q0 -202 88 -330q93 -136 276 -137zM1087 633h614v11q-2 179 -77 273
t-212 94t-223 -104t-102 -274z" />
    <glyph glyph-name="Racute" unicode="&#x154;" horiz-adv-x="1333" 
d="M182 0zM670 1677l194 387h154l-273 -387h-75zM182 0v1488h424q256 0 368 -42q102 -38 146 -112q51 -84 51 -220.5t-67 -234.5t-205 -133q60 -123 90 -187l244 -559h-149l-210 509q-21 50 -94 216q-20 -3 -148 -3l-322 6v-728h-128zM310 831q235 -3 405.5 -3t249.5 69.5
t79 207t-71.5 207t-243.5 69.5h-419v-550z" />
    <glyph glyph-name="racute" unicode="&#x155;" horiz-adv-x="715" 
d="M147 0zM378 1279l194 387h154l-273 -387h-75zM149 0q-2 965 -2 1096h102l8 -216q59 98 150 160t190 62q41 0 88 -7l-9 -103q-36 6 -76 6q-139 0 -233.5 -109.5t-94.5 -259.5v-629h-123z" />
    <glyph glyph-name="Rcommaaccent" unicode="&#x156;" horiz-adv-x="1333" 
d="M182 0zM588 -666h77l163 503h-141zM182 0v1488h424q256 0 368 -42q102 -38 146 -112q51 -84 51 -220.5t-67 -234.5t-205 -133q60 -123 90 -187l244 -559h-149l-210 509q-21 50 -94 216q-20 -3 -148 -3l-322 6v-728h-128zM310 831q235 -3 405.5 -3t249.5 69.5t79 207
t-71.5 207t-243.5 69.5h-419v-550z" />
    <glyph glyph-name="rcommaaccent" unicode="&#x157;" horiz-adv-x="715" 
d="M147 0zM296 -666h77l163 503h-141zM149 0q-2 965 -2 1096h102l8 -216q59 98 150 160t190 62q41 0 88 -7l-9 -103q-36 6 -76 6q-139 0 -233.5 -109.5t-94.5 -259.5v-629h-123z" />
    <glyph glyph-name="Rcaron" unicode="&#x158;" horiz-adv-x="1333" 
d="M182 0zM613 1677l-171 359h91l175 -295l176 295h89l-168 -359h-192zM182 0v1488h424q256 0 368 -42q102 -38 146 -112q51 -84 51 -220.5t-67 -234.5t-205 -133q60 -123 90 -187l244 -559h-149l-210 509q-21 50 -94 216q-20 -3 -148 -3l-322 6v-728h-128zM310 831
q235 -3 405.5 -3t249.5 69.5t79 207t-71.5 207t-243.5 69.5h-419v-550z" />
    <glyph glyph-name="rcaron" unicode="&#x159;" horiz-adv-x="715" 
d="M147 0zM321 1279l-171 359h91l175 -295l176 295h89l-168 -359h-192zM149 0q-2 965 -2 1096h102l8 -216q59 98 150 160t190 62q41 0 88 -7l-9 -103q-36 6 -76 6q-139 0 -233.5 -109.5t-94.5 -259.5v-629h-123z" />
    <glyph glyph-name="Sacute" unicode="&#x15a;" horiz-adv-x="1247" 
d="M97 0zM590 1677l194 387h154l-273 -387h-75zM1021.5 92.5q-137.5 -116.5 -345 -116.5t-352 40.5t-225.5 88.5l48 91q208 -113 522 -113q171 0 263.5 88.5t92.5 250.5q0 114 -52 180q-56 71 -234 106l-240 48q-201 40 -301.5 126t-100.5 245q1 293 331 365q100 22 226 22
t246.5 -31t197.5 -70l-33 -98q-59 33 -174.5 62.5t-239.5 29.5q-211 0 -317 -70.5t-106 -222.5q0 -95 67 -152.5t198 -85.5l268 -55q195 -41 293 -125q106 -91 105.5 -289t-138 -314.5z" />
    <glyph glyph-name="sacute" unicode="&#x15b;" horiz-adv-x="950" 
d="M112 0zM446 1279l194 387h154l-273 -387h-75zM470 -24q-107 0 -200 25.5t-146 61.5l18 104q176 -92 312 -92t210.5 52.5t74.5 154.5q0 84 -48 136q-54 59 -220 101l-95 24q-140 34 -202 109.5t-62 181t101.5 194t274.5 88.5t325 -68l-28 -96q-170 64 -292.5 64
t-189.5 -53t-67 -135t44.5 -125t171.5 -74l98 -24q171 -42 238 -120t67 -214.5t-105.5 -215.5t-279.5 -79z" />
    <glyph glyph-name="Scircumflex" unicode="&#x15c;" horiz-adv-x="1247" 
d="M97 0zM362 1677l168 359h192l171 -359h-91l-175 295l-176 -295h-89zM1021.5 92.5q-137.5 -116.5 -345 -116.5t-352 40.5t-225.5 88.5l48 91q208 -113 522 -113q171 0 263.5 88.5t92.5 250.5q0 114 -52 180q-56 71 -234 106l-240 48q-201 40 -301.5 126t-100.5 245
q1 293 331 365q100 22 226 22t246.5 -31t197.5 -70l-33 -98q-59 33 -174.5 62.5t-239.5 29.5q-211 0 -317 -70.5t-106 -222.5q0 -95 67 -152.5t198 -85.5l268 -55q195 -41 293 -125q106 -91 105.5 -289t-138 -314.5z" />
    <glyph glyph-name="scircumflex" unicode="&#x15d;" horiz-adv-x="950" 
d="M112 0zM218 1279l168 359h192l171 -359h-91l-175 295l-176 -295h-89zM470 -24q-107 0 -200 25.5t-146 61.5l18 104q176 -92 312 -92t210.5 52.5t74.5 154.5q0 84 -48 136q-54 59 -220 101l-95 24q-140 34 -202 109.5t-62 181t101.5 194t274.5 88.5t325 -68l-28 -96
q-170 64 -292.5 64t-189.5 -53t-67 -135t44.5 -125t171.5 -74l98 -24q171 -42 238 -120t67 -214.5t-105.5 -215.5t-279.5 -79z" />
    <glyph glyph-name="Scedilla" unicode="&#x15e;" horiz-adv-x="1247" 
d="M97 0zM492 -431l107 421h59l-37 -421h-129zM1021.5 92.5q-137.5 -116.5 -345 -116.5t-352 40.5t-225.5 88.5l48 91q208 -113 522 -113q171 0 263.5 88.5t92.5 250.5q0 114 -52 180q-56 71 -234 106l-240 48q-201 40 -301.5 126t-100.5 245q1 293 331 365q100 22 226 22
t246.5 -31t197.5 -70l-33 -98q-59 33 -174.5 62.5t-239.5 29.5q-211 0 -317 -70.5t-106 -222.5q0 -95 67 -152.5t198 -85.5l268 -55q195 -41 293 -125q106 -91 105.5 -289t-138 -314.5z" />
    <glyph glyph-name="scedilla" unicode="&#x15f;" horiz-adv-x="950" 
d="M112 0zM347 -431l107 421h59l-37 -421h-129zM470 -24q-107 0 -200 25.5t-146 61.5l18 104q176 -92 312 -92t210.5 52.5t74.5 154.5q0 84 -48 136q-54 59 -220 101l-95 24q-140 34 -202 109.5t-62 181t101.5 194t274.5 88.5t325 -68l-28 -96q-170 64 -292.5 64t-189.5 -53
t-67 -135t44.5 -125t171.5 -74l98 -24q171 -42 238 -120t67 -214.5t-105.5 -215.5t-279.5 -79z" />
    <glyph glyph-name="Scaron" unicode="&#x160;" horiz-adv-x="1247" 
d="M97 0zM533 1677l-171 359h91l175 -295l176 295h89l-168 -359h-192zM1021.5 92.5q-137.5 -116.5 -345 -116.5t-352 40.5t-225.5 88.5l48 91q208 -113 522 -113q171 0 263.5 88.5t92.5 250.5q0 114 -52 180q-56 71 -234 106l-240 48q-201 40 -301.5 126t-100.5 245
q1 293 331 365q100 22 226 22t246.5 -31t197.5 -70l-33 -98q-59 33 -174.5 62.5t-239.5 29.5q-211 0 -317 -70.5t-106 -222.5q0 -95 67 -152.5t198 -85.5l268 -55q195 -41 293 -125q106 -91 105.5 -289t-138 -314.5z" />
    <glyph glyph-name="scaron" unicode="&#x161;" horiz-adv-x="950" 
d="M112 0zM389 1279l-171 359h91l175 -295l176 295h89l-168 -359h-192zM470 -24q-107 0 -200 25.5t-146 61.5l18 104q176 -92 312 -92t210.5 52.5t74.5 154.5q0 84 -48 136q-54 59 -220 101l-95 24q-140 34 -202 109.5t-62 181t101.5 194t274.5 88.5t325 -68l-28 -96
q-170 64 -292.5 64t-189.5 -53t-67 -135t44.5 -125t171.5 -74l98 -24q171 -42 238 -120t67 -214.5t-105.5 -215.5t-279.5 -79z" />
    <glyph glyph-name="Tcaron" unicode="&#x164;" horiz-adv-x="1082" 
d="M8 0zM447 1677l-171 359h91l175 -295l176 295h89l-168 -359h-192zM476 0v1378h-468v110h1066v-110h-468v-1378h-130z" />
    <glyph glyph-name="tcaron" unicode="&#x165;" horiz-adv-x="676" 
d="M35 0zM888 841l80 510h129v-41q-41 -178 -137 -469h-72zM465 -18q-140 0 -207.5 61t-67.5 200v762h-155l9 75l148 14l33 251l87 6v-255h320v-91h-320v-736q0 -116 38 -154.5t121 -38.5t167 21l5 -96q-96 -19 -178 -19z" />
    <glyph glyph-name="Utilde" unicode="&#x168;" horiz-adv-x="1408" 
d="M157 0zM419 1677q3 107 44.5 146.5t101 39.5t156.5 -48t117 -48t31 9t17 27q9 26 12 60h91q-4 -101 -39.5 -143.5t-90.5 -42.5t-160.5 51.5t-128.5 51.5q-53 0 -61 -103h-90zM707 83q416 0 416 415v990h128v-973q0 -247 -127 -389q-135 -150 -425 -150q-413 0 -512 321
q-30 97 -30 220v971h128v-991q0 -213 104.5 -313.5t317.5 -100.5z" />
    <glyph glyph-name="utilde" unicode="&#x169;" 
d="M123 0zM268 1279q3 107 44.5 146.5t101 39.5t156.5 -48t117 -48t31 9t17 27q9 26 12 60h91q-4 -101 -39.5 -143.5t-90.5 -42.5t-160.5 51.5t-128.5 51.5q-53 0 -61 -103h-90zM546 -24q-77 0 -150.5 19t-136.5 60q-136 89 -136 295v746h124v-749q1 -158 93 -218
q83 -54 215 -54q304 0 304 272v749h124v-746q-1 -240 -185 -326q-104 -48 -252 -48z" />
    <glyph glyph-name="Umacron" unicode="&#x16a;" horiz-adv-x="1408" 
d="M157 0zM395 1677v106h618v-106h-618zM707 83q416 0 416 415v990h128v-973q0 -247 -127 -389q-135 -150 -425 -150q-413 0 -512 321q-30 97 -30 220v971h128v-991q0 -213 104.5 -313.5t317.5 -100.5z" />
    <glyph glyph-name="umacron" unicode="&#x16b;" 
d="M123 0zM244 1279v106h618v-106h-618zM546 -24q-77 0 -150.5 19t-136.5 60q-136 89 -136 295v746h124v-749q1 -158 93 -218q83 -54 215 -54q304 0 304 272v749h124v-746q-1 -240 -185 -326q-104 -48 -252 -48z" />
    <glyph glyph-name="Ubreve" unicode="&#x16c;" horiz-adv-x="1408" 
d="M157 0zM868 1744q-68 -67 -166 -67t-164.5 66.5t-66.5 185.5h92q0 -86 36 -130t102 -44t103.5 44t37.5 130h94q0 -118 -68 -185zM707 83q416 0 416 415v990h128v-973q0 -247 -127 -389q-135 -150 -425 -150q-413 0 -512 321q-30 97 -30 220v971h128v-991
q0 -213 104.5 -313.5t317.5 -100.5z" />
    <glyph glyph-name="ubreve" unicode="&#x16d;" 
d="M123 0zM718 1346q-68 -67 -166 -67t-164.5 66.5t-66.5 185.5h92q0 -86 36 -130t102 -44t103.5 44t37.5 130h94q0 -118 -68 -185zM546 -24q-77 0 -150.5 19t-136.5 60q-136 89 -136 295v746h124v-749q1 -158 93 -218q83 -54 215 -54q304 0 304 272v749h124v-746
q-1 -240 -185 -326q-104 -48 -252 -48z" />
    <glyph glyph-name="Uring" unicode="&#x16e;" horiz-adv-x="1408" 
d="M157 0zM706 1748q38 0 65.5 28.5t27.5 78.5q-1 50 -28.5 78.5t-65.5 28.5t-65.5 -28.5t-27.5 -79t28 -78.5t66 -28zM833.5 1723.5q-53.5 -46.5 -127.5 -46.5t-129.5 47.5t-55.5 131.5t54 130.5t128.5 46.5t129 -47.5t54.5 -131.5t-53.5 -130.5zM707 83q416 0 416 415v990
h128v-973q0 -247 -127 -389q-135 -150 -425 -150q-413 0 -512 321q-30 97 -30 220v971h128v-991q0 -213 104.5 -313.5t317.5 -100.5z" />
    <glyph glyph-name="uring" unicode="&#x16f;" 
d="M123 0zM555 1350q38 0 65.5 28.5t27.5 78.5q-1 50 -28.5 78.5t-65.5 28.5t-65.5 -28.5t-27.5 -79t28 -78.5t66 -28zM682.5 1325.5q-53.5 -46.5 -127.5 -46.5t-129.5 47.5t-55.5 131.5t54 130.5t128.5 46.5t129 -47.5t54.5 -131.5t-53.5 -130.5zM546 -24q-77 0 -150.5 19
t-136.5 60q-136 89 -136 295v746h124v-749q1 -158 93 -218q83 -54 215 -54q304 0 304 272v749h124v-746q-1 -240 -185 -326q-104 -48 -252 -48z" />
    <glyph glyph-name="Uhungarumlaut" unicode="&#x170;" horiz-adv-x="1408" 
d="M157 0zM562 1677l176 318h120l-213 -318h-83zM759 1677l182 318h115l-209 -318h-88zM707 83q416 0 416 415v990h128v-973q0 -247 -127 -389q-135 -150 -425 -150q-413 0 -512 321q-30 97 -30 220v971h128v-991q0 -213 104.5 -313.5t317.5 -100.5z" />
    <glyph glyph-name="uhungarumlaut" unicode="&#x171;" 
d="M123 0zM410 1279l176 318h120l-213 -318h-83zM607 1279l182 318h115l-209 -318h-88zM546 -24q-77 0 -150.5 19t-136.5 60q-136 89 -136 295v746h124v-749q1 -158 93 -218q83 -54 215 -54q304 0 304 272v749h124v-746q-1 -240 -185 -326q-104 -48 -252 -48z" />
    <glyph glyph-name="Uogonek" unicode="&#x172;" horiz-adv-x="1408" 
d="M157 0zM781 -403q-74 -29 -148 -29t-126.5 48.5t-52.5 130.5q0 127 213 244h95q-104 -79 -155 -131.5t-51 -97.5t29.5 -69.5t61 -24.5t43.5 1q32 3 91 29v-101zM707 83q416 0 416 415v990h128v-973q0 -247 -127 -389q-135 -150 -425 -150q-413 0 -512 321q-30 97 -30 220
v971h128v-991q0 -213 104.5 -313.5t317.5 -100.5z" />
    <glyph glyph-name="uogonek" unicode="&#x173;" 
d="M123 0zM684 -407q-74 -29 -148 -29t-126.5 48.5t-52.5 130.5q0 127 213 244h95q-104 -79 -155 -131.5t-51 -97.5t29.5 -69.5t61 -24.5t43.5 1q32 3 91 29v-101zM546 -24q-77 0 -150.5 19t-136.5 60q-136 89 -136 295v746h124v-749q1 -158 93 -218q83 -54 215 -54
q304 0 304 272v749h124v-746q-1 -240 -185 -326q-104 -48 -252 -48z" />
    <glyph glyph-name="Wcircumflex" unicode="&#x174;" horiz-adv-x="1995" 
d="M2 0zM732 1677l168 359h192l171 -359h-91l-175 295l-176 -295h-89zM464 0l-462 1488h141l396 -1346l380 1306h168l371 -1305l395 1345h140l-461 -1488h-143l-383 1321l-400 -1321h-142z" />
    <glyph glyph-name="wcircumflex" unicode="&#x175;" horiz-adv-x="1557" 
d="M22 0zM513 1279l168 359h192l171 -359h-91l-175 295l-176 -295h-89zM328 0l-306 1096h130l253 -979q273 878 305 979h152q299 -976 302 -976l242 976h129l-301 -1096h-144q-3 -1 -141 461t-160 543q-22 -98 -169 -551.5t-148 -452.5h-144z" />
    <glyph glyph-name="Ycircumflex" unicode="&#x176;" horiz-adv-x="1166" 
d="M5 0zM318 1677l168 359h192l171 -359h-91l-175 295l-176 -295h-89zM501 0v589l-496 899h139l431 -785l445 785h141l-529 -895v-593h-131z" />
    <glyph glyph-name="ycircumflex" unicode="&#x177;" horiz-adv-x="981" 
d="M4 0zM220 1279l168 359h192l171 -359h-91l-175 295l-176 -295h-89zM4 -410l69 -3q126 0 189 43t112 168q6 17 31.5 86t39.5 109l-438 1103h130l373 -986l45 138q275 858 282 858q1 0 -1 -10h130q-438 -1231 -458 -1288q-69 -166 -162 -247t-248 -81q-42 0 -85 8z" />
    <glyph glyph-name="Ydieresis" unicode="&#x178;" horiz-adv-x="1166" 
d="M5 0zM326 1677v177h136v-177h-136zM702 1677v177h137v-177h-137zM501 0v589l-496 899h139l431 -785l445 785h141l-529 -895v-593h-131z" />
    <glyph glyph-name="Zacute" unicode="&#x179;" horiz-adv-x="1173" 
d="M97 0zM560 1677l194 387h154l-273 -387h-75zM97 0v111l826 1265h-796v112h964v-104l-832 -1271h840l-8 -113h-994z" />
    <glyph glyph-name="zacute" unicode="&#x17a;" horiz-adv-x="882" 
d="M89 0zM415 1279l194 387h154l-273 -387h-75zM89 0v104l579 893h-569v99h699v-117l-581 -886h599v-93h-727z" />
    <glyph glyph-name="Zdotaccent" unicode="&#x17b;" horiz-adv-x="1173" 
d="M97 0zM515 1677v168h167v-168h-167zM97 0v111l826 1265h-796v112h964v-104l-832 -1271h840l-8 -113h-994z" />
    <glyph glyph-name="zdotaccent" unicode="&#x17c;" horiz-adv-x="882" 
d="M89 0zM369 1279v168h167v-168h-167zM89 0v104l579 893h-569v99h699v-117l-581 -886h599v-93h-727z" />
    <glyph glyph-name="Zcaron" unicode="&#x17d;" horiz-adv-x="1173" 
d="M97 0zM503 1677l-171 359h91l175 -295l176 295h89l-168 -359h-192zM97 0v111l826 1265h-796v112h964v-104l-832 -1271h840l-8 -113h-994z" />
    <glyph glyph-name="zcaron" unicode="&#x17e;" horiz-adv-x="882" 
d="M89 0zM358 1279l-171 359h91l175 -295l176 295h89l-168 -359h-192zM89 0v104l579 893h-569v99h699v-117l-581 -886h599v-93h-727z" />
    <glyph glyph-name="florin" unicode="&#x192;" horiz-adv-x="943" 
d="M164 -352.5q-29 -6.5 -70.5 -6.5t-82.5 24l23 88q29 -13 62 -13q106 0 154 249l160 966h-168l9 91h181l28 185q40 263 164 329q54 28 115.5 28t125.5 -20l-7 -97q-51 20 -108 20t-100 -56t-57 -148l-37 -241h203l-10 -90h-211l-145 -872q-29 -173 -44 -220t-28.5 -78.5
t-28 -51.5t-34 -39.5t-42.5 -30t-52 -17z" />
    <glyph glyph-name="uni01C4" unicode="&#x1c4;" horiz-adv-x="2671" 
d="M182 0zM310 107h292q310 0 472.5 158.5t162.5 472.5q0 344 -179 498q-171 146 -485 146h-263v-1275zM182 0v1488h403q366 0 575 -174q220 -184 220 -560t-201 -565t-563 -189h-434zM1595 0zM2001 1677l-171 359h91l175 -295l176 295h89l-168 -359h-192zM1595 0v111
l826 1265h-796v112h964v-104l-832 -1271h840l-8 -113h-994z" />
    <glyph glyph-name="uni01C5" unicode="&#x1c5;" horiz-adv-x="2380" 
d="M182 0zM310 107h292q310 0 472.5 158.5t162.5 472.5q0 344 -179 498q-171 146 -485 146h-263v-1275zM182 0v1488h403q366 0 575 -174q220 -184 220 -560t-201 -565t-563 -189h-434zM1587 0zM1856 1279l-171 359h91l175 -295l176 295h89l-168 -359h-192zM1587 0v104
l579 893h-569v99h699v-117l-581 -886h599v-93h-727z" />
    <glyph glyph-name="uni01C6" unicode="&#x1c6;" horiz-adv-x="2065" 
d="M97 0zM561 -24q-218 0 -341 152.5t-123 412.5t126.5 417.5t333.5 157.5q102 0 204 -44t155 -137v586l120 11v-1532h-103l-18 165q-57 -93 -155 -141t-199 -48zM570 75q82 0 151.5 34t111.5 96q83 123 83 321q0 490 -360 490q-85 0 -150 -40q-64 -41 -102 -110
q-74 -135 -74 -319q0 -249 109 -377q81 -94 231 -95zM1272 0zM1541 1279l-171 359h91l175 -295l176 295h89l-168 -359h-192zM1272 0v104l579 893h-569v99h699v-117l-581 -886h599v-93h-727z" />
    <glyph glyph-name="uni01C7" unicode="&#x1c7;" horiz-adv-x="1510" 
d="M182 0zM182 0v1488h129v-1375h669l-6 -113h-792zM999 -138l-9 94h48q74 0 114 20q80 41 80 240v1272h133v-1185q0 -199 -10 -234.5t-21.5 -70.5t-29.5 -50.5t-44 -35.5q-27 -22 -62 -30q-84 -20 -187 -20h-12z" />
    <glyph glyph-name="uni01C8" unicode="&#x1c8;" horiz-adv-x="1406" 
d="M182 0zM182 0v1488h129v-1375h669l-6 -113h-792zM940 -550l-19 100h49q70 0 109 10.5t56.5 45t20.5 66.5t3 70v1354h125v-1343q0 -94 -12.5 -150t-47 -91.5t-89 -48.5t-146.5 -13h-49zM1159 1321v167h125v-167h-125z" />
    <glyph glyph-name="uni01C9" unicode="&#x1c9;" horiz-adv-x="936" 
d="M157 0zM423 -18q-139 0 -202.5 60.5t-63.5 200.5v1279l122 10v-1282q0 -99 36 -135q35 -36 113 -36t148 18l5 -96q-78 -19 -158 -19zM470 -550l-19 100h49q70 0 109 10.5t56.5 45t20.5 66.5t3 70v1354h125v-1343q0 -94 -12.5 -150t-47 -91.5t-89 -48.5t-146.5 -13h-49z
M689 1321v167h125v-167h-125z" />
    <glyph glyph-name="uni01CA" unicode="&#x1ca;" horiz-adv-x="2011" 
d="M182 0zM182 0v1488h149l819 -1255l53 -73q-7 308 -7 383v945h121v-1488h-152l-817 1253l-51 73q8 -225 8 -388v-938h-123zM1500 -138l-9 94h48q74 0 114 20q80 41 80 240v1272h133v-1185q0 -199 -10 -234.5t-21.5 -70.5t-29.5 -50.5t-44 -35.5q-27 -22 -62 -30
q-84 -20 -187 -20h-12z" />
    <glyph glyph-name="uni01CB" unicode="&#x1cb;" horiz-adv-x="1907" 
d="M182 0zM182 0v1488h149l819 -1255l53 -73q-7 308 -7 383v945h121v-1488h-152l-817 1253l-51 73q8 -225 8 -388v-938h-123zM1441 -550l-19 100h49q70 0 109 10.5t56.5 45t20.5 66.5t3 70v1354h125v-1343q0 -94 -12.5 -150t-47 -91.5t-89 -48.5t-146.5 -13h-49zM1660 1321
v167h125v-167h-125z" />
    <glyph glyph-name="uni01CC" unicode="&#x1cc;" horiz-adv-x="1560" 
d="M147 0zM147 0v1096h108l17 -169q59 88 158.5 138.5t214.5 50.5q189 0 278 -104t89 -332v-680h-125v736q-5 147 -63 213t-196 66t-233 -77t-119 -197q-4 -47 -4 -98v-643h-125zM1094 -550l-19 100h49q70 0 109 10.5t56.5 45t20.5 66.5t3 70v1354h125v-1343
q0 -94 -12.5 -150t-47 -91.5t-89 -48.5t-146.5 -13h-49zM1313 1321v167h125v-167h-125z" />
    <glyph glyph-name="uni01F1" unicode="&#x1f1;" horiz-adv-x="2671" 
d="M182 0zM310 107h292q310 0 472.5 158.5t162.5 472.5q0 344 -179 498q-171 146 -485 146h-263v-1275zM182 0v1488h403q366 0 575 -174q220 -184 220 -560t-201 -565t-563 -189h-434zM1595 0v111l826 1265h-796v112h964v-104l-832 -1271h840l-8 -113h-994z" />
    <glyph glyph-name="uni01F2" unicode="&#x1f2;" horiz-adv-x="2380" 
d="M182 0zM310 107h292q310 0 472.5 158.5t162.5 472.5q0 344 -179 498q-171 146 -485 146h-263v-1275zM182 0v1488h403q366 0 575 -174q220 -184 220 -560t-201 -565t-563 -189h-434zM1587 0v104l579 893h-569v99h699v-117l-581 -886h599v-93h-727z" />
    <glyph glyph-name="uni01F3" unicode="&#x1f3;" horiz-adv-x="2065" 
d="M97 0zM561 -24q-218 0 -341 152.5t-123 412.5t126.5 417.5t333.5 157.5q102 0 204 -44t155 -137v586l120 11v-1532h-103l-18 165q-57 -93 -155 -141t-199 -48zM570 75q82 0 151.5 34t111.5 96q83 123 83 321q0 490 -360 490q-85 0 -150 -40q-64 -41 -102 -110
q-74 -135 -74 -319q0 -249 109 -377q81 -94 231 -95zM1272 0v104l579 893h-569v99h699v-117l-581 -886h599v-93h-727z" />
    <glyph glyph-name="uni01F4" unicode="&#x1f4;" horiz-adv-x="1469" 
d="M118 0zM686 1677l194 387h154l-273 -387h-75zM1091.5 1q-114.5 -25 -277 -25t-298 59.5t-221.5 163.5q-177 214 -177 541q0 225 84 398.5t250.5 274.5t405.5 101t433 -115l-57 -103q-82 50 -185.5 80.5t-225 30.5t-235.5 -52q-115 -51 -186 -143q-144 -186 -144 -470
q0 -302 148 -476q154 -182 458 -183q157 0 346 75v476h-369l8 111h480v-656q-123 -63 -237.5 -88z" />
    <glyph glyph-name="uni01F5" unicode="&#x1f5;" horiz-adv-x="1173" 
d="M91 0zM525 1279l194 387h154l-273 -387h-75zM912 198q-131 -198 -359 -198q-98 0 -178.5 35t-132 91t-86.5 128q-65 134 -65 285q0 295 155 455q119 122 331 122q105 0 185.5 -41.5t149.5 -132.5l12 154h110v-1016q0 -228 -42 -330q-18 -44 -56 -98q-38 -55 -92 -86
q-129 -75 -327 -75h-201l-15 111h232q225 0 305 108q55 74 66 155q15 109 15 178.5t-2 85.5zM566 101q76 0 135 23.5t97 61.5q40 39 66 91q48 95 48 222v114q0 160 -78 276q-85 127 -268 127q-207 0 -295 -216q-47 -115 -47 -263q0 -215 106 -337q86 -98 236 -99z" />
    <glyph glyph-name="uni0200" unicode="&#x200;" horiz-adv-x="1276" 
d="M6 0zM495 1677l-221 333h93l198 -333h-70zM719 1677l-224 333h102l184 -333h-62zM6 0l581 1488h123l560 -1488h-132l-190 505h-617l-198 -505h-127zM380 599h522q-225 646 -255 760q-24 -88 -207 -592z" />
    <glyph glyph-name="uni0201" unicode="&#x201;" horiz-adv-x="1077" 
d="M99 0zM369 1279l-221 333h93l198 -333h-70zM593 1279l-224 333h102l184 -333h-62zM440 -24q-155 0 -248 78t-93 223q1 173 145 253q133 75 371 92q128 8 190 13v122q0 127 -58 193t-184 66q-172 0 -329 -86l-35 92q62 40 162 67t196 27q197 0 283 -84.5t86 -299.5v-732
h-97q-5 23 -14.5 91t-9.5 70q-129 -185 -365 -185zM223 275q0 -200 235 -200q114 0 213.5 75.5t130.5 209.5v187q-144 -12 -145 -12q-244 -22 -339 -80t-95 -180z" />
    <glyph glyph-name="uni0202" unicode="&#x202;" horiz-adv-x="1276" 
d="M6 0zM405 1677q0 110 68.5 171t162.5 61t164 -61.5t70 -170.5h-94q0 68 -41.5 106.5t-98.5 38.5t-98 -38t-41 -107h-92zM6 0l581 1488h123l560 -1488h-132l-190 505h-617l-198 -505h-127zM380 599h522q-225 646 -255 760q-24 -88 -207 -592z" />
    <glyph glyph-name="uni0203" unicode="&#x203;" horiz-adv-x="1077" 
d="M99 0zM280 1279q0 110 68.5 171t162.5 61t164 -61.5t70 -170.5h-94q0 68 -41.5 106.5t-98.5 38.5t-98 -38t-41 -107h-92zM440 -24q-155 0 -248 78t-93 223q1 173 145 253q133 75 371 92q128 8 190 13v122q0 127 -58 193t-184 66q-172 0 -329 -86l-35 92q62 40 162 67
t196 27q197 0 283 -84.5t86 -299.5v-732h-97q-5 23 -14.5 91t-9.5 70q-129 -185 -365 -185zM223 275q0 -200 235 -200q114 0 213.5 75.5t130.5 209.5v187q-144 -12 -145 -12q-244 -22 -339 -80t-95 -180z" />
    <glyph glyph-name="uni0204" unicode="&#x204;" horiz-adv-x="1142" 
d="M182 0zM462 1677l-221 333h93l198 -333h-70zM686 1677l-224 333h102l184 -333h-62zM182 0v1488h829l-5 -106h-696v-560h662v-109h-662v-606h718l-11 -107h-835z" />
    <glyph glyph-name="uni0205" unicode="&#x205;" horiz-adv-x="1093" 
d="M97 0zM401 1279l-221 333h93l198 -333h-70zM625 1279l-224 333h102l184 -333h-62zM992 608l-1 -75h-763q2 -211 102 -334.5t264 -123.5q107 0 186 25t165 71l21 -93q-166 -102 -384 -102t-351.5 152t-133.5 407.5t130.5 415.5t337.5 165q193 0 310 -138t117 -370z
M233 633h624q0 183 -79.5 282.5t-217.5 99.5t-224.5 -105.5t-102.5 -276.5z" />
    <glyph glyph-name="uni0206" unicode="&#x206;" horiz-adv-x="1142" 
d="M182 0zM373 1677q0 110 68.5 171t162.5 61t164 -61.5t70 -170.5h-94q0 68 -41.5 106.5t-98.5 38.5t-98 -38t-41 -107h-92zM182 0v1488h829l-5 -106h-696v-560h662v-109h-662v-606h718l-11 -107h-835z" />
    <glyph glyph-name="uni0207" unicode="&#x207;" horiz-adv-x="1093" 
d="M97 0zM312 1279q0 110 68.5 171t162.5 61t164 -61.5t70 -170.5h-94q0 68 -41.5 106.5t-98.5 38.5t-98 -38t-41 -107h-92zM992 608l-1 -75h-763q2 -211 102 -334.5t264 -123.5q107 0 186 25t165 71l21 -93q-166 -102 -384 -102t-351.5 152t-133.5 407.5t130.5 415.5
t337.5 165q193 0 310 -138t117 -370zM233 633h624q0 183 -79.5 282.5t-217.5 99.5t-224.5 -105.5t-102.5 -276.5z" />
    <glyph glyph-name="uni0208" unicode="&#x208;" horiz-adv-x="514" 
d="M0 0zM114 1677l-221 333h93l198 -333h-70zM338 1677l-224 333h102l184 -333h-62zM193 0v1488h128v-1488h-128z" />
    <glyph glyph-name="uni0209" unicode="&#x209;" horiz-adv-x="376" 
d="M0 0zM57 1279l-221 333h93l198 -333h-70zM281 1279l-224 333h102l184 -333h-62zM138 0v1096h125v-1096h-125z" />
    <glyph glyph-name="uni020A" unicode="&#x20a;" horiz-adv-x="514" 
d="M25 0zM25 1677q0 110 68.5 171t162.5 61t164 -61.5t70 -170.5h-94q0 68 -41.5 106.5t-98.5 38.5t-98 -38t-41 -107h-92zM193 0v1488h128v-1488h-128z" />
    <glyph glyph-name="uni020B" unicode="&#x20b;" horiz-adv-x="376" 
d="M0 0zM-32 1279q0 110 68.5 171t162.5 61t164 -61.5t70 -170.5h-94q0 68 -41.5 106.5t-98.5 38.5t-98 -38t-41 -107h-92zM138 0v1096h125v-1096h-125z" />
    <glyph glyph-name="uni020C" unicode="&#x20c;" horiz-adv-x="1627" 
d="M118 0zM671 1677l-221 333h93l198 -333h-70zM895 1677l-224 333h102l184 -333h-62zM815 83q274 0 413 177t139 489t-140 485t-412 173t-414.5 -172.5t-142.5 -489.5q0 -417 246 -579q126 -84 311 -83zM815 -24q-226 0 -385 100q-312 195 -312 668q0 354 182.5 562
t512.5 208t513 -209.5t183 -561.5q1 -335 -175 -547q-86 -104 -219 -162t-300 -58z" />
    <glyph glyph-name="uni020D" unicode="&#x20d;" horiz-adv-x="1190" 
d="M97 0zM452 1279l-221 333h93l198 -333h-70zM676 1279l-224 333h102l184 -333h-62zM601 75q121 -1 203 63q158 121 157 407q0 212 -90 341t-274 129q-121 -1 -205 -65q-162 -124 -162 -408q0 -205 95.5 -336t275.5 -131zM862 52q-115 -76 -267 -76t-265.5 75t-173 203.5
t-59.5 270.5t34.5 246.5t98.5 180.5q137 164 370 164q154 0 267 -76q226 -151 226 -493q0 -343 -231 -495z" />
    <glyph glyph-name="uni020E" unicode="&#x20e;" horiz-adv-x="1627" 
d="M118 0zM581 1677q0 110 68.5 171t162.5 61t164 -61.5t70 -170.5h-94q0 68 -41.5 106.5t-98.5 38.5t-98 -38t-41 -107h-92zM815 83q274 0 413 177t139 489t-140 485t-412 173t-414.5 -172.5t-142.5 -489.5q0 -417 246 -579q126 -84 311 -83zM815 -24q-226 0 -385 100
q-312 195 -312 668q0 354 182.5 562t512.5 208t513 -209.5t183 -561.5q1 -335 -175 -547q-86 -104 -219 -162t-300 -58z" />
    <glyph glyph-name="uni020F" unicode="&#x20f;" horiz-adv-x="1190" 
d="M97 0zM363 1279q0 110 68.5 171t162.5 61t164 -61.5t70 -170.5h-94q0 68 -41.5 106.5t-98.5 38.5t-98 -38t-41 -107h-92zM601 75q121 -1 203 63q158 121 157 407q0 212 -90 341t-274 129q-121 -1 -205 -65q-162 -124 -162 -408q0 -205 95.5 -336t275.5 -131zM862 52
q-115 -76 -267 -76t-265.5 75t-173 203.5t-59.5 270.5t34.5 246.5t98.5 180.5q137 164 370 164q154 0 267 -76q226 -151 226 -493q0 -343 -231 -495z" />
    <glyph glyph-name="uni0210" unicode="&#x210;" horiz-adv-x="1333" 
d="M182 0zM565 1677l-221 333h93l198 -333h-70zM789 1677l-224 333h102l184 -333h-62zM182 0v1488h424q256 0 368 -42q102 -38 146 -112q51 -84 51 -220.5t-67 -234.5t-205 -133q60 -123 90 -187l244 -559h-149l-210 509q-21 50 -94 216q-20 -3 -148 -3l-322 6v-728h-128z
M310 831q235 -3 405.5 -3t249.5 69.5t79 207t-71.5 207t-243.5 69.5h-419v-550z" />
    <glyph glyph-name="uni0211" unicode="&#x211;" horiz-adv-x="715" 
d="M52 0zM273 1279l-221 333h93l198 -333h-70zM497 1279l-224 333h102l184 -333h-62zM149 0q-2 965 -2 1096h102l8 -216q59 98 150 160t190 62q41 0 88 -7l-9 -103q-36 6 -76 6q-139 0 -233.5 -109.5t-94.5 -259.5v-629h-123z" />
    <glyph glyph-name="uni0212" unicode="&#x212;" horiz-adv-x="1333" 
d="M182 0zM475 1677q0 110 68.5 171t162.5 61t164 -61.5t70 -170.5h-94q0 68 -41.5 106.5t-98.5 38.5t-98 -38t-41 -107h-92zM182 0v1488h424q256 0 368 -42q102 -38 146 -112q51 -84 51 -220.5t-67 -234.5t-205 -133q60 -123 90 -187l244 -559h-149l-210 509
q-21 50 -94 216q-20 -3 -148 -3l-322 6v-728h-128zM310 831q235 -3 405.5 -3t249.5 69.5t79 207t-71.5 207t-243.5 69.5h-419v-550z" />
    <glyph glyph-name="uni0213" unicode="&#x213;" horiz-adv-x="715" 
d="M147 0zM183 1279q0 110 68.5 171t162.5 61t164 -61.5t70 -170.5h-94q0 68 -41.5 106.5t-98.5 38.5t-98 -38t-41 -107h-92zM149 0q-2 965 -2 1096h102l8 -216q59 98 150 160t190 62q41 0 88 -7l-9 -103q-36 6 -76 6q-139 0 -233.5 -109.5t-94.5 -259.5v-629h-123z" />
    <glyph glyph-name="uni0214" unicode="&#x214;" horiz-adv-x="1408" 
d="M157 0zM561 1677l-221 333h93l198 -333h-70zM785 1677l-224 333h102l184 -333h-62zM707 83q416 0 416 415v990h128v-973q0 -247 -127 -389q-135 -150 -425 -150q-413 0 -512 321q-30 97 -30 220v971h128v-991q0 -213 104.5 -313.5t317.5 -100.5z" />
    <glyph glyph-name="uni0215" unicode="&#x215;" 
d="M123 0zM410 1279l-221 333h93l198 -333h-70zM634 1279l-224 333h102l184 -333h-62zM546 -24q-77 0 -150.5 19t-136.5 60q-136 89 -136 295v746h124v-749q1 -158 93 -218q83 -54 215 -54q304 0 304 272v749h124v-746q-1 -240 -185 -326q-104 -48 -252 -48z" />
    <glyph glyph-name="uni0216" unicode="&#x216;" horiz-adv-x="1408" 
d="M157 0zM471 1677q0 110 68.5 171t162.5 61t164 -61.5t70 -170.5h-94q0 68 -41.5 106.5t-98.5 38.5t-98 -38t-41 -107h-92zM707 83q416 0 416 415v990h128v-973q0 -247 -127 -389q-135 -150 -425 -150q-413 0 -512 321q-30 97 -30 220v971h128v-991q0 -213 104.5 -313.5
t317.5 -100.5z" />
    <glyph glyph-name="uni0217" unicode="&#x217;" 
d="M123 0zM321 1279q0 110 68.5 171t162.5 61t164 -61.5t70 -170.5h-94q0 68 -41.5 106.5t-98.5 38.5t-98 -38t-41 -107h-92zM546 -24q-77 0 -150.5 19t-136.5 60q-136 89 -136 295v746h124v-749q1 -158 93 -218q83 -54 215 -54q304 0 304 272v749h124v-746
q-1 -240 -185 -326q-104 -48 -252 -48z" />
    <glyph glyph-name="Scommaaccent" unicode="&#x218;" horiz-adv-x="1247" 
d="M97 0zM508 -690h77l163 503h-141zM1021.5 92.5q-137.5 -116.5 -345 -116.5t-352 40.5t-225.5 88.5l48 91q208 -113 522 -113q171 0 263.5 88.5t92.5 250.5q0 114 -52 180q-56 71 -234 106l-240 48q-201 40 -301.5 126t-100.5 245q1 293 331 365q100 22 226 22t246.5 -31
t197.5 -70l-33 -98q-59 33 -174.5 62.5t-239.5 29.5q-211 0 -317 -70.5t-106 -222.5q0 -95 67 -152.5t198 -85.5l268 -55q195 -41 293 -125q106 -91 105.5 -289t-138 -314.5z" />
    <glyph glyph-name="scommaaccent" unicode="&#x219;" horiz-adv-x="950" 
d="M112 0zM364 -690h77l163 503h-141zM470 -24q-107 0 -200 25.5t-146 61.5l18 104q176 -92 312 -92t210.5 52.5t74.5 154.5q0 84 -48 136q-54 59 -220 101l-95 24q-140 34 -202 109.5t-62 181t101.5 194t274.5 88.5t325 -68l-28 -96q-170 64 -292.5 64t-189.5 -53t-67 -135
t44.5 -125t171.5 -74l98 -24q171 -42 238 -120t67 -214.5t-105.5 -215.5t-279.5 -79z" />
    <glyph glyph-name="uni021A" unicode="&#x21a;" horiz-adv-x="1082" 
d="M8 0zM421 -666h77l163 503h-141zM476 0v1378h-468v110h1066v-110h-468v-1378h-130z" />
    <glyph glyph-name="uni021B" unicode="&#x21b;" horiz-adv-x="676" 
d="M35 0zM219 -684h77l163 503h-141zM465 -18q-140 0 -207.5 61t-67.5 200v762h-155l9 75l148 14l33 251l87 6v-255h320v-91h-320v-736q0 -116 38 -154.5t121 -38.5t167 21l5 -96q-96 -19 -178 -19z" />
    <glyph glyph-name="uni0237" unicode="&#x237;" horiz-adv-x="406" 
d="M-63 -594l-29 121h59q100 -1 134 25q14 10 23.5 18.5t16 27.5t9.5 31q2 12 4 39q2 45 3 95v1341h137v-1400q0 -93 -12 -147.5t-46.5 -90t-90 -48t-150.5 -12.5h-58z" />
    <glyph glyph-name="circumflex" unicode="&#x2c6;" horiz-adv-x="812" 
d="M136 1310l168 359h192l171 -359h-91l-175 295l-176 -295h-89z" />
    <glyph glyph-name="caron" unicode="&#x2c7;" horiz-adv-x="812" 
d="M307 1310l-171 359h91l175 -295l176 295h89l-168 -359h-192z" />
    <glyph glyph-name="breve" unicode="&#x2d8;" horiz-adv-x="774" 
d="M556 1423q-68 -67 -166 -67t-164.5 66.5t-66.5 185.5h92q0 -86 36 -130t102 -44t103.5 44t37.5 130h94q0 -118 -68 -185z" />
    <glyph glyph-name="dotaccent" unicode="&#x2d9;" horiz-adv-x="352" 
d="M106 1331v185h153v-185h-153z" />
    <glyph glyph-name="ring" unicode="&#x2da;" horiz-adv-x="621" 
d="M314 1388q38 0 65.5 28.5t27.5 78.5q-1 50 -28.5 78.5t-65.5 28.5t-65.5 -28.5t-27.5 -79t28 -78.5t66 -28zM441.5 1363.5q-53.5 -46.5 -127.5 -46.5t-129.5 47.5t-55.5 131.5t54 130.5t128.5 46.5t129 -47.5t54.5 -131.5t-53.5 -130.5z" />
    <glyph glyph-name="ogonek" unicode="&#x2db;" horiz-adv-x="596" 
d="M447 -408q-74 -29 -148 -29t-126.5 48.5t-52.5 130.5q0 127 213 244h95q-104 -79 -155 -131.5t-51 -97.5t29.5 -69.5t61 -24.5t43.5 1q32 3 91 29v-101z" />
    <glyph glyph-name="tilde" unicode="&#x2dc;" horiz-adv-x="930" 
d="M150 1336q3 107 44.5 146.5t101 39.5t156.5 -48t117 -48t31 9t17 27q9 26 12 60h91q-4 -101 -39.5 -143.5t-90.5 -42.5t-160.5 51.5t-128.5 51.5q-53 0 -61 -103h-90z" />
    <glyph glyph-name="hungarumlaut" unicode="&#x2dd;" horiz-adv-x="741" 
d="M118 1328l176 318h120l-213 -318h-83zM315 1328l182 318h115l-209 -318h-88z" />
    <glyph glyph-name="uni0307" unicode="&#x307;" horiz-adv-x="364" 
d="M115 1357v168h167v-168h-167z" />
    <glyph glyph-name="uni030F" unicode="&#x30f;" horiz-adv-x="797" 
d="M379 1300l-221 333h93l198 -333h-70zM603 1300l-224 333h102l184 -333h-62z" />
    <glyph glyph-name="uni0311" unicode="&#x311;" horiz-adv-x="792" 
d="M167 1345q0 110 68.5 171t162.5 61t164 -61.5t70 -170.5h-94q0 68 -41.5 106.5t-98.5 38.5t-98 -38t-41 -107h-92z" />
    <glyph glyph-name="uni0326" unicode="&#x326;" horiz-adv-x="552" 
d="M170 -671l87 486h139l-132 -486h-94z" />
    <glyph glyph-name="Wgrave" unicode="&#x1e80;" horiz-adv-x="1995" 
d="M2 0zM961 1677l-276 387h158l191 -387h-73zM464 0l-462 1488h141l396 -1346l380 1306h168l371 -1305l395 1345h140l-461 -1488h-143l-383 1321l-400 -1321h-142z" />
    <glyph glyph-name="wgrave" unicode="&#x1e81;" horiz-adv-x="1557" 
d="M22 0zM742 1279l-276 387h158l191 -387h-73zM328 0l-306 1096h130l253 -979q273 878 305 979h152q299 -976 302 -976l242 976h129l-301 -1096h-144q-3 -1 -141 461t-160 543q-22 -98 -169 -551.5t-148 -452.5h-144z" />
    <glyph glyph-name="Wacute" unicode="&#x1e82;" horiz-adv-x="1995" 
d="M2 0zM960 1677l194 387h154l-273 -387h-75zM464 0l-462 1488h141l396 -1346l380 1306h168l371 -1305l395 1345h140l-461 -1488h-143l-383 1321l-400 -1321h-142z" />
    <glyph glyph-name="wacute" unicode="&#x1e83;" horiz-adv-x="1557" 
d="M22 0zM741 1279l194 387h154l-273 -387h-75zM328 0l-306 1096h130l253 -979q273 878 305 979h152q299 -976 302 -976l242 976h129l-301 -1096h-144q-3 -1 -141 461t-160 543q-22 -98 -169 -551.5t-148 -452.5h-144z" />
    <glyph glyph-name="Wdieresis" unicode="&#x1e84;" horiz-adv-x="1995" 
d="M2 0zM741 1677v177h136v-177h-136zM1117 1677v177h137v-177h-137zM464 0l-462 1488h141l396 -1346l380 1306h168l371 -1305l395 1345h140l-461 -1488h-143l-383 1321l-400 -1321h-142z" />
    <glyph glyph-name="wdieresis" unicode="&#x1e85;" horiz-adv-x="1557" 
d="M22 0zM522 1279v177h136v-177h-136zM898 1279v177h137v-177h-137zM328 0l-306 1096h130l253 -979q273 878 305 979h152q299 -976 302 -976l242 976h129l-301 -1096h-144q-3 -1 -141 461t-160 543q-22 -98 -169 -551.5t-148 -452.5h-144z" />
    <glyph glyph-name="Ygrave" unicode="&#x1ef2;" horiz-adv-x="1166" 
d="M5 0zM546 1677l-276 387h158l191 -387h-73zM501 0v589l-496 899h139l431 -785l445 785h141l-529 -895v-593h-131z" />
    <glyph glyph-name="ygrave" unicode="&#x1ef3;" horiz-adv-x="981" 
d="M4 0zM448 1279l-276 387h158l191 -387h-73zM4 -410l69 -3q126 0 189 43t112 168q6 17 31.5 86t39.5 109l-438 1103h130l373 -986l45 138q275 858 282 858q1 0 -1 -10h130q-438 -1231 -458 -1288q-69 -166 -162 -247t-248 -81q-42 0 -85 8z" />
    <glyph glyph-name="endash" unicode="&#x2013;" horiz-adv-x="1024" 
d="M93 531v110h838v-110h-838z" />
    <glyph glyph-name="emdash" unicode="&#x2014;" horiz-adv-x="2048" 
d="M93 531v110h1862v-110h-1862z" />
    <glyph glyph-name="quoteleft" unicode="&#x2018;" horiz-adv-x="541" 
d="M104 1161l240 458h76l-162 -458h-154z" />
    <glyph glyph-name="quoteright" unicode="&#x2019;" horiz-adv-x="532" 
d="M166 1161l86 458h130l-123 -458h-93z" />
    <glyph glyph-name="quotesinglbase" unicode="&#x201a;" horiz-adv-x="480" 
d="M130 -240l85 458h134l-122 -458h-97z" />
    <glyph glyph-name="quotedblleft" unicode="&#x201c;" horiz-adv-x="854" 
d="M104 1161l237 458h79l-161 -458h-155zM419 1161l234 458h79l-159 -458h-154z" />
    <glyph glyph-name="quotedblright" unicode="&#x201d;" horiz-adv-x="723" 
d="M113 1161l87 458h135l-129 -458h-93zM394 1161l87 458h138l-127 -458h-98z" />
    <glyph glyph-name="quotedblbase" unicode="&#x201e;" horiz-adv-x="734" 
d="M111 -240l81 458h129l-117 -458h-93zM409 -240l78 458h134l-123 -458h-89z" />
    <glyph glyph-name="dagger" unicode="&#x2020;" horiz-adv-x="861" 
d="M378 1v967h-289v79h289v441h99v-441h295v-79h-290v-967h-104z" />
    <glyph glyph-name="daggerdbl" unicode="&#x2021;" horiz-adv-x="879" 
d="M491 474v-473h-104v473h-289v79h289v415h-289v79h289v441h99v-441h295v-79h-290v-415h290v-79h-290z" />
    <glyph glyph-name="bullet" unicode="&#x2022;" horiz-adv-x="808" 
d="M594.5 610q-68.5 -75 -191.5 -75t-190.5 73t-67.5 175.5t69 179t190.5 76.5t190 -75t68.5 -177t-68.5 -177z" />
    <glyph glyph-name="ellipsis" unicode="&#x2026;" horiz-adv-x="1551" 
d="M183 0zM1406 23q-27 -31 -81 -31t-81 31t-27 72.5t27 72.5t81 31t81 -31t27 -72.5t-27 -72.5zM889 23q-27 -31 -81 -31t-81 31t-27 72.5t27 72.5t81 31t81 -31t27 -72.5t-27 -72.5zM372 23q-27 -31 -81 -31t-81 31t-27 72.5t27 72.5t81 31t81 -31t27 -72.5t-27 -72.5z
" />
    <glyph glyph-name="perthousand" unicode="&#x2030;" horiz-adv-x="2562" 
d="M1088 107q89 -107 253.5 -107t253 107.5t88.5 278.5t-87.5 277t-254.5 106t-254.5 -106t-87.5 -277.5t89 -278.5zM1342 685q136 -1 188 -97q46 -84 46 -204q0 -116 -48 -202q-55 -98 -186 -99q-150 1 -206 135q-30 71 -30 166q0 301 236 301zM139 826q89 -107 253.5 -107
t253 107.5t88.5 278.5t-87.5 277t-254.5 106t-254.5 -106t-87.5 -277.5t89 -278.5zM393 1404q137 0 189 -96q46 -84 45 -205q-1 -117 -49 -203q-55 -98 -185 -98q-150 0 -206 134q-30 71 -30 167q0 301 236 301zM1894 107q89 -107 253.5 -107t253 107.5t88.5 278.5
t-87.5 277t-254.5 106t-254.5 -106t-87.5 -277.5t89 -278.5zM2148 685q136 -1 188 -97q46 -84 46 -204q0 -116 -48 -202q-55 -98 -186 -99q-150 1 -206 135q-30 71 -30 166q0 301 236 301zM392 0l815 1488h127l-822 -1488h-120z" />
    <glyph glyph-name="guilsinglleft" unicode="&#x2039;" horiz-adv-x="636" 
d="M372 187l-222 406l227 400h111l-218 -400l213 -406h-111z" />
    <glyph glyph-name="guilsinglright" unicode="&#x203a;" horiz-adv-x="632" 
d="M155 187l218 408l-212 398h111l221 -398l-226 -408h-112z" />
    <glyph glyph-name="fraction" unicode="&#x2044;" horiz-adv-x="1115" 
d="M69 0l865 1597h99l-864 -1597h-100z" />
    <glyph glyph-name="uni2074" unicode="&#x2074;" horiz-adv-x="705" 
d="M455 684v224h-321v84q15 27 151 284l156 291h100v-573h90l8 -86h-100v-224h-84zM218 994h236q0 397 2 439z" />
    <glyph glyph-name="Euro" unicode="&#x20ac;" horiz-adv-x="1286" 
d="M-1 829v107h136q49 264 229 421t442.5 157t433.5 -102l-61 -99q-156 94 -365 94t-349.5 -128.5t-185.5 -342.5h662v-107h-677q-4 -56 -4 -98t4 -85h676v-108h-659q43 -202 175 -324q139 -130 376 -130q157 0 350 87l26 -103q-146 -91 -412 -91t-438 151t-221 410h-137
v108h122q-4 45 -4 94.5t3 88.5h-122z" />
    <glyph glyph-name="trademark" unicode="&#x2122;" horiz-adv-x="1808" 
d="M871 571v942h130l291 -755l305 755h126v-942h-93v867l-306 -761h-78l-288 765v-871h-87zM361 571v870h-262v72h625v-72h-273v-870h-90z" />
    <glyph glyph-name="product" unicode="&#x220f;" horiz-adv-x="1240" 
d="M105 0v1488h1030v-1488h-128v1376h-774v-1376h-128z" />
    <glyph glyph-name="infinity" unicode="&#x221e;" horiz-adv-x="1811" 
d="M1585.5 913.5q92.5 -103.5 92.5 -277t-100 -275.5t-255 -102q-111 0 -210 68t-204 208q-100 -132 -199.5 -204t-216.5 -72q-165 0 -261.5 114.5t-96.5 274.5t102.5 264.5t236.5 104.5t233 -72.5t202 -209.5q64 87 121 145t135 97.5t161 39.5q167 0 259.5 -103.5zM495 361
q167 0 353 275q-175 277 -361 277q-114 0 -177 -80t-63 -192t66 -196t182 -84zM1321 913q-164 0 -349 -275q102 -140 183.5 -208.5t164.5 -68.5q82 -1 139 41q110 80 110 238q0 112 -65 192.5t-183 80.5z" />
    <glyph glyph-name="integral" unicode="&#x222b;" horiz-adv-x="943" 
d="M164 -352.5q-29 -6.5 -70.5 -6.5t-82.5 24l23 88q29 -13 62 -13q112 0 154 249l210 1242q36 209 108 285q69 72 184 72q49 0 113 -20l-7 -97q-51 20 -108 20t-100 -56t-57 -148l-200 -1203q-29 -173 -44 -220t-28.5 -78.5t-28 -51.5t-34 -39.5t-42.5 -30t-52 -17z" />
    <glyph glyph-name="approxequal" unicode="&#x2248;" horiz-adv-x="1315" 
d="M140 367q19 154 94 236.5t195 82.5q81 0 173 -51q47 -26 102.5 -63t70.5 -45.5t39 -21.5q45 -24 80 -24q127 0 162 203l105 27q-20 -163 -77.5 -240t-176.5 -77t-291 116q-118 84 -189 84t-114.5 -49t-66.5 -147zM137 758q18 152 94.5 235t196.5 83q61 0 118 -26.5
t136.5 -81t124.5 -76t85 -21.5q127 0 160 202l106 30q-19 -161 -78.5 -238t-180.5 -77t-262 99.5t-213 99.5q-140 0 -178 -191z" />
    <glyph glyph-name="notequal" unicode="&#x2260;" horiz-adv-x="1135" 
d="M337 50l-90 18l117 310h-258l-6 101h320l166 344h-480l-8 107h538l143 313l92 -12l-116 -300h277l7 -108h-333l-171 -344h499l5 -101h-555z" />
    <glyph glyph-name="lessequal" unicode="&#x2264;" horiz-adv-x="1164" 
d="M1022 237l-898 499v73l898 529v-124l-783 -434l783 -418v-125zM84 12v119l972 -1v-118h-972z" />
    <glyph glyph-name="greaterequal" unicode="&#x2265;" horiz-adv-x="1164" 
d="M144 240v125l791 409l-786 443v124l902 -532v-68zM109 12v118l964 1v-119h-964z" />
    <glyph glyph-name="lozenge" unicode="&#x25ca;" horiz-adv-x="1103" 
d="M496 -49l-414 840l421 844h102l414 -841l-423 -843h-100zM557 1502l-373 -709q40 -79 164.5 -330.5t195.5 -385.5q98 186 372 714q-14 28 -151.5 298t-207.5 413z" />
    <glyph glyph-name="foundryicon" horiz-adv-x="1351" 
d="M675 1338l145 -445h468l-379 -275l145 -445l-379 275l-378 -275l145 445l-379 275h468z" />
    <glyph glyph-name="Tcommaaccent" horiz-adv-x="1082" 
d="M8 0zM476 0v1378h-468v110h1066v-110h-468v-1378h-130z" />
    <glyph glyph-name="commaaccentcomb" horiz-adv-x="554" 
d="M164 -648h77l163 503h-141z" />
    <glyph glyph-name="middot" horiz-adv-x="468" 
d="M150 561h168v198h-168v-198z" />
    <glyph glyph-name="tcommaaccent" horiz-adv-x="676" 
d="M35 0zM465 -18q-140 0 -207.5 61t-67.5 200v762h-155l9 75l148 14l33 251l87 6v-255h320v-91h-320v-736q0 -116 38 -154.5t121 -38.5t167 21l5 -96q-96 -19 -178 -19z" />
    <glyph glyph-name=".ttfautohint" horiz-adv-x="676" 
d="M0 0z" />
    </font>
</defs>
</svg>
